<svg xmlns="http://www.w3.org/2000/svg" xmlns:xlink="http://www.w3.org/1999/xlink" viewBox="0 0 360 172.66"><defs><style>.cls-1{fill:url(#무제_그라디언트_11);}.cls-2{opacity:0.75;}.cls-10,.cls-15,.cls-18,.cls-3,.cls-6{opacity:0.2;}.cls-4{fill:#ce7c24;}.cls-5{fill:#b26110;}.cls-6{fill:#89490e;}.cls-7{fill:url(#linear-gradient);}.cls-8,.cls-9{opacity:0.95;}.cls-8{fill:url(#linear-gradient-2);}.cls-9{fill:url(#linear-gradient-3);}.cls-10{fill:url(#linear-gradient-4);}.cls-11{fill:#683a2c;}.cls-12{fill:#89432b;}.cls-13{fill:#99573d;}.cls-14{fill:#8e4a32;}.cls-15{fill:url(#linear-gradient-5);}.cls-16{fill:#f7d6a1;}.cls-17{fill:#f2c691;opacity:0.7;}.cls-18{fill:url(#linear-gradient-6);}.cls-19{opacity:0.9;}.cls-20,.cls-25{opacity:0.1;}.cls-20{fill:url(#linear-gradient-7);}.cls-21{fill:#277543;}.cls-22{fill:#1e6837;}.cls-23{fill:#e0cd5a;}.cls-24{fill:#d1b83d;}.cls-25{fill:url(#linear-gradient-8);}</style><linearGradient id="무제_그라디언트_11" x1="180" y1="171.21" x2="180" y2="95.08" gradientUnits="userSpaceOnUse"><stop offset="0.04" stop-color="#ffd996"/><stop offset="0.37" stop-color="#feda99"/><stop offset="0.63" stop-color="#f9dca3"/><stop offset="0.87" stop-color="#f1e0b4"/><stop offset="1" stop-color="#ece3c0"/></linearGradient><linearGradient id="linear-gradient" x1="180.04" x2="180.04" y2="189.21" gradientUnits="userSpaceOnUse"><stop offset="0" stop-color="#eec17c"/><stop offset="1" stop-color="#e8e3bb"/></linearGradient><linearGradient id="linear-gradient-2" x1="180.12" y1="46.27" x2="180.12" y2="141.74" gradientUnits="userSpaceOnUse"><stop offset="0" stop-color="#dd925d"/><stop offset="1" stop-color="#e2b384"/></linearGradient><linearGradient id="linear-gradient-3" x1="179.97" y1="80.67" x2="179.97" y2="161.72" gradientUnits="userSpaceOnUse"><stop offset="0" stop-color="#cd6831"/><stop offset="1" stop-color="#dcae7f"/></linearGradient><linearGradient id="linear-gradient-4" x1="458.66" y1="-396.43" x2="533.66" y2="-396.43" gradientTransform="translate(825.87 -256.13) rotate(180)" gradientUnits="userSpaceOnUse"><stop offset="0.44" stop-color="#fff" stop-opacity="0"/><stop offset="1"/></linearGradient><linearGradient id="linear-gradient-5" x1="329.54" y1="164.86" x2="318.44" y2="167.78" gradientTransform="matrix(1, 0, 0, 1, 0, 0)" xlink:href="#linear-gradient-4"/><linearGradient id="linear-gradient-6" x1="323.35" y1="165.84" x2="310.59" y2="169.2" gradientTransform="matrix(1, 0, 0, 1, 0, 0)" xlink:href="#linear-gradient-4"/><linearGradient id="linear-gradient-7" x1="728.3" y1="-415.89" x2="763.44" y2="-415.89" xlink:href="#linear-gradient-4"/><linearGradient id="linear-gradient-8" x1="696.81" y1="-389.74" x2="725.8" y2="-389.74" xlink:href="#linear-gradient-4"/></defs><g id="레이어_2" data-name="레이어 2"><g id="레이어_1-2" data-name="레이어 1"><rect class="cls-1" y="93.66" width="360" height="79"/><g class="cls-2"><polygon class="cls-3" points="124.25 48.96 124.25 47.49 124.25 41.67 120.57 41.67 120.57 40.27 120.57 34.45 82.08 34.45 82.08 40.27 82.08 41.67 78.39 41.67 78.39 47.49 78.39 48.96 73.46 48.96 73.46 54.78 73.46 56.25 129.19 56.25 129.19 54.78 129.19 48.96 124.25 48.96"/><rect class="cls-4" x="72.85" y="48.96" width="55.73" height="7.29"/><rect class="cls-5" x="72.85" y="54.78" width="55.73" height="1.47"/><rect class="cls-4" x="77.78" y="41.67" width="45.86" height="7.29"/><rect class="cls-5" x="77.78" y="47.49" width="45.86" height="1.47"/><rect class="cls-4" x="81.47" y="34.45" width="38.48" height="7.29"/><rect class="cls-5" x="81.47" y="40.27" width="38.48" height="1.47"/><polygon class="cls-3" points="110.63 27.51 110.63 26.04 110.63 20.23 106.94 20.23 106.94 18.82 106.94 13 95.7 13 95.7 18.82 95.7 20.23 92.02 20.23 92.02 26.04 92.02 27.51 87.08 27.51 87.08 33.33 87.08 34.8 115.56 34.8 115.56 33.33 115.56 27.51 110.63 27.51"/><rect class="cls-4" x="86.47" y="27.51" width="28.48" height="7.29"/><rect class="cls-5" x="86.47" y="33.33" width="28.48" height="1.47"/><rect class="cls-4" x="91.41" y="20.22" width="18.62" height="7.29"/><rect class="cls-5" x="91.41" y="26.04" width="18.62" height="1.47"/><rect class="cls-4" x="95.1" y="13" width="11.24" height="7.29"/><rect class="cls-5" x="95.1" y="18.81" width="11.24" height="1.47"/><polygon class="cls-6" points="123.97 48.96 123.97 41.67 120.28 41.67 120.28 34.45 115.28 34.45 115.28 27.51 110.35 27.51 110.35 20.23 106.66 20.23 106.66 13 100.82 13 100.82 56.25 128.9 56.25 128.9 48.96 123.97 48.96"/></g><g class="cls-2"><polygon class="cls-3" points="81.36 42.19 81.36 40.72 81.36 34.92 77.68 34.92 77.68 33.51 77.68 27.71 39.26 27.71 39.26 33.51 39.26 34.92 35.58 34.92 35.58 40.72 35.58 42.19 30.66 42.19 30.66 48 30.66 49.47 86.28 49.47 86.28 48 86.28 42.19 81.36 42.19"/><rect class="cls-4" x="30.05" y="42.19" width="55.63" height="7.27"/><rect class="cls-5" x="30.05" y="48" width="55.63" height="1.47"/><rect class="cls-4" x="34.98" y="34.92" width="45.78" height="7.27"/><rect class="cls-5" x="34.98" y="40.72" width="45.78" height="1.47"/><rect class="cls-4" x="38.66" y="27.71" width="38.41" height="7.27"/><rect class="cls-5" x="38.66" y="33.51" width="38.41" height="1.47"/><polygon class="cls-3" points="67.76 20.78 67.76 19.31 67.76 13.51 64.08 13.51 64.08 12.1 64.08 6.3 52.86 6.3 52.86 12.1 52.86 13.51 49.18 13.51 49.18 19.31 49.18 20.78 44.26 20.78 44.26 26.59 44.26 28.05 72.69 28.05 72.69 26.59 72.69 20.78 67.76 20.78"/><rect class="cls-4" x="43.65" y="20.78" width="28.43" height="7.27"/><rect class="cls-5" x="43.65" y="26.59" width="28.43" height="1.47"/><rect class="cls-4" x="48.57" y="13.51" width="18.58" height="7.27"/><rect class="cls-5" x="48.57" y="19.31" width="18.58" height="1.47"/><rect class="cls-4" x="52.25" y="6.3" width="11.22" height="7.27"/><rect class="cls-5" x="52.25" y="12.1" width="11.22" height="1.47"/><polygon class="cls-6" points="81.08 42.19 81.08 34.92 77.39 34.92 77.39 27.71 72.4 27.71 72.4 20.78 67.48 20.78 67.48 13.51 63.8 13.51 63.8 6.3 57.97 6.3 57.97 49.47 86 49.47 86 42.19 81.08 42.19"/></g><path class="cls-7" d="M359.54,30.28C344.65,10.5,330-1.35,321.6.12c-17.92,3.16-22.07,16.64-38.21,40.3s-38.62,21.23-67.3,8.6-43-17.35-71.7,0-59.06-11.62-83-15.5C35.25,29.27,7.9,42.27.55,53.63v23.8h359Z"/><path class="cls-8" d="M359.7,75.17c-15.79,2.73-31.93,0-45-3.88a240.88,240.88,0,0,0-28.21-11.67h0a238.08,238.08,0,0,0-70.42-12.93h0l-2,0h-.41l-2,0h0A238,238,0,0,0,141.2,59.62h0A240.88,240.88,0,0,0,113,71.29c-15.06,4.47-34.15,7.4-52.09,2.28C26.93,63.86,3.23,49,.55,47.29v59.14H359.7Z"/><path class="cls-9" d="M339.67,83.72c-84.2-32.14-108.74-2.14-164.87-2.14S104.29,55.39,66.21,68.72C2.6,91,.62,87.17.24,87.2v21.4H359.7V87.2C349.77,87.23,339.67,83.72,339.67,83.72Z"/><path class="cls-10" d="M267.23,140.3c0-2.52,14.22-4.57,31.77-4.57s31.77,2.05,31.77,4.57-14.23,4.57-31.77,4.57S267.23,142.83,267.23,140.3Z"/><path class="cls-3" d="M315.25,109.19v-.08c.42-9.93-4.63-10-4.63-10h0a22,22,0,0,0-2.11-4.51c-.22-.36-.42-.7-.63-1l-.3-.46-.3-.47-.39-.54a3,3,0,0,0-.2-.29l-.43-.56-.16-.2c-.15-.19-.31-.37-.46-.54l-.11-.12-.5-.52-.08-.07q-.27-.26-.54-.48l0,0c-2.1-1.71-4.49-2.14-8.1-1.63h0s-6.76.07-8.93,8.41c-2.75,0-7.47.64-10.28,4.28,0,0-9.94,1.57-11-11.46,0,0-5.42-6.26-10.84,1,0,0-8.14,2.43-6.33,6.78s9.94-1.57,9.94-1.57,2.78,12.92,15.19,14.25a6.4,6.4,0,0,0,1.62,3h0l.35.37.11.11.28.26.16.14.28.23.19.15c.09.08.19.15.3.23l.21.14.33.22.24.15.38.22.24.13.46.23a1.51,1.51,0,0,0,.22.11l.74.33h0l.76.29.13,0v6.42s-.09,2.17,1.36,3c0,3.11-.07,10.81,0,12.66,0,0-3.79.47-4.52,3.28h5.56l-.06.26,6.62-.5-.53-15.65c1.11-.82.67-3.09.67-3.09l1-5.1a81.79,81.79,0,0,0,8.85-.21,7.68,7.68,0,0,0,1.36,2.52s2.79,2.79,2.44,5.75a1.93,1.93,0,0,0,.8,1.42c0,3.58-.05,9.7,0,11.32,0,0-3.79.47-4.52,3.28h6.31c0,.13-.05.26-.07.39l6.57-1-1.7-15.41a6.18,6.18,0,0,0-.16-1.46l0-.32h0a20.8,20.8,0,0,0-1.56-4c-2.88-5.81,3.36-4.53,1.34-12.89a14.59,14.59,0,0,0,.19-6.25c1.51.64,3.89,2.68,3.48,9.16a1,1,0,0,0-.37.78,1.09,1.09,0,0,0,2.17,0A1.06,1.06,0,0,0,315.25,109.19Zm-30.65,30.1.71-15.06a5.51,5.51,0,0,0,0-2l.47-2.4v2.4a4.29,4.29,0,0,0,.73,2.49c.19,2.65.83,11.18,1.07,13.14A7.27,7.27,0,0,0,284.6,139.29Zm22.16.88.68-14.48c0-.13,0-.26.06-.42a2,2,0,0,0,1,1.2c.54,3.54,1.46,9.59,1.79,11.19A6.49,6.49,0,0,0,306.76,140.17Z"/><path class="cls-11" d="M307.3,123.84s1.72,11.52,2.18,13.82c0,0-3.67,1-4,3.89l6.57-1-1.89-17.19Z"/><path class="cls-12" d="M299,109.65s1.6,7.89,4.43,10.19c0,0,3.19,2.36,3.31,5.34,0,0,.3,1.93,3.06,1.53,0,0,2.06-.79-1.15-7.29s5-4.12.25-16.3Z"/><path class="cls-11" d="M285.69,123.87s.84,11.61,1.14,13.94c0,0-3.74.75-4.25,3.61l6.63-.5-.6-17.27Z"/><path class="cls-12" d="M285,110.24v11.94s-.13,3.16,2.45,3.38,1.87-3.38,1.87-3.38l2.11-10.81Z"/><path class="cls-13" d="M307.71,94.63c-3.58-6.06-6.2-7.79-12.23-6.95h0s-6.76.07-8.94,8.41h0c-2.75,0-7.47.64-10.28,4.28,0,0-9.94,1.57-11-11.46,0,0-5.43-6.26-10.85,1,0,0-8.13,2.43-6.32,6.78S258,95.15,258,95.15s2.78,12.92,15.18,14.25c0,0,1.08,7.29,15.18,7.64s19.34-.52,20.78-7S311.5,101.06,307.71,94.63Z"/><path class="cls-12" d="M314.46,109.19v-.08c.42-9.93-4.63-10-4.63-10L309,100s5.25.08,4.67,9.46a1,1,0,0,0-.38.78,1.09,1.09,0,0,0,2.17,0A1,1,0,0,0,314.46,109.19Z"/><path class="cls-11" d="M281.6,123.9s-.1,11.64,0,14c0,0-3.79.47-4.52,3.28h6.65l.81-17.26Z"/><path class="cls-14" d="M286.43,112.58a14.3,14.3,0,0,1-6,1.23h-.2v8.38s-.13,3.16,2.45,3.38,1.87-3.38,1.87-3.38Z"/><path class="cls-11" d="M303.8,123.9s-.1,11.64,0,14c0,0-3.79.47-4.52,3.28h6.65l.81-17.26Z"/><path class="cls-14" d="M297.76,108.67s.35,8,2.79,10.72c0,0,2.79,2.79,2.44,5.75,0,0,0,2,2.79,2,0,0,2.16-.48,0-7.37s5.57-3.35,2.78-16.08Z"/><path class="cls-12" d="M307.71,94.63c-1.64-2.77-3.07-4.63-4.73-5.76a22.81,22.81,0,0,1-7.19,13.76c-5.8,5.36-13.2,8.29-21,9.77,1.82,2.06,5.64,4.45,13.56,4.64,14.1.35,19.34-.52,20.78-7S311.5,101.06,307.71,94.63Z"/><path d="M254.39,89.94l-.58.2c3.76,1.92,3.56,5.13,3.56,5.13l.64-.12A6.09,6.09,0,0,0,254.39,89.94Z"/><path d="M258,94.81l.05.34c5.87-1.74,7.23-5.21,7.23-5.21v-1C264.85,92.2,258,94.81,258,94.81Z"/><path class="cls-13" d="M259.42,88.05s.77-4.29,2.47-4.29,2.31.74,1.23,2.52S259.42,88.05,259.42,88.05Z"/><polygon class="cls-15" points="309.02 169.05 319.9 169.05 324.5 167.57 312.94 167.57 309.02 169.05"/><path class="cls-16" d="M309,169.05H319.9s.39-3.89-5.39-4S309,169.05,309,169.05Z"/><path class="cls-17" d="M314.51,165H314a11.86,11.86,0,0,1,3,4.05h2.91S320.29,165.16,314.51,165Z"/><polygon class="cls-18" points="299.76 170.66 312.26 170.66 317.55 168.96 304.26 168.96 299.76 170.66"/><path class="cls-16" d="M299.76,170.66h12.5s.45-4.47-6.2-4.65S299.76,170.66,299.76,170.66Z"/><path class="cls-17" d="M306.06,166h-.56a13.53,13.53,0,0,1,3.41,4.65h3.35S312.71,166.19,306.06,166Z"/><g class="cls-19"><path class="cls-20" d="M43.75,159.76c0-1.23,6.66-2.23,14.88-2.23s14.89,1,14.89,2.23S66.85,162,58.63,162,43.75,161,43.75,159.76Z"/><path class="cls-3" d="M74.86,139.63V128.16h0a3.79,3.79,0,0,0-7.58,0h0v9.49l-2.83,2.09V116.85h0a5.52,5.52,0,0,0-11,0h0v12.84l-2.9-2.14v-9.49h0a3.79,3.79,0,1,0-7.57,0h0V130h0a3.79,3.79,0,0,0,1.49,2.49h0l9,6.62,0,0v21H64.43V149.2l8.9-6.6h0a3.76,3.76,0,0,0,1.49-2.49h0Z"/><path class="cls-21" d="M43.94,132.5a3.79,3.79,0,0,1,4.51-6.09h0L57.4,133l-4.52,6.11-8.94-6.62Z"/><path class="cls-22" d="M43.94,132.5a3.8,3.8,0,0,1-.79-5.3l12,8.88-2.26,3-8.94-6.63Z"/><path class="cls-21" d="M42.42,118.06a3.79,3.79,0,1,1,7.58,0h0V130h-7.6V118.06Z"/><path class="cls-22" d="M42.42,118.06a3.79,3.79,0,0,1,3.78-3.79V130H42.41V118.06Z"/><polyline class="cls-23" points="46.16 117.37 46.94 117.37 46.24 115.93 46.23 115.93 45.54 117.37 46.32 117.37"/><polygon class="cls-24" points="46.24 115.93 46.24 115.93 46.24 117.37 46.94 117.37 46.24 115.93"/><polyline class="cls-23" points="46.16 121.59 46.94 121.59 46.24 120.15 46.23 120.15 45.54 121.59 46.32 121.59"/><polygon class="cls-24" points="46.24 120.15 46.24 120.15 46.24 121.59 46.94 121.59 46.24 120.15"/><polyline class="cls-23" points="46.16 125.81 46.94 125.81 46.24 124.37 46.23 124.37 45.54 125.81 46.32 125.81"/><polygon class="cls-24" points="46.24 124.37 46.24 124.37 46.24 125.81 46.94 125.81 46.24 124.37"/><polyline class="cls-23" points="46.16 130.03 46.94 130.03 46.24 128.59 46.23 128.59 45.54 130.03 46.32 130.03"/><polygon class="cls-24" points="46.24 128.59 46.24 128.59 46.24 130.03 46.94 130.03 46.24 128.59"/><polyline class="cls-23" points="49.64 132.73 50.05 132.06 48.45 131.92 48.45 131.93 49.33 133.27 49.73 132.59"/><polygon class="cls-24" points="48.45 131.92 48.45 131.93 49.68 132.66 50.05 132.06 48.45 131.92"/><polyline class="cls-23" points="52.9 134.71 53.3 134.04 51.71 133.9 51.71 133.91 52.58 135.25 52.98 134.57"/><polygon class="cls-24" points="51.71 133.9 51.71 133.91 52.94 134.65 53.3 134.04 51.71 133.9"/><path class="cls-21" d="M72.86,142.59a3.79,3.79,0,1,0-4.51-6.08h0l-8.94,6.62,4.52,6.11,9-6.63Z"/><path class="cls-22" d="M72.86,142.59a3.78,3.78,0,0,0,.79-5.29l-12,8.87,2.26,3.05,8.94-6.62Z"/><path class="cls-21" d="M74.38,128.16a3.79,3.79,0,1,0-7.57,0h0V140.1h7.6V128.16Z"/><path class="cls-22" d="M74.38,128.16a3.79,3.79,0,0,0-3.78-3.79V140.1h3.79V128.16Z"/><polyline class="cls-23" points="70.64 127.46 69.86 127.46 70.56 126.03 70.57 126.03 71.27 127.46 70.48 127.46"/><polygon class="cls-24" points="70.56 126.03 70.57 126.03 70.57 127.46 69.86 127.46 70.56 126.03"/><polyline class="cls-23" points="70.64 131.69 69.86 131.69 70.56 130.25 70.57 130.25 71.27 131.69 70.48 131.69"/><polygon class="cls-24" points="70.56 130.25 70.57 130.25 70.57 131.69 69.86 131.69 70.56 130.25"/><polyline class="cls-23" points="70.64 135.91 69.86 135.91 70.56 134.47 70.57 134.47 71.27 135.91 70.48 135.91"/><polygon class="cls-24" points="70.56 134.47 70.57 134.47 70.57 135.91 69.86 135.91 70.56 134.47"/><polyline class="cls-23" points="70.64 140.13 69.86 140.13 70.56 138.69 70.57 138.69 71.27 140.13 70.48 140.13"/><polygon class="cls-24" points="70.56 138.69 70.57 138.69 70.57 140.13 69.86 140.13 70.56 138.69"/><polyline class="cls-23" points="67.16 142.83 66.75 142.16 68.35 142.02 68.35 142.03 67.48 143.36 67.08 142.69"/><polygon class="cls-24" points="68.35 142.02 68.35 142.02 67.12 142.76 66.75 142.16 68.35 142.02"/><polyline class="cls-23" points="63.9 144.81 63.5 144.14 65.09 144 65.09 144.01 64.22 145.34 63.82 144.67"/><polygon class="cls-24" points="65.09 144 65.09 144 63.86 144.74 63.5 144.14 65.09 144"/><path class="cls-21" d="M63.94,116.85a5.51,5.51,0,0,0-11,0h0v43.23H64V116.85Z"/><path class="cls-22" d="M63.94,116.85a5.51,5.51,0,0,0-5.5-5.51v48.74H64V116.85Z"/><polyline class="cls-23" points="58.35 114.79 59.13 114.79 58.44 113.35 58.42 113.35 57.73 114.79 58.51 114.79"/><polygon class="cls-24" points="58.44 113.35 58.43 113.35 58.43 114.79 59.13 114.79 58.44 113.35"/><polyline class="cls-23" points="58.35 119.11 59.13 119.11 58.44 117.67 58.42 117.67 57.73 119.11 58.51 119.11"/><polygon class="cls-24" points="58.44 117.67 58.43 117.67 58.43 119.11 59.13 119.11 58.44 117.67"/><polyline class="cls-23" points="58.35 123.43 59.13 123.43 58.44 121.99 58.42 121.99 57.73 123.43 58.51 123.43"/><polygon class="cls-24" points="58.44 121.99 58.43 121.99 58.43 123.43 59.13 123.43 58.44 121.99"/><polyline class="cls-23" points="58.35 127.76 59.13 127.76 58.44 126.32 58.42 126.32 57.73 127.76 58.51 127.76"/><polygon class="cls-24" points="58.44 126.32 58.43 126.32 58.43 127.76 59.13 127.76 58.44 126.32"/><polyline class="cls-23" points="58.35 132.08 59.13 132.08 58.44 130.64 58.42 130.64 57.73 132.08 58.51 132.08"/><polygon class="cls-24" points="58.44 130.64 58.43 130.64 58.43 132.08 59.13 132.08 58.44 130.64"/><polyline class="cls-23" points="58.35 136.4 59.13 136.4 58.44 134.96 58.42 134.96 57.73 136.4 58.51 136.4"/><polygon class="cls-24" points="58.44 134.96 58.43 134.96 58.43 136.4 59.13 136.4 58.44 134.96"/><polyline class="cls-23" points="58.35 140.72 59.13 140.72 58.44 139.29 58.42 139.29 57.73 140.72 58.51 140.72"/><polygon class="cls-24" points="58.44 139.29 58.43 139.29 58.43 140.72 59.13 140.72 58.44 139.29"/><polyline class="cls-23" points="58.35 145.05 59.13 145.05 58.44 143.61 58.42 143.61 57.73 145.05 58.51 145.05"/><polygon class="cls-24" points="58.44 143.61 58.43 143.61 58.43 145.05 59.13 145.05 58.44 143.61"/><polyline class="cls-23" points="58.35 149.37 59.13 149.37 58.44 147.93 58.42 147.93 57.73 149.37 58.51 149.37"/><polygon class="cls-24" points="58.44 147.93 58.43 147.93 58.43 149.37 59.13 149.37 58.44 147.93"/><polyline class="cls-23" points="58.35 153.69 59.13 153.69 58.44 152.26 58.42 152.26 57.73 153.69 58.51 153.69"/><polygon class="cls-24" points="58.44 152.26 58.43 152.26 58.43 153.69 59.13 153.69 58.44 152.26"/><polyline class="cls-23" points="58.35 158.02 59.13 158.02 58.44 156.58 58.42 156.58 57.73 158.02 58.51 158.02"/><polygon class="cls-24" points="58.44 156.58 58.43 156.58 58.43 158.02 59.13 158.02 58.44 156.58"/></g><g class="cls-19"><path class="cls-25" d="M84.65,133.61c0-1,5.5-1.84,12.28-1.84s12.29.82,12.29,1.84-5.5,1.84-12.29,1.84S84.65,134.62,84.65,133.61Z"/><path class="cls-3" d="M110.32,117a.38.38,0,0,0,0-.15v-9.32h0a3.13,3.13,0,1,0-6.25,0h0v7.83l-2.34,1.73V98.2h0a4.55,4.55,0,0,0-9.1,0h0v10.59L90.2,107V99.19h0a3.13,3.13,0,0,0-6.25,0h0v9.86h0a3.12,3.12,0,0,0,1.24,2.06h0l7.38,5.46,0,0v17.31h9.12v-9l7.36-5.44h0a3.05,3.05,0,0,0,1.23-2h0Z"/><path class="cls-21" d="M84.81,111.11a3.13,3.13,0,0,1,3.72-5h0l7.38,5.46-3.73,5-7.38-5.46Z"/><path class="cls-22" d="M84.81,111.11a3.13,3.13,0,0,1-.65-4.37l9.89,7.32-1.86,2.52-7.38-5.47Z"/><path class="cls-21" d="M83.56,99.19a3.13,3.13,0,0,1,6.25,0h0v9.86H83.55V99.19Z"/><path class="cls-22" d="M83.56,99.19a3.12,3.12,0,0,1,3.12-3.12v13H83.55V99.19Z"/><polyline class="cls-23" points="86.64 98.62 87.29 98.62 86.71 97.43 86.7 97.43 86.13 98.62 86.77 98.62"/><polygon class="cls-24" points="86.71 97.43 86.7 97.43 86.7 98.62 87.29 98.62 86.71 97.43"/><polyline class="cls-23" points="86.64 102.11 87.29 102.11 86.71 100.92 86.7 100.92 86.13 102.11 86.77 102.11"/><polygon class="cls-24" points="86.71 100.92 86.7 100.92 86.7 102.11 87.29 102.11 86.71 100.92"/><polyline class="cls-23" points="86.64 105.59 87.29 105.59 86.71 104.4 86.7 104.4 86.13 105.59 86.77 105.59"/><polygon class="cls-24" points="86.71 104.4 86.7 104.4 86.7 105.59 87.29 105.59 86.71 104.4"/><polyline class="cls-23" points="86.64 109.08 87.29 109.08 86.71 107.89 86.7 107.89 86.13 109.08 86.77 109.08"/><polygon class="cls-24" points="86.71 107.89 86.7 107.89 86.7 109.08 87.29 109.08 86.71 107.89"/><polyline class="cls-23" points="89.52 111.3 89.85 110.75 88.53 110.63 88.53 110.64 89.25 111.74 89.58 111.19"/><polygon class="cls-24" points="88.53 110.63 88.53 110.64 89.55 111.25 89.85 110.75 88.53 110.63"/><polyline class="cls-23" points="92.2 112.94 92.54 112.38 91.22 112.27 91.22 112.28 91.94 113.38 92.27 112.82"/><polygon class="cls-24" points="91.22 112.27 91.22 112.27 92.24 112.89 92.54 112.38 91.22 112.27"/><path class="cls-21" d="M108.68,119.44a3.12,3.12,0,1,0-3.72-5h0l-7.38,5.47,3.73,5,7.38-5.47Z"/><path class="cls-22" d="M108.67,119.44a3.13,3.13,0,0,0,.66-4.37l-9.89,7.33,1.86,2.51,7.38-5.46Z"/><path class="cls-21" d="M109.93,107.53a3.13,3.13,0,1,0-6.25,0h0v9.86h6.27v-9.86Z"/><path class="cls-22" d="M109.93,107.53a3.13,3.13,0,0,0-3.12-3.13v13h3.13v-9.86Z"/><polyline class="cls-23" points="106.84 106.96 106.2 106.96 106.78 105.77 106.78 105.77 107.36 106.96 106.72 106.96"/><polygon class="cls-24" points="106.78 105.77 106.78 105.77 106.78 106.96 106.2 106.96 106.78 105.77"/><polyline class="cls-23" points="106.84 110.44 106.2 110.44 106.78 109.25 106.78 109.25 107.36 110.44 106.72 110.44"/><polygon class="cls-24" points="106.78 109.25 106.78 109.25 106.78 110.44 106.2 110.44 106.78 109.25"/><polyline class="cls-23" points="106.84 113.93 106.2 113.93 106.78 112.74 106.78 112.74 107.36 113.93 106.72 113.93"/><polygon class="cls-24" points="106.78 112.74 106.78 112.74 106.78 113.93 106.2 113.93 106.78 112.74"/><polyline class="cls-23" points="106.84 117.41 106.2 117.41 106.78 116.22 106.78 116.22 107.36 117.41 106.72 117.41"/><polygon class="cls-24" points="106.78 116.22 106.78 116.22 106.78 117.41 106.2 117.41 106.78 116.22"/><polyline class="cls-23" points="103.97 119.64 103.64 119.08 104.95 118.97 104.96 118.97 104.23 120.08 103.9 119.52"/><polygon class="cls-24" points="104.95 118.97 104.96 118.97 103.94 119.58 103.64 119.08 104.95 118.97"/><polyline class="cls-23" points="101.28 121.27 100.95 120.72 102.27 120.6 102.27 120.61 101.54 121.71 101.21 121.16"/><polygon class="cls-24" points="102.27 120.6 102.27 120.61 101.25 121.22 100.95 120.72 102.27 120.6"/><path class="cls-21" d="M101.32,98.2a4.55,4.55,0,0,0-9.1,0h0v35.67h9.13V98.2Z"/><path class="cls-22" d="M101.32,98.2a4.55,4.55,0,0,0-4.55-4.55v40.22h4.56V98.2Z"/><polyline class="cls-23" points="96.7 96.49 97.35 96.49 96.77 95.3 96.76 95.3 96.19 96.49 96.83 96.49"/><polygon class="cls-24" points="96.77 95.3 96.77 95.3 96.77 96.49 97.35 96.49 96.77 95.3"/><polyline class="cls-23" points="96.7 100.06 97.35 100.06 96.77 98.87 96.76 98.87 96.19 100.06 96.83 100.06"/><polygon class="cls-24" points="96.77 98.87 96.77 98.87 96.77 100.06 97.35 100.06 96.77 98.87"/><polyline class="cls-23" points="96.7 103.63 97.35 103.63 96.77 102.44 96.76 102.44 96.19 103.63 96.83 103.63"/><polygon class="cls-24" points="96.77 102.44 96.77 102.44 96.77 103.63 97.35 103.63 96.77 102.44"/><polyline class="cls-23" points="96.7 107.2 97.35 107.2 96.77 106.01 96.76 106.01 96.19 107.2 96.83 107.2"/><polygon class="cls-24" points="96.77 106.01 96.77 106.01 96.77 107.2 97.35 107.2 96.77 106.01"/><polyline class="cls-23" points="96.7 110.76 97.35 110.76 96.77 109.58 96.76 109.58 96.19 110.76 96.83 110.76"/><polygon class="cls-24" points="96.77 109.58 96.77 109.58 96.77 110.76 97.35 110.76 96.77 109.58"/><polyline class="cls-23" points="96.7 114.33 97.35 114.33 96.77 113.14 96.76 113.14 96.19 114.33 96.83 114.33"/><polygon class="cls-24" points="96.77 113.14 96.77 113.14 96.77 114.33 97.35 114.33 96.77 113.14"/><polyline class="cls-23" points="96.7 117.9 97.35 117.9 96.77 116.71 96.76 116.71 96.19 117.9 96.83 117.9"/><polygon class="cls-24" points="96.77 116.71 96.77 116.71 96.77 117.9 97.35 117.9 96.77 116.71"/><polyline class="cls-23" points="96.7 121.47 97.35 121.47 96.77 120.28 96.76 120.28 96.19 121.47 96.83 121.47"/><polygon class="cls-24" points="96.77 120.28 96.77 120.28 96.77 121.47 97.35 121.47 96.77 120.28"/><polyline class="cls-23" points="96.7 125.03 97.35 125.03 96.77 123.85 96.76 123.85 96.19 125.03 96.83 125.03"/><polygon class="cls-24" points="96.77 123.85 96.77 123.85 96.77 125.03 97.35 125.03 96.77 123.85"/><polyline class="cls-23" points="96.7 128.6 97.35 128.6 96.77 127.42 96.76 127.42 96.19 128.6 96.83 128.6"/><polygon class="cls-24" points="96.77 127.42 96.77 127.42 96.77 128.6 97.35 128.6 96.77 127.42"/><polyline class="cls-23" points="96.7 132.17 97.35 132.17 96.77 130.98 96.76 130.98 96.19 132.17 96.83 132.17"/><polygon class="cls-24" points="96.77 130.98 96.77 130.98 96.77 132.17 97.35 132.17 96.77 130.98"/></g></g></g></svg>