<?xml version="1.0" encoding="utf-8"?>
<!-- Generator: Adobe Illustrator 25.0.0, SVG Export Plug-In . SVG Version: 6.00 Build 0)  -->
<svg version="1.1" id="Bold" xmlns="http://www.w3.org/2000/svg" xmlns:xlink="http://www.w3.org/1999/xlink" x="0px" y="0px"
	 viewBox="0 0 512 512" style="enable-background:new 0 0 512 512;" xml:space="preserve">
<style type="text/css">
	.st0{fill:#E8E6FF;}
	.st1{fill:#376AC4;}
</style>
<path class="st0" d="M416,512H96c-53,0-96-43-96-96V96C0,43,43,0,96,0h320c53,0,96,43,96,96v320C512,469,469,512,416,512z"/>
<path class="st1" d="M299.6,170.5H323v-40.7c-4-0.6-17.9-1.8-34-1.8c-33.7,0-56.8,21.2-56.8,60.1V224H195v45.5h37.2V384l45.6,0
	V269.5h35.7l5.7-45.5h-41.4v-31.3C277.8,179.5,281.3,170.5,299.6,170.5L299.6,170.5z"/>
</svg>
