<?xml version="1.0" encoding="utf-8"?>
<!-- Generator: Adobe Illustrator 25.0.0, SVG Export Plug-In . SVG Version: 6.00 Build 0)  -->
<svg version="1.1" id="Bold" xmlns="http://www.w3.org/2000/svg" xmlns:xlink="http://www.w3.org/1999/xlink" x="0px" y="0px"
	 viewBox="0 0 512 512" style="enable-background:new 0 0 512 512;" xml:space="preserve">
<style type="text/css">
	.st0{fill:#FFF9DD;}
	.st1{fill:#FFD200;}
</style>
<path class="st0" d="M416,512H96c-53,0-96-43-96-96V96C0,43,43,0,96,0h320c53,0,96,43,96,96v320C512,469,469,512,416,512z"/>
<path class="st1" d="M228.9,227.3l-7.4,20.8h14.8L228.9,227.3z"/>
<path class="st1" d="M256,138.7c-70.7,0-128,44.9-128,100.3c0,35.8,24,67.2,60,84.9c-13.9,47.5-14.2,47.7-11.9,49.1
	c2.9,1.7,6.8,0,57.1-35.3c7.4,1,15,1.6,22.7,1.6c70.7,0,128-44.9,128-100.3S326.7,138.7,256,138.7L256,138.7z M192.6,266.9
	c0,3.9-3.3,7-7.4,7s-7.4-3.1-7.4-7v-43.6h-11.5c-4,0-7.2-3.2-7.2-7.2c0-4,3.2-7.2,7.2-7.2h37.8c4,0,7.2,3.2,7.2,7.2
	c0,4-3.2,7.2-7.2,7.2h-11.5L192.6,266.9L192.6,266.9z M250,273.8c-7.7,0-6.3-6-9.8-12.8h-22.5c-3.5,6.7-2.1,12.8-9.8,12.8
	c-7.4,0-8.7-4.5-6.4-11.4l17.7-46.2c1.2-3.5,5-7.1,9.8-7.2c4.8,0.1,8.6,3.7,9.9,7.2C250.4,252.4,267.1,273.8,250,273.8L250,273.8z
	 M292,272.8h-23.7c-12.4,0-4.8-16.7-7.1-56.5c0-4,3.4-7.3,7.5-7.3s7.5,3.3,7.5,7.3v43.1H292c3.9,0,7.1,3,7.1,6.7
	C299.1,269.8,295.9,272.8,292,272.8L292,272.8z M349.8,267.3c-0.3,1.9-1.3,3.7-2.9,4.8c-10.2,7.7-17.7-14.7-27.7-24.2l-2.6,2.5v16
	c0,4-3.3,7.3-7.4,7.3c-4.1,0-7.4-3.3-7.4-7.3v-50.2c0-4,3.3-7.3,7.4-7.3s7.4,3.3,7.4,7.3v15.8c13.6-10.2,21.2-28.5,29.8-19.9
	c8.4,8.4-9,15.7-16.3,25.8C347.3,261.6,350.6,262.1,349.8,267.3z"/>
</svg>
