<?xml version="1.0" encoding="utf-8"?>
<!-- Generator: Adobe Illustrator 25.0.0, SVG Export Plug-In . SVG Version: 6.00 Build 0)  -->
<svg version="1.1" id="Bold" xmlns="http://www.w3.org/2000/svg" xmlns:xlink="http://www.w3.org/1999/xlink" x="0px" y="0px"
	 viewBox="0 0 512 512" style="enable-background:new 0 0 512 512;" xml:space="preserve">
<style type="text/css">
	.st0{fill:#FFE6E2;}
	.st1{fill:#FC573B;}
</style>
<path class="st0" d="M416,512H96c-53,0-96-43-96-96V96C0,43,43,0,96,0h320c53,0,96,43,96,96v320C512,469,469,512,416,512z"/>
<g>
	<g>
		<circle class="st1" cx="328.5" cy="167.8" r="34.6"/>
		<path class="st1" d="M328.5,210.3c-23.5,0-42.6-19.1-42.6-42.6s19.1-42.6,42.6-42.6c23.5,0,42.6,19.1,42.6,42.6
			S351.9,210.3,328.5,210.3z M328.5,141.2c-14.7,0-26.6,11.9-26.6,26.6s11.9,26.6,26.6,26.6c14.7,0,26.6-11.9,26.6-26.6
			S343.1,141.2,328.5,141.2z"/>
	</g>
	<g>
		<circle class="st1" cx="328.5" cy="338" r="34.6"/>
		<path class="st1" d="M328.5,380.6c-23.5,0-42.6-19.1-42.6-42.6c0-23.5,19.1-42.6,42.6-42.6c23.5,0,42.6,19.1,42.6,42.6
			C371,361.5,351.9,380.6,328.5,380.6z M328.5,311.4c-14.7,0-26.6,11.9-26.6,26.6s11.9,26.6,26.6,26.6c14.7,0,26.6-11.9,26.6-26.6
			S343.1,311.4,328.5,311.4z"/>
	</g>
	<g>
		<circle class="st1" cx="179.5" cy="252.9" r="34.6"/>
		<path class="st1" d="M179.5,295.4c-23.5,0-42.6-19.1-42.6-42.6s19.1-42.6,42.6-42.6s42.6,19.1,42.6,42.6S203,295.4,179.5,295.4z
			 M179.5,226.3c-14.7,0-26.6,11.9-26.6,26.6c0,14.7,11.9,26.6,26.6,26.6s26.6-11.9,26.6-26.6C206.1,238.2,194.2,226.3,179.5,226.3z
			"/>
	</g>
	<g>
		<path class="st1" d="M204.6,247.8c-3.7,0-7.3-1.9-9.3-5.4c-2.9-5.1-1.1-11.6,4-14.5l98.7-56.3c5.1-2.9,11.6-1.1,14.5,4
			c2.9,5.1,1.1,11.6-4,14.5l-98.7,56.3C208.2,247.3,206.4,247.8,204.6,247.8L204.6,247.8z"/>
	</g>
	<g>
		<path class="st1" d="M303.4,335.6c-1.8,0-3.6-0.4-5.3-1.4l-98.7-56.3c-5.1-2.9-6.9-9.4-4-14.5c2.9-5.1,9.4-6.9,14.5-4l98.7,56.3
			c5.1,2.9,6.9,9.4,4,14.5C310.6,333.6,307,335.6,303.4,335.6z"/>
	</g>
</g>
</svg>
