<?xml version="1.0" encoding="utf-8"?>
<!-- Generator: Adobe Illustrator 25.0.0, SVG Export Plug-In . SVG Version: 6.00 Build 0)  -->
<svg version="1.1" id="Bold" xmlns="http://www.w3.org/2000/svg" xmlns:xlink="http://www.w3.org/1999/xlink" x="0px" y="0px"
	 viewBox="0 0 512 512" style="enable-background:new 0 0 512 512;" xml:space="preserve">
<style type="text/css">
	.st0{fill:#E1FFE2;}
	.st1{fill:#20A85A;}
</style>
<path class="st0" d="M416,512H96c-53,0-96-43-96-96V96C0,43,43,0,96,0h320c53,0,96,43,96,96v320C512,469,469,512,416,512z"/>
<g>
	<path class="st1" d="M180.1,230.1c-2.9,0-5.5,1.1-7.5,3.2c-2.1,2.1-3.1,4.7-3.1,7.7c0,3,1,5.6,3.1,7.7c2.1,2.1,4.6,3.2,7.5,3.2
		c3,0,5.5-1.1,7.7-3.2c2.1-2.1,3.2-4.7,3.2-7.7c0-3-1.1-5.6-3.2-7.7C185.6,231.2,183,230.1,180.1,230.1z"/>
	<path class="st1" d="M271.2,230c-2.9,0-5.5,1.1-7.5,3.2c-2.1,2.1-3.1,4.7-3.1,7.7c0,3,1.1,5.6,3.1,7.7c2.1,2.1,4.6,3.2,7.5,3.2
		c3,0,5.5-1.1,7.7-3.2c2.1-2.1,3.2-4.7,3.2-7.7c0-3-1.1-5.6-3.2-7.7C276.7,231.1,274.1,230,271.2,230z"/>
	<path class="st1" d="M331.9,230.1c-2.9,0-5.4,1.1-7.5,3.2c-2.1,2.1-3.1,4.7-3.1,7.7c0,3,1,5.6,3.1,7.7c2.1,2.1,4.6,3.2,7.5,3.2
		c3,0,5.5-1.1,7.7-3.2c2.1-2.1,3.2-4.7,3.2-7.7c0-3-1.1-5.6-3.2-7.7C337.5,231.2,334.9,230.1,331.9,230.1z"/>
	<path class="st1" d="M358.9,150H153.1c-15.8,0-28.7,12.9-28.7,28.7v116.4c0,15.8,12.9,28.7,28.7,28.7h80.8c0,0,15.6,42.6,21.3,42.6
		c5.7,0,22.6-42.6,22.6-42.6h81.1c15.8,0,28.7-12.9,28.7-28.7V178.7C387.6,162.9,374.7,150,358.9,150z M200.9,257.5
		c-4.1,4.6-10.3,6.5-17.1,6.5c-6.2,0-10.7-1.9-14-4.4h-0.2v3.3h-15.5v-67.4h15.5v25.8h0.2c4.2-3.6,9.7-4.8,16.3-5
		c5.6-0.2,11.4,3.3,14.9,7.4c3.5,4,6,10.3,6,17.3C207,248.5,205,252.9,200.9,257.5z M234.1,263.4h-15.8c0,0,0-35.4,0-41.7
		c0-9.6-7.6-10.9-7.6-10.9v-16.7c0,0,22.1,1.3,23.4,28.1C234.1,229.9,234.1,263.4,234.1,263.4z M295.9,250.6c-1.3,3-3.3,5.7-5.8,8.1
		c-2.5,2.3-5.4,4.1-8.6,5.4c-3.2,1.2-6.7,1.9-10.3,1.9c-3.5,0-6.9-0.6-10.1-1.9c-3.2-1.2-6.1-3-8.6-5.4c-2.6-2.5-4.6-5.2-5.9-8.2
		c-1.3-3-2-6.2-2-9.5c0-3.4,0.7-6.5,2-9.5c1.3-3,3.3-5.7,5.9-8.2c2.5-2.3,5.4-4.1,8.6-5.4c3.2-1.2,6.6-1.9,10.1-1.9
		c3.6,0,7.1,0.6,10.3,1.9c3.3,1.3,6.1,3,8.6,5.4c2.5,2.4,4.5,5.1,5.8,8.1c1.3,3,2,6.2,2,9.6C297.9,244.4,297.2,247.6,295.9,250.6z
		 M357.9,257.3c0,11.8-2.2,19.1-7.5,24.1c-6.3,6-15.2,6.4-22.8,5.3v-12.2c6.3,0.6,14.9-3.5,14.9-11.7v-3.1h-0.2
		c-3.5,4.9-8.7,6.6-15.5,6.6c-6.3,0-11.8-2.3-15.6-6.7c-3.7-4.4-5.6-10.2-5.6-17.5c0-8.2,2.1-14.7,6.2-19.6
		c4.1-4.8,10.1-7.1,16.8-7.1c6.1,0,9.9,1.5,13.6,4.9h0.2v-3.7h15.4V257.3z"/>
</g>
</svg>
