<svg xmlns="http://www.w3.org/2000/svg" xmlns:xlink="http://www.w3.org/1999/xlink" viewBox="0 0 361.2 132.8"><defs><style>.cls-1{fill:url(#radial-gradient);}.cls-2{fill:url(#radial-gradient-2);}.cls-3{fill:url(#radial-gradient-3);}.cls-4{opacity:0.3;}.cls-5{fill:url(#radial-gradient-4);}.cls-100,.cls-103,.cls-111,.cls-113,.cls-118,.cls-120,.cls-125,.cls-127,.cls-132,.cls-134,.cls-14,.cls-16,.cls-21,.cls-23,.cls-28,.cls-30,.cls-35,.cls-37,.cls-42,.cls-44,.cls-49,.cls-51,.cls-56,.cls-58,.cls-6,.cls-63,.cls-65,.cls-70,.cls-72,.cls-77,.cls-79,.cls-84,.cls-86,.cls-9,.cls-91,.cls-93,.cls-98{opacity:0.2;}.cls-6{fill:url(#radial-gradient-5);}.cls-7{opacity:0.1;}.cls-8{fill:url(#radial-gradient-6);}.cls-9{fill:url(#radial-gradient-7);}.cls-10{fill:url(#radial-gradient-8);}.cls-11{fill:url(#radial-gradient-9);}.cls-12{fill:url(#radial-gradient-10);}.cls-13{fill:url(#radial-gradient-11);}.cls-14{fill:url(#radial-gradient-12);}.cls-15{fill:url(#radial-gradient-13);}.cls-16{fill:url(#radial-gradient-14);}.cls-17{fill:url(#radial-gradient-15);}.cls-18{fill:url(#radial-gradient-16);}.cls-19{fill:url(#radial-gradient-17);}.cls-20{fill:url(#radial-gradient-18);}.cls-21{fill:url(#radial-gradient-19);}.cls-22{fill:url(#radial-gradient-20);}.cls-23{fill:url(#radial-gradient-21);}.cls-24{fill:url(#radial-gradient-22);}.cls-25{fill:url(#radial-gradient-23);}.cls-26{fill:url(#radial-gradient-24);}.cls-27{fill:url(#radial-gradient-25);}.cls-28{fill:url(#radial-gradient-26);}.cls-29{fill:url(#radial-gradient-27);}.cls-30{fill:url(#radial-gradient-28);}.cls-31{fill:url(#radial-gradient-29);}.cls-32{fill:url(#radial-gradient-30);}.cls-33{fill:url(#radial-gradient-31);}.cls-34{fill:url(#radial-gradient-32);}.cls-35{fill:url(#radial-gradient-33);}.cls-36{fill:url(#radial-gradient-34);}.cls-37{fill:url(#radial-gradient-35);}.cls-38{fill:url(#radial-gradient-36);}.cls-39{fill:url(#radial-gradient-37);}.cls-40{fill:url(#radial-gradient-38);}.cls-41{fill:url(#radial-gradient-39);}.cls-42{fill:url(#radial-gradient-40);}.cls-43{fill:url(#radial-gradient-41);}.cls-44{fill:url(#radial-gradient-42);}.cls-45{fill:url(#radial-gradient-43);}.cls-46{fill:url(#radial-gradient-44);}.cls-47{fill:url(#radial-gradient-45);}.cls-48{fill:url(#radial-gradient-46);}.cls-49{fill:url(#radial-gradient-47);}.cls-50{fill:url(#radial-gradient-48);}.cls-51{fill:url(#radial-gradient-49);}.cls-52{fill:url(#radial-gradient-50);}.cls-53{fill:url(#radial-gradient-51);}.cls-54{fill:url(#radial-gradient-52);}.cls-55{fill:url(#radial-gradient-53);}.cls-56{fill:url(#radial-gradient-54);}.cls-57{fill:url(#radial-gradient-55);}.cls-58{fill:url(#radial-gradient-56);}.cls-59{fill:url(#radial-gradient-57);}.cls-60{fill:url(#radial-gradient-58);}.cls-61{fill:url(#radial-gradient-59);}.cls-62{fill:url(#radial-gradient-60);}.cls-63{fill:url(#radial-gradient-61);}.cls-64{fill:url(#radial-gradient-62);}.cls-65{fill:url(#radial-gradient-63);}.cls-66{fill:url(#radial-gradient-64);}.cls-67{fill:url(#radial-gradient-65);}.cls-68{fill:url(#radial-gradient-66);}.cls-69{fill:url(#radial-gradient-67);}.cls-70{fill:url(#radial-gradient-68);}.cls-71{fill:url(#radial-gradient-69);}.cls-72{fill:url(#radial-gradient-70);}.cls-73{fill:url(#radial-gradient-71);}.cls-74{fill:url(#radial-gradient-72);}.cls-75{fill:url(#radial-gradient-73);}.cls-76{fill:url(#radial-gradient-74);}.cls-77{fill:url(#radial-gradient-75);}.cls-78{fill:url(#radial-gradient-76);}.cls-79{fill:url(#radial-gradient-77);}.cls-80{fill:url(#radial-gradient-78);}.cls-81{fill:url(#radial-gradient-79);}.cls-82{fill:url(#radial-gradient-80);}.cls-83{fill:url(#radial-gradient-81);}.cls-84{fill:url(#radial-gradient-82);}.cls-85{fill:url(#radial-gradient-83);}.cls-86{fill:url(#radial-gradient-84);}.cls-87{fill:url(#radial-gradient-85);}.cls-88{fill:url(#radial-gradient-86);}.cls-89{fill:url(#radial-gradient-87);}.cls-90{fill:url(#radial-gradient-88);}.cls-91{fill:url(#radial-gradient-89);}.cls-92{fill:url(#radial-gradient-90);}.cls-93{fill:url(#radial-gradient-91);}.cls-94{fill:url(#radial-gradient-92);}.cls-95{fill:url(#radial-gradient-93);}.cls-96{fill:url(#radial-gradient-94);}.cls-97{fill:url(#radial-gradient-95);}.cls-98{fill:url(#radial-gradient-96);}.cls-99{fill:url(#radial-gradient-97);}.cls-100{fill:url(#radial-gradient-98);}.cls-101{opacity:0.7;}.cls-102{fill:url(#radial-gradient-99);}.cls-103{fill:url(#radial-gradient-100);}.cls-104{fill:url(#radial-gradient-101);}.cls-105{fill:url(#radial-gradient-102);}.cls-106{fill:url(#radial-gradient-103);}.cls-107{fill:url(#radial-gradient-104);}.cls-108{fill:url(#radial-gradient-105);}.cls-109{fill:url(#radial-gradient-106);}.cls-110{fill:url(#radial-gradient-107);}.cls-111{fill:url(#radial-gradient-108);}.cls-112{fill:url(#radial-gradient-109);}.cls-113{fill:url(#radial-gradient-110);}.cls-114{fill:url(#radial-gradient-111);}.cls-115{fill:url(#radial-gradient-112);}.cls-116{fill:url(#radial-gradient-113);}.cls-117{fill:url(#radial-gradient-114);}.cls-118{fill:url(#radial-gradient-115);}.cls-119{fill:url(#radial-gradient-116);}.cls-120{fill:url(#radial-gradient-117);}.cls-121{fill:url(#radial-gradient-118);}.cls-122{fill:url(#radial-gradient-119);}.cls-123{fill:url(#radial-gradient-120);}.cls-124{fill:url(#radial-gradient-121);}.cls-125{fill:url(#radial-gradient-122);}.cls-126{fill:url(#radial-gradient-123);}.cls-127{fill:url(#radial-gradient-124);}.cls-128{fill:url(#radial-gradient-125);}.cls-129{fill:url(#radial-gradient-126);}.cls-130{fill:url(#radial-gradient-127);}.cls-131{fill:url(#radial-gradient-128);}.cls-132{fill:url(#radial-gradient-129);}.cls-133{fill:url(#radial-gradient-130);}.cls-134{fill:url(#radial-gradient-131);}.cls-135{fill:url(#radial-gradient-132);}</style><radialGradient id="radial-gradient" cx="153.7" cy="-1056.21" r="1.26" gradientTransform="matrix(-7.35, 0.46, -0.07, -1.11, 1136.22, -1189.28)" gradientUnits="userSpaceOnUse"><stop offset="0" stop-color="#fff"/><stop offset="0.28" stop-color="#fff" stop-opacity="0.3"/><stop offset="1" stop-color="#ecf5f7" stop-opacity="0"/></radialGradient><radialGradient id="radial-gradient-2" cx="157.66" cy="-1028.73" r="1.26" gradientTransform="matrix(0.06, 7.36, 1.12, -0.01, 1217.96, -1112.79)" xlink:href="#radial-gradient"/><radialGradient id="radial-gradient-3" cx="501.3" cy="461.6" r="5.24" gradientTransform="matrix(1, -0.06, 0.06, 1, -448.09, -372.12)" xlink:href="#radial-gradient"/><radialGradient id="radial-gradient-4" cx="137.69" cy="505.57" r="0.65" gradientTransform="matrix(0.39, -8.11, 7.9, 0.38, -3965.39, 983.27)" xlink:href="#radial-gradient"/><radialGradient id="radial-gradient-5" cx="137.69" cy="505.58" r="0.7" gradientTransform="matrix(0.39, -8.11, 7.9, 0.38, -3965.39, 983.27)" xlink:href="#radial-gradient"/><radialGradient id="radial-gradient-6" cx="137.69" cy="505.57" r="0.8" gradientTransform="matrix(0.39, -8.11, 7.9, 0.38, -3965.39, 983.27)" xlink:href="#radial-gradient"/><radialGradient id="radial-gradient-7" cx="137.69" cy="505.58" r="0.86" gradientTransform="matrix(0.39, -8.11, 7.9, 0.38, -3965.39, 983.27)" xlink:href="#radial-gradient"/><radialGradient id="radial-gradient-8" cx="151.33" cy="-1013.59" r="0.43" xlink:href="#radial-gradient"/><radialGradient id="radial-gradient-9" cx="151.09" cy="-1015.1" r="0.43" gradientTransform="matrix(0.06, 7.36, 1.12, -0.01, 1217.96, -1112.79)" xlink:href="#radial-gradient"/><radialGradient id="radial-gradient-10" cx="518.92" cy="414.19" r="1.79" gradientTransform="matrix(1, -0.06, 0.06, 1, -448.09, -372.12)" xlink:href="#radial-gradient"/><radialGradient id="radial-gradient-11" cx="143.74" cy="507.13" r="0.22" gradientTransform="matrix(0.39, -8.11, 7.9, 0.38, -3965.39, 983.27)" xlink:href="#radial-gradient"/><radialGradient id="radial-gradient-12" cx="143.74" cy="507.14" r="0.24" gradientTransform="matrix(0.39, -8.11, 7.9, 0.38, -3965.39, 983.27)" xlink:href="#radial-gradient"/><radialGradient id="radial-gradient-13" cx="143.74" cy="507.13" r="0.27" gradientTransform="matrix(0.39, -8.11, 7.9, 0.38, -3965.39, 983.27)" xlink:href="#radial-gradient"/><radialGradient id="radial-gradient-14" cx="143.74" cy="507.14" r="0.29" gradientTransform="matrix(0.39, -8.11, 7.9, 0.38, -3965.39, 983.27)" xlink:href="#radial-gradient"/><radialGradient id="radial-gradient-15" cx="152.84" cy="-1109.86" r="0.51" xlink:href="#radial-gradient"/><radialGradient id="radial-gradient-16" cx="165.74" cy="-1019.81" r="0.51" gradientTransform="matrix(0.06, 7.36, 1.12, -0.01, 1217.96, -1112.79)" xlink:href="#radial-gradient"/><radialGradient id="radial-gradient-17" cx="507.92" cy="521.54" r="2.1" gradientTransform="matrix(1, -0.06, 0.06, 1, -448.09, -372.12)" xlink:href="#radial-gradient"/><radialGradient id="radial-gradient-18" cx="130.46" cy="507.24" r="0.26" gradientTransform="matrix(0.39, -8.11, 7.9, 0.38, -3965.39, 983.27)" xlink:href="#radial-gradient"/><radialGradient id="radial-gradient-19" cx="130.46" cy="507.25" r="0.28" gradientTransform="matrix(0.39, -8.11, 7.9, 0.38, -3965.39, 983.27)" xlink:href="#radial-gradient"/><radialGradient id="radial-gradient-20" cx="130.45" cy="507.24" r="0.32" gradientTransform="matrix(0.39, -8.11, 7.9, 0.38, -3965.39, 983.27)" xlink:href="#radial-gradient"/><radialGradient id="radial-gradient-21" cx="130.45" cy="507.25" r="0.34" gradientTransform="matrix(0.39, -8.11, 7.9, 0.38, -3965.39, 983.27)" xlink:href="#radial-gradient"/><radialGradient id="radial-gradient-22" cx="163.81" cy="-1007.96" r="0.51" xlink:href="#radial-gradient"/><radialGradient id="radial-gradient-23" cx="150.92" cy="-1097.68" r="0.51" gradientTransform="matrix(0.06, 7.36, 1.12, -0.01, 1217.96, -1112.79)" xlink:href="#radial-gradient"/><radialGradient id="radial-gradient-24" cx="427.05" cy="407.99" r="2.1" gradientTransform="matrix(1, -0.06, 0.06, 1, -448.09, -372.12)" xlink:href="#radial-gradient"/><radialGradient id="radial-gradient-25" cx="143.26" cy="495.5" r="0.26" gradientTransform="matrix(0.39, -8.11, 7.9, 0.38, -3965.39, 983.27)" xlink:href="#radial-gradient"/><radialGradient id="radial-gradient-26" cx="143.26" cy="495.5" r="0.28" gradientTransform="matrix(0.39, -8.11, 7.9, 0.38, -3965.39, 983.27)" xlink:href="#radial-gradient"/><radialGradient id="radial-gradient-27" cx="143.25" cy="495.5" r="0.32" gradientTransform="matrix(0.39, -8.11, 7.9, 0.38, -3965.39, 983.27)" xlink:href="#radial-gradient"/><radialGradient id="radial-gradient-28" cx="143.25" cy="495.5" r="0.34" gradientTransform="matrix(0.39, -8.11, 7.9, 0.38, -3965.39, 983.27)" xlink:href="#radial-gradient"/><radialGradient id="radial-gradient-29" cx="160.26" cy="-1065.73" r="0.51" xlink:href="#radial-gradient"/><radialGradient id="radial-gradient-30" cx="159.47" cy="-1071.16" r="0.5" gradientTransform="matrix(0.06, 7.36, 1.12, -0.01, 1217.96, -1112.79)" xlink:href="#radial-gradient"/><radialGradient id="radial-gradient-31" cx="453.22" cy="472.37" r="2.1" gradientTransform="matrix(1, -0.06, 0.06, 1, -448.09, -372.12)" xlink:href="#radial-gradient"/><radialGradient id="radial-gradient-32" cx="135.73" cy="499.68" r="0.26" gradientTransform="matrix(0.39, -8.11, 7.9, 0.38, -3965.39, 983.27)" xlink:href="#radial-gradient"/><radialGradient id="radial-gradient-33" cx="135.73" cy="499.69" r="0.28" gradientTransform="matrix(0.39, -8.11, 7.9, 0.38, -3965.39, 983.27)" xlink:href="#radial-gradient"/><radialGradient id="radial-gradient-34" cx="135.73" cy="499.68" r="0.32" gradientTransform="matrix(0.39, -8.11, 7.9, 0.38, -3965.39, 983.27)" xlink:href="#radial-gradient"/><radialGradient id="radial-gradient-35" cx="135.73" cy="499.69" r="0.34" gradientTransform="matrix(0.39, -8.11, 7.9, 0.38, -3965.39, 983.27)" xlink:href="#radial-gradient"/><radialGradient id="radial-gradient-36" cx="157.74" cy="-1025.25" r="0.51" xlink:href="#radial-gradient"/><radialGradient id="radial-gradient-37" cx="153.21" cy="-1056.74" r="0.51" gradientTransform="matrix(0.06, 7.36, 1.12, -0.01, 1217.96, -1112.79)" xlink:href="#radial-gradient"/><radialGradient id="radial-gradient-38" cx="471.74" cy="427.22" r="2.1" gradientTransform="matrix(1, -0.06, 0.06, 1, -448.09, -372.12)" xlink:href="#radial-gradient"/><radialGradient id="radial-gradient-39" cx="141.51" cy="501.38" r="0.26" gradientTransform="matrix(0.39, -8.11, 7.9, 0.38, -3965.39, 983.27)" xlink:href="#radial-gradient"/><radialGradient id="radial-gradient-40" cx="141.51" cy="501.39" r="0.28" gradientTransform="matrix(0.39, -8.11, 7.9, 0.38, -3965.39, 983.27)" xlink:href="#radial-gradient"/><radialGradient id="radial-gradient-41" cx="141.51" cy="501.38" r="0.32" gradientTransform="matrix(0.39, -8.11, 7.9, 0.38, -3965.39, 983.27)" xlink:href="#radial-gradient"/><radialGradient id="radial-gradient-42" cx="141.51" cy="501.39" r="0.34" gradientTransform="matrix(0.39, -8.11, 7.9, 0.38, -3965.39, 983.27)" xlink:href="#radial-gradient"/><radialGradient id="radial-gradient-43" cx="117.54" cy="-1028" r="0.7" xlink:href="#radial-gradient"/><radialGradient id="radial-gradient-44" cx="151.43" cy="-791.69" r="0.7" gradientTransform="matrix(0.06, 7.36, 1.12, -0.01, 1217.96, -1112.79)" xlink:href="#radial-gradient"/><radialGradient id="radial-gradient-45" cx="767.6" cy="430" r="2.89" gradientTransform="matrix(1, -0.06, 0.06, 1, -448.09, -372.12)" xlink:href="#radial-gradient"/><radialGradient id="radial-gradient-46" cx="145.17" cy="538.62" r="0.36" gradientTransform="matrix(0.39, -8.11, 7.9, 0.38, -3965.39, 983.27)" xlink:href="#radial-gradient"/><radialGradient id="radial-gradient-47" cx="145.17" cy="538.62" r="0.38" gradientTransform="matrix(0.39, -8.11, 7.9, 0.38, -3965.39, 983.27)" xlink:href="#radial-gradient"/><radialGradient id="radial-gradient-48" cx="145.17" cy="538.62" r="0.44" gradientTransform="matrix(0.39, -8.11, 7.9, 0.38, -3965.39, 983.27)" xlink:href="#radial-gradient"/><radialGradient id="radial-gradient-49" cx="145.17" cy="538.62" r="0.47" gradientTransform="matrix(0.39, -8.11, 7.9, 0.38, -3965.39, 983.27)" xlink:href="#radial-gradient"/><radialGradient id="radial-gradient-50" cx="123.44" cy="-1030.25" r="0.7" xlink:href="#radial-gradient"/><radialGradient id="radial-gradient-51" cx="152.09" cy="-830.47" r="0.7" gradientTransform="matrix(0.06, 7.36, 1.12, -0.01, 1217.96, -1112.79)" xlink:href="#radial-gradient"/><radialGradient id="radial-gradient-52" cx="724.16" cy="432.55" r="2.89" gradientTransform="matrix(1, -0.06, 0.06, 1, -448.09, -372.12)" xlink:href="#radial-gradient"/><radialGradient id="radial-gradient-53" cx="144.27" cy="533.19" r="0.36" gradientTransform="matrix(0.39, -8.11, 7.9, 0.38, -3965.39, 983.27)" xlink:href="#radial-gradient"/><radialGradient id="radial-gradient-54" cx="144.27" cy="533.2" r="0.38" gradientTransform="matrix(0.39, -8.11, 7.9, 0.38, -3965.39, 983.27)" xlink:href="#radial-gradient"/><radialGradient id="radial-gradient-55" cx="144.27" cy="533.19" r="0.44" gradientTransform="matrix(0.39, -8.11, 7.9, 0.38, -3965.39, 983.27)" xlink:href="#radial-gradient"/><radialGradient id="radial-gradient-56" cx="144.27" cy="533.2" r="0.47" gradientTransform="matrix(0.39, -8.11, 7.9, 0.38, -3965.39, 983.27)" xlink:href="#radial-gradient"/><radialGradient id="radial-gradient-57" cx="116.12" cy="-1070.7" r="0.37" xlink:href="#radial-gradient"/><radialGradient id="radial-gradient-58" cx="157.82" cy="-779.92" r="0.37" gradientTransform="matrix(0.06, 7.36, 1.12, -0.01, 1217.96, -1112.79)" xlink:href="#radial-gradient"/><radialGradient id="radial-gradient-59" cx="778.13" cy="477.65" r="1.55" gradientTransform="matrix(1, -0.06, 0.06, 1, -448.09, -372.12)" xlink:href="#radial-gradient"/><radialGradient id="radial-gradient-60" cx="139.49" cy="540.61" r="0.19" gradientTransform="matrix(0.39, -8.11, 7.9, 0.38, -3965.39, 983.27)" xlink:href="#radial-gradient"/><radialGradient id="radial-gradient-61" cx="139.48" cy="540.61" r="0.21" gradientTransform="matrix(0.39, -8.11, 7.9, 0.38, -3965.39, 983.27)" xlink:href="#radial-gradient"/><radialGradient id="radial-gradient-62" cx="139.48" cy="540.61" r="0.24" gradientTransform="matrix(0.39, -8.11, 7.9, 0.38, -3965.39, 983.27)" xlink:href="#radial-gradient"/><radialGradient id="radial-gradient-63" cx="139.48" cy="540.61" r="0.25" gradientTransform="matrix(0.39, -8.11, 7.9, 0.38, -3965.39, 983.27)" xlink:href="#radial-gradient"/><radialGradient id="radial-gradient-64" cx="130.06" cy="-1019.78" r="0.37" xlink:href="#radial-gradient"/><radialGradient id="radial-gradient-65" cx="150.87" cy="-874.55" r="0.37" gradientTransform="matrix(0.06, 7.36, 1.12, -0.01, 1217.96, -1112.79)" xlink:href="#radial-gradient"/><radialGradient id="radial-gradient-66" cx="675.5" cy="420.96" r="1.55" gradientTransform="matrix(1, -0.06, 0.06, 1, -448.09, -372.12)" xlink:href="#radial-gradient"/><radialGradient id="radial-gradient-67" cx="145.03" cy="526.92" r="0.19" gradientTransform="matrix(0.39, -8.11, 7.9, 0.38, -3965.39, 983.27)" xlink:href="#radial-gradient"/><radialGradient id="radial-gradient-68" cx="145.03" cy="526.92" r="0.21" gradientTransform="matrix(0.39, -8.11, 7.9, 0.38, -3965.39, 983.27)" xlink:href="#radial-gradient"/><radialGradient id="radial-gradient-69" cx="145.03" cy="526.92" r="0.24" gradientTransform="matrix(0.39, -8.11, 7.9, 0.38, -3965.39, 983.27)" xlink:href="#radial-gradient"/><radialGradient id="radial-gradient-70" cx="145.03" cy="526.92" r="0.25" gradientTransform="matrix(0.39, -8.11, 7.9, 0.38, -3965.39, 983.27)" xlink:href="#radial-gradient"/><radialGradient id="radial-gradient-71" cx="121.05" cy="-1024.01" r="0.37" xlink:href="#radial-gradient"/><radialGradient id="radial-gradient-72" cx="151.02" cy="-814.93" r="0.37" gradientTransform="matrix(0.06, 7.36, 1.12, -0.01, 1217.96, -1112.79)" xlink:href="#radial-gradient"/><radialGradient id="radial-gradient-73" cx="741.83" cy="425.62" r="1.55" gradientTransform="matrix(1, -0.06, 0.06, 1, -448.09, -372.12)" xlink:href="#radial-gradient"/><radialGradient id="radial-gradient-74" cx="145.36" cy="535.32" r="0.19" gradientTransform="matrix(0.39, -8.11, 7.9, 0.38, -3965.39, 983.27)" xlink:href="#radial-gradient"/><radialGradient id="radial-gradient-75" cx="145.36" cy="535.32" r="0.21" gradientTransform="matrix(0.39, -8.11, 7.9, 0.38, -3965.39, 983.27)" xlink:href="#radial-gradient"/><radialGradient id="radial-gradient-76" cx="145.36" cy="535.32" r="0.24" gradientTransform="matrix(0.39, -8.11, 7.9, 0.38, -3965.39, 983.27)" xlink:href="#radial-gradient"/><radialGradient id="radial-gradient-77" cx="145.36" cy="535.32" r="0.25" gradientTransform="matrix(0.39, -8.11, 7.9, 0.38, -3965.39, 983.27)" xlink:href="#radial-gradient"/><radialGradient id="radial-gradient-78" cx="120.21" cy="-1044.09" r="0.14" xlink:href="#radial-gradient"/><radialGradient id="radial-gradient-79" cx="154.02" cy="-808.25" r="0.14" gradientTransform="matrix(0.06, 7.36, 1.12, -0.01, 1217.96, -1112.79)" xlink:href="#radial-gradient"/><radialGradient id="radial-gradient-80" cx="748.05" cy="448.03" r="0.59" gradientTransform="matrix(1, -0.06, 0.06, 1, -448.09, -372.12)" xlink:href="#radial-gradient"/><radialGradient id="radial-gradient-81" cx="142.7" cy="536.41" r="0.07" gradientTransform="matrix(0.39, -8.11, 7.9, 0.38, -3965.39, 983.27)" xlink:href="#radial-gradient"/><radialGradient id="radial-gradient-82" cx="142.7" cy="536.42" r="0.08" gradientTransform="matrix(0.39, -8.11, 7.9, 0.38, -3965.39, 983.27)" xlink:href="#radial-gradient"/><radialGradient id="radial-gradient-83" cx="142.7" cy="536.41" r="0.09" gradientTransform="matrix(0.39, -8.11, 7.9, 0.38, -3965.39, 983.27)" xlink:href="#radial-gradient"/><radialGradient id="radial-gradient-84" cx="142.7" cy="536.42" r="0.1" gradientTransform="matrix(0.39, -8.11, 7.9, 0.38, -3965.39, 983.27)" xlink:href="#radial-gradient"/><radialGradient id="radial-gradient-85" cx="120.47" cy="-1059.12" r="0.37" xlink:href="#radial-gradient"/><radialGradient id="radial-gradient-86" cx="156.3" cy="-809.24" r="0.37" gradientTransform="matrix(0.06, 7.36, 1.12, -0.01, 1217.96, -1112.79)" xlink:href="#radial-gradient"/><radialGradient id="radial-gradient-87" cx="746.09" cy="464.77" r="1.55" gradientTransform="matrix(1, -0.06, 0.06, 1, -448.09, -372.12)" xlink:href="#radial-gradient"/><radialGradient id="radial-gradient-88" cx="140.63" cy="536.4" r="0.19" gradientTransform="matrix(0.39, -8.11, 7.9, 0.38, -3965.39, 983.27)" xlink:href="#radial-gradient"/><radialGradient id="radial-gradient-89" cx="140.63" cy="536.4" r="0.21" gradientTransform="matrix(0.39, -8.11, 7.9, 0.38, -3965.39, 983.27)" xlink:href="#radial-gradient"/><radialGradient id="radial-gradient-90" cx="140.63" cy="536.4" r="0.24" gradientTransform="matrix(0.39, -8.11, 7.9, 0.38, -3965.39, 983.27)" xlink:href="#radial-gradient"/><radialGradient id="radial-gradient-91" cx="140.63" cy="536.4" r="0.25" gradientTransform="matrix(0.39, -8.11, 7.9, 0.38, -3965.39, 983.27)" xlink:href="#radial-gradient"/><radialGradient id="radial-gradient-92" cx="126.6" cy="-1064.18" r="0.37" xlink:href="#radial-gradient"/><radialGradient id="radial-gradient-93" cx="157.4" cy="-849.33" r="0.37" gradientTransform="matrix(0.06, 7.36, 1.12, -0.01, 1217.96, -1112.79)" xlink:href="#radial-gradient"/><radialGradient id="radial-gradient-94" cx="701.01" cy="470.45" r="1.55" gradientTransform="matrix(1, -0.06, 0.06, 1, -448.09, -372.12)" xlink:href="#radial-gradient"/><radialGradient id="radial-gradient-95" cx="139.32" cy="530.81" r="0.19" gradientTransform="matrix(0.39, -8.11, 7.9, 0.38, -3965.39, 983.27)" xlink:href="#radial-gradient"/><radialGradient id="radial-gradient-96" cx="139.32" cy="530.81" r="0.21" gradientTransform="matrix(0.39, -8.11, 7.9, 0.38, -3965.39, 983.27)" xlink:href="#radial-gradient"/><radialGradient id="radial-gradient-97" cx="139.32" cy="530.81" r="0.24" gradientTransform="matrix(0.39, -8.11, 7.9, 0.38, -3965.39, 983.27)" xlink:href="#radial-gradient"/><radialGradient id="radial-gradient-98" cx="139.32" cy="530.81" r="0.25" gradientTransform="matrix(0.39, -8.11, 7.9, 0.38, -3965.39, 983.27)" xlink:href="#radial-gradient"/><radialGradient id="radial-gradient-99" cx="139.48" cy="526.53" r="0.3" gradientTransform="matrix(0.47, -8.11, 7.89, 0.45, -3947.36, 911.76)" gradientUnits="userSpaceOnUse"><stop offset="0.76" stop-color="#fff" stop-opacity="0.03"/><stop offset="0.82" stop-color="#fff" stop-opacity="0.95"/><stop offset="0.86" stop-color="#fff" stop-opacity="0.03"/></radialGradient><radialGradient id="radial-gradient-100" cx="139.48" cy="526.53" r="0.32" xlink:href="#radial-gradient-99"/><radialGradient id="radial-gradient-101" cx="130.98" cy="-1058.51" r="0.59" gradientTransform="matrix(-7.35, 0.39, -0.06, -1.11, 1173.62, -1210.59)" gradientUnits="userSpaceOnUse"><stop offset="0" stop-color="#fff"/><stop offset="0.04" stop-color="#fff"/><stop offset="0.25" stop-color="#fff"/><stop offset="0.94" stop-color="#fff" stop-opacity="0"/></radialGradient><radialGradient id="radial-gradient-102" cx="156.99" cy="-877.7" r="0.59" gradientTransform="matrix(-0.01, 7.36, 1.12, 0, 1253.68, -1135.04)" gradientUnits="userSpaceOnUse"><stop offset="0" stop-color="#fff"/><stop offset="0.04" stop-color="#fff"/><stop offset="0.25" stop-color="#fff"/><stop offset="0.88" stop-color="#fff" stop-opacity="0"/></radialGradient><radialGradient id="radial-gradient-103" cx="670.31" cy="464.77" r="2.44" gradientTransform="matrix(1, -0.05, 0.05, 1, -419.86, -409.16)" gradientUnits="userSpaceOnUse"><stop offset="0" stop-color="#fff"/><stop offset="0.04" stop-color="#fff"/><stop offset="0.18" stop-color="#fff"/><stop offset="0.73" stop-color="#fff" stop-opacity="0"/></radialGradient><radialGradient id="radial-gradient-104" cx="140.07" cy="-1022.44" r="0.84" xlink:href="#radial-gradient"/><radialGradient id="radial-gradient-105" cx="151.81" cy="-940.53" r="0.84" gradientTransform="matrix(0.06, 7.36, 1.12, -0.01, 1217.96, -1112.79)" xlink:href="#radial-gradient"/><radialGradient id="radial-gradient-106" cx="601.74" cy="423.93" r="3.49" gradientTransform="matrix(1, -0.06, 0.06, 1, -448.09, -372.12)" xlink:href="#radial-gradient"/><radialGradient id="radial-gradient-107" cx="143.67" cy="517.68" r="0.43" gradientTransform="matrix(0.39, -8.11, 7.9, 0.38, -3965.39, 983.27)" xlink:href="#radial-gradient"/><radialGradient id="radial-gradient-108" cx="143.67" cy="517.69" r="0.46" gradientTransform="matrix(0.39, -8.11, 7.9, 0.38, -3965.39, 983.27)" xlink:href="#radial-gradient"/><radialGradient id="radial-gradient-109" cx="143.67" cy="517.68" r="0.53" gradientTransform="matrix(0.39, -8.11, 7.9, 0.38, -3965.39, 983.27)" xlink:href="#radial-gradient"/><radialGradient id="radial-gradient-110" cx="143.67" cy="517.69" r="0.57" gradientTransform="matrix(0.39, -8.11, 7.9, 0.38, -3965.39, 983.27)" xlink:href="#radial-gradient"/><radialGradient id="radial-gradient-111" cx="148.06" cy="-1009.8" r="0.45" xlink:href="#radial-gradient"/><radialGradient id="radial-gradient-112" cx="150.34" cy="-993.74" r="0.45" gradientTransform="matrix(0.06, 7.36, 1.12, -0.01, 1217.96, -1112.79)" xlink:href="#radial-gradient"/><radialGradient id="radial-gradient-113" cx="543.01" cy="409.94" r="1.87" gradientTransform="matrix(1, -0.06, 0.06, 1, -448.09, -372.12)" xlink:href="#radial-gradient"/><radialGradient id="radial-gradient-114" cx="144.59" cy="510.1" r="0.23" gradientTransform="matrix(0.39, -8.11, 7.9, 0.38, -3965.39, 983.27)" xlink:href="#radial-gradient"/><radialGradient id="radial-gradient-115" cx="144.59" cy="510.11" r="0.25" gradientTransform="matrix(0.39, -8.11, 7.9, 0.38, -3965.39, 983.27)" xlink:href="#radial-gradient"/><radialGradient id="radial-gradient-116" cx="144.59" cy="510.1" r="0.28" gradientTransform="matrix(0.39, -8.11, 7.9, 0.38, -3965.39, 983.27)" xlink:href="#radial-gradient"/><radialGradient id="radial-gradient-117" cx="144.59" cy="510.11" r="0.3" gradientTransform="matrix(0.39, -8.11, 7.9, 0.38, -3965.39, 983.27)" xlink:href="#radial-gradient"/><radialGradient id="radial-gradient-118" cx="137.18" cy="-1014.9" r="0.45" xlink:href="#radial-gradient"/><radialGradient id="radial-gradient-119" cx="150.52" cy="-921.78" r="0.45" gradientTransform="matrix(0.06, 7.36, 1.12, -0.01, 1217.96, -1112.79)" xlink:href="#radial-gradient"/><radialGradient id="radial-gradient-120" cx="623.06" cy="415.56" r="1.87" gradientTransform="matrix(1, -0.06, 0.06, 1, -448.09, -372.12)" xlink:href="#radial-gradient"/><radialGradient id="radial-gradient-121" cx="144.98" cy="520.25" r="0.23" gradientTransform="matrix(0.39, -8.11, 7.9, 0.38, -3965.39, 983.27)" xlink:href="#radial-gradient"/><radialGradient id="radial-gradient-122" cx="144.98" cy="520.25" r="0.25" gradientTransform="matrix(0.39, -8.11, 7.9, 0.38, -3965.39, 983.27)" xlink:href="#radial-gradient"/><radialGradient id="radial-gradient-123" cx="144.98" cy="520.25" r="0.28" gradientTransform="matrix(0.39, -8.11, 7.9, 0.38, -3965.39, 983.27)" xlink:href="#radial-gradient"/><radialGradient id="radial-gradient-124" cx="144.98" cy="520.25" r="0.3" gradientTransform="matrix(0.39, -8.11, 7.9, 0.38, -3965.39, 983.27)" xlink:href="#radial-gradient"/><radialGradient id="radial-gradient-125" cx="136.18" cy="-1039.13" r="0.17" xlink:href="#radial-gradient"/><radialGradient id="radial-gradient-126" cx="154.14" cy="-913.71" r="0.17" gradientTransform="matrix(0.06, 7.36, 1.12, -0.01, 1217.96, -1112.79)" xlink:href="#radial-gradient"/><radialGradient id="radial-gradient-127" cx="630.58" cy="442.61" r="0.71" gradientTransform="matrix(1, -0.06, 0.06, 1, -448.09, -372.12)" xlink:href="#radial-gradient"/><radialGradient id="radial-gradient-128" cx="141.78" cy="521.57" r="0.09" gradientTransform="matrix(0.39, -8.11, 7.9, 0.38, -3965.39, 983.27)" xlink:href="#radial-gradient"/><radialGradient id="radial-gradient-129" cx="141.78" cy="521.57" r="0.09" gradientTransform="matrix(0.39, -8.11, 7.9, 0.38, -3965.39, 983.27)" xlink:href="#radial-gradient"/><radialGradient id="radial-gradient-130" cx="141.78" cy="521.57" r="0.11" gradientTransform="matrix(0.39, -8.11, 7.9, 0.38, -3965.39, 983.27)" xlink:href="#radial-gradient"/><radialGradient id="radial-gradient-131" cx="141.78" cy="521.57" r="0.12" gradientTransform="matrix(0.39, -8.11, 7.9, 0.38, -3965.39, 983.27)" xlink:href="#radial-gradient"/><radialGradient id="radial-gradient-132" cx="344.68" cy="130.14" r="3.32" gradientTransform="matrix(0.73, -0.68, 0.66, 0.72, 5.49, 270.86)" gradientUnits="userSpaceOnUse"><stop offset="0" stop-color="#fff"/><stop offset="0.25" stop-color="#fff"/><stop offset="0.76" stop-color="#d0e6f5" stop-opacity="0"/></radialGradient></defs><g id="레이어_2" data-name="레이어 2"><g id="레이어_1-2" data-name="레이어 1"><path class="cls-1" d="M72.1,58.22c0-.78,4.06-1.66,9.19-2s9.32,0,9.37.82-4.06,1.67-9.19,2S72.15,59,72.1,58.22Z"/><path class="cls-2" d="M80.88,66.8c.78,0,1.37-4.18,1.33-9.31s-.71-9.3-1.49-9.29-1.37,4.17-1.33,9.31S80.11,66.81,80.88,66.8Z"/><path class="cls-3" d="M86.25,57.15a5.25,5.25,0,1,1-5.56-4.91A5.25,5.25,0,0,1,86.25,57.15Z"/><g class="cls-4"><path class="cls-5" d="M81.2,52.29a5.26,5.26,0,1,1-5.36,5A5.2,5.2,0,0,1,81.2,52.29Z"/><path class="cls-6" d="M81.28,51.92a5.65,5.65,0,1,1-5.76,5.38A5.57,5.57,0,0,1,81.28,51.92Z"/></g><g class="cls-7"><path class="cls-8" d="M81.27,51.1a6.47,6.47,0,1,1-6.6,6.17A6.4,6.4,0,0,1,81.27,51.1Z"/><path class="cls-9" d="M81.37,50.65a7,7,0,1,1-7.09,6.61A6.86,6.86,0,0,1,81.37,50.65Z"/></g><path class="cls-10" d="M92.6,9.31c0-.27,1.39-.57,3.15-.68s3.19,0,3.21.28-1.39.57-3.15.68S92.62,9.58,92.6,9.31Z"/><path class="cls-11" d="M95.61,12.25c.27,0,.47-1.43.45-3.19s-.24-3.18-.5-3.18-.47,1.43-.46,3.19S95.34,12.25,95.61,12.25Z"/><path class="cls-12" d="M97.45,8.94a1.8,1.8,0,1,1-1.91-1.68A1.81,1.81,0,0,1,97.45,8.94Z"/><g class="cls-4"><path class="cls-13" d="M95.72,7.28A1.8,1.8,0,1,1,93.88,9,1.78,1.78,0,0,1,95.72,7.28Z"/><path class="cls-14" d="M95.75,7.15a1.93,1.93,0,1,1-2,1.84A1.9,1.9,0,0,1,95.75,7.15Z"/></g><g class="cls-7"><path class="cls-15" d="M95.74,6.87A2.22,2.22,0,1,1,93.48,9,2.19,2.19,0,0,1,95.74,6.87Z"/><path class="cls-16" d="M95.78,6.72A2.38,2.38,0,1,1,93.35,9,2.34,2.34,0,0,1,95.78,6.72Z"/></g><path class="cls-17" d="M87.79,117.19c0-.31,1.63-.67,3.67-.8s3.73,0,3.75.33-1.62.67-3.67.8S87.81,117.5,87.79,117.19Z"/><path class="cls-18" d="M91.3,120.62c.31,0,.55-1.67.53-3.73s-.28-3.71-.59-3.71-.55,1.67-.53,3.72S91,120.62,91.3,120.62Z"/><path class="cls-19" d="M93.45,116.76a2.1,2.1,0,1,1-2.23-2A2.1,2.1,0,0,1,93.45,116.76Z"/><g class="cls-4"><path class="cls-20" d="M91.43,114.82a2.1,2.1,0,0,1-.2,4.2,2.1,2.1,0,0,1,.2-4.2Z"/><path class="cls-21" d="M91.46,114.67a2.26,2.26,0,1,1-2.3,2.15A2.23,2.23,0,0,1,91.46,114.67Z"/></g><g class="cls-7"><path class="cls-22" d="M91.46,114.34a2.59,2.59,0,1,1-2.64,2.46A2.56,2.56,0,0,1,91.46,114.34Z"/><path class="cls-23" d="M91.5,114.16a2.78,2.78,0,1,1-2.84,2.64A2.73,2.73,0,0,1,91.5,114.16Z"/></g><path class="cls-24" d="M0,8.88c0-.32,1.62-.67,3.67-.8s3.73,0,3.75.33-1.62.66-3.67.79S0,9.19,0,8.88Z"/><path class="cls-25" d="M3.51,12.3c.31,0,.55-1.67.53-3.72s-.28-3.72-.59-3.71S2.9,6.54,2.92,8.59,3.2,12.31,3.51,12.3Z"/><path class="cls-26" d="M5.66,8.45a2.1,2.1,0,1,1-2.23-2A2.1,2.1,0,0,1,5.66,8.45Z"/><g class="cls-4"><path class="cls-27" d="M3.64,6.5a2.1,2.1,0,0,1-.2,4.2,2.1,2.1,0,0,1,.2-4.2Z"/><path class="cls-28" d="M3.67,6.35a2.26,2.26,0,0,1-.22,4.52,2.26,2.26,0,0,1,.22-4.52Z"/></g><g class="cls-7"><path class="cls-29" d="M3.67,6a2.59,2.59,0,0,1-.25,5.17A2.59,2.59,0,0,1,3.67,6Z"/><path class="cls-30" d="M3.71,5.85a2.78,2.78,0,0,1-.27,5.55,2.78,2.78,0,0,1,.27-5.55Z"/></g><path class="cls-31" d="M30.13,71.52c0-.31,1.62-.67,3.68-.8s3.72,0,3.74.33-1.62.66-3.67.79S30.15,71.83,30.13,71.52Z"/><path class="cls-32" d="M33.64,74.94c.31,0,.55-1.66.53-3.72s-.28-3.71-.59-3.71-.55,1.67-.53,3.72S33.33,75,33.64,74.94Z"/><path class="cls-33" d="M35.79,71.09a2.1,2.1,0,1,1-2.23-2A2.1,2.1,0,0,1,35.79,71.09Z"/><g class="cls-4"><path class="cls-34" d="M33.77,69.14a2.11,2.11,0,1,1-2.15,2A2.07,2.07,0,0,1,33.77,69.14Z"/><path class="cls-35" d="M33.8,69a2.26,2.26,0,1,1-2.3,2.15A2.22,2.22,0,0,1,33.8,69Z"/></g><g class="cls-7"><path class="cls-36" d="M33.8,68.67a2.59,2.59,0,1,1-2.64,2.46A2.56,2.56,0,0,1,33.8,68.67Z"/><path class="cls-37" d="M33.84,68.49A2.78,2.78,0,0,1,33.57,74a2.78,2.78,0,0,1,.27-5.55Z"/></g><path class="cls-38" d="M45.81,25.29c0-.31,1.62-.66,3.67-.79s3.73,0,3.75.33-1.62.66-3.67.79S45.83,25.61,45.81,25.29Z"/><path class="cls-39" d="M49.32,28.72c.31,0,.55-1.67.53-3.72s-.28-3.72-.59-3.71S48.71,23,48.72,25,49,28.73,49.32,28.72Z"/><path class="cls-40" d="M51.47,24.87a2.1,2.1,0,1,1-2.23-2A2.1,2.1,0,0,1,51.47,24.87Z"/><g class="cls-4"><path class="cls-41" d="M49.45,22.92a2.1,2.1,0,1,1-2.15,2A2.07,2.07,0,0,1,49.45,22.92Z"/><path class="cls-42" d="M49.48,22.77a2.26,2.26,0,1,1-2.3,2.15A2.24,2.24,0,0,1,49.48,22.77Z"/></g><g class="cls-7"><path class="cls-43" d="M49.48,22.45a2.59,2.59,0,1,1-2.64,2.46A2.56,2.56,0,0,1,49.48,22.45Z"/><path class="cls-44" d="M49.51,22.27a2.77,2.77,0,1,1-2.83,2.64A2.74,2.74,0,0,1,49.51,22.27Z"/></g><path class="cls-45" d="M340,9.77c0-.43,2.24-.92,5.07-1.1s5.14,0,5.17.46-2.25.92-5.07,1.1S340,10.2,340,9.77Z"/><path class="cls-46" d="M344.8,14.5c.44,0,.76-2.3.74-5.13s-.4-5.13-.83-5.13S344,6.55,344,9.38,344.37,14.51,344.8,14.5Z"/><path class="cls-47" d="M347.76,9.18a2.89,2.89,0,1,1-3.06-2.71A2.9,2.9,0,0,1,347.76,9.18Z"/><g class="cls-4"><path class="cls-48" d="M345,6.5a2.9,2.9,0,1,1-3,2.76A2.86,2.86,0,0,1,345,6.5Z"/><path class="cls-49" d="M345,6.3a3.11,3.11,0,0,1-.29,6.22,3.07,3.07,0,0,1-2.88-3.26A3.06,3.06,0,0,1,345,6.3Z"/></g><g class="cls-7"><path class="cls-50" d="M345,5.85a3.57,3.57,0,1,1-3.64,3.39A3.53,3.53,0,0,1,345,5.85Z"/><path class="cls-51" d="M345.07,5.59a3.79,3.79,0,0,1,3.54,4,3.73,3.73,0,1,1-3.54-4Z"/></g><path class="cls-52" d="M296.75,15c0-.43,2.25-.92,5.08-1.1s5.14,0,5.16.45-2.24.92-5.07,1.1S296.78,15.46,296.75,15Z"/><path class="cls-53" d="M301.6,19.76c.43,0,.76-2.31.73-5.14s-.39-5.13-.82-5.12-.75,2.3-.73,5.13S301.17,19.76,301.6,19.76Z"/><path class="cls-54" d="M304.56,14.44a2.89,2.89,0,1,1-3.07-2.71A2.89,2.89,0,0,1,304.56,14.44Z"/><g class="cls-4"><path class="cls-55" d="M301.78,11.76a2.9,2.9,0,1,1-3,2.76A2.87,2.87,0,0,1,301.78,11.76Z"/><path class="cls-56" d="M301.82,11.55a3.11,3.11,0,1,1-3.18,3A3.08,3.08,0,0,1,301.82,11.55Z"/></g><g class="cls-7"><path class="cls-57" d="M301.81,11.1a3.57,3.57,0,1,1-3.64,3.4A3.51,3.51,0,0,1,301.81,11.1Z"/><path class="cls-58" d="M301.87,10.85A3.83,3.83,0,1,1,298,14.5,3.78,3.78,0,0,1,301.87,10.85Z"/></g><path class="cls-59" d="M355.72,56.5c0-.23,1.2-.5,2.71-.59s2.76,0,2.77.24-1.2.49-2.71.59S355.73,56.72,355.72,56.5Z"/><path class="cls-60" d="M358.31,59c.23,0,.41-1.23.39-2.75s-.21-2.75-.44-2.75-.4,1.24-.39,2.75S358.08,59,358.31,59Z"/><path class="cls-61" d="M359.9,56.18a1.55,1.55,0,1,1-1.65-1.45A1.55,1.55,0,0,1,359.9,56.18Z"/><g class="cls-4"><path class="cls-62" d="M358.41,54.74a1.56,1.56,0,1,1-1.59,1.48A1.54,1.54,0,0,1,358.41,54.74Z"/><path class="cls-63" d="M358.43,54.63a1.67,1.67,0,1,1-1.7,1.59A1.65,1.65,0,0,1,358.43,54.63Z"/></g><g class="cls-7"><path class="cls-64" d="M358.43,54.39a1.91,1.91,0,1,1-1.95,1.82A1.89,1.89,0,0,1,358.43,54.39Z"/><path class="cls-65" d="M358.46,54.26a2.05,2.05,0,0,1-.2,4.1,2.05,2.05,0,0,1,.2-4.1Z"/></g><path class="cls-66" d="M249.75,6.29c0-.23,1.2-.49,2.71-.59s2.76,0,2.77.25-1.2.49-2.71.58S249.76,6.52,249.75,6.29Z"/><path class="cls-67" d="M252.34,8.83c.23,0,.41-1.24.39-2.75s-.21-2.75-.43-2.75-.41,1.23-.4,2.75S252.11,8.83,252.34,8.83Z"/><path class="cls-68" d="M253.93,6a1.55,1.55,0,1,1-3.09.19A1.55,1.55,0,1,1,253.93,6Z"/><g class="cls-4"><path class="cls-69" d="M252.44,4.54A1.55,1.55,0,1,1,250.85,6,1.53,1.53,0,0,1,252.44,4.54Z"/><path class="cls-70" d="M252.46,4.43A1.67,1.67,0,1,1,250.76,6,1.64,1.64,0,0,1,252.46,4.43Z"/></g><g class="cls-7"><path class="cls-71" d="M252.46,4.19a1.91,1.91,0,1,1-2,1.82A1.88,1.88,0,0,1,252.46,4.19Z"/><path class="cls-72" d="M252.49,4.05a2.06,2.06,0,1,1-2.1,2A2,2,0,0,1,252.49,4.05Z"/></g><path class="cls-73" d="M316.24,6.82c0-.23,1.2-.5,2.72-.59s2.75,0,2.76.24-1.2.49-2.71.59S316.25,7.05,316.24,6.82Z"/><path class="cls-74" d="M318.83,9.35c.24,0,.41-1.23.4-2.75s-.21-2.75-.44-2.75-.41,1.24-.4,2.76S318.6,9.35,318.83,9.35Z"/><path class="cls-75" d="M320.42,6.5a1.55,1.55,0,1,1-1.64-1.45A1.55,1.55,0,0,1,320.42,6.5Z"/><g class="cls-4"><path class="cls-76" d="M318.93,5.06a1.56,1.56,0,1,1-1.59,1.48A1.54,1.54,0,0,1,318.93,5.06Z"/><path class="cls-77" d="M319,5a1.67,1.67,0,1,1-1.7,1.59A1.65,1.65,0,0,1,319,5Z"/></g><g class="cls-7"><path class="cls-78" d="M319,4.71A1.91,1.91,0,1,1,317,6.53,1.89,1.89,0,0,1,319,4.71Z"/><path class="cls-79" d="M319,4.58a2,2,0,0,1,1.89,2.14A2,2,0,1,1,319,4.58Z"/></g><path class="cls-80" d="M325.48,28.67c0-.09.45-.19,1-.23s1.05,0,1.06.1-.46.18-1,.22S325.48,28.76,325.48,28.67Z"/><path class="cls-81" d="M326.47,29.63c.09,0,.15-.47.15-1.05s-.09-1-.17-1-.16.47-.15,1.05S326.38,29.64,326.47,29.63Z"/><path class="cls-82" d="M327.07,28.55a.59.59,0,0,1-1.18.07.59.59,0,1,1,1.18-.07Z"/><g class="cls-4"><path class="cls-83" d="M326.5,28a.59.59,0,1,1-.6.56A.58.58,0,0,1,326.5,28Z"/><path class="cls-84" d="M326.51,28a.62.62,0,0,1,.59.66.62.62,0,1,1-1.24-.06A.63.63,0,0,1,326.51,28Z"/></g><g class="cls-7"><path class="cls-85" d="M326.51,27.87a.72.72,0,0,1,.68.76.73.73,0,0,1-.75.69.73.73,0,0,1,.07-1.45Z"/><path class="cls-86" d="M326.52,27.81a.79.79,0,0,1-.07,1.57.79.79,0,0,1,.07-1.57Z"/></g><path class="cls-87" d="M322.93,45.63c0-.23,1.2-.49,2.72-.59s2.75,0,2.77.24-1.21.5-2.72.59S322.94,45.86,322.93,45.63Z"/><path class="cls-88" d="M325.53,48.16c.23,0,.4-1.23.39-2.75s-.21-2.74-.44-2.74-.41,1.23-.39,2.75S325.3,48.16,325.53,48.16Z"/><path class="cls-89" d="M327.11,45.31a1.55,1.55,0,1,1-1.64-1.45A1.55,1.55,0,0,1,327.11,45.31Z"/><g class="cls-4"><path class="cls-90" d="M325.62,43.88A1.55,1.55,0,1,1,324,45.36,1.53,1.53,0,0,1,325.62,43.88Z"/><path class="cls-91" d="M325.64,43.77a1.67,1.67,0,1,1-1.7,1.58A1.65,1.65,0,0,1,325.64,43.77Z"/></g><g class="cls-7"><path class="cls-92" d="M325.64,43.53a1.91,1.91,0,1,1-1.95,1.82A1.88,1.88,0,0,1,325.64,43.53Z"/><path class="cls-93" d="M325.67,43.39a2.05,2.05,0,1,1-2.1,2A2,2,0,0,1,325.67,43.39Z"/></g><path class="cls-94" d="M278.29,54.11c0-.23,1.2-.5,2.71-.59s2.76,0,2.77.24-1.2.49-2.72.59S278.3,54.34,278.29,54.11Z"/><path class="cls-95" d="M280.88,56.64c.23,0,.41-1.23.39-2.75s-.21-2.75-.44-2.74-.4,1.23-.39,2.75S280.65,56.64,280.88,56.64Z"/><path class="cls-96" d="M282.47,53.79a1.55,1.55,0,1,1-1.65-1.45A1.55,1.55,0,0,1,282.47,53.79Z"/><g class="cls-4"><path class="cls-97" d="M281,52.35a1.56,1.56,0,1,1-1.59,1.48A1.54,1.54,0,0,1,281,52.35Z"/><path class="cls-98" d="M281,52.24a1.67,1.67,0,1,1-1.7,1.59A1.64,1.64,0,0,1,281,52.24Z"/></g><g class="cls-7"><path class="cls-99" d="M281,52A1.91,1.91,0,1,1,279,53.82,1.89,1.89,0,0,1,281,52Z"/><path class="cls-100" d="M281,51.87a2.05,2.05,0,1,1-2.09,2A2,2,0,0,1,281,51.87Z"/></g><g class="cls-101"><g class="cls-4"><path class="cls-102" d="M274.07,17.29a2.45,2.45,0,1,1-2.51,2.3A2.41,2.41,0,0,1,274.07,17.29Z"/><path class="cls-103" d="M274.11,17.12a2.63,2.63,0,1,1-2.7,2.47A2.59,2.59,0,0,1,274.11,17.12Z"/></g><path class="cls-104" d="M269.82,20c0-.37,1.89-.76,4.27-.89s4.33.06,4.35.42-1.89.76-4.28.89S269.83,20.37,269.82,20Z"/><path class="cls-105" d="M273.86,24c.36,0,.65-1.93.65-4.32s-.28-4.32-.64-4.32-.66,1.93-.66,4.32S273.5,24,273.86,24Z"/><path class="cls-106" d="M276.39,19.57a2.43,2.43,0,1,1-2.56-2.3A2.43,2.43,0,0,1,276.39,19.57Z"/></g><path class="cls-107" d="M173,14.12c0-.52,2.71-1.11,6.12-1.33s6.21,0,6.24.55-2.71,1.11-6.12,1.32S173,14.63,173,14.12Z"/><path class="cls-108" d="M178.85,19.82c.52,0,.91-2.77.88-6.19s-.47-6.19-1-6.19-.91,2.78-.88,6.2S178.33,19.83,178.85,19.82Z"/><path class="cls-109" d="M182.42,13.4a3.49,3.49,0,1,1-3.7-3.26A3.48,3.48,0,0,1,182.42,13.4Z"/><g class="cls-4"><path class="cls-110" d="M179.06,10.17a3.5,3.5,0,1,1-3.57,3.33A3.46,3.46,0,0,1,179.06,10.17Z"/><path class="cls-111" d="M179.11,9.92a3.76,3.76,0,1,1-3.83,3.58A3.72,3.72,0,0,1,179.11,9.92Z"/></g><g class="cls-7"><path class="cls-112" d="M179.11,9.38a4.31,4.31,0,1,1-4.4,4.1A4.25,4.25,0,0,1,179.11,9.38Z"/><path class="cls-113" d="M179.17,9.07a4.63,4.63,0,1,1-4.72,4.41A4.58,4.58,0,0,1,179.17,9.07Z"/></g><path class="cls-114" d="M116.26,3.57c0-.27,1.45-.59,3.28-.71s3.32,0,3.34.3-1.45.59-3.28.71S116.28,3.85,116.26,3.57Z"/><path class="cls-115" d="M119.39,6.63c.28,0,.49-1.49.48-3.32S119.61,0,119.34,0s-.49,1.49-.48,3.32S119.12,6.63,119.39,6.63Z"/><path class="cls-116" d="M121.31,3.19a1.87,1.87,0,1,1-2-1.75A1.87,1.87,0,0,1,121.31,3.19Z"/><g class="cls-4"><path class="cls-117" d="M119.51,1.46a1.85,1.85,0,0,1,1.73,2,1.83,1.83,0,1,1-3.65-.18A1.85,1.85,0,0,1,119.51,1.46Z"/><path class="cls-118" d="M119.54,1.33a2,2,0,0,1,1.86,2.1,2,2,0,1,1-3.92-.19A2,2,0,0,1,119.54,1.33Z"/></g><g class="cls-7"><path class="cls-119" d="M119.53,1a2.28,2.28,0,0,1,2.14,2.41,2.25,2.25,0,1,1-4.49-.22A2.27,2.27,0,0,1,119.53,1Z"/><path class="cls-120" d="M119.57.87a2.46,2.46,0,0,1,2.29,2.59A2.41,2.41,0,1,1,117,3.23,2.45,2.45,0,0,1,119.57.87Z"/></g><path class="cls-121" d="M196.52,4.21c0-.28,1.45-.6,3.28-.71s3.32,0,3.34.29-1.45.59-3.28.71S196.54,4.48,196.52,4.21Z"/><path class="cls-122" d="M199.65,7.26c.28,0,.49-1.48.47-3.32s-.25-3.31-.53-3.31-.49,1.49-.47,3.32S199.37,7.27,199.65,7.26Z"/><path class="cls-123" d="M201.56,3.82a1.87,1.87,0,1,1-2-1.75A1.87,1.87,0,0,1,201.56,3.82Z"/><g class="cls-4"><path class="cls-124" d="M199.77,2.09a1.86,1.86,0,0,1,1.73,2,1.83,1.83,0,1,1-3.65-.17A1.85,1.85,0,0,1,199.77,2.09Z"/><path class="cls-125" d="M199.79,2a2,2,0,0,1,1.86,2.1,2,2,0,1,1-3.91-.18A2,2,0,0,1,199.79,2Z"/></g><g class="cls-7"><path class="cls-126" d="M199.79,1.67a2.28,2.28,0,0,1,2.13,2.41,2.24,2.24,0,1,1-4.48-.22A2.27,2.27,0,0,1,199.79,1.67Z"/><path class="cls-127" d="M199.83,1.5a2.45,2.45,0,0,1,2.28,2.59,2.41,2.41,0,1,1-4.81-.23A2.45,2.45,0,0,1,199.83,1.5Z"/></g><path class="cls-128" d="M207.67,30.58c0-.1.55-.23,1.25-.27s1.27,0,1.27.11-.55.23-1.25.27S207.67,30.69,207.67,30.58Z"/><path class="cls-129" d="M208.86,31.75c.11,0,.19-.57.18-1.27s-.09-1.26-.2-1.26-.19.56-.18,1.26S208.76,31.75,208.86,31.75Z"/><path class="cls-130" d="M209.59,30.44a.71.71,0,1,1-.75-.67A.7.7,0,0,1,209.59,30.44Z"/><g class="cls-4"><path class="cls-131" d="M208.91,29.77a.71.71,0,0,1,.66.75.7.7,0,1,1-.66-.75Z"/><path class="cls-132" d="M208.92,29.72a.77.77,0,1,1-.79.73A.76.76,0,0,1,208.92,29.72Z"/></g><g class="cls-7"><path class="cls-133" d="M208.92,29.61a.88.88,0,0,1-.09,1.76.86.86,0,0,1-.81-.92A.87.87,0,0,1,208.92,29.61Z"/><path class="cls-134" d="M208.93,29.55a.92.92,0,0,1,.87,1,.93.93,0,0,1-1,.9.95.95,0,0,1,.09-1.89Z"/></g><path class="cls-135" d="M347.4,130.14a2.66,2.66,0,1,1-2.65-2.65A2.65,2.65,0,0,1,347.4,130.14Z"/></g></g></svg>