<?xml version="1.0" encoding="utf-8"?>
<!-- Generator: Adobe Illustrator 25.0.0, SVG Export Plug-In . SVG Version: 6.00 Build 0)  -->
<svg version="1.1" id="레이어_1" xmlns="http://www.w3.org/2000/svg" xmlns:xlink="http://www.w3.org/1999/xlink" x="0px"
	 y="0px" viewBox="0 0 170 120" style="enable-background:new 0 0 170 120;" xml:space="preserve">
<style type="text/css">
	.st0{fill:#FFFFFF;}
	.st1{fill:#CC6279;}
	.st2{fill:#878787;}
	.st3{fill:#FDFF9F;}
	.st4{fill:#D8D8D8;}
	.st5{fill:#595959;}
	.st6{fill:none;stroke:#281C16;stroke-miterlimit:10;}
	.st7{fill:#F9F2F3;stroke:#281C16;stroke-miterlimit:10;}
	.st8{fill:#FCFCFC;stroke:#281C16;stroke-miterlimit:10;}
	.st9{fill:#FCFBFA;stroke:#281C16;stroke-miterlimit:10;}
	.st10{fill:#FDFF9F;stroke:#281C16;stroke-miterlimit:10;}
</style>
<g id="XMLID_1_">
	<g>
		<path class="st0" d="M116.46,93.38v22.12H54.5V93.38h-7.33c-2.92,0-5.29-2.37-5.29-5.28V46.88h0.53h21.64
			c-1.13,2.61-1.75,5.49-1.75,8.5c0,12.25,10.28,22.16,22.94,22.16s22.94-9.91,22.94-22.16c0-3.01-0.62-5.88-1.75-8.5H129h0.3V88.1
			c0,2.92-2.36,5.28-5.29,5.28H116.46z M57.53,72.43c0-2.01-1.69-3.65-3.78-3.65s-3.78,1.64-3.78,3.65c0,2.01,1.69,3.65,3.78,3.65
			S57.53,74.45,57.53,72.43z"/>
		<path class="st1" d="M98.33,20.61v0.1h23.71c4.02,0,7.27,3.26,7.27,7.27v18.91H129h-22.58c-3.46-8.01-11.64-13.65-21.19-13.65
			s-17.73,5.64-21.19,13.65H42.42h-0.53V25.99c0-2.92,2.37-5.28,5.29-5.28h23.95v-0.1l4.53-7.3h18.13L98.33,20.61z M122.51,37.6
			v-7.71c0-1.09-0.89-1.99-1.99-1.99h-8.1c-1.1,0-1.99,0.89-1.99,1.99v7.71c0,1.09,0.89,1.99,1.99,1.99h8.1
			C121.61,39.58,122.51,38.69,122.51,37.6z M92.28,23.89v-0.73c0-2.22-1.8-4.01-4.02-4.01H82.7c-2.22,0-4.02,1.8-4.02,4.01v0.73
			c0,2.22,1.8,4.01,4.02,4.01h5.56C90.48,27.91,92.28,26.11,92.28,23.89z M66.59,35.21v-8.76H46.95v8.76H66.59z"/>
		<path class="st2" d="M122.51,29.89v7.71c0,1.09-0.89,1.99-1.99,1.99h-8.1c-1.1,0-1.99-0.89-1.99-1.99v-7.71
			c0-1.09,0.89-1.99,1.99-1.99h8.1C121.61,27.91,122.51,28.8,122.51,29.89z"/>
		<ellipse class="st2" cx="84.73" cy="55.64" rx="18.13" ry="17.52"/>
		<path class="st3" d="M92.28,23.16v0.73c0,2.22-1.8,4.01-4.02,4.01H82.7c-2.22,0-4.02-1.8-4.02-4.01v-0.73
			c0-2.22,1.8-4.01,4.02-4.01h5.56C90.48,19.15,92.28,20.94,92.28,23.16z"/>
		<rect x="46.95" y="26.45" class="st4" width="19.64" height="8.76"/>
		<rect x="49.97" y="13.31" class="st5" width="10.58" height="2.92"/>
	</g>
	<g>
		<path class="st6" d="M120.51,39.58h-8.1c-1.1,0-1.99-0.89-1.99-1.99v-7.71c0-1.09,0.89-1.99,1.99-1.99h8.1
			c1.1,0,1.99,0.89,1.99,1.99v7.71C122.51,38.69,121.61,39.58,120.51,39.58z"/>
		<path class="st6" d="M97.68,20.71h0.65h23.71c4.02,0,7.27,3.26,7.27,7.27v18.91V88.1c0,2.92-2.36,5.28-5.29,5.28h-7.56"/>
		<path class="st6" d="M54.5,93.38h-7.33c-2.92,0-5.29-2.37-5.29-5.28V46.88V25.99c0-2.92,2.37-5.28,5.29-5.28h23.95h0.83"/>
		<polyline class="st6" points="107.39,90 107.39,100.9 62.06,100.9 62.06,89.73 		"/>
		<polyline class="st6" points="116.46,89.22 116.46,93.38 116.46,115.5 54.5,115.5 54.5,93.38 54.5,89.22 		"/>
		<ellipse class="st6" cx="84.73" cy="55.64" rx="18.13" ry="17.52"/>
		<path class="st6" d="M106.43,46.88c1.13,2.61,1.75,5.49,1.75,8.5c0,12.25-10.28,22.16-22.94,22.16S62.3,67.63,62.3,55.38
			c0-3.01,0.62-5.88,1.75-8.5c3.46-8.01,11.64-13.65,21.19-13.65S102.97,38.87,106.43,46.88z"/>
		<ellipse class="st6" cx="53.75" cy="72.43" rx="3.78" ry="3.65"/>
		<rect x="46.95" y="26.45" class="st6" width="19.64" height="8.76"/>
		<line class="st6" x1="106.43" y1="46.88" x2="129" y2="46.88"/>
		<line class="st6" x1="42.42" y1="46.88" x2="64.05" y2="46.88"/>
		<line class="st6" x1="49.97" y1="83.38" x2="119.48" y2="83.38"/>
		<rect x="49.97" y="13.31" class="st6" width="10.58" height="2.92"/>
		<polyline class="st6" points="71.47,20.61 71.13,20.61 75.66,13.31 93.79,13.31 98.33,20.61 97.75,20.61 		"/>
		<path class="st6" d="M88.26,27.91H82.7c-2.22,0-4.02-1.8-4.02-4.01v-0.73c0-2.22,1.8-4.01,4.02-4.01h5.56
			c2.22,0,4.02,1.8,4.02,4.01v0.73C92.28,26.11,90.48,27.91,88.26,27.91z"/>
		<path class="st6" d="M79.5,68.97c0.45,0.29,1.15,0.67,2.07,0.8c0.88,0.13,0.91,0.04,1.42-0.09"/>
		<path class="st6" d="M69.45,53.86c-0.21,1.09-0.2,3.82,1,6.96c1.34,3.5,6.18,6.93,7.12,7.21"/>
		<line class="st6" x1="132.46" y1="25.48" x2="132.46" y2="36.04"/>
		<line class="st6" x1="132.46" y1="37.77" x2="132.46" y2="41.5"/>
		<line class="st6" x1="48.67" y1="28.04" x2="57.35" y2="28.04"/>
	</g>
</g>
<g>
	<polygon class="st7" points="137.75,88.02 116.28,80.24 125.49,53.22 146.97,61 	"/>
	<polygon class="st8" points="144.88,62.44 126.82,55.9 120.87,73.34 138.93,79.88 	"/>
	<rect x="139.97" y="63.89" class="st7" width="24.03" height="29.31"/>
	<rect x="142.5" y="66.44" class="st9" width="18.34" height="18.23"/>
</g>
<polygon class="st10" points="155.88,53.36 151.19,52.52 147.84,55.91 147.19,51.19 142.93,49.05 147.22,46.97 147.94,42.26 
	151.24,45.7 155.94,44.93 153.69,49.13 "/>
<rect x="18" y="62.61" transform="matrix(0.986 -0.1668 0.1668 0.986 -12.4647 6.0864)" class="st7" width="24.03" height="29.31"/>
<rect x="20.03" y="65.26" transform="matrix(0.986 -0.1668 0.1668 0.986 -11.9947 5.9111)" class="st9" width="18.34" height="18.23"/>
<polygon class="st10" points="12.21,65.69 9.75,63.05 6.19,63.58 7.94,60.43 6.33,57.2 9.87,57.89 12.44,55.37 12.88,58.95 
	16.07,60.61 12.81,62.13 "/>
</svg>
