<svg xmlns="http://www.w3.org/2000/svg" xmlns:xlink="http://www.w3.org/1999/xlink" viewBox="0 0 360 343.39"><defs><style>.cls-1{fill:url(#무제_그라디언트_11);}.cls-2{fill:url(#radial-gradient);}.cls-3{fill:url(#radial-gradient-2);}.cls-4{fill:url(#radial-gradient-3);}.cls-5,.cls-6,.cls-7{opacity:0.5;}.cls-5{fill:url(#linear-gradient);}.cls-6{fill:url(#linear-gradient-2);}.cls-7{fill:url(#linear-gradient-3);}.cls-8{opacity:0.75;}.cls-12,.cls-16,.cls-21,.cls-24,.cls-32,.cls-9{opacity:0.2;}.cls-10{fill:#ce7c24;}.cls-11{fill:#b26110;}.cls-12{fill:#89490e;}.cls-13{fill:url(#linear-gradient-4);}.cls-14,.cls-15{opacity:0.95;}.cls-14{fill:url(#linear-gradient-5);}.cls-15{fill:url(#linear-gradient-6);}.cls-16{fill:url(#linear-gradient-7);}.cls-17{fill:#683a2c;}.cls-18{fill:#89432b;}.cls-19{fill:#99573d;}.cls-20{fill:#8e4a32;}.cls-21{fill:url(#linear-gradient-8);}.cls-22{fill:#f7d6a1;}.cls-23{fill:#f2c691;opacity:0.7;}.cls-24{fill:url(#linear-gradient-9);}.cls-25{opacity:0.9;}.cls-26,.cls-31{opacity:0.1;}.cls-26{fill:url(#linear-gradient-10);}.cls-27{fill:#277543;}.cls-28{fill:#1e6837;}.cls-29{fill:#e0cd5a;}.cls-30{fill:#d1b83d;}.cls-31{fill:url(#linear-gradient-11);}.cls-32,.cls-33{fill:#594938;}</style><linearGradient id="무제_그라디언트_11" x1="180" y1="341.94" x2="180" y2="265.81" gradientUnits="userSpaceOnUse"><stop offset="0.04" stop-color="#ffd996"/><stop offset="0.37" stop-color="#feda99"/><stop offset="0.63" stop-color="#f9dca3"/><stop offset="0.87" stop-color="#f1e0b4"/><stop offset="1" stop-color="#ece3c0"/></linearGradient><radialGradient id="radial-gradient" cx="265.3" cy="83.7" r="83.7" gradientTransform="translate(171.21 344.79) rotate(-87.25) scale(1 0.97)" gradientUnits="userSpaceOnUse"><stop offset="0" stop-color="#fbeed0"/><stop offset="0.85" stop-color="#fbf6c2" stop-opacity="0"/></radialGradient><radialGradient id="radial-gradient-2" cx="265.3" cy="83.7" r="60.64" gradientTransform="translate(171.21 344.79) rotate(-87.25) scale(1 0.97)" gradientUnits="userSpaceOnUse"><stop offset="0" stop-color="#fbeed0"/><stop offset="0.89" stop-color="#fbf6c2" stop-opacity="0"/></radialGradient><radialGradient id="radial-gradient-3" cx="265.3" cy="83.7" r="36.11" gradientTransform="translate(171.21 344.79) rotate(-87.25) scale(1 0.97)" gradientUnits="userSpaceOnUse"><stop offset="0" stop-color="#fbf6c7"/><stop offset="0.89" stop-color="#fbf6c2" stop-opacity="0.54"/></radialGradient><linearGradient id="linear-gradient" x1="60.8" y1="108.73" x2="60.8" y2="178.16" gradientUnits="userSpaceOnUse"><stop offset="0" stop-color="#fff"/><stop offset="0.06" stop-color="#fff" stop-opacity="0.86"/><stop offset="0.16" stop-color="#fff" stop-opacity="0.66"/><stop offset="0.26" stop-color="#fff" stop-opacity="0.48"/><stop offset="0.37" stop-color="#fff" stop-opacity="0.33"/><stop offset="0.48" stop-color="#fff" stop-opacity="0.21"/><stop offset="0.59" stop-color="#fff" stop-opacity="0.12"/><stop offset="0.71" stop-color="#fff" stop-opacity="0.05"/><stop offset="0.84" stop-color="#fff" stop-opacity="0.01"/><stop offset="1" stop-color="#fff" stop-opacity="0"/></linearGradient><linearGradient id="linear-gradient-2" x1="269.63" y1="101.67" x2="269.63" y2="198.72" gradientUnits="userSpaceOnUse"><stop offset="0" stop-color="#fff"/><stop offset="0.08" stop-color="#fff" stop-opacity="0.77"/><stop offset="0.19" stop-color="#fff" stop-opacity="0.5"/><stop offset="0.28" stop-color="#fff" stop-opacity="0.28"/><stop offset="0.36" stop-color="#fff" stop-opacity="0.13"/><stop offset="0.42" stop-color="#fff" stop-opacity="0.03"/><stop offset="0.46" stop-color="#fff" stop-opacity="0"/></linearGradient><linearGradient id="linear-gradient-3" x1="305.76" y1="51.76" x2="305.76" y2="145.11" gradientUnits="userSpaceOnUse"><stop offset="0" stop-color="#fff"/><stop offset="0.04" stop-color="#fff" stop-opacity="0.86"/><stop offset="0.11" stop-color="#fff" stop-opacity="0.66"/><stop offset="0.17" stop-color="#fff" stop-opacity="0.48"/><stop offset="0.24" stop-color="#fff" stop-opacity="0.33"/><stop offset="0.32" stop-color="#fff" stop-opacity="0.21"/><stop offset="0.39" stop-color="#fff" stop-opacity="0.12"/><stop offset="0.47" stop-color="#fff" stop-opacity="0.05"/><stop offset="0.56" stop-color="#fff" stop-opacity="0.01"/><stop offset="0.66" stop-color="#fff" stop-opacity="0"/></linearGradient><linearGradient id="linear-gradient-4" x1="180.04" y1="170.73" x2="180.04" y2="359.94" gradientUnits="userSpaceOnUse"><stop offset="0" stop-color="#eec17c"/><stop offset="1" stop-color="#e8e3bb"/></linearGradient><linearGradient id="linear-gradient-5" x1="180.12" y1="217" x2="180.12" y2="312.47" gradientUnits="userSpaceOnUse"><stop offset="0" stop-color="#dd925d"/><stop offset="1" stop-color="#e2b384"/></linearGradient><linearGradient id="linear-gradient-6" x1="179.97" y1="251.4" x2="179.97" y2="332.45" gradientUnits="userSpaceOnUse"><stop offset="0" stop-color="#cd6831"/><stop offset="1" stop-color="#dcae7f"/></linearGradient><linearGradient id="linear-gradient-7" x1="457.79" y1="-229.26" x2="532.8" y2="-229.26" gradientTransform="translate(825 81.77) rotate(180)" gradientUnits="userSpaceOnUse"><stop offset="0.44" stop-color="#fff" stop-opacity="0"/><stop offset="1"/></linearGradient><linearGradient id="linear-gradient-8" x1="329.54" y1="335.59" x2="318.44" y2="338.51" gradientTransform="matrix(1, 0, 0, 1, 0, 0)" xlink:href="#linear-gradient-7"/><linearGradient id="linear-gradient-9" x1="323.35" y1="336.57" x2="310.59" y2="339.93" gradientTransform="matrix(1, 0, 0, 1, 0, 0)" xlink:href="#linear-gradient-7"/><linearGradient id="linear-gradient-10" x1="727.44" y1="-248.71" x2="762.57" y2="-248.71" xlink:href="#linear-gradient-7"/><linearGradient id="linear-gradient-11" x1="695.94" y1="-222.56" x2="724.94" y2="-222.56" xlink:href="#linear-gradient-7"/></defs><g id="레이어_2" data-name="레이어 2"><g id="레이어_1-2" data-name="레이어 1"><rect class="cls-1" y="264.39" width="360" height="79"/><path class="cls-2" d="M349,83.7A83.71,83.71,0,1,1,265.3,0,83.71,83.71,0,0,1,349,83.7Z"/><path class="cls-3" d="M325.94,83.7A60.65,60.65,0,1,1,265.3,23.06,60.64,60.64,0,0,1,325.94,83.7Z"/><path class="cls-4" d="M301.4,83.7a36.11,36.11,0,1,1-36.1-36.11A36.1,36.1,0,0,1,301.4,83.7Z"/><path class="cls-5" d="M113.94,146a10.64,10.64,0,0,0,1.36-5.2c0-6.22-5.39-11.26-12-11.26l-.48,0c-1.73-6.49-8-11.29-15.45-11.29a16.36,16.36,0,0,0-12.12,5.24,16.34,16.34,0,0,0-7.82-2h-.06c-.63-7.5-7.34-13.4-15.53-13.4a15.79,15.79,0,0,0-13.43,7.2,12.18,12.18,0,0,0-10.83.51A16.28,16.28,0,0,0,15,110.17,15.89,15.89,0,0,0,0,120.1v39.39H4v.14h70.7v0l46.92.07v-4.17A22.79,22.79,0,0,0,113.94,146Z"/><path class="cls-6" d="M347.92,142.73c-1.6-6.85-7.37-11.93-14.26-11.93l-.59,0c-2.11-9.06-9.76-15.77-18.89-15.77a18.92,18.92,0,0,0-14.81,7.32,18,18,0,0,0-9.56-2.75h-.07c-.78-10.49-9-18.73-19-18.73a18.84,18.84,0,0,0-16.43,10,13.26,13.26,0,0,0-13.23.72,19,19,0,0,0-15.33-8c-10.75,0-19.47,9.32-19.47,20.83a22.62,22.62,0,0,0,.37,4.06,12.45,12.45,0,0,0-1.84-.14c-7.41,0-13.42,6.39-13.49,14.3Z"/><path class="cls-7" d="M360,67.52a19.12,19.12,0,0,0-4.56,4.15,17.36,17.36,0,0,0-9.2-2.65h-.06c-.75-10.08-8.64-18-18.26-18a18.14,18.14,0,0,0-15.81,9.68,12.61,12.61,0,0,0-5.76-1.38,12.76,12.76,0,0,0-7,2.07,18.25,18.25,0,0,0-14.74-7.68c-10.34,0-18.73,9-18.73,20a20.91,20.91,0,0,0,.36,3.91,12.94,12.94,0,0,0-1.77-.13c-7.13,0-12.91,6.15-13,13.75H360Z"/><g class="cls-8"><polygon class="cls-9" points="124.25 219.69 124.25 218.22 124.25 212.4 120.57 212.4 120.57 210.99 120.57 205.18 82.08 205.18 82.08 210.99 82.08 212.4 78.39 212.4 78.39 218.22 78.39 219.69 73.46 219.69 73.46 225.5 73.46 226.97 129.19 226.97 129.19 225.5 129.19 219.69 124.25 219.69"/><rect class="cls-10" x="72.85" y="219.69" width="55.73" height="7.29"/><rect class="cls-11" x="72.85" y="225.5" width="55.73" height="1.47"/><rect class="cls-10" x="77.78" y="212.4" width="45.86" height="7.29"/><rect class="cls-11" x="77.78" y="218.22" width="45.86" height="1.47"/><rect class="cls-10" x="81.47" y="205.18" width="38.48" height="7.29"/><rect class="cls-11" x="81.47" y="210.99" width="38.48" height="1.47"/><polygon class="cls-9" points="110.63 198.24 110.63 196.77 110.63 190.95 106.94 190.95 106.94 189.54 106.94 183.73 95.7 183.73 95.7 189.54 95.7 190.95 92.02 190.95 92.02 196.77 92.02 198.24 87.08 198.24 87.08 204.06 87.08 205.53 115.56 205.53 115.56 204.06 115.56 198.24 110.63 198.24"/><rect class="cls-10" x="86.47" y="198.24" width="28.48" height="7.29"/><rect class="cls-11" x="86.47" y="204.05" width="28.48" height="1.47"/><rect class="cls-10" x="91.41" y="190.95" width="18.62" height="7.29"/><rect class="cls-11" x="91.41" y="196.77" width="18.62" height="1.47"/><rect class="cls-10" x="95.1" y="183.73" width="11.24" height="7.29"/><rect class="cls-11" x="95.1" y="189.54" width="11.24" height="1.47"/><polygon class="cls-12" points="123.97 219.69 123.97 212.4 120.28 212.4 120.28 205.18 115.28 205.18 115.28 198.24 110.35 198.24 110.35 190.95 106.66 190.95 106.66 183.73 100.82 183.73 100.82 226.97 128.9 226.97 128.9 219.69 123.97 219.69"/></g><g class="cls-8"><polygon class="cls-9" points="81.36 212.92 81.36 211.45 81.36 205.65 77.68 205.65 77.68 204.24 77.68 198.44 39.26 198.44 39.26 204.24 39.26 205.65 35.58 205.65 35.58 211.45 35.58 212.92 30.66 212.92 30.66 218.72 30.66 220.19 86.28 220.19 86.28 218.72 86.28 212.92 81.36 212.92"/><rect class="cls-10" x="30.05" y="212.92" width="55.63" height="7.27"/><rect class="cls-11" x="30.05" y="218.73" width="55.63" height="1.47"/><rect class="cls-10" x="34.98" y="205.65" width="45.78" height="7.27"/><rect class="cls-11" x="34.98" y="211.45" width="45.78" height="1.47"/><rect class="cls-10" x="38.66" y="198.44" width="38.41" height="7.27"/><rect class="cls-11" x="38.66" y="204.24" width="38.41" height="1.47"/><polygon class="cls-9" points="67.76 191.51 67.76 190.04 67.76 184.24 64.08 184.24 64.08 182.83 64.08 177.03 52.86 177.03 52.86 182.83 52.86 184.24 49.18 184.24 49.18 190.04 49.18 191.51 44.26 191.51 44.26 197.31 44.26 198.78 72.69 198.78 72.69 197.31 72.69 191.51 67.76 191.51"/><rect class="cls-10" x="43.65" y="191.51" width="28.43" height="7.27"/><rect class="cls-11" x="43.65" y="197.31" width="28.43" height="1.47"/><rect class="cls-10" x="48.57" y="184.24" width="18.58" height="7.27"/><rect class="cls-11" x="48.57" y="190.04" width="18.58" height="1.47"/><rect class="cls-10" x="52.25" y="177.02" width="11.22" height="7.27"/><rect class="cls-11" x="52.25" y="182.83" width="11.22" height="1.47"/><polygon class="cls-12" points="81.08 212.92 81.08 205.65 77.39 205.65 77.39 198.44 72.4 198.44 72.4 191.51 67.48 191.51 67.48 184.24 63.8 184.24 63.8 177.03 57.97 177.03 57.97 220.19 86 220.19 86 212.92 81.08 212.92"/></g><path class="cls-13" d="M359.54,201c-14.89-19.78-29.56-31.63-37.94-30.16-17.92,3.16-22.07,16.63-38.21,40.3s-38.62,21.22-67.3,8.6-43-17.36-71.7,0-59.06-11.62-83-15.51C35.25,200,7.9,213,.55,224.36v23.79h359Z"/><path class="cls-14" d="M359.7,245.9c-15.79,2.73-31.93,0-45-3.88a240.88,240.88,0,0,0-28.21-11.67h0a237.73,237.73,0,0,0-70.42-12.93h0l-2,0h-.41l-2,0h0a237.68,237.68,0,0,0-70.42,12.93h0A240.88,240.88,0,0,0,113,242c-15.06,4.47-34.15,7.4-52.09,2.28C26.93,234.59,3.23,219.74.55,218v59.13H359.7Z"/><path class="cls-15" d="M339.67,254.45c-84.2-32.14-108.74-2.15-164.87-2.15s-70.51-26.19-108.59-12.85C2.6,261.72.62,257.9.24,257.93v21.39H359.7V257.93C349.77,258,339.67,254.45,339.67,254.45Z"/><path class="cls-16" d="M267.23,311c0-2.53,14.22-4.57,31.77-4.57s31.77,2,31.77,4.57S316.54,315.6,299,315.6,267.23,313.55,267.23,311Z"/><path class="cls-9" d="M315.25,279.92v-.08c.42-9.93-4.63-10-4.63-10h0a22,22,0,0,0-2.11-4.51c-.22-.36-.42-.7-.63-1l-.3-.46-.3-.47q-.19-.28-.39-.54l-.2-.3-.43-.55-.16-.2c-.15-.19-.31-.37-.46-.54l-.11-.13-.5-.51-.08-.08c-.18-.17-.36-.32-.54-.47l0,0c-2.1-1.71-4.49-2.14-8.1-1.64h0s-6.76.06-8.93,8.41c-2.75,0-7.47.64-10.28,4.28,0,0-9.94,1.57-11-11.46,0,0-5.42-6.26-10.84,1,0,0-8.14,2.43-6.33,6.77s9.94-1.56,9.94-1.56,2.78,12.91,15.19,14.25a6.44,6.44,0,0,0,1.62,3h0l.35.36.11.12.28.26.16.14.28.23.19.15c.09.07.19.15.3.22l.21.15.33.22.24.15.38.22.24.13.46.23a1.51,1.51,0,0,0,.22.11l.74.33h0l.76.29.13,0v6.42s-.09,2.17,1.36,3c0,3.11-.07,10.81,0,12.66,0,0-3.79.47-4.52,3.28h5.56l-.06.25,6.62-.49L289.46,296c1.11-.82.67-3.09.67-3.09l1-5.1a81.79,81.79,0,0,0,8.85-.21,7.63,7.63,0,0,0,1.36,2.51s2.79,2.8,2.44,5.76a1.93,1.93,0,0,0,.8,1.42c0,3.58-.05,9.69,0,11.32,0,0-3.79.47-4.52,3.28h6.31c0,.13-.05.26-.07.39l6.57-1-1.7-15.4a6.18,6.18,0,0,0-.16-1.46l0-.32h0a20.55,20.55,0,0,0-1.56-4c-2.88-5.81,3.36-4.53,1.34-12.89a14.59,14.59,0,0,0,.19-6.25c1.51.64,3.89,2.68,3.48,9.15a1.06,1.06,0,1,0,1.8.79A1,1,0,0,0,315.25,279.92ZM284.6,310l.71-15.06a5.51,5.51,0,0,0,0-2l.47-2.41v2.41a4.25,4.25,0,0,0,.73,2.48c.19,2.66.83,11.19,1.07,13.15A7.27,7.27,0,0,0,284.6,310Zm22.16.88.68-14.48q0-.19.06-.42a1.93,1.93,0,0,0,1,1.19c.54,3.55,1.46,9.6,1.79,11.2A6.49,6.49,0,0,0,306.76,310.9Z"/><path class="cls-17" d="M307.3,294.57s1.72,11.52,2.18,13.82c0,0-3.67,1-4,3.89l6.57-1-1.89-17.18Z"/><path class="cls-18" d="M299,280.38s1.6,7.89,4.43,10.19c0,0,3.19,2.36,3.31,5.33,0,0,.3,1.94,3.06,1.53,0,0,2.06-.79-1.15-7.28s5-4.12.25-16.3Z"/><path class="cls-17" d="M285.69,294.6s.84,11.61,1.14,13.94c0,0-3.74.75-4.25,3.6l6.63-.49-.6-17.27Z"/><path class="cls-18" d="M285,281v11.94s-.13,3.15,2.45,3.38,1.87-3.38,1.87-3.38l2.11-10.81Z"/><path class="cls-19" d="M307.71,265.36c-3.58-6.06-6.2-7.8-12.23-7h0s-6.76.06-8.94,8.41h0c-2.75,0-7.47.64-10.28,4.28,0,0-9.94,1.57-11-11.46,0,0-5.43-6.26-10.85,1,0,0-8.13,2.43-6.32,6.77s9.94-1.56,9.94-1.56,2.78,12.91,15.18,14.25c0,0,1.08,7.29,15.18,7.64s19.34-.52,20.78-6.95S311.5,271.79,307.71,265.36Z"/><path class="cls-18" d="M314.46,279.92v-.08c.42-9.93-4.63-10-4.63-10l-.88.85s5.25.08,4.67,9.45a1,1,0,0,0-.38.79,1.09,1.09,0,0,0,2.17,0A1,1,0,0,0,314.46,279.92Z"/><path class="cls-17" d="M281.6,294.63s-.1,11.64,0,14c0,0-3.79.47-4.52,3.28h6.65l.81-17.26Z"/><path class="cls-20" d="M286.43,283.31a14.45,14.45,0,0,1-6,1.23h-.2v8.38s-.13,3.15,2.45,3.38,1.87-3.38,1.87-3.38Z"/><path class="cls-17" d="M303.8,294.63s-.1,11.64,0,14c0,0-3.79.47-4.52,3.28h6.65l.81-17.26Z"/><path class="cls-20" d="M297.76,279.4s.35,8,2.79,10.71c0,0,2.79,2.8,2.44,5.76,0,0,0,1.95,2.79,1.95,0,0,2.16-.48,0-7.37s5.57-3.35,2.78-16.08Z"/><path class="cls-18" d="M307.71,265.36c-1.64-2.77-3.07-4.63-4.73-5.76a22.79,22.79,0,0,1-7.19,13.75c-5.8,5.37-13.2,8.29-21,9.78,1.82,2.05,5.64,4.44,13.56,4.64,14.1.35,19.34-.52,20.78-6.95S311.5,271.79,307.71,265.36Z"/><path d="M254.39,260.67l-.58.19c3.76,1.93,3.56,5.14,3.56,5.14l.64-.12A6.09,6.09,0,0,0,254.39,260.67Z"/><path d="M258,265.53l.05.35c5.87-1.74,7.23-5.21,7.23-5.21v-1C264.85,262.93,258,265.53,258,265.53Z"/><path class="cls-19" d="M259.42,258.78s.77-4.3,2.47-4.3,2.31.75,1.23,2.52S259.42,258.78,259.42,258.78Z"/><polygon class="cls-21" points="309.02 339.78 319.9 339.78 324.5 338.3 312.94 338.3 309.02 339.78"/><path class="cls-22" d="M309,339.78H319.9s.39-3.89-5.39-4S309,339.78,309,339.78Z"/><path class="cls-23" d="M314.51,335.74H314a11.77,11.77,0,0,1,3,4h2.91S320.29,335.89,314.51,335.74Z"/><polygon class="cls-24" points="299.76 341.39 312.26 341.39 317.55 339.69 304.26 339.69 299.76 341.39"/><path class="cls-22" d="M299.76,341.39h12.5s.45-4.47-6.2-4.65S299.76,341.39,299.76,341.39Z"/><path class="cls-23" d="M306.06,336.74h-.56a13.34,13.34,0,0,1,3.41,4.65h3.35S312.71,336.92,306.06,336.74Z"/><g class="cls-25"><path class="cls-26" d="M43.75,330.49c0-1.23,6.66-2.23,14.88-2.23s14.89,1,14.89,2.23-6.67,2.22-14.89,2.22S43.75,331.72,43.75,330.49Z"/><path class="cls-9" d="M74.86,310.36V298.88h0a3.79,3.79,0,0,0-7.58,0h0v9.49l-2.83,2.1V287.58h0a5.52,5.52,0,0,0-11,0h0v12.84l-2.9-2.14v-9.49h0a3.79,3.79,0,1,0-7.57,0h0v11.94h0a3.76,3.76,0,0,0,1.49,2.49h0l9,6.62,0,0v21H64.43V319.92l8.9-6.59h0a3.76,3.76,0,0,0,1.49-2.49h0Z"/><path class="cls-27" d="M43.94,303.22a3.79,3.79,0,1,1,4.51-6.08h0l8.94,6.62-4.52,6.1-8.94-6.62Z"/><path class="cls-28" d="M43.94,303.22a3.78,3.78,0,0,1-.79-5.29l12,8.88-2.26,3-8.94-6.62Z"/><path class="cls-27" d="M42.42,288.79a3.79,3.79,0,1,1,7.58,0h0v11.94h-7.6V288.79Z"/><path class="cls-28" d="M42.42,288.79A3.79,3.79,0,0,1,46.2,285v15.73H42.41V288.79Z"/><polyline class="cls-29" points="46.16 288.1 46.94 288.1 46.24 286.66 46.23 286.66 45.54 288.1 46.32 288.1"/><polygon class="cls-30" points="46.24 286.66 46.24 286.66 46.24 288.1 46.94 288.1 46.24 286.66"/><polyline class="cls-29" points="46.16 292.32 46.94 292.32 46.24 290.88 46.23 290.88 45.54 292.32 46.32 292.32"/><polygon class="cls-30" points="46.24 290.88 46.24 290.88 46.24 292.32 46.94 292.32 46.24 290.88"/><polyline class="cls-29" points="46.16 296.54 46.94 296.54 46.24 295.1 46.23 295.1 45.54 296.54 46.32 296.54"/><polygon class="cls-30" points="46.24 295.1 46.24 295.1 46.24 296.54 46.94 296.54 46.24 295.1"/><polyline class="cls-29" points="46.16 300.76 46.94 300.76 46.24 299.32 46.23 299.32 45.54 300.76 46.32 300.76"/><polygon class="cls-30" points="46.24 299.32 46.24 299.32 46.24 300.76 46.94 300.76 46.24 299.32"/><polyline class="cls-29" points="49.64 303.46 50.05 302.79 48.45 302.65 48.45 302.66 49.33 303.99 49.73 303.32"/><polygon class="cls-30" points="48.45 302.65 48.45 302.65 49.68 303.39 50.05 302.79 48.45 302.65"/><polyline class="cls-29" points="52.9 305.44 53.3 304.77 51.71 304.63 51.71 304.64 52.58 305.98 52.98 305.3"/><polygon class="cls-30" points="51.71 304.63 51.71 304.64 52.94 305.37 53.3 304.77 51.71 304.63"/><path class="cls-27" d="M72.86,313.32a3.79,3.79,0,0,0-4.51-6.09h0l-8.94,6.62,4.52,6.1,9-6.62Z"/><path class="cls-28" d="M72.86,313.32a3.78,3.78,0,0,0,.79-5.29l-12,8.87L63.92,320l8.94-6.62Z"/><path class="cls-27" d="M74.38,298.88a3.79,3.79,0,0,0-7.57,0h0v11.95h7.6V298.88Z"/><path class="cls-28" d="M74.38,298.88a3.78,3.78,0,0,0-3.78-3.78v15.73h3.79V298.88Z"/><polyline class="cls-29" points="70.64 298.19 69.86 298.19 70.56 296.75 70.57 296.75 71.27 298.19 70.48 298.19"/><polygon class="cls-30" points="70.56 296.75 70.57 296.75 70.57 298.19 69.86 298.19 70.56 296.75"/><polyline class="cls-29" points="70.64 302.41 69.86 302.41 70.56 300.98 70.57 300.98 71.27 302.41 70.48 302.41"/><polygon class="cls-30" points="70.56 300.98 70.57 300.98 70.57 302.41 69.86 302.41 70.56 300.98"/><polyline class="cls-29" points="70.64 306.64 69.86 306.64 70.56 305.2 70.57 305.2 71.27 306.64 70.48 306.64"/><polygon class="cls-30" points="70.56 305.2 70.57 305.2 70.57 306.64 69.86 306.64 70.56 305.2"/><polyline class="cls-29" points="70.64 310.86 69.86 310.86 70.56 309.42 70.57 309.42 71.27 310.86 70.48 310.86"/><polygon class="cls-30" points="70.56 309.42 70.57 309.42 70.57 310.86 69.86 310.86 70.56 309.42"/><polyline class="cls-29" points="67.16 313.56 66.75 312.88 68.35 312.74 68.35 312.75 67.48 314.09 67.08 313.42"/><polygon class="cls-30" points="68.35 312.74 68.35 312.75 67.12 313.49 66.75 312.88 68.35 312.74"/><polyline class="cls-29" points="63.9 315.54 63.5 314.87 65.09 314.73 65.09 314.73 64.22 316.07 63.82 315.4"/><polygon class="cls-30" points="65.09 314.73 65.09 314.73 63.86 315.47 63.5 314.87 65.09 314.73"/><path class="cls-27" d="M63.94,287.58a5.51,5.51,0,0,0-11,0h0V330.8H64V287.58Z"/><path class="cls-28" d="M63.94,287.58a5.51,5.51,0,0,0-5.5-5.51V330.8H64V287.58Z"/><polyline class="cls-29" points="58.35 285.51 59.13 285.51 58.44 284.07 58.42 284.07 57.73 285.51 58.51 285.51"/><polygon class="cls-30" points="58.44 284.07 58.43 284.07 58.43 285.51 59.13 285.51 58.44 284.07"/><polyline class="cls-29" points="58.35 289.84 59.13 289.84 58.44 288.4 58.42 288.4 57.73 289.84 58.51 289.84"/><polygon class="cls-30" points="58.44 288.4 58.43 288.4 58.43 289.84 59.13 289.84 58.44 288.4"/><polyline class="cls-29" points="58.35 294.16 59.13 294.16 58.44 292.72 58.42 292.72 57.73 294.16 58.51 294.16"/><polygon class="cls-30" points="58.44 292.72 58.43 292.72 58.43 294.16 59.13 294.16 58.44 292.72"/><polyline class="cls-29" points="58.35 298.49 59.13 298.49 58.44 297.05 58.42 297.05 57.73 298.49 58.51 298.49"/><polygon class="cls-30" points="58.44 297.05 58.43 297.05 58.43 298.49 59.13 298.49 58.44 297.05"/><polyline class="cls-29" points="58.35 302.81 59.13 302.81 58.44 301.37 58.42 301.37 57.73 302.81 58.51 302.81"/><polygon class="cls-30" points="58.44 301.37 58.43 301.37 58.43 302.81 59.13 302.81 58.44 301.37"/><polyline class="cls-29" points="58.35 307.13 59.13 307.13 58.44 305.69 58.42 305.69 57.73 307.13 58.51 307.13"/><polygon class="cls-30" points="58.44 305.69 58.43 305.69 58.43 307.13 59.13 307.13 58.44 305.69"/><polyline class="cls-29" points="58.35 311.45 59.13 311.45 58.44 310.01 58.42 310.01 57.73 311.45 58.51 311.45"/><polygon class="cls-30" points="58.44 310.01 58.43 310.01 58.43 311.45 59.13 311.45 58.44 310.01"/><polyline class="cls-29" points="58.35 315.78 59.13 315.78 58.44 314.34 58.42 314.34 57.73 315.78 58.51 315.78"/><polygon class="cls-30" points="58.44 314.34 58.43 314.34 58.43 315.78 59.13 315.78 58.44 314.34"/><polyline class="cls-29" points="58.35 320.1 59.13 320.1 58.44 318.66 58.42 318.66 57.73 320.1 58.51 320.1"/><polygon class="cls-30" points="58.44 318.66 58.43 318.66 58.43 320.1 59.13 320.1 58.44 318.66"/><polyline class="cls-29" points="58.35 324.42 59.13 324.42 58.44 322.98 58.42 322.98 57.73 324.42 58.51 324.42"/><polygon class="cls-30" points="58.44 322.98 58.43 322.98 58.43 324.42 59.13 324.42 58.44 322.98"/><polyline class="cls-29" points="58.35 328.75 59.13 328.75 58.44 327.31 58.42 327.31 57.73 328.75 58.51 328.75"/><polygon class="cls-30" points="58.44 327.31 58.43 327.31 58.43 328.75 59.13 328.75 58.44 327.31"/></g><g class="cls-25"><path class="cls-31" d="M84.65,304.34c0-1,5.5-1.84,12.28-1.84s12.29.82,12.29,1.84-5.5,1.83-12.29,1.83S84.65,305.35,84.65,304.34Z"/><path class="cls-9" d="M110.32,287.73a.38.38,0,0,0,0-.15v-9.32h0a3.13,3.13,0,1,0-6.25,0h0v7.83l-2.34,1.73V268.93h0a4.55,4.55,0,1,0-9.1,0h0v10.59l-2.39-1.77v-7.83h0a3.13,3.13,0,0,0-6.25,0h0v9.86h0a3.15,3.15,0,0,0,1.24,2.06h0l7.38,5.47,0,0V304.6h9.12v-9l7.36-5.44h0a3.05,3.05,0,0,0,1.23-2.06h0Z"/><path class="cls-27" d="M84.81,281.84a3.13,3.13,0,0,1,3.72-5h0l7.38,5.47-3.73,5-7.38-5.47Z"/><path class="cls-28" d="M84.81,281.84a3.13,3.13,0,0,1-.65-4.37l9.89,7.32-1.86,2.52-7.38-5.47Z"/><path class="cls-27" d="M83.56,269.92a3.13,3.13,0,0,1,6.25,0h0v9.86H83.55v-9.86Z"/><path class="cls-28" d="M83.56,269.92a3.12,3.12,0,0,1,3.12-3.12v13H83.55v-9.86Z"/><polyline class="cls-29" points="86.64 269.35 87.29 269.35 86.71 268.16 86.7 268.16 86.13 269.35 86.77 269.35"/><polygon class="cls-30" points="86.71 268.16 86.7 268.16 86.7 269.35 87.29 269.35 86.71 268.16"/><polyline class="cls-29" points="86.64 272.84 87.29 272.84 86.71 271.65 86.7 271.65 86.13 272.84 86.77 272.84"/><polygon class="cls-30" points="86.71 271.65 86.7 271.65 86.7 272.84 87.29 272.84 86.71 271.65"/><polyline class="cls-29" points="86.64 276.32 87.29 276.32 86.71 275.13 86.7 275.13 86.13 276.32 86.77 276.32"/><polygon class="cls-30" points="86.71 275.13 86.7 275.13 86.7 276.32 87.29 276.32 86.71 275.13"/><polyline class="cls-29" points="86.64 279.8 87.29 279.8 86.71 278.62 86.7 278.62 86.13 279.8 86.77 279.8"/><polygon class="cls-30" points="86.71 278.62 86.7 278.62 86.7 279.8 87.29 279.8 86.71 278.62"/><polyline class="cls-29" points="89.52 282.03 89.85 281.48 88.53 281.36 88.53 281.37 89.25 282.47 89.58 281.92"/><polygon class="cls-30" points="88.53 281.36 88.53 281.37 89.55 281.98 89.85 281.48 88.53 281.36"/><polyline class="cls-29" points="92.2 283.67 92.54 283.11 91.22 283 91.22 283 91.94 284.11 92.27 283.55"/><polygon class="cls-30" points="91.22 283 91.22 283 92.24 283.61 92.54 283.11 91.22 283"/><path class="cls-27" d="M108.68,290.17a3.13,3.13,0,0,0-3.72-5h0l-7.38,5.46,3.73,5,7.38-5.46Z"/><path class="cls-28" d="M108.67,290.17a3.13,3.13,0,0,0,.66-4.37l-9.89,7.33,1.86,2.51,7.38-5.46Z"/><path class="cls-27" d="M109.93,278.26a3.13,3.13,0,1,0-6.25,0h0v9.85h6.27v-9.85Z"/><path class="cls-28" d="M109.93,278.26a3.13,3.13,0,0,0-3.12-3.13v13h3.13v-9.85Z"/><polyline class="cls-29" points="106.84 277.68 106.2 277.68 106.78 276.5 106.78 276.5 107.36 277.68 106.72 277.68"/><polygon class="cls-30" points="106.78 276.5 106.78 276.5 106.78 277.68 106.2 277.68 106.78 276.5"/><polyline class="cls-29" points="106.84 281.17 106.2 281.17 106.78 279.98 106.78 279.98 107.36 281.17 106.72 281.17"/><polygon class="cls-30" points="106.78 279.98 106.78 279.98 106.78 281.17 106.2 281.17 106.78 279.98"/><polyline class="cls-29" points="106.84 284.65 106.2 284.65 106.78 283.47 106.78 283.47 107.36 284.65 106.72 284.65"/><polygon class="cls-30" points="106.78 283.47 106.78 283.47 106.78 284.65 106.2 284.65 106.78 283.47"/><polyline class="cls-29" points="106.84 288.14 106.2 288.14 106.78 286.95 106.78 286.95 107.36 288.14 106.72 288.14"/><polygon class="cls-30" points="106.78 286.95 106.78 286.95 106.78 288.14 106.2 288.14 106.78 286.95"/><polyline class="cls-29" points="103.97 290.36 103.64 289.81 104.95 289.69 104.96 289.7 104.23 290.81 103.9 290.25"/><polygon class="cls-30" points="104.95 289.69 104.96 289.7 103.94 290.31 103.64 289.81 104.95 289.69"/><polyline class="cls-29" points="101.28 292 100.95 291.44 102.27 291.33 102.27 291.34 101.54 292.44 101.21 291.88"/><polygon class="cls-30" points="102.27 291.33 102.27 291.33 101.25 291.94 100.95 291.44 102.27 291.33"/><path class="cls-27" d="M101.32,268.93a4.55,4.55,0,1,0-9.1,0h0V304.6h9.13V268.93Z"/><path class="cls-28" d="M101.32,268.93a4.55,4.55,0,0,0-4.55-4.55V304.6h4.56V268.93Z"/><polyline class="cls-29" points="96.7 267.22 97.35 267.22 96.77 266.03 96.76 266.03 96.19 267.22 96.83 267.22"/><polygon class="cls-30" points="96.77 266.03 96.77 266.03 96.77 267.22 97.35 267.22 96.77 266.03"/><polyline class="cls-29" points="96.7 270.79 97.35 270.79 96.77 269.6 96.76 269.6 96.19 270.79 96.83 270.79"/><polygon class="cls-30" points="96.77 269.6 96.77 269.6 96.77 270.79 97.35 270.79 96.77 269.6"/><polyline class="cls-29" points="96.7 274.36 97.35 274.36 96.77 273.17 96.76 273.17 96.19 274.36 96.83 274.36"/><polygon class="cls-30" points="96.77 273.17 96.77 273.17 96.77 274.36 97.35 274.36 96.77 273.17"/><polyline class="cls-29" points="96.7 277.93 97.35 277.93 96.77 276.74 96.76 276.74 96.19 277.93 96.83 277.93"/><polygon class="cls-30" points="96.77 276.74 96.77 276.74 96.77 277.93 97.35 277.93 96.77 276.74"/><polyline class="cls-29" points="96.7 281.49 97.35 281.49 96.77 280.3 96.76 280.3 96.19 281.49 96.83 281.49"/><polygon class="cls-30" points="96.77 280.3 96.77 280.3 96.77 281.49 97.35 281.49 96.77 280.3"/><polyline class="cls-29" points="96.7 285.06 97.35 285.06 96.77 283.87 96.76 283.87 96.19 285.06 96.83 285.06"/><polygon class="cls-30" points="96.77 283.87 96.77 283.87 96.77 285.06 97.35 285.06 96.77 283.87"/><polyline class="cls-29" points="96.7 288.63 97.35 288.63 96.77 287.44 96.76 287.44 96.19 288.63 96.83 288.63"/><polygon class="cls-30" points="96.77 287.44 96.77 287.44 96.77 288.63 97.35 288.63 96.77 287.44"/><polyline class="cls-29" points="96.7 292.2 97.35 292.2 96.77 291.01 96.76 291.01 96.19 292.2 96.83 292.2"/><polygon class="cls-30" points="96.77 291.01 96.77 291.01 96.77 292.2 97.35 292.2 96.77 291.01"/><polyline class="cls-29" points="96.7 295.76 97.35 295.76 96.77 294.57 96.76 294.57 96.19 295.76 96.83 295.76"/><polygon class="cls-30" points="96.77 294.57 96.77 294.57 96.77 295.76 97.35 295.76 96.77 294.57"/><polyline class="cls-29" points="96.7 299.33 97.35 299.33 96.77 298.15 96.76 298.15 96.19 299.33 96.83 299.33"/><polygon class="cls-30" points="96.77 298.15 96.77 298.15 96.77 299.33 97.35 299.33 96.77 298.15"/><polyline class="cls-29" points="96.7 302.9 97.35 302.9 96.77 301.71 96.76 301.71 96.19 302.9 96.83 302.9"/><polygon class="cls-30" points="96.77 301.71 96.77 301.71 96.77 302.9 97.35 302.9 96.77 301.71"/></g><path class="cls-32" d="M325.78,73.07s-1.43.05-.88-.34.45-2-1.68-.46c0,0-2.4-1-2.7-1.9s-1.92-1.86-4.26-1.37c-.73.16-1.43.36-2.05.56h0l-.08,0-.23.07-.13,0-.2.07-.17.06-.17.07-.14,0L313,70l-.17.07a.59.59,0,0,0-.14.06l-.11,0-.1,0-.09,0-.14.06-.08,0-.07,0-.05,0-.08,0,0,0s0,0,0,0h0a14.61,14.61,0,0,1,2.1-.1c2.23,0,5.52.48,6.33,2.85,1.25,3.69-.65,2.13-1.15,2.9s.76.66,1.45,1.34.74-.48,1-1.42,3.37-3.17,7.26.1h0a11.78,11.78,0,0,1,1.1,1l.39.44A4.52,4.52,0,0,0,325.78,73.07Z"/><path class="cls-33" d="M323.08,71.86s-2.4-1-2.7-1.9-1.92-1.85-4.26-1.36a21.8,21.8,0,0,0-4.44,1.5s7.22-.93,8.47,2.76S319.5,75,319,75.75s.76.66,1.45,1.34.75-.48,1-1.42,4.19-3.78,8.75,1.59a4.52,4.52,0,0,0-4.6-4.6s-1.43,0-.88-.34S325.21,70.3,323.08,71.86Z"/><path class="cls-33" d="M328.75,75.77a13.07,13.07,0,0,1,1.49,1.49,5.18,5.18,0,0,0-.77-2.62A7.74,7.74,0,0,1,328.75,75.77Z"/><path class="cls-33" d="M314.07,69.16a22.31,22.31,0,0,0-2.39.94,18.81,18.81,0,0,1,2.15-.1Z"/><path class="cls-32" d="M298.35,89.66s-1,.49-.76,0-.32-1.65-1.39.19c0,0-2.1,0-2.61-.53s-2-.75-3.6.37a14,14,0,0,0-1.34,1.08h0l-.06,0-.14.13-.08.07-.13.13-.1.09-.11.11-.08.08-.08.08-.1.1-.09.09-.06.07-.06.06-.06.06-.08.09-.05,0,0,0,0,0-.05,0,0,0s0,0,0,0,0,0,0,0h0l0,0h0a13.62,13.62,0,0,1,1.52-.75c1.66-.7,4.24-1.43,5.61.07,2.11,2.32.2,1.78.09,2.52s.77.24,1.5.52.4-.6.31-1.39,1.47-3.43,5.41-2.27h0a11.85,11.85,0,0,1,1.16.42l.43.2A3.65,3.65,0,0,0,298.35,89.66Z"/><path class="cls-33" d="M296,89.63s-2.1,0-2.61-.54-2-.75-3.6.37A17.4,17.4,0,0,0,287,92s5.05-3,7.16-.7.21,1.78.09,2.52.77.24,1.5.52.4-.6.31-1.38,1.89-4.16,7-1.66a3.64,3.64,0,0,0-4.89-1.91s-1.05.49-.76,0S297,87.78,296,89.63Z"/><path class="cls-33" d="M301.43,90.69a11.63,11.63,0,0,1,1.58.62,4.19,4.19,0,0,0-1.42-1.69A6.27,6.27,0,0,1,301.43,90.69Z"/><path class="cls-33" d="M288.42,90.54A18.55,18.55,0,0,0,287,92a14.32,14.32,0,0,1,1.56-.77Z"/></g></g></svg>