<?xml version="1.0" encoding="utf-8"?>
<!-- Generator: Adobe Illustrator 25.0.0, SVG Export Plug-In . SVG Version: 6.00 Build 0)  -->
<svg version="1.1" id="레이어_1" xmlns="http://www.w3.org/2000/svg" xmlns:xlink="http://www.w3.org/1999/xlink" x="0px"
	 y="0px" viewBox="0 0 170 120" style="enable-background:new 0 0 170 120;" xml:space="preserve">
<style type="text/css">
	.st0{fill:#408AD4;stroke:#281C16;stroke-miterlimit:10;}
	.st1{fill:url(#SVGID_1_);}
	.st2{fill:#3E88BA;}
	.st3{fill:#F9F9F9;}
	.st4{fill:#DDC399;}
	.st5{fill:#493636;}
	.st6{fill:none;stroke:#281C16;stroke-miterlimit:10;}
	.st7{fill:none;stroke:#000000;stroke-width:0.5;stroke-linecap:round;stroke-linejoin:round;}
	.st8{fill:#AED0ED;stroke:#281C16;stroke-miterlimit:10;}
</style>
<path class="st0" d="M51.67,49.55c2.04-1.82,4.95-1.98,6.49-0.36c1.54,1.62,0.99,3.77-1.05,5.59c-2.04,1.82-5.75,3.2-7.17,3.98
	C49.8,58.84,49.63,51.37,51.67,49.55z"/>
<path class="st0" d="M75.37,32.36c4.05-1.4,8.38,0.18,9.68,3.53c1.3,3.35-0.51,8.54-4.83,7.57c-5.8-1.31-10.27,1.11-12.8,1.38
	C67.14,44.86,71.31,33.76,75.37,32.36z"/>
<path class="st0" d="M115.63,21.59c7,2.22,11.21,8.29,9.4,13.56s-8.89,8.86-14.64,4.44c-6.33-4.86-15.82-11.34-18.87-10.67
	C91.07,29.01,108.63,19.37,115.63,21.59z"/>
<path class="st0" d="M30.65,47.38c-1.89-1.11-4.42-0.43-5.66,1.5c-1.23,1.93-0.62,3.77,1.27,4.88c1.89,1.11,5.2,1.34,6.48,1.66
	C32.88,55.45,32.54,48.48,30.65,47.38z"/>
<linearGradient id="SVGID_1_" gradientUnits="userSpaceOnUse" x1="88.3081" y1="112.8116" x2="88.3081" y2="89.3609">
	<stop  offset="0" style="stop-color:#FFFFFF;stop-opacity:0"/>
	<stop  offset="0.0225" style="stop-color:#F5F5F5;stop-opacity:0.0112"/>
	<stop  offset="0.1832" style="stop-color:#B5B5B5;stop-opacity:0.0916"/>
	<stop  offset="0.3419" style="stop-color:#7E7E7E;stop-opacity:0.171"/>
	<stop  offset="0.4945" style="stop-color:#515151;stop-opacity:0.2473"/>
	<stop  offset="0.64" style="stop-color:#2E2E2E;stop-opacity:0.32"/>
	<stop  offset="0.7763" style="stop-color:#151515;stop-opacity:0.3881"/>
	<stop  offset="0.9" style="stop-color:#050505;stop-opacity:0.45"/>
	<stop  offset="1" style="stop-color:#000000;stop-opacity:0.5"/>
</linearGradient>
<path class="st1" d="M166.97,96.26c0,6.86-35.6,16.55-78.07,16.55S9.65,104.49,9.65,97.64s36.78-8.28,79.25-8.28
	S166.97,89.4,166.97,96.26z"/>
<path class="st0" d="M8.7,98.62c-0.94,9.66,2.81,12.5,5.25,13.33c1.23,0.42,2.35,1.06,3.35,1.9c1.54,1.29,4.6,3.42,9.96,2.64
	c7.22-1.05,9.58-5.65,17.52-3.15c13.4,4.21,11.38-10.5,11.38-10.5"/>
<path class="st2" d="M55.61,104.4c-0.02-0.66-0.39-1.05-1.03-1.05l-0.14,0.06l-1.92,4.15c-1.27,2.01-2.51,3.22-3.09,3.15l-3.84-0.62
	c-0.05-0.01-0.09-0.01-0.14-0.01l-7.76-0.01c-0.07,0-0.14,0.01-0.2,0.02l-9.71,2.73l-3.73-0.29c-0.25,0.05-0.52,0.02-0.75-0.09
	l-3.99-1.89c-0.08-0.04-0.15-0.08-0.22-0.13c-0.57-0.45-4.32-1.32-6.78-4.95c-0.04-0.06-0.98-3.1-1.03-3.15l-1.03-2.1
	c-0.76-0.75-1.03,0-1.03,2.76c0,6.25,3.15,8.25,5.25,8.89c1.19,0.36,2.28,0.93,3.25,1.66c1.5,1.13,4.47,2.99,9.68,2.31
	c7.01-0.92,9.31-4.94,17.03-2.76C55,116.04,55.72,107.49,55.61,104.4z"/>
<path class="st0" d="M21.22,22.3c-3.63-3.38-8.36-4.32-10.57-2.09s-1.85,7.72,2.7,9.18c6.11,1.96,9.88,6.45,12.31,8.03
	C25.93,37.59,24.85,25.68,21.22,22.3z"/>
<g>
	<g id="XMLID_1_">
		<g>
			<path class="st3" d="M137.21,99.8c-1.66,1.98-5.65,2.04-8.79,1.91v-0.08c-0.94-2.17,0.58-6.44,2.65-7.01h0.01
				c1.98,0.44,4.19,0.93,6.76,1.47C138.22,97.77,137.92,98.96,137.21,99.8z"/>
			<path class="st4" d="M40.17,74.77c-0.05,0.01-0.11,0.03-0.15,0.04l-2.92,0.35c-0.97-2.83-2.65-6.55-2.65-6.55l2.34-1.95
				C38.15,68.54,39.32,71.46,40.17,74.77z"/>
			<path class="st5" d="M5.75,87.94c1.1,1.91-0.49,4.37-2.44,4.12c-0.46-0.91-0.9-1.91-1.31-3C2.31,87.31,4.32,87.83,5.75,87.94z"/>
			<path class="st4" d="M87.3,99.34c-6.19,0.23-19.16-1.66-24.28,2.48c-2.41,1.94-19.38,0.47-22.38,0.79c-2.01-0.15-4.04-1-6-2.24
				c-3.93-2.47-7.57-6.46-10.07-9.38c1.96-0.11,4.3-2.94,4.43-5.15c0.55,0.48,1.07,0.94,1.56,1.31c4.77,3.1,7.9,4.66,10.86,5.13
				c0.88-4.6,0.28-11.65-1.24-17.51c14.32-3.6,24.1-10.84,46.78-9.29c18.28,0.58,22.94,15.4,29.9,19.12
				c10.72-4.73,30.43,0.14,43.63,5.65l-0.12,0.33c-3.91,3.97-7.6,2.85-2.74,7.02l0.08,0.77c-7.62,0.86-16.74,0.76-20.51,1.42
				c0.72-0.84,1.01-2.03,0.63-3.7c-2.57-0.54-4.78-1.03-6.76-1.47h-0.01c-2.08,0.57-3.59,4.84-2.65,7.01v0.08
				c-1.14-0.05-2.17-0.11-2.95-0.13C115.2,98.05,97.38,107.02,87.3,99.34z"/>
			<path class="st4" d="M25.24,70.41c3.21,2.05,4.99-0.41,8.19-5.97c1.21-0.01,2.34,0.81,3.35,2.22l-2.34,1.95
				c0,0,1.68,3.73,2.65,6.55l2.92-0.35c0.05-0.01,0.11-0.03,0.15-0.04c1.53,5.87,2.12,12.91,1.24,17.51
				c-2.96-0.47-6.09-2.03-10.86-5.13c-0.49-0.37-1.01-0.82-1.56-1.31c-2.43-2.15-5.4-4.94-8.42-3.46c-3.12,1.47-1.56,4.6,0.6,4.98
				c0.08-0.42,1.36,1.25,3.39,3.62c2.5,2.91,6.14,6.91,10.07,9.38c-3.66,0.25-7.02,0.57-10.07,0.75l-0.02-0.54
				C22.34,95.85,27.2,90.98,6.8,87.9v-0.01c0.28-0.09,0.45-0.29,0.45-0.66L17.62,74.4c0.06-0.06,0.12-0.14,0.18-0.24l0.01,0.01
				c2.75-2.9,5.47-3.52,7.36-3.65L25.24,70.41z"/>
			<path class="st3" d="M29,85.85c-0.13,2.21-2.47,5.03-4.43,5.15c-2.03-2.37-3.31-4.04-3.39-3.62c-2.16-0.38-3.72-3.51-0.6-4.98
				C23.6,80.91,26.57,83.69,29,85.85z"/>
			<path class="st3" d="M24.57,101.12c-6.15,0.37-11.11,0.2-15.05-2.08c-2.44-1.39-4.5-3.6-6.21-6.98c1.95,0.25,3.55-2.21,2.44-4.12
				c0.42,0.04,0.79,0.05,1.04-0.05v0.01c20.4,3.08,15.54,7.95,17.75,12.67L24.57,101.12z"/>
			<path class="st4" d="M17.8,74.16c0.88-1.79,0.52-9.83,3.28-7.79c1.67,1.98,3.02,3.31,4.17,4.04l-0.07,0.11
				c-1.89,0.13-4.61,0.75-7.36,3.65L17.8,74.16z"/>
			<path class="st3" d="M160.49,90.26c3.44,1.43,6.45,2.91,8.72,4.28c-1.41,2.17-6.07,3.24-11.49,3.84l-0.08-0.77
				c-4.86-4.17-1.17-3.05,2.74-7.02L160.49,90.26z"/>
		</g>
		<g>
			<path class="st6" d="M34.78,100.36c-0.05,0-0.09,0.01-0.14,0.01c-3.66,0.25-7.02,0.57-10.07,0.75
				c-6.15,0.37-11.11,0.2-15.05-2.08c-2.44-1.39-4.5-3.6-6.21-6.98c-0.46-0.91-0.9-1.91-1.31-3c0.32-1.75,2.32-1.23,3.76-1.12
				c0.42,0.04,0.79,0.05,1.04-0.05c0.28-0.09,0.45-0.29,0.45-0.66L17.62,74.4c0.06-0.06,0.12-0.14,0.18-0.24
				c0.88-1.79,0.52-9.83,3.28-7.79c1.67,1.98,3.02,3.31,4.17,4.04c3.21,2.05,4.99-0.41,8.19-5.97c1.21-0.01,2.34,0.81,3.35,2.22
				c1.37,1.88,2.54,4.8,3.39,8.11c1.53,5.87,2.12,12.91,1.24,17.51c-0.05,0.19-0.08,0.35-0.12,0.53"/>
			<path class="st6" d="M40.02,74.81c0.05-0.01,0.11-0.03,0.15-0.04c14.32-3.6,24.1-10.84,46.78-9.29
				c18.28,0.58,22.94,15.4,29.9,19.12c10.72-4.73,30.43,0.14,43.63,5.65c3.44,1.43,6.45,2.91,8.72,4.28
				c-1.41,2.17-6.07,3.24-11.49,3.84c-7.62,0.86-16.74,0.76-20.51,1.42c-0.09,0.01-0.19,0.04-0.27,0.05"/>
			<path class="st6" d="M6.8,87.9c20.4,3.08,15.54,7.95,17.75,12.67"/>
			<path class="st6" d="M5.73,87.9c0.01,0.01,0.01,0.03,0.02,0.04c1.1,1.91-0.49,4.37-2.44,4.12c-0.16-0.03-0.33-0.06-0.49-0.13"/>
			<path class="st6" d="M34.64,100.37c-3.93-2.47-7.57-6.46-10.07-9.38c-2.03-2.37-3.31-4.04-3.39-3.62
				c-2.16-0.38-3.72-3.51-0.6-4.98c3.02-1.48,5.99,1.31,8.42,3.46c0.55,0.48,1.07,0.94,1.56,1.31c4.77,3.1,7.9,4.66,10.86,5.13
				c4,0.66,7.68-0.65,14.59-2.67"/>
			<path class="st6" d="M87.58,99.34c-0.09,0-0.19,0.01-0.28,0"/>
			<path class="st6" d="M131.08,94.63c1.98,0.44,4.19,0.93,6.76,1.47c0.38,1.67,0.08,2.86-0.63,3.7c-1.66,1.98-5.65,2.04-8.79,1.91
				c-1.14-0.05-2.17-0.11-2.95-0.13c-10.26-3.54-28.08,5.44-38.17-2.24c-6.19,0.23-19.16-1.66-24.28,2.48
				c-2.41,1.94-19.38,0.47-22.38,0.79c-2.01-0.15-4.04-1-6-2.24"/>
			<path class="st6" d="M104.81,86.36c12.84,4.84,17.35,6.27,26.25,8.28"/>
			<path class="st6" d="M29,85.44c0.01,0.13,0.01,0.27,0,0.41c-0.13,2.21-2.47,5.03-4.43,5.15c-0.15,0.01-0.29,0.01-0.43-0.01"/>
			<path class="st6" d="M128.41,101.64c-0.94-2.17,0.58-6.44,2.65-7.01h0.01c0.02-0.01,0.04-0.03,0.06-0.03"/>
			<path class="st6" d="M157.63,97.61c-4.86-4.17-1.17-3.05,2.74-7.02"/>
			<path class="st6" d="M9.52,99.04h0.33c2.37-1.37,4.81-1.74,6.27-1.05"/>
			<line class="st7" x1="9.06" y1="99.04" x2="9.52" y2="99.04"/>
			<path class="st6" d="M17.81,74.18c2.75-2.9,5.47-3.52,7.36-3.65"/>
			<path class="st6" d="M32.27,76.69c-0.94-5.54,2.17-8.07,2.17-8.07s1.68,3.73,2.65,6.55c0.33,0.94,0.56,1.79,0.63,2.36"/>
		</g>
	</g>
</g>
<path class="st6" d="M54.07,75.21c1.4-0.45,2.8-0.89,4.2-1.34"/>
<path class="st6" d="M40.87,79.41c3.35-1.07,6.7-2.13,10.05-3.2"/>
<ellipse class="st8" cx="59.17" cy="33.66" rx="2.68" ry="2.73"/>
<ellipse class="st8" cx="31.12" cy="11.11" rx="3.61" ry="3.68"/>
<path class="st0" d="M86.75,6.5c1.75-3.04,5.35-4.35,8.04-2.92c2.69,1.43,4.48,5.69,1.23,7.37c-4.36,2.26-5.81,6.18-7.24,7.69
	C88.62,18.8,85,9.54,86.75,6.5z"/>
</svg>
