<?xml version="1.0" encoding="utf-8"?>
<!-- Generator: Adobe Illustrator 25.0.0, SVG Export Plug-In . SVG Version: 6.00 Build 0)  -->
<svg version="1.1" id="레이어_1" xmlns="http://www.w3.org/2000/svg" xmlns:xlink="http://www.w3.org/1999/xlink" x="0px"
	 y="0px" viewBox="0 0 170 120" style="enable-background:new 0 0 170 120;" xml:space="preserve">
<style type="text/css">
	.st0{fill:#F51A2F;}
	.st1{fill:#BF4928;}
	.st2{fill:none;stroke:#281C16;stroke-miterlimit:10;}
	.st3{fill:#FF6623;}
	.st4{fill:#CCA24E;}
	.st5{fill:#CE944D;stroke:#281C16;stroke-miterlimit:10;}
	.st6{fill:none;}
	.st7{fill:#BA8245;stroke:#281C16;stroke-miterlimit:10;}
	.st8{fill:none;stroke:#C19952;stroke-miterlimit:10;}
</style>
<g>
	<g id="XMLID_1_">
		<g>
			<path class="st0" d="M136.99,14.89c1.65,0.77,2.66,4.2-0.2,12.68c-1.89,5.6-5.77,13.61-8.69,18.23c3.16,1.35,6,3.64,5.84,6.86
				c-0.75,15.48-7.15,13.24-11.16,13.04c-4.01-0.19-8.68-4.77-8.42-10.12c0.26-5.35,3.82-11.45,7.83-11.26
				c0.76,0.04,1.64,0.17,2.59,0.37c0.94-6.28,3.81-17.28,5.82-23.24C133.46,12.98,135.33,14.11,136.99,14.89z M129.76,55.55
				c0.19-3.89-5.72-5.31-8.65-5.46s-3.82,3.78-4,7.67c-0.19,3.9,1.6,7.15,4.53,7.29C124.55,65.19,129.21,66.82,129.76,55.55z"/>
			<path class="st1" d="M121.11,50.09c2.93,0.14,8.84,1.57,8.65,5.46c-0.55,11.28-5.2,9.64-8.13,9.5c-2.93-0.14-4.71-3.39-4.53-7.29
				C117.29,53.87,118.18,49.95,121.11,50.09z"/>
		</g>
		<g>
			<path class="st2" d="M136.99,14.89c-1.66-0.78-3.53-1.91-6.38,6.57c-2.01,5.96-4.88,16.97-5.82,23.24
				c-0.94-0.21-1.83-0.34-2.59-0.37c-4.01-0.19-7.58,5.91-7.83,11.26c-0.26,5.35,4.41,9.92,8.42,10.12
				c4.01,0.19,10.41,2.44,11.16-13.04c0.16-3.21-2.68-5.5-5.84-6.86c2.91-4.62,6.8-12.63,8.69-18.23
				C139.64,19.09,138.64,15.66,136.99,14.89z"/>
			<path class="st2" d="M129.76,55.55c-0.55,11.28-5.2,9.64-8.13,9.5c-2.93-0.14-4.71-3.39-4.53-7.29c0.19-3.89,1.08-7.81,4-7.67
				S129.94,51.66,129.76,55.55z"/>
		</g>
	</g>
</g>
<g>
	<g id="XMLID_2_">
		<g>
			<path class="st0" d="M75.24,34.47l0.49,3.24l0,0.04c0.07,1.57-1.7,3.3-4.85,4.99l-0.01,0c-5.25,2.8-14.32,5.47-25.03,7.08
				s-19.85,1.65-25.45,0.47c-3.52-0.75-5.63-1.97-5.87-3.6l-0.49-3.24c0.68,4.2,14.02,5.69,31.18,3.12
				c16.92-2.53,30.2-7.9,30.01-12.09L75.24,34.47z"/>
			<path class="st3" d="M75.21,34.27c0.02,0.07,0.02,0.13,0.02,0.21c0.19,4.2-13.09,9.56-30.01,12.09
				c-17.16,2.57-30.5,1.08-31.18-3.12l0-0.04c-0.29-2.04,2.4-4.31,7.17-6.42c-0.39,0.67-0.76,1.39-1.1,2.18
				c-1.99,1.07-2.88,2.1-2.83,3.05c0,0.05,0.02,0.11,0.02,0.16c0.45,3.01,12.38,3.74,27.88,1.41c15.5-2.31,27.69-6.64,27.23-9.65
				c-0.26-1.75-4.67-2.66-11.31-2.7c-0.82-0.57-1.64-1.06-2.43-1.47C68.17,29.9,74.79,31.44,75.21,34.27z"/>
			<path class="st4" d="M72.4,34.14c0.45,3.01-11.74,7.34-27.23,9.65c-15.5,2.32-27.42,1.6-27.88-1.41c0-0.05-0.02-0.11-0.02-0.16
				c-0.04-0.95,0.84-1.98,2.83-3.05c0.34-0.79,0.71-1.51,1.1-2.18c3.23-5.5,7.71-6.7,11-5.48c1.04-0.69,2.38-1.21,3.85-1.43
				c2.54-0.38,4.9,0.22,6.36,1.41c3.85-2.83,9.42-5.04,16.25-1.51c0.79,0.4,1.61,0.89,2.43,1.47C67.74,31.47,72.14,32.39,72.4,34.14
				z"/>
			<path class="st0" d="M71.99,42.57l-0.18,43.59c-3.4,2.26-9.53,5.69-17.92,7.14c-9.57,1.66-17.36-0.06-21.42-1.26
				c-4.3-13.88-8.61-27.75-12.92-41.62l0.85-0.12c5.59,1.18,14.73,1.14,25.45-0.47s19.77-4.27,25.03-7.08l0.01,0L71.99,42.57z"/>
		</g>
		<g>
			<path class="st2" d="M14.04,43.41c-0.29-2.04,2.4-4.31,7.17-6.42"/>
			<path class="st2" d="M58.67,29.97c9.5-0.07,16.12,1.46,16.54,4.29c0.02,0.07,0.02,0.13,0.02,0.21
				c0.19,4.2-13.09,9.56-30.01,12.09c-17.16,2.57-30.5,1.08-31.18-3.12"/>
			<path class="st2" d="M70.87,42.74c-5.25,2.8-14.32,5.47-25.03,7.08s-19.85,1.65-25.45,0.47c-3.52-0.75-5.63-1.97-5.87-3.6"/>
			<path class="st2" d="M75.73,37.75c0.07,1.57-1.7,3.3-4.85,4.99"/>
			<path class="st2" d="M75.71,37.55c0.01,0.06,0.02,0.11,0.02,0.17"/>
			<polyline class="st2" points="14.04,43.41 14.04,43.45 14.53,46.69 			"/>
			<polyline class="st2" points="75.14,33.72 75.24,34.47 75.73,37.72 75.73,37.75 75.78,38.09 			"/>
			<path class="st2" d="M70.87,42.74l0.01,0l1.1-0.17l-0.18,43.59c-3.4,2.26-9.53,5.69-17.92,7.14c-9.57,1.66-17.36-0.06-21.42-1.26
				c-4.3-13.88-8.61-27.75-12.92-41.62l0.85-0.12"/>
			<path class="st2" d="M21.21,36.99c-0.39,0.67-0.76,1.39-1.1,2.18c-1.99,1.07-2.88,2.1-2.83,3.05c0,0.05,0.02,0.11,0.02,0.16
				c0.45,3.01,12.38,3.74,27.88,1.41c15.5-2.31,27.69-6.64,27.23-9.65c-0.26-1.75-4.67-2.66-11.31-2.7
				c-0.82-0.57-1.64-1.06-2.43-1.47c-6.83-3.53-12.41-1.31-16.25,1.51c-1.46-1.19-3.82-1.8-6.36-1.41c-1.47,0.22-2.8,0.74-3.85,1.43
				C28.91,30.28,24.43,31.49,21.21,36.99z"/>
		</g>
	</g>
</g>
<ellipse class="st5" cx="63.63" cy="106.78" rx="2.44" ry="1.83"/>
<ellipse class="st5" cx="80.11" cy="111.06" rx="3.05" ry="2.44"/>
<ellipse class="st6" cx="113.09" cy="100.68" rx="3.05" ry="1.83"/>
<ellipse class="st5" cx="135.69" cy="103.73" rx="3.66" ry="2.44"/>
<ellipse class="st5" cx="161.95" cy="95.18" rx="3.05" ry="2.44"/>
<path class="st7" d="M157.66,83.53c-0.05,0-0.09,0.01-0.14,0.01c-0.69-6.2-5.88-11.04-12.27-11.04c-2.67,0-5.13,0.86-7.15,2.3
	c-1.56-10.65-10.71-18.84-21.79-18.84c-9.65,0-17.83,6.21-20.82,14.85c-1.19-0.66-2.53-1.07-3.98-1.07c-3.12,0-5.8,1.75-7.21,4.3
	c-1.5-0.96-3.28-1.54-5.19-1.54c-5.33,0-9.65,4.32-9.65,9.65c0,0.54,0.07,1.07,0.16,1.59c-4.83,0.73-8.43,3.43-8.43,6.68
	c0,3.81,4.94,6.89,11.03,6.89c2.77,0,5.28-0.66,7.21-1.72c2.52,2.66,7.6,4.47,13.46,4.47c4.89,0,9.22-1.27,11.99-3.22
	c3.34,2.03,7.24,3.22,11.44,3.22c7.46,0,14.04-3.71,18.03-9.38c2.08,3.92,6.16,6.62,10.91,6.62c3.57,0,6.76-1.53,9.03-3.94
	c0.94,0.73,2.1,1.19,3.38,1.19c3.04,0,5.51-2.47,5.51-5.51C163.17,85.99,160.7,83.53,157.66,83.53z"/>
<path class="st5" d="M71.48,92.96c0.59-0.85,0.93-1.83,0.93-2.97c0-5.85-7.96-6.74-15.41-6.74c-1.4,0-2.75,0.1-4.02,0.3
	c-0.95-7.81-6.11-13.78-12.35-13.78c-3.31,0-6.32,1.7-8.56,4.45c-0.59-0.37-1.29-0.59-2.03-0.59c-2.13,0-3.85,1.72-3.85,3.85
	c0,0.93,0.35,1.78,0.9,2.44c-2.79,1.01-4.75,3.42-4.75,6.22c0,0.43,0.06,0.84,0.14,1.25c-6.76,0.83-11.7,3.4-11.7,6.46
	c0,0.36,0.09,0.72,0.22,1.06c-3.43,0.39-6,1.92-6,3.75c0,2.13,3.45,3.85,7.7,3.85c3.39,0,6.23-1.1,7.26-2.62
	c2.17,0.44,4.6,0.69,7.18,0.69c3.15,0,6.07-0.37,8.57-1.01c1.51,0.66,3.17,1.01,4.91,1.01c2.12,0,4.12-0.51,5.87-1.48
	c2.43,2.48,6.16,3.65,10.5,1.48c1.25-0.63,2.58-1.18,3.9-1.72c0.28,2.03,4.44,3.64,9.58,3.64c5.32,0,9.63-1.72,9.63-3.85
	C80.11,96.66,76.32,93.38,71.48,92.96z"/>
<ellipse class="st5" cx="105.15" cy="102.51" rx="3.66" ry="2.44"/>
<path class="st2" d="M63.27,49.27c0.72-0.22,1.47-0.48,2.23-0.77c2.17-0.83,4.81-1.79,6.47-2.69"/>
<path class="st2" d="M57.5,50.5c1.09-0.14,2.33-0.34,3.67-0.66"/>
<path class="st2" d="M135.22,20.66c0.09,1.12,0.08,1.92-0.59,3.97c-0.96,2.95-1.89,3.78-2.81,4.6"/>
<circle class="st8" cx="130.99" cy="90.52" r="0.27"/>
<circle class="st8" cx="97.87" cy="96.46" r="0.27"/>
<circle class="st8" cx="79.93" cy="92.27" r="0.27"/>
<circle class="st8" cx="102.85" cy="94.53" r="0.27"/>
<circle class="st8" cx="76.18" cy="89.66" r="0.27"/>
<circle class="st8" cx="128.25" cy="92.72" r="0.27"/>
<circle class="st8" cx="137.1" cy="87.24" r="0.27"/>
<circle class="st8" cx="138.64" cy="90.52" r="0.27"/>
<path class="st2" d="M63.5,86.01c1.11,0.21,2.05,0.45,2.53,0.66"/>
<path class="st2" d="M52.48,86.13c1.05-0.33,4.44-0.72,6.38-0.66c0.93,0.03,2.06,0.14,3.15,0.3"/>
</svg>
