<svg xmlns="http://www.w3.org/2000/svg" width="28.144" height="28.381" viewBox="0 0 28.144 28.381">
    <g>
        <path d="M37.276 48.573a.645.645 0 0 1-.583-.37l-5.436-11.552-11.315-5.2a.645.645 0 0 1 .044-1.19l26.855-10.028a.645.645 0 0 1 .832.823l-9.79 27.092a.644.644 0 0 1-.576.425zM21.889 30.926l10.12 4.652a.645.645 0 0 1 .314.311L37.2 46.248l8.788-24.32z" transform="translate(-19.567 -20.192)"/>
        <path d="M55.979 36.808a.645.645 0 0 1-.456-1.1l15.326-15.327a.645.645 0 1 1 .912.912L56.435 36.619a.642.642 0 0 1-.456.189z" transform="translate(-19.567 -20.192) translate(-24.238)"/>
    </g>
</svg>
