<svg xmlns="http://www.w3.org/2000/svg" xmlns:xlink="http://www.w3.org/1999/xlink" viewBox="0 0 357.76 100.98"><defs><style>.cls-1{fill:url(#radial-gradient);}.cls-2{fill:url(#radial-gradient-2);}.cls-3{fill:url(#radial-gradient-3);}.cls-4{opacity:0.3;}.cls-5{fill:url(#radial-gradient-4);}.cls-100,.cls-103,.cls-111,.cls-113,.cls-118,.cls-120,.cls-125,.cls-127,.cls-132,.cls-134,.cls-14,.cls-16,.cls-21,.cls-23,.cls-28,.cls-30,.cls-35,.cls-37,.cls-42,.cls-44,.cls-49,.cls-51,.cls-56,.cls-58,.cls-6,.cls-63,.cls-65,.cls-70,.cls-72,.cls-77,.cls-79,.cls-84,.cls-86,.cls-9,.cls-91,.cls-93,.cls-98{opacity:0.2;}.cls-6{fill:url(#radial-gradient-5);}.cls-7{opacity:0.1;}.cls-8{fill:url(#radial-gradient-6);}.cls-9{fill:url(#radial-gradient-7);}.cls-10{fill:url(#radial-gradient-8);}.cls-11{fill:url(#radial-gradient-9);}.cls-12{fill:url(#radial-gradient-10);}.cls-13{fill:url(#radial-gradient-11);}.cls-14{fill:url(#radial-gradient-12);}.cls-15{fill:url(#radial-gradient-13);}.cls-16{fill:url(#radial-gradient-14);}.cls-17{fill:url(#radial-gradient-15);}.cls-18{fill:url(#radial-gradient-16);}.cls-19{fill:url(#radial-gradient-17);}.cls-20{fill:url(#radial-gradient-18);}.cls-21{fill:url(#radial-gradient-19);}.cls-22{fill:url(#radial-gradient-20);}.cls-23{fill:url(#radial-gradient-21);}.cls-24{fill:url(#radial-gradient-22);}.cls-25{fill:url(#radial-gradient-23);}.cls-26{fill:url(#radial-gradient-24);}.cls-27{fill:url(#radial-gradient-25);}.cls-28{fill:url(#radial-gradient-26);}.cls-29{fill:url(#radial-gradient-27);}.cls-30{fill:url(#radial-gradient-28);}.cls-31{fill:url(#radial-gradient-29);}.cls-32{fill:url(#radial-gradient-30);}.cls-33{fill:url(#radial-gradient-31);}.cls-34{fill:url(#radial-gradient-32);}.cls-35{fill:url(#radial-gradient-33);}.cls-36{fill:url(#radial-gradient-34);}.cls-37{fill:url(#radial-gradient-35);}.cls-38{fill:url(#radial-gradient-36);}.cls-39{fill:url(#radial-gradient-37);}.cls-40{fill:url(#radial-gradient-38);}.cls-41{fill:url(#radial-gradient-39);}.cls-42{fill:url(#radial-gradient-40);}.cls-43{fill:url(#radial-gradient-41);}.cls-44{fill:url(#radial-gradient-42);}.cls-45{fill:url(#radial-gradient-43);}.cls-46{fill:url(#radial-gradient-44);}.cls-47{fill:url(#radial-gradient-45);}.cls-48{fill:url(#radial-gradient-46);}.cls-49{fill:url(#radial-gradient-47);}.cls-50{fill:url(#radial-gradient-48);}.cls-51{fill:url(#radial-gradient-49);}.cls-52{fill:url(#radial-gradient-50);}.cls-53{fill:url(#radial-gradient-51);}.cls-54{fill:url(#radial-gradient-52);}.cls-55{fill:url(#radial-gradient-53);}.cls-56{fill:url(#radial-gradient-54);}.cls-57{fill:url(#radial-gradient-55);}.cls-58{fill:url(#radial-gradient-56);}.cls-59{fill:url(#radial-gradient-57);}.cls-60{fill:url(#radial-gradient-58);}.cls-61{fill:url(#radial-gradient-59);}.cls-62{fill:url(#radial-gradient-60);}.cls-63{fill:url(#radial-gradient-61);}.cls-64{fill:url(#radial-gradient-62);}.cls-65{fill:url(#radial-gradient-63);}.cls-66{fill:url(#radial-gradient-64);}.cls-67{fill:url(#radial-gradient-65);}.cls-68{fill:url(#radial-gradient-66);}.cls-69{fill:url(#radial-gradient-67);}.cls-70{fill:url(#radial-gradient-68);}.cls-71{fill:url(#radial-gradient-69);}.cls-72{fill:url(#radial-gradient-70);}.cls-73{fill:url(#radial-gradient-71);}.cls-74{fill:url(#radial-gradient-72);}.cls-75{fill:url(#radial-gradient-73);}.cls-76{fill:url(#radial-gradient-74);}.cls-77{fill:url(#radial-gradient-75);}.cls-78{fill:url(#radial-gradient-76);}.cls-79{fill:url(#radial-gradient-77);}.cls-80{fill:url(#radial-gradient-78);}.cls-81{fill:url(#radial-gradient-79);}.cls-82{fill:url(#radial-gradient-80);}.cls-83{fill:url(#radial-gradient-81);}.cls-84{fill:url(#radial-gradient-82);}.cls-85{fill:url(#radial-gradient-83);}.cls-86{fill:url(#radial-gradient-84);}.cls-87{fill:url(#radial-gradient-85);}.cls-88{fill:url(#radial-gradient-86);}.cls-89{fill:url(#radial-gradient-87);}.cls-90{fill:url(#radial-gradient-88);}.cls-91{fill:url(#radial-gradient-89);}.cls-92{fill:url(#radial-gradient-90);}.cls-93{fill:url(#radial-gradient-91);}.cls-94{fill:url(#radial-gradient-92);}.cls-95{fill:url(#radial-gradient-93);}.cls-96{fill:url(#radial-gradient-94);}.cls-97{fill:url(#radial-gradient-95);}.cls-98{fill:url(#radial-gradient-96);}.cls-99{fill:url(#radial-gradient-97);}.cls-100{fill:url(#radial-gradient-98);}.cls-101{opacity:0.7;}.cls-102{fill:url(#radial-gradient-99);}.cls-103{fill:url(#radial-gradient-100);}.cls-104{fill:url(#radial-gradient-101);}.cls-105{fill:url(#radial-gradient-102);}.cls-106{fill:url(#radial-gradient-103);}.cls-107{fill:url(#radial-gradient-104);}.cls-108{fill:url(#radial-gradient-105);}.cls-109{fill:url(#radial-gradient-106);}.cls-110{fill:url(#radial-gradient-107);}.cls-111{fill:url(#radial-gradient-108);}.cls-112{fill:url(#radial-gradient-109);}.cls-113{fill:url(#radial-gradient-110);}.cls-114{fill:url(#radial-gradient-111);}.cls-115{fill:url(#radial-gradient-112);}.cls-116{fill:url(#radial-gradient-113);}.cls-117{fill:url(#radial-gradient-114);}.cls-118{fill:url(#radial-gradient-115);}.cls-119{fill:url(#radial-gradient-116);}.cls-120{fill:url(#radial-gradient-117);}.cls-121{fill:url(#radial-gradient-118);}.cls-122{fill:url(#radial-gradient-119);}.cls-123{fill:url(#radial-gradient-120);}.cls-124{fill:url(#radial-gradient-121);}.cls-125{fill:url(#radial-gradient-122);}.cls-126{fill:url(#radial-gradient-123);}.cls-127{fill:url(#radial-gradient-124);}.cls-128{fill:url(#radial-gradient-125);}.cls-129{fill:url(#radial-gradient-126);}.cls-130{fill:url(#radial-gradient-127);}.cls-131{fill:url(#radial-gradient-128);}.cls-132{fill:url(#radial-gradient-129);}.cls-133{fill:url(#radial-gradient-130);}.cls-134{fill:url(#radial-gradient-131);}.cls-135{fill:url(#radial-gradient-132);}</style><radialGradient id="radial-gradient" cx="150.46" cy="-1161.35" r="1.05" gradientTransform="matrix(-7.35, 0.46, -0.07, -1.11, 1129.3, -1313.79)" gradientUnits="userSpaceOnUse"><stop offset="0" stop-color="#fff"/><stop offset="0.28" stop-color="#fff" stop-opacity="0.3"/><stop offset="1" stop-color="#ecf5f7" stop-opacity="0"/></radialGradient><radialGradient id="radial-gradient-2" cx="164.15" cy="-1065.97" r="1.05" gradientTransform="matrix(0.06, 7.36, 1.12, -0.01, 1283.44, -1169.91)" xlink:href="#radial-gradient"/><radialGradient id="radial-gradient-3" cx="522.47" cy="454.07" r="4.36" gradientTransform="matrix(1, -0.06, 0.06, 1, -444.42, -372.24)" xlink:href="#radial-gradient"/><radialGradient id="radial-gradient-4" cx="131.36" cy="449.99" r="0.54" gradientTransform="matrix(0.39, -8.11, 7.9, 0.38, -3499.64, 943.93)" xlink:href="#radial-gradient"/><radialGradient id="radial-gradient-5" cx="131.36" cy="450" r="0.58" gradientTransform="matrix(0.39, -8.11, 7.9, 0.38, -3499.64, 943.93)" xlink:href="#radial-gradient"/><radialGradient id="radial-gradient-6" cx="131.35" cy="450" r="0.66" gradientTransform="matrix(0.39, -8.11, 7.9, 0.38, -3499.64, 943.93)" xlink:href="#radial-gradient"/><radialGradient id="radial-gradient-7" cx="131.35" cy="450" r="0.71" gradientTransform="matrix(0.39, -8.11, 7.9, 0.38, -3499.64, 943.93)" xlink:href="#radial-gradient"/><radialGradient id="radial-gradient-8" cx="151.99" cy="-1130.7" r="0.36" xlink:href="#radial-gradient"/><radialGradient id="radial-gradient-9" cx="159.61" cy="-1077.44" r="0.36" gradientTransform="matrix(0.06, 7.36, 1.12, -0.01, 1283.44, -1169.91)" xlink:href="#radial-gradient"/><radialGradient id="radial-gradient-10" cx="511.38" cy="420" r="1.49" gradientTransform="matrix(1, -0.06, 0.06, 1, -444.42, -372.24)" xlink:href="#radial-gradient"/><radialGradient id="radial-gradient-11" cx="135.38" cy="448.13" r="0.18" gradientTransform="matrix(0.39, -8.11, 7.9, 0.38, -3499.64, 943.93)" xlink:href="#radial-gradient"/><radialGradient id="radial-gradient-12" cx="135.38" cy="448.13" r="0.2" gradientTransform="matrix(0.39, -8.11, 7.9, 0.38, -3499.64, 943.93)" xlink:href="#radial-gradient"/><radialGradient id="radial-gradient-13" cx="135.38" cy="448.13" r="0.23" gradientTransform="matrix(0.39, -8.11, 7.9, 0.38, -3499.64, 943.93)" xlink:href="#radial-gradient"/><radialGradient id="radial-gradient-14" cx="135.38" cy="448.13" r="0.24" gradientTransform="matrix(0.39, -8.11, 7.9, 0.38, -3499.64, 943.93)" xlink:href="#radial-gradient"/><radialGradient id="radial-gradient-15" cx="153.02" cy="-1204.56" r="0.42" xlink:href="#radial-gradient"/><radialGradient id="radial-gradient-16" cx="170.84" cy="-1080.26" r="0.42" gradientTransform="matrix(0.06, 7.36, 1.12, -0.01, 1283.44, -1169.91)" xlink:href="#radial-gradient"/><radialGradient id="radial-gradient-17" cx="503.82" cy="502.37" r="1.74" gradientTransform="matrix(1, -0.06, 0.06, 1, -444.42, -372.24)" xlink:href="#radial-gradient"/><radialGradient id="radial-gradient-18" cx="125.2" cy="448.32" r="0.22" gradientTransform="matrix(0.39, -8.11, 7.9, 0.38, -3499.64, 943.93)" xlink:href="#radial-gradient"/><radialGradient id="radial-gradient-19" cx="125.2" cy="448.33" r="0.23" gradientTransform="matrix(0.39, -8.11, 7.9, 0.38, -3499.64, 943.93)" xlink:href="#radial-gradient"/><radialGradient id="radial-gradient-20" cx="125.2" cy="448.32" r="0.26" gradientTransform="matrix(0.39, -8.11, 7.9, 0.38, -3499.64, 943.93)" xlink:href="#radial-gradient"/><radialGradient id="radial-gradient-21" cx="125.2" cy="448.33" r="0.28" gradientTransform="matrix(0.39, -8.11, 7.9, 0.38, -3499.64, 943.93)" xlink:href="#radial-gradient"/><radialGradient id="radial-gradient-22" cx="164.02" cy="-1119.11" r="0.42" xlink:href="#radial-gradient"/><radialGradient id="radial-gradient-23" cx="158.51" cy="-1157.37" r="0.42" gradientTransform="matrix(0.06, 7.36, 1.12, -0.01, 1283.44, -1169.91)" xlink:href="#radial-gradient"/><radialGradient id="radial-gradient-24" cx="422.82" cy="407.16" r="1.74" gradientTransform="matrix(1, -0.06, 0.06, 1, -444.42, -372.24)" xlink:href="#radial-gradient"/><radialGradient id="radial-gradient-25" cx="135.75" cy="436.82" r="0.22" gradientTransform="matrix(0.39, -8.11, 7.9, 0.38, -3499.64, 943.93)" xlink:href="#radial-gradient"/><radialGradient id="radial-gradient-26" cx="135.75" cy="436.82" r="0.23" gradientTransform="matrix(0.39, -8.11, 7.9, 0.38, -3499.64, 943.93)" xlink:href="#radial-gradient"/><radialGradient id="radial-gradient-27" cx="135.75" cy="436.82" r="0.26" gradientTransform="matrix(0.39, -8.11, 7.9, 0.38, -3499.64, 943.93)" xlink:href="#radial-gradient"/><radialGradient id="radial-gradient-28" cx="135.75" cy="436.82" r="0.28" gradientTransform="matrix(0.39, -8.11, 7.9, 0.38, -3499.64, 943.93)" xlink:href="#radial-gradient"/><radialGradient id="radial-gradient-29" cx="153.66" cy="-1147.42" r="0.42" xlink:href="#radial-gradient"/><radialGradient id="radial-gradient-30" cx="162.23" cy="-1087.59" r="0.42" gradientTransform="matrix(0.06, 7.36, 1.12, -0.01, 1283.44, -1169.91)" xlink:href="#radial-gradient"/><radialGradient id="radial-gradient-31" cx="499.06" cy="438.65" r="1.74" gradientTransform="matrix(1, -0.06, 0.06, 1, -444.42, -372.24)" xlink:href="#radial-gradient"/><radialGradient id="radial-gradient-32" cx="132.93" cy="446.84" r="0.22" gradientTransform="matrix(0.39, -8.11, 7.9, 0.38, -3499.64, 943.93)" xlink:href="#radial-gradient"/><radialGradient id="radial-gradient-33" cx="132.93" cy="446.84" r="0.23" gradientTransform="matrix(0.39, -8.11, 7.9, 0.38, -3499.64, 943.93)" xlink:href="#radial-gradient"/><radialGradient id="radial-gradient-34" cx="132.93" cy="446.84" r="0.26" gradientTransform="matrix(0.39, -8.11, 7.9, 0.38, -3499.64, 943.93)" xlink:href="#radial-gradient"/><radialGradient id="radial-gradient-35" cx="132.93" cy="446.84" r="0.28" gradientTransform="matrix(0.39, -8.11, 7.9, 0.38, -3499.64, 943.93)" xlink:href="#radial-gradient"/><radialGradient id="radial-gradient-36" cx="157.57" cy="-1117.49" r="0.42" xlink:href="#radial-gradient"/><radialGradient id="radial-gradient-37" cx="157.91" cy="-1114.93" r="0.42" gradientTransform="matrix(0.06, 7.36, 1.12, -0.01, 1283.44, -1169.91)" xlink:href="#radial-gradient"/><radialGradient id="radial-gradient-38" cx="470.3" cy="405.31" r="1.74" gradientTransform="matrix(1, -0.06, 0.06, 1, -444.42, -372.24)" xlink:href="#radial-gradient"/><radialGradient id="radial-gradient-39" cx="136.62" cy="442.76" r="0.22" gradientTransform="matrix(0.39, -8.11, 7.9, 0.38, -3499.64, 943.93)" xlink:href="#radial-gradient"/><radialGradient id="radial-gradient-40" cx="136.62" cy="442.76" r="0.23" gradientTransform="matrix(0.39, -8.11, 7.9, 0.38, -3499.64, 943.93)" xlink:href="#radial-gradient"/><radialGradient id="radial-gradient-41" cx="136.62" cy="442.76" r="0.26" gradientTransform="matrix(0.39, -8.11, 7.9, 0.38, -3499.64, 943.93)" xlink:href="#radial-gradient"/><radialGradient id="radial-gradient-42" cx="136.62" cy="442.76" r="0.28" gradientTransform="matrix(0.39, -8.11, 7.9, 0.38, -3499.64, 943.93)" xlink:href="#radial-gradient"/><radialGradient id="radial-gradient-43" cx="117.74" cy="-1137.99" r="0.58" xlink:href="#radial-gradient"/><radialGradient id="radial-gradient-44" cx="158.84" cy="-851.42" r="0.58" gradientTransform="matrix(0.06, 7.36, 1.12, -0.01, 1283.44, -1169.91)" xlink:href="#radial-gradient"/><radialGradient id="radial-gradient-45" cx="763.38" cy="427.88" r="2.4" gradientTransform="matrix(1, -0.06, 0.06, 1, -444.42, -372.24)" xlink:href="#radial-gradient"/><radialGradient id="radial-gradient-46" cx="137.83" cy="479.92" r="0.3" gradientTransform="matrix(0.39, -8.11, 7.9, 0.38, -3499.64, 943.93)" xlink:href="#radial-gradient"/><radialGradient id="radial-gradient-47" cx="137.83" cy="479.92" r="0.32" gradientTransform="matrix(0.39, -8.11, 7.9, 0.38, -3499.64, 943.93)" xlink:href="#radial-gradient"/><radialGradient id="radial-gradient-48" cx="137.83" cy="479.92" r="0.37" gradientTransform="matrix(0.39, -8.11, 7.9, 0.38, -3499.64, 943.93)" xlink:href="#radial-gradient"/><radialGradient id="radial-gradient-49" cx="137.83" cy="479.93" r="0.39" gradientTransform="matrix(0.39, -8.11, 7.9, 0.38, -3499.64, 943.93)" xlink:href="#radial-gradient"/><radialGradient id="radial-gradient-50" cx="122.65" cy="-1139.87" r="0.58" xlink:href="#radial-gradient"/><radialGradient id="radial-gradient-51" cx="159.39" cy="-883.65" r="0.58" gradientTransform="matrix(0.06, 7.36, 1.12, -0.01, 1283.44, -1169.91)" xlink:href="#radial-gradient"/><radialGradient id="radial-gradient-52" cx="727.28" cy="430" r="2.4" gradientTransform="matrix(1, -0.06, 0.06, 1, -444.42, -372.24)" xlink:href="#radial-gradient"/><radialGradient id="radial-gradient-53" cx="137.08" cy="475.41" r="0.3" gradientTransform="matrix(0.39, -8.11, 7.9, 0.38, -3499.64, 943.93)" xlink:href="#radial-gradient"/><radialGradient id="radial-gradient-54" cx="137.08" cy="475.42" r="0.32" gradientTransform="matrix(0.39, -8.11, 7.9, 0.38, -3499.64, 943.93)" xlink:href="#radial-gradient"/><radialGradient id="radial-gradient-55" cx="137.08" cy="475.41" r="0.37" gradientTransform="matrix(0.39, -8.11, 7.9, 0.38, -3499.64, 943.93)" xlink:href="#radial-gradient"/><radialGradient id="radial-gradient-56" cx="137.08" cy="475.42" r="0.39" gradientTransform="matrix(0.39, -8.11, 7.9, 0.38, -3499.64, 943.93)" xlink:href="#radial-gradient"/><radialGradient id="radial-gradient-57" cx="116.57" cy="-1173.47" r="0.31" xlink:href="#radial-gradient"/><radialGradient id="radial-gradient-58" cx="164.15" cy="-841.65" r="0.31" gradientTransform="matrix(0.06, 7.36, 1.12, -0.01, 1283.44, -1169.91)" xlink:href="#radial-gradient"/><radialGradient id="radial-gradient-59" cx="772.13" cy="467.47" r="1.29" gradientTransform="matrix(1, -0.06, 0.06, 1, -444.42, -372.24)" xlink:href="#radial-gradient"/><radialGradient id="radial-gradient-60" cx="133.1" cy="481.57" r="0.16" gradientTransform="matrix(0.39, -8.11, 7.9, 0.38, -3499.64, 943.93)" xlink:href="#radial-gradient"/><radialGradient id="radial-gradient-61" cx="133.1" cy="481.58" r="0.17" gradientTransform="matrix(0.39, -8.11, 7.9, 0.38, -3499.64, 943.93)" xlink:href="#radial-gradient"/><radialGradient id="radial-gradient-62" cx="133.1" cy="481.57" r="0.2" gradientTransform="matrix(0.39, -8.11, 7.9, 0.38, -3499.64, 943.93)" xlink:href="#radial-gradient"/><radialGradient id="radial-gradient-63" cx="133.1" cy="481.58" r="0.21" gradientTransform="matrix(0.39, -8.11, 7.9, 0.38, -3499.64, 943.93)" xlink:href="#radial-gradient"/><radialGradient id="radial-gradient-64" cx="128.15" cy="-1131.16" r="0.31" xlink:href="#radial-gradient"/><radialGradient id="radial-gradient-65" cx="158.38" cy="-920.27" r="0.31" gradientTransform="matrix(0.06, 7.36, 1.12, -0.01, 1283.44, -1169.91)" xlink:href="#radial-gradient"/><radialGradient id="radial-gradient-66" cx="686.85" cy="420.37" r="1.29" gradientTransform="matrix(1, -0.06, 0.06, 1, -444.42, -372.24)" xlink:href="#radial-gradient"/><radialGradient id="radial-gradient-67" cx="137.71" cy="470.2" r="0.16" gradientTransform="matrix(0.39, -8.11, 7.9, 0.38, -3499.64, 943.93)" xlink:href="#radial-gradient"/><radialGradient id="radial-gradient-68" cx="137.71" cy="470.2" r="0.17" gradientTransform="matrix(0.39, -8.11, 7.9, 0.38, -3499.64, 943.93)" xlink:href="#radial-gradient"/><radialGradient id="radial-gradient-69" cx="137.71" cy="470.2" r="0.2" gradientTransform="matrix(0.39, -8.11, 7.9, 0.38, -3499.64, 943.93)" xlink:href="#radial-gradient"/><radialGradient id="radial-gradient-70" cx="137.71" cy="470.2" r="0.21" gradientTransform="matrix(0.39, -8.11, 7.9, 0.38, -3499.64, 943.93)" xlink:href="#radial-gradient"/><radialGradient id="radial-gradient-71" cx="120.66" cy="-1134.68" r="0.31" xlink:href="#radial-gradient"/><radialGradient id="radial-gradient-72" cx="158.5" cy="-870.74" r="0.31" gradientTransform="matrix(0.06, 7.36, 1.12, -0.01, 1283.44, -1169.91)" xlink:href="#radial-gradient"/><radialGradient id="radial-gradient-73" cx="741.96" cy="424.24" r="1.29" gradientTransform="matrix(1, -0.06, 0.06, 1, -444.42, -372.24)" xlink:href="#radial-gradient"/><radialGradient id="radial-gradient-74" cx="137.98" cy="477.18" r="0.16" gradientTransform="matrix(0.39, -8.11, 7.9, 0.38, -3499.64, 943.93)" xlink:href="#radial-gradient"/><radialGradient id="radial-gradient-75" cx="137.98" cy="477.18" r="0.17" gradientTransform="matrix(0.39, -8.11, 7.9, 0.38, -3499.64, 943.93)" xlink:href="#radial-gradient"/><radialGradient id="radial-gradient-76" cx="137.98" cy="477.18" r="0.2" gradientTransform="matrix(0.39, -8.11, 7.9, 0.38, -3499.64, 943.93)" xlink:href="#radial-gradient"/><radialGradient id="radial-gradient-77" cx="137.98" cy="477.18" r="0.21" gradientTransform="matrix(0.39, -8.11, 7.9, 0.38, -3499.64, 943.93)" xlink:href="#radial-gradient"/><radialGradient id="radial-gradient-78" cx="119.97" cy="-1151.36" r="0.12" xlink:href="#radial-gradient"/><radialGradient id="radial-gradient-79" cx="160.99" cy="-865.18" r="0.12" gradientTransform="matrix(0.06, 7.36, 1.12, -0.01, 1283.44, -1169.91)" xlink:href="#radial-gradient"/><radialGradient id="radial-gradient-80" cx="747.13" cy="442.86" r="0.49" gradientTransform="matrix(1, -0.06, 0.06, 1, -444.42, -372.24)" xlink:href="#radial-gradient"/><radialGradient id="radial-gradient-81" cx="135.78" cy="478.09" r="0.06" gradientTransform="matrix(0.39, -8.11, 7.9, 0.38, -3499.64, 943.93)" xlink:href="#radial-gradient"/><radialGradient id="radial-gradient-82" cx="135.78" cy="478.09" r="0.07" gradientTransform="matrix(0.39, -8.11, 7.9, 0.38, -3499.64, 943.93)" xlink:href="#radial-gradient"/><radialGradient id="radial-gradient-83" cx="135.78" cy="478.09" r="0.07" gradientTransform="matrix(0.39, -8.11, 7.9, 0.38, -3499.64, 943.93)" xlink:href="#radial-gradient"/><radialGradient id="radial-gradient-84" cx="135.78" cy="478.09" r="0.08" gradientTransform="matrix(0.39, -8.11, 7.9, 0.38, -3499.64, 943.93)" xlink:href="#radial-gradient"/><radialGradient id="radial-gradient-85" cx="120.18" cy="-1163.85" r="0.31" xlink:href="#radial-gradient"/><radialGradient id="radial-gradient-86" cx="162.89" cy="-866.01" r="0.31" gradientTransform="matrix(0.06, 7.36, 1.12, -0.01, 1283.44, -1169.91)" xlink:href="#radial-gradient"/><radialGradient id="radial-gradient-87" cx="745.51" cy="456.77" r="1.29" gradientTransform="matrix(1, -0.06, 0.06, 1, -444.42, -372.24)" xlink:href="#radial-gradient"/><radialGradient id="radial-gradient-88" cx="134.05" cy="478.08" r="0.16" gradientTransform="matrix(0.39, -8.11, 7.9, 0.38, -3499.64, 943.93)" xlink:href="#radial-gradient"/><radialGradient id="radial-gradient-89" cx="134.05" cy="478.08" r="0.17" gradientTransform="matrix(0.39, -8.11, 7.9, 0.38, -3499.64, 943.93)" xlink:href="#radial-gradient"/><radialGradient id="radial-gradient-90" cx="134.05" cy="478.08" r="0.2" gradientTransform="matrix(0.39, -8.11, 7.9, 0.38, -3499.64, 943.93)" xlink:href="#radial-gradient"/><radialGradient id="radial-gradient-91" cx="134.05" cy="478.08" r="0.21" gradientTransform="matrix(0.39, -8.11, 7.9, 0.38, -3499.64, 943.93)" xlink:href="#radial-gradient"/><radialGradient id="radial-gradient-92" cx="125.28" cy="-1168.06" r="0.31" xlink:href="#radial-gradient"/><radialGradient id="radial-gradient-93" cx="163.8" cy="-899.32" r="0.31" gradientTransform="matrix(0.06, 7.36, 1.12, -0.01, 1283.44, -1169.91)" xlink:href="#radial-gradient"/><radialGradient id="radial-gradient-94" cx="708.05" cy="461.49" r="1.29" gradientTransform="matrix(1, -0.06, 0.06, 1, -444.42, -372.24)" xlink:href="#radial-gradient"/><radialGradient id="radial-gradient-95" cx="132.97" cy="473.43" r="0.16" gradientTransform="matrix(0.39, -8.11, 7.9, 0.38, -3499.64, 943.93)" xlink:href="#radial-gradient"/><radialGradient id="radial-gradient-96" cx="132.97" cy="473.44" r="0.17" gradientTransform="matrix(0.39, -8.11, 7.9, 0.38, -3499.64, 943.93)" xlink:href="#radial-gradient"/><radialGradient id="radial-gradient-97" cx="132.97" cy="473.43" r="0.2" gradientTransform="matrix(0.39, -8.11, 7.9, 0.38, -3499.64, 943.93)" xlink:href="#radial-gradient"/><radialGradient id="radial-gradient-98" cx="132.97" cy="473.44" r="0.21" gradientTransform="matrix(0.39, -8.11, 7.9, 0.38, -3499.64, 943.93)" xlink:href="#radial-gradient"/><radialGradient id="radial-gradient-99" cx="132.43" cy="469.4" r="0.25" gradientTransform="matrix(0.47, -8.11, 7.89, 0.45, -3481.81, 876.86)" gradientUnits="userSpaceOnUse"><stop offset="0.76" stop-color="#fff" stop-opacity="0.03"/><stop offset="0.82" stop-color="#fff" stop-opacity="0.95"/><stop offset="0.86" stop-color="#fff" stop-opacity="0.03"/></radialGradient><radialGradient id="radial-gradient-100" cx="132.43" cy="469.4" r="0.27" xlink:href="#radial-gradient-99"/><radialGradient id="radial-gradient-101" cx="129.47" cy="-1167.54" r="0.49" gradientTransform="matrix(-7.35, 0.39, -0.06, -1.11, 1167.33, -1335.16)" gradientUnits="userSpaceOnUse"><stop offset="0" stop-color="#fff"/><stop offset="0.04" stop-color="#fff"/><stop offset="0.25" stop-color="#fff"/><stop offset="0.94" stop-color="#fff" stop-opacity="0"/></radialGradient><radialGradient id="radial-gradient-102" cx="164.16" cy="-926.2" r="0.49" gradientTransform="matrix(-0.01, 7.36, 1.12, 0, 1319.14, -1191.54)" gradientUnits="userSpaceOnUse"><stop offset="0" stop-color="#fff"/><stop offset="0.04" stop-color="#fff"/><stop offset="0.25" stop-color="#fff"/><stop offset="0.88" stop-color="#fff" stop-opacity="0"/></radialGradient><radialGradient id="radial-gradient-103" cx="678.7" cy="461.58" r="2.02" gradientTransform="matrix(1, -0.05, 0.05, 1, -416.76, -409.26)" gradientUnits="userSpaceOnUse"><stop offset="0" stop-color="#fff"/><stop offset="0.04" stop-color="#fff"/><stop offset="0.18" stop-color="#fff"/><stop offset="0.73" stop-color="#fff" stop-opacity="0"/></radialGradient><radialGradient id="radial-gradient-104" cx="137.88" cy="-1133.82" r="0.7" xlink:href="#radial-gradient"/><radialGradient id="radial-gradient-105" cx="159.3" cy="-984.41" r="0.7" gradientTransform="matrix(0.06, 7.36, 1.12, -0.01, 1283.44, -1169.91)" xlink:href="#radial-gradient"/><radialGradient id="radial-gradient-106" cx="615.14" cy="423.34" r="2.9" gradientTransform="matrix(1, -0.06, 0.06, 1, -444.42, -372.24)" xlink:href="#radial-gradient"/><radialGradient id="radial-gradient-107" cx="136.37" cy="461.22" r="0.36" gradientTransform="matrix(0.39, -8.11, 7.9, 0.38, -3499.64, 943.93)" xlink:href="#radial-gradient"/><radialGradient id="radial-gradient-108" cx="136.37" cy="461.22" r="0.38" gradientTransform="matrix(0.39, -8.11, 7.9, 0.38, -3499.64, 943.93)" xlink:href="#radial-gradient"/><radialGradient id="radial-gradient-109" cx="136.37" cy="461.22" r="0.44" gradientTransform="matrix(0.39, -8.11, 7.9, 0.38, -3499.64, 943.93)" xlink:href="#radial-gradient"/><radialGradient id="radial-gradient-110" cx="136.37" cy="461.23" r="0.47" gradientTransform="matrix(0.39, -8.11, 7.9, 0.38, -3499.64, 943.93)" xlink:href="#radial-gradient"/><radialGradient id="radial-gradient-111" cx="144.52" cy="-1123.31" r="0.37" xlink:href="#radial-gradient"/><radialGradient id="radial-gradient-112" cx="158.08" cy="-1028.62" r="0.37" gradientTransform="matrix(0.06, 7.36, 1.12, -0.01, 1283.44, -1169.91)" xlink:href="#radial-gradient"/><radialGradient id="radial-gradient-113" cx="566.34" cy="411.71" r="1.55" gradientTransform="matrix(1, -0.06, 0.06, 1, -444.42, -372.24)" xlink:href="#radial-gradient"/><radialGradient id="radial-gradient-114" cx="137.14" cy="454.92" r="0.19" gradientTransform="matrix(0.39, -8.11, 7.9, 0.38, -3499.64, 943.93)" xlink:href="#radial-gradient"/><radialGradient id="radial-gradient-115" cx="137.14" cy="454.93" r="0.21" gradientTransform="matrix(0.39, -8.11, 7.9, 0.38, -3499.64, 943.93)" xlink:href="#radial-gradient"/><radialGradient id="radial-gradient-116" cx="137.14" cy="454.92" r="0.24" gradientTransform="matrix(0.39, -8.11, 7.9, 0.38, -3499.64, 943.93)" xlink:href="#radial-gradient"/><radialGradient id="radial-gradient-117" cx="137.14" cy="454.93" r="0.25" gradientTransform="matrix(0.39, -8.11, 7.9, 0.38, -3499.64, 943.93)" xlink:href="#radial-gradient"/><radialGradient id="radial-gradient-118" cx="135.48" cy="-1127.55" r="0.37" xlink:href="#radial-gradient"/><radialGradient id="radial-gradient-119" cx="158.23" cy="-968.83" r="0.37" gradientTransform="matrix(0.06, 7.36, 1.12, -0.01, 1283.44, -1169.91)" xlink:href="#radial-gradient"/><radialGradient id="radial-gradient-120" cx="632.85" cy="416.38" r="1.55" gradientTransform="matrix(1, -0.06, 0.06, 1, -444.42, -372.24)" xlink:href="#radial-gradient"/><radialGradient id="radial-gradient-121" cx="137.47" cy="463.35" r="0.19" gradientTransform="matrix(0.39, -8.11, 7.9, 0.38, -3499.64, 943.93)" xlink:href="#radial-gradient"/><radialGradient id="radial-gradient-122" cx="137.47" cy="463.35" r="0.21" gradientTransform="matrix(0.39, -8.11, 7.9, 0.38, -3499.64, 943.93)" xlink:href="#radial-gradient"/><radialGradient id="radial-gradient-123" cx="137.47" cy="463.35" r="0.24" gradientTransform="matrix(0.39, -8.11, 7.9, 0.38, -3499.64, 943.93)" xlink:href="#radial-gradient"/><radialGradient id="radial-gradient-124" cx="137.47" cy="463.36" r="0.25" gradientTransform="matrix(0.39, -8.11, 7.9, 0.38, -3499.64, 943.93)" xlink:href="#radial-gradient"/><radialGradient id="radial-gradient-125" cx="134.65" cy="-1147.69" r="0.14" xlink:href="#radial-gradient"/><radialGradient id="radial-gradient-126" cx="161.24" cy="-962.13" r="0.14" gradientTransform="matrix(0.06, 7.36, 1.12, -0.01, 1283.44, -1169.91)" xlink:href="#radial-gradient"/><radialGradient id="radial-gradient-127" cx="639.1" cy="438.87" r="0.59" gradientTransform="matrix(1, -0.06, 0.06, 1, -444.42, -372.24)" xlink:href="#radial-gradient"/><radialGradient id="radial-gradient-128" cx="134.8" cy="464.45" r="0.07" gradientTransform="matrix(0.39, -8.11, 7.9, 0.38, -3499.64, 943.93)" xlink:href="#radial-gradient"/><radialGradient id="radial-gradient-129" cx="134.8" cy="464.45" r="0.08" gradientTransform="matrix(0.39, -8.11, 7.9, 0.38, -3499.64, 943.93)" xlink:href="#radial-gradient"/><radialGradient id="radial-gradient-130" cx="134.8" cy="464.45" r="0.09" gradientTransform="matrix(0.39, -8.11, 7.9, 0.38, -3499.64, 943.93)" xlink:href="#radial-gradient"/><radialGradient id="radial-gradient-131" cx="134.8" cy="464.45" r="0.1" gradientTransform="matrix(0.39, -8.11, 7.9, 0.38, -3499.64, 943.93)" xlink:href="#radial-gradient"/><radialGradient id="radial-gradient-132" cx="312.13" cy="75.79" r="2.55" gradientTransform="matrix(0.73, -0.68, 0.66, 0.72, 32.74, 233.3)" gradientUnits="userSpaceOnUse"><stop offset="0" stop-color="#fff"/><stop offset="0.25" stop-color="#fff"/><stop offset="0.76" stop-color="#d0e6f5" stop-opacity="0"/></radialGradient></defs><g id="레이어_2" data-name="레이어 2"><g id="레이어_1-2" data-name="레이어 1"><path class="cls-1" d="M98,49.13c0-.64,3.37-1.38,7.63-1.65s7.75,0,7.79.68-3.38,1.39-7.64,1.66S98,49.78,98,49.13Z"/><path class="cls-2" d="M105.25,56.26c.64,0,1.14-3.47,1.1-7.74s-.59-7.72-1.24-7.72S104,44.27,104,48.54,104.6,56.27,105.25,56.26Z"/><path class="cls-3" d="M109.7,48.24a4.35,4.35,0,1,1-4.62-4.07A4.35,4.35,0,0,1,109.7,48.24Z"/><g class="cls-4"><path class="cls-5" d="M105.51,44.21a4.37,4.37,0,1,1-4.46,4.16A4.3,4.3,0,0,1,105.51,44.21Z"/><path class="cls-6" d="M105.57,43.9a4.69,4.69,0,1,1-4.78,4.46A4.64,4.64,0,0,1,105.57,43.9Z"/></g><g class="cls-7"><path class="cls-8" d="M105.57,43.22a5.38,5.38,0,1,1-5.49,5.12A5.31,5.31,0,0,1,105.57,43.22Z"/><path class="cls-9" d="M105.65,42.84a5.77,5.77,0,1,1-5.89,5.5A5.69,5.69,0,0,1,105.65,42.84Z"/></g><path class="cls-10" d="M89.63,15.41c0-.23,1.15-.48,2.61-.57s2.65,0,2.67.23-1.16.48-2.62.57S89.64,15.63,89.63,15.41Z"/><path class="cls-11" d="M92.12,17.85c.23,0,.39-1.19.38-2.65s-.2-2.65-.42-2.65-.39,1.19-.38,2.65S91.9,17.85,92.12,17.85Z"/><path class="cls-12" d="M93.65,15.1a1.49,1.49,0,1,1-1.58-1.39A1.49,1.49,0,0,1,93.65,15.1Z"/><g class="cls-4"><path class="cls-13" d="M92.22,13.72a1.5,1.5,0,1,1-1.53,1.42A1.48,1.48,0,0,1,92.22,13.72Z"/><path class="cls-14" d="M92.24,13.61a1.61,1.61,0,0,1-.16,3.21,1.61,1.61,0,0,1,.16-3.21Z"/></g><g class="cls-7"><path class="cls-15" d="M92.23,13.38a1.84,1.84,0,1,1-1.87,1.75A1.83,1.83,0,0,1,92.23,13.38Z"/><path class="cls-16" d="M92.26,13.25a2,2,0,1,1-2,1.88A2,2,0,0,1,92.26,13.25Z"/></g><path class="cls-17" d="M86.78,98.13c0-.26,1.35-.56,3-.66s3.1,0,3.11.27-1.35.55-3,.66S86.79,98.39,86.78,98.13Z"/><path class="cls-18" d="M89.7,101c.26,0,.45-1.39.44-3.1s-.24-3.08-.5-3.08-.45,1.39-.44,3.09S89.44,101,89.7,101Z"/><path class="cls-19" d="M91.48,97.77a1.74,1.74,0,1,1-1.85-1.63A1.74,1.74,0,0,1,91.48,97.77Z"/><g class="cls-4"><path class="cls-20" d="M89.8,96.16A1.75,1.75,0,1,1,88,97.82,1.72,1.72,0,0,1,89.8,96.16Z"/><path class="cls-21" d="M89.83,96a1.88,1.88,0,1,1-1.92,1.79A1.85,1.85,0,0,1,89.83,96Z"/></g><g class="cls-7"><path class="cls-22" d="M89.82,95.76a2.15,2.15,0,1,1-2.19,2A2.13,2.13,0,0,1,89.82,95.76Z"/><path class="cls-23" d="M89.86,95.61a2.31,2.31,0,1,1-2.36,2.2A2.28,2.28,0,0,1,89.86,95.61Z"/></g><path class="cls-24" d="M0,8.13c0-.26,1.35-.55,3.05-.66s3.1,0,3.12.27-1.35.55-3.06.66S0,8.39,0,8.13Z"/><path class="cls-25" d="M2.92,11c.26,0,.45-1.39.44-3.09S3.12,4.8,2.86,4.8s-.45,1.39-.44,3.09S2.66,11,2.92,11Z"/><path class="cls-26" d="M4.7,7.77A1.74,1.74,0,1,1,2.85,6.14,1.74,1.74,0,0,1,4.7,7.77Z"/><g class="cls-4"><path class="cls-27" d="M3,6.16a1.75,1.75,0,0,1-.16,3.49A1.75,1.75,0,0,1,3,6.16Z"/><path class="cls-28" d="M3.05,6a1.87,1.87,0,0,1-.18,3.74A1.87,1.87,0,0,1,3.05,6Z"/></g><g class="cls-7"><path class="cls-29" d="M3.05,5.77a2.15,2.15,0,0,1-.21,4.29,2.15,2.15,0,0,1,.21-4.29Z"/><path class="cls-30" d="M3.08,5.61a2.31,2.31,0,0,1-.22,4.61,2.31,2.31,0,0,1,.22-4.61Z"/></g><path class="cls-31" d="M78.06,34.82c0-.26,1.35-.55,3-.66s3.1,0,3.11.27-1.35.56-3,.66S78.07,35.08,78.06,34.82Z"/><path class="cls-32" d="M81,37.67c.26,0,.45-1.39.44-3.09s-.24-3.09-.5-3.09-.45,1.39-.44,3.09S80.72,37.67,81,37.67Z"/><path class="cls-33" d="M82.76,34.47a1.74,1.74,0,1,1-1.85-1.63A1.74,1.74,0,0,1,82.76,34.47Z"/><g class="cls-4"><path class="cls-34" d="M81.08,32.85a1.75,1.75,0,1,1-1.78,1.66A1.73,1.73,0,0,1,81.08,32.85Z"/><path class="cls-35" d="M81.11,32.73a1.87,1.87,0,1,1-1.92,1.78A1.85,1.85,0,0,1,81.11,32.73Z"/></g><g class="cls-7"><path class="cls-36" d="M81.11,32.46a2.15,2.15,0,1,1-2.2,2A2.11,2.11,0,0,1,81.11,32.46Z"/><path class="cls-37" d="M81.14,32.3a2.31,2.31,0,1,1-2.36,2.2A2.28,2.28,0,0,1,81.14,32.3Z"/></g><path class="cls-38" d="M47.29,3.33c0-.26,1.34-.55,3.05-.66s3.1,0,3.11.27-1.35.55-3.05.66S47.3,3.59,47.29,3.33Z"/><path class="cls-39" d="M50.2,6.18c.26,0,.46-1.39.44-3.09S50.41,0,50.15,0s-.46,1.39-.44,3.09S49.94,6.18,50.2,6.18Z"/><path class="cls-40" d="M52,3a1.74,1.74,0,1,1-1.85-1.63A1.75,1.75,0,0,1,52,3Z"/><g class="cls-4"><path class="cls-41" d="M50.31,1.36a1.71,1.71,0,0,1,1.61,1.83A1.7,1.7,0,1,1,48.53,3,1.71,1.71,0,0,1,50.31,1.36Z"/><path class="cls-42" d="M50.33,1.24a1.84,1.84,0,0,1,1.74,2A1.83,1.83,0,1,1,48.42,3,1.85,1.85,0,0,1,50.33,1.24Z"/></g><g class="cls-7"><path class="cls-43" d="M50.33,1a2.11,2.11,0,0,1,2,2.24A2.09,2.09,0,1,1,48.14,3,2.12,2.12,0,0,1,50.33,1Z"/><path class="cls-44" d="M50.36.81A2.29,2.29,0,0,1,52.5,3.23,2.25,2.25,0,1,1,48,3,2.28,2.28,0,0,1,50.36.81Z"/></g><path class="cls-45" d="M340.11,7.72c0-.35,1.86-.76,4.21-.91s4.28,0,4.3.38-1.86.76-4.21.91S340.14,8.08,340.11,7.72Z"/><path class="cls-46" d="M344.14,11.65c.36,0,.63-1.91.61-4.27s-.33-4.26-.69-4.25-.62,1.91-.6,4.27S343.78,11.66,344.14,11.65Z"/><path class="cls-47" d="M346.6,7.23A2.4,2.4,0,1,1,344.05,5,2.41,2.41,0,0,1,346.6,7.23Z"/><g class="cls-4"><path class="cls-48" d="M344.28,5a2.41,2.41,0,0,1-.23,4.82,2.37,2.37,0,0,1-2.22-2.52A2.38,2.38,0,0,1,344.28,5Z"/><path class="cls-49" d="M344.32,4.83a2.59,2.59,0,0,1-.25,5.17,2.59,2.59,0,0,1,.25-5.17Z"/></g><g class="cls-7"><path class="cls-50" d="M344.32,4.46a3,3,0,0,1-.29,5.92,2.92,2.92,0,0,1-2.74-3.1A2.93,2.93,0,0,1,344.32,4.46Z"/><path class="cls-51" d="M344.36,4.25a3.13,3.13,0,0,1,2.94,3.33,3.1,3.1,0,1,1-2.94-3.33Z"/></g><path class="cls-52" d="M304.21,12.09c0-.36,1.87-.77,4.22-.91s4.27,0,4.29.37-1.86.77-4.21.92S304.24,12.44,304.21,12.09Z"/><path class="cls-53" d="M308.24,16c.36,0,.63-1.91.61-4.27s-.33-4.26-.69-4.26-.62,1.92-.6,4.27S307.88,16,308.24,16Z"/><path class="cls-54" d="M310.7,11.6a2.4,2.4,0,1,1-2.55-2.25A2.4,2.4,0,0,1,310.7,11.6Z"/><g class="cls-4"><path class="cls-55" d="M308.39,9.37a2.41,2.41,0,1,1-2.46,2.3A2.37,2.37,0,0,1,308.39,9.37Z"/><path class="cls-56" d="M308.42,9.2a2.59,2.59,0,1,1-2.64,2.46A2.56,2.56,0,0,1,308.42,9.2Z"/></g><g class="cls-7"><path class="cls-57" d="M308.42,8.83a3,3,0,1,1-3,2.82A2.92,2.92,0,0,1,308.42,8.83Z"/><path class="cls-58" d="M308.46,8.62a3.18,3.18,0,1,1-3.25,3A3.13,3.13,0,0,1,308.46,8.62Z"/></g><path class="cls-59" d="M353.21,46.55c0-.2,1-.41,2.25-.49s2.29,0,2.3.2-1,.41-2.25.49S353.22,46.74,353.21,46.55Z"/><path class="cls-60" d="M355.36,48.65c.19,0,.34-1,.33-2.29s-.18-2.28-.37-2.28-.33,1-.32,2.29S355.17,48.65,355.36,48.65Z"/><path class="cls-61" d="M356.68,46.28a1.29,1.29,0,1,1-2.57.16,1.29,1.29,0,0,1,2.57-.16Z"/><g class="cls-4"><path class="cls-62" d="M355.44,45.09a1.29,1.29,0,0,1-.12,2.58,1.29,1.29,0,0,1,.12-2.58Z"/><path class="cls-63" d="M355.46,45a1.36,1.36,0,0,1,1.28,1.45,1.35,1.35,0,1,1-2.69-.13A1.36,1.36,0,0,1,355.46,45Z"/></g><g class="cls-7"><path class="cls-64" d="M355.46,44.8a1.59,1.59,0,1,1-1.62,1.51A1.57,1.57,0,0,1,355.46,44.8Z"/><path class="cls-65" d="M355.48,44.69a1.7,1.7,0,1,1-1.74,1.62A1.68,1.68,0,0,1,355.48,44.69Z"/></g><path class="cls-66" d="M265.15,4.83c0-.19,1-.41,2.26-.49s2.29,0,2.3.2-1,.41-2.26.49S265.17,5,265.15,4.83Z"/><path class="cls-67" d="M267.31,6.94c.19,0,.34-1,.32-2.29s-.17-2.28-.36-2.28-.34,1-.33,2.29S267.12,6.94,267.31,6.94Z"/><path class="cls-68" d="M268.63,4.57a1.29,1.29,0,0,1-1.21,1.36,1.27,1.27,0,0,1-1.36-1.2,1.29,1.29,0,0,1,1.2-1.37A1.3,1.3,0,0,1,268.63,4.57Z"/><g class="cls-4"><path class="cls-69" d="M267.39,3.37a1.28,1.28,0,0,1,1.19,1.35A1.26,1.26,0,0,1,267.27,6a1.27,1.27,0,0,1-1.2-1.35A1.29,1.29,0,0,1,267.39,3.37Z"/><path class="cls-70" d="M267.41,3.28a1.38,1.38,0,0,1,1.28,1.45,1.35,1.35,0,1,1-1.28-1.45Z"/></g><g class="cls-7"><path class="cls-71" d="M267.41,3.08a1.56,1.56,0,0,1,1.46,1.66,1.55,1.55,0,1,1-1.46-1.66Z"/><path class="cls-72" d="M267.43,3a1.71,1.71,0,1,1-1.74,1.63A1.69,1.69,0,0,1,267.43,3Z"/></g><path class="cls-73" d="M320.4,5.27c0-.19,1-.41,2.26-.49s2.29,0,2.3.2-1,.41-2.26.49S320.42,5.46,320.4,5.27Z"/><path class="cls-74" d="M322.56,7.37c.19,0,.34-1,.33-2.28s-.18-2.29-.37-2.28-.34,1-.33,2.28S322.37,7.37,322.56,7.37Z"/><path class="cls-75" d="M323.88,5a1.3,1.3,0,0,1-1.21,1.37,1.29,1.29,0,0,1-1.36-1.21,1.27,1.27,0,0,1,1.2-1.36A1.29,1.29,0,0,1,323.88,5Z"/><g class="cls-4"><path class="cls-76" d="M322.64,3.81A1.29,1.29,0,1,1,321.32,5,1.27,1.27,0,0,1,322.64,3.81Z"/><path class="cls-77" d="M322.66,3.72a1.36,1.36,0,0,1,1.28,1.45,1.35,1.35,0,1,1-1.28-1.45Z"/></g><g class="cls-7"><path class="cls-78" d="M322.65,3.52a1.59,1.59,0,0,1-.15,3.17A1.55,1.55,0,0,1,321,5,1.56,1.56,0,0,1,322.65,3.52Z"/><path class="cls-79" d="M322.68,3.41a1.67,1.67,0,0,1,1.57,1.78A1.66,1.66,0,1,1,320.94,5,1.67,1.67,0,0,1,322.68,3.41Z"/></g><path class="cls-80" d="M328.08,23.42c0-.07.38-.15.86-.18s.87,0,.88.07-.38.16-.86.19S328.08,23.5,328.08,23.42Z"/><path class="cls-81" d="M328.9,24.23c.07,0,.13-.4.13-.88s-.07-.87-.14-.87-.13.4-.13.88S328.83,24.23,328.9,24.23Z"/><path class="cls-82" d="M329.4,23.32a.49.49,0,0,1-.46.52.49.49,0,0,1-.52-.46.5.5,0,0,1,.46-.52A.49.49,0,0,1,329.4,23.32Z"/><g class="cls-4"><path class="cls-83" d="M328.93,22.87a.48.48,0,0,1,.46.51.5.5,0,0,1-.51.47.48.48,0,0,1-.45-.51A.48.48,0,0,1,328.93,22.87Z"/><path class="cls-84" d="M328.94,22.83a.53.53,0,0,1-.05,1.06.53.53,0,0,1,.05-1.06Z"/></g><g class="cls-7"><path class="cls-85" d="M328.94,22.76a.6.6,0,0,1,.56.63.61.61,0,0,1-.62.58.61.61,0,0,1,.06-1.21Z"/><path class="cls-86" d="M329,22.71a.64.64,0,0,1,.6.68.64.64,0,1,1-1.27-.06A.65.65,0,0,1,329,22.71Z"/></g><path class="cls-87" d="M326,37.52c0-.19,1-.41,2.26-.49s2.29,0,2.3.2-1,.41-2.26.49S326,37.71,326,37.52Z"/><path class="cls-88" d="M328.12,39.62c.19,0,.34-1,.32-2.28s-.17-2.29-.36-2.28-.34,1-.33,2.28S327.93,39.62,328.12,39.62Z"/><path class="cls-89" d="M329.44,37.25a1.3,1.3,0,0,1-1.21,1.37,1.29,1.29,0,0,1-1.36-1.21,1.27,1.27,0,0,1,1.2-1.36A1.29,1.29,0,0,1,329.44,37.25Z"/><g class="cls-4"><path class="cls-90" d="M328.2,36.06a1.29,1.29,0,1,1-1.32,1.23A1.27,1.27,0,0,1,328.2,36.06Z"/><path class="cls-91" d="M328.22,36a1.39,1.39,0,1,1-1.42,1.32A1.37,1.37,0,0,1,328.22,36Z"/></g><g class="cls-7"><path class="cls-92" d="M328.21,35.77a1.59,1.59,0,1,1-1.62,1.51A1.58,1.58,0,0,1,328.21,35.77Z"/><path class="cls-93" d="M328.24,35.66a1.7,1.7,0,1,1-1.74,1.62A1.67,1.67,0,0,1,328.24,35.66Z"/></g><path class="cls-94" d="M288.87,44.56c0-.19,1-.41,2.25-.49s2.29,0,2.3.2-1,.41-2.25.49S288.88,44.75,288.87,44.56Z"/><path class="cls-95" d="M291,46.67c.19,0,.34-1,.33-2.29s-.18-2.28-.37-2.28-.33,1-.32,2.29S290.83,46.67,291,46.67Z"/><path class="cls-96" d="M292.34,44.3a1.29,1.29,0,0,1-1.21,1.36,1.27,1.27,0,0,1-1.36-1.2,1.29,1.29,0,1,1,2.57-.16Z"/><g class="cls-4"><path class="cls-97" d="M291.1,43.11a1.29,1.29,0,1,1-1.32,1.22A1.26,1.26,0,0,1,291.1,43.11Z"/><path class="cls-98" d="M291.12,43a1.39,1.39,0,0,1-.13,2.77,1.36,1.36,0,0,1-1.28-1.45A1.37,1.37,0,0,1,291.12,43Z"/></g><g class="cls-7"><path class="cls-99" d="M291.12,42.81a1.59,1.59,0,1,1-1.62,1.52A1.58,1.58,0,0,1,291.12,42.81Z"/><path class="cls-100" d="M291.14,42.7a1.71,1.71,0,1,1-1.74,1.63A1.69,1.69,0,0,1,291.14,42.7Z"/></g><g class="cls-101"><g class="cls-4"><path class="cls-102" d="M285.36,14a2,2,0,1,1-2.09,1.91A2,2,0,0,1,285.36,14Z"/><path class="cls-103" d="M285.4,13.83a2.18,2.18,0,1,1-2.25,2.05A2.14,2.14,0,0,1,285.4,13.83Z"/></g><path class="cls-104" d="M281.83,16.23c0-.3,1.57-.63,3.55-.74s3.6,0,3.62.35-1.58.63-3.56.74S281.85,16.53,281.83,16.23Z"/><path class="cls-105" d="M285.19,19.57c.3,0,.54-1.61.54-3.59s-.24-3.59-.54-3.59-.54,1.61-.54,3.59S284.89,19.57,285.19,19.57Z"/><path class="cls-106" d="M287.29,15.87A2,2,0,1,1,285.17,14,2,2,0,0,1,287.29,15.87Z"/></g><path class="cls-107" d="M191,12.49c0-.44,2.25-.93,5.08-1.11s5.16,0,5.19.46-2.25.92-5.09,1.1S191,12.91,191,12.49Z"/><path class="cls-108" d="M195.87,17.23c.43,0,.76-2.31.73-5.15s-.39-5.14-.82-5.14-.76,2.31-.73,5.15S195.44,17.23,195.87,17.23Z"/><path class="cls-109" d="M198.84,11.89a2.9,2.9,0,1,1-3.08-2.71A2.91,2.91,0,0,1,198.84,11.89Z"/><g class="cls-4"><path class="cls-110" d="M196.05,9.2a2.91,2.91,0,1,1-3,2.77A2.89,2.89,0,0,1,196.05,9.2Z"/><path class="cls-111" d="M196.09,9a3.12,3.12,0,1,1-3.19,3A3.08,3.08,0,0,1,196.09,9Z"/></g><g class="cls-7"><path class="cls-112" d="M196.08,8.55A3.58,3.58,0,1,1,192.43,12,3.53,3.53,0,0,1,196.08,8.55Z"/><path class="cls-113" d="M196.14,8.29A3.85,3.85,0,1,1,192.22,12,3.8,3.8,0,0,1,196.14,8.29Z"/></g><path class="cls-114" d="M143.86,3.72c0-.23,1.21-.49,2.73-.59s2.76,0,2.77.25-1.2.49-2.72.59S143.88,4,143.86,3.72Z"/><path class="cls-115" d="M146.47,6.27c.23,0,.4-1.24.39-2.76s-.21-2.76-.44-2.76S146,2,146,3.51,146.24,6.27,146.47,6.27Z"/><path class="cls-116" d="M148.06,3.41A1.55,1.55,0,1,1,146.41,2,1.55,1.55,0,0,1,148.06,3.41Z"/><g class="cls-4"><path class="cls-117" d="M146.56,2A1.54,1.54,0,0,1,148,3.6a1.52,1.52,0,1,1-3-.15A1.53,1.53,0,0,1,146.56,2Z"/><path class="cls-118" d="M146.58,1.86a1.65,1.65,0,0,1,1.55,1.75,1.63,1.63,0,1,1-3.25-.16A1.64,1.64,0,0,1,146.58,1.86Z"/></g><g class="cls-7"><path class="cls-119" d="M146.58,1.62a1.89,1.89,0,0,1,1.77,2,1.86,1.86,0,1,1-3.72-.18A1.87,1.87,0,0,1,146.58,1.62Z"/><path class="cls-120" d="M146.61,1.48a2,2,0,0,1,1.9,2.15,2,2,0,1,1-4-.19A2,2,0,0,1,146.61,1.48Z"/></g><path class="cls-121" d="M210.55,4.25c0-.23,1.21-.49,2.72-.59s2.77,0,2.78.24-1.2.5-2.72.59S210.57,4.48,210.55,4.25Z"/><path class="cls-122" d="M213.15,6.79c.24,0,.41-1.24.4-2.76s-.21-2.75-.45-2.75-.4,1.24-.39,2.76S212.92,6.79,213.15,6.79Z"/><path class="cls-123" d="M214.74,3.93a1.54,1.54,0,0,1-1.45,1.65,1.55,1.55,0,1,1,1.45-1.65Z"/><g class="cls-4"><path class="cls-124" d="M213.25,2.49a1.56,1.56,0,0,1-.15,3.12A1.54,1.54,0,0,1,211.66,4,1.54,1.54,0,0,1,213.25,2.49Z"/><path class="cls-125" d="M213.27,2.38A1.67,1.67,0,1,1,211.56,4,1.66,1.66,0,0,1,213.27,2.38Z"/></g><g class="cls-7"><path class="cls-126" d="M213.27,2.14a1.89,1.89,0,0,1,1.77,2A1.87,1.87,0,1,1,211.31,4,1.9,1.9,0,0,1,213.27,2.14Z"/><path class="cls-127" d="M213.3,2a2,2,0,0,1,1.9,2.15,2,2,0,1,1-4-.19A2,2,0,0,1,213.3,2Z"/></g><path class="cls-128" d="M219.82,26.17c0-.09.45-.19,1-.23s1.06,0,1.06.09-.46.19-1,.23S219.82,26.25,219.82,26.17Z"/><path class="cls-129" d="M220.81,27.14c.09,0,.15-.48.15-1.06s-.08-1-.17-1-.16.47-.15,1.06S220.72,27.14,220.81,27.14Z"/><path class="cls-130" d="M221.41,26a.59.59,0,0,1-.55.63.59.59,0,1,1,.55-.63Z"/><g class="cls-4"><path class="cls-131" d="M220.84,25.5a.59.59,0,1,1-.6.56A.57.57,0,0,1,220.84,25.5Z"/><path class="cls-132" d="M220.85,25.45a.64.64,0,0,1-.06,1.28.64.64,0,0,1,.06-1.28Z"/></g><g class="cls-7"><path class="cls-133" d="M220.85,25.36a.73.73,0,1,1-.74.7A.72.72,0,0,1,220.85,25.36Z"/><path class="cls-134" d="M220.86,25.31a.79.79,0,1,1-.8.75A.77.77,0,0,1,220.86,25.31Z"/></g><path class="cls-135" d="M314.21,75.79a2,2,0,1,1-2-2A2,2,0,0,1,314.21,75.79Z"/></g></g></svg>