<?xml version="1.0" encoding="utf-8"?>
<!-- Generator: Adobe Illustrator 25.0.0, SVG Export Plug-In . SVG Version: 6.00 Build 0)  -->
<svg version="1.1" id="레이어_1" xmlns="http://www.w3.org/2000/svg" xmlns:xlink="http://www.w3.org/1999/xlink" x="0px"
	 y="0px" viewBox="0 0 170 70" style="enable-background:new 0 0 170 70;" xml:space="preserve">
<style type="text/css">
	.st0{fill:#AA7CC5;}
	.st1{fill:#F2F2F2;}
	.st2{fill:#AAE393;}
	.st3{fill:#FF688C;}
	.st4{fill:#90D2FF;}
	.st5{fill:#FFD666;}
	.st6{fill:none;stroke:#281C16;stroke-miterlimit:10;}
</style>
<g>
	<g id="XMLID_1_">
		<g>
			<path class="st0" d="M169.49,46.43c0,0.39-0.02,0.77-0.06,1.14c-2.7-0.62-6.01-1.57-9.69-3.04c-3.36-1.34-6.18-2.8-8.41-4.09
				c1.83-2.47,4.78-4.08,8.1-4.08C164.99,36.37,169.49,40.88,169.49,46.43z"/>
			<path class="st1" d="M169.43,47.58c-0.15,1.32-0.56,2.55-1.16,3.67l-0.03-0.02c-2.73-0.62-6.13-1.58-9.9-3.09
				c-3.35-1.34-6.16-2.78-8.39-4.07L149.66,44c0.32-1.3,0.9-2.5,1.67-3.55c2.23,1.29,5.05,2.75,8.41,4.09
				C163.42,46.01,166.73,46.96,169.43,47.58z"/>
			<path class="st0" d="M168.24,51.23l0.03,0.02c-1.7,3.13-5.02,5.25-8.84,5.25c-5.55,0-10.07-4.5-10.07-10.07
				c0-0.83,0.1-1.65,0.3-2.43l0.29,0.06c2.23,1.29,5.04,2.73,8.39,4.07C162.11,49.65,165.51,50.61,168.24,51.23z"/>
			<path class="st2" d="M127.65,16.19c5.56,0,10.07,4.5,10.07,10.07c0,3.54-1.83,6.66-4.61,8.46c-1.41-2.35-3.02-5.36-4.49-8.97
				c-1.38-3.37-2.3-6.42-2.92-8.93l-0.08-0.41C126.27,16.26,126.94,16.19,127.65,16.19z"/>
			<path class="st1" d="M133.11,34.71c-1.07,0.7-2.29,1.2-3.6,1.43c-1.42-2.34-3-5.34-4.47-8.92c-1.36-3.34-2.27-6.36-2.89-8.86
				l-0.53-0.18c1.16-0.88,2.52-1.49,4-1.79l0.08,0.41c0.62,2.51,1.54,5.56,2.92,8.93C130.09,29.35,131.69,32.36,133.11,34.71z"/>
			<path class="st2" d="M129.51,36.14c-0.61,0.11-1.23,0.18-1.86,0.18c-5.55,0-10.07-4.51-10.07-10.07c0-3.31,1.59-6.23,4.04-8.07
				l0.53,0.18c0.63,2.5,1.54,5.52,2.89,8.86C126.51,30.81,128.09,33.8,129.51,36.14z"/>
			<path class="st3" d="M93.44,11.83c1.2,1.66,1.9,3.69,1.9,5.88c0,5.56-4.5,10.07-10.07,10.07c-2.09,0-4.02-0.63-5.62-1.72
				l0.6-0.11c2.02-1.61,4.4-3.69,6.87-6.3C89.82,16.8,91.89,14.1,93.44,11.83z"/>
			<path class="st1" d="M90.63,9.19c1.1,0.69,2.05,1.59,2.81,2.64c-1.56,2.27-3.63,4.97-6.33,7.81c-2.47,2.62-4.85,4.7-6.87,6.3
				l-0.6,0.11c-1.01-0.67-1.89-1.52-2.58-2.51l0.29-0.2c2.03-1.6,4.43-3.7,6.93-6.34C86.98,14.16,89.06,11.45,90.63,9.19z"/>
			<path class="st3" d="M85.27,7.65c1.97,0,3.8,0.57,5.36,1.55c-1.57,2.26-3.65,4.97-6.34,7.82c-2.5,2.64-4.9,4.74-6.93,6.34
				l-0.29,0.2c-1.17-1.65-1.86-3.66-1.86-5.83C75.21,12.16,79.71,7.65,85.27,7.65z"/>
			<path class="st4" d="M52.96,26.25c0,0.81-0.09,1.61-0.29,2.37l-0.22-0.05c-2.69-0.82-6.05-2.05-9.74-3.87
				c-3.12-1.54-5.74-3.13-7.83-4.55c1.84-2.4,4.74-3.96,8-3.96C48.45,16.19,52.96,20.69,52.96,26.25z"/>
			<path class="st1" d="M52.46,28.57l0.22,0.05c-0.31,1.33-0.9,2.55-1.68,3.62l-0.32-0.23c-2.68-0.82-5.99-2.03-9.64-3.83
				c-3.12-1.55-5.75-3.14-7.84-4.57c0.34-1.27,0.93-2.44,1.7-3.46c2.09,1.42,4.71,3.02,7.83,4.55
				C46.41,26.52,49.77,27.75,52.46,28.57z"/>
			<path class="st4" d="M50.68,32.01L51,32.24c-1.83,2.47-4.78,4.08-8.1,4.08c-5.56,0-10.07-4.51-10.07-10.07
				c0-0.92,0.12-1.8,0.36-2.65c2.09,1.43,4.72,3.03,7.84,4.57C44.69,29.98,48,31.19,50.68,32.01z"/>
			<path class="st5" d="M21.11,45.21c0.05,0.4,0.07,0.81,0.07,1.23c0,5.56-4.51,10.07-10.07,10.07c-3.65,0-6.84-1.94-8.6-4.83
				c2.49-0.46,5.5-1.2,8.84-2.33c3.85-1.31,7.06-2.79,9.53-4.1L21.11,45.21z"/>
			<path class="st1" d="M21.11,45.21l-0.23,0.03c-2.47,1.31-5.68,2.79-9.53,4.1c-3.34,1.13-6.35,1.86-8.84,2.33
				c-0.67-1.09-1.13-2.33-1.34-3.64c2.5-0.46,5.54-1.21,8.91-2.34c3.9-1.33,7.14-2.83,9.62-4.15l0.14-0.09
				C20.5,42.58,20.95,43.86,21.11,45.21z"/>
			<path class="st5" d="M19.85,41.45l-0.14,0.09c-2.48,1.32-5.72,2.82-9.62,4.15c-3.37,1.13-6.41,1.87-8.91,2.34
				c-0.08-0.53-0.12-1.05-0.12-1.6c0-5.55,4.5-10.07,10.07-10.07C14.86,36.37,18.12,38.42,19.85,41.45z"/>
		</g>
		<g>
			<path class="st6" d="M21.11,45.21c0.05,0.4,0.07,0.81,0.07,1.23c0,5.56-4.51,10.07-10.07,10.07c-3.65,0-6.84-1.94-8.6-4.83
				c-0.67-1.09-1.13-2.33-1.34-3.64c-0.08-0.53-0.12-1.05-0.12-1.6c0-5.55,4.5-10.07,10.07-10.07c3.74,0,7.01,2.05,8.74,5.08
				C20.5,42.58,20.95,43.86,21.11,45.21z"/>
			<path class="st6" d="M93.44,11.83c1.2,1.66,1.9,3.69,1.9,5.88c0,5.56-4.5,10.07-10.07,10.07c-2.09,0-4.02-0.63-5.62-1.72
				c-1.01-0.67-1.89-1.52-2.58-2.51c-1.17-1.65-1.86-3.66-1.86-5.83c0-5.55,4.5-10.07,10.07-10.07c1.97,0,3.8,0.57,5.36,1.55
				C91.73,9.88,92.68,10.78,93.44,11.83z"/>
			<path class="st6" d="M34.89,20.14c1.84-2.4,4.74-3.96,8-3.96c5.55,0,10.07,4.5,10.07,10.07c0,0.81-0.09,1.61-0.29,2.37
				c-0.31,1.33-0.9,2.55-1.68,3.62c-1.83,2.47-4.78,4.08-8.1,4.08c-5.56,0-10.07-4.51-10.07-10.07c0-0.92,0.12-1.8,0.36-2.65
				C33.53,22.34,34.12,21.16,34.89,20.14z"/>
			<path class="st6" d="M125.62,16.39c0.66-0.13,1.33-0.21,2.03-0.21c5.56,0,10.07,4.5,10.07,10.07c0,3.54-1.83,6.66-4.61,8.46
				c-1.07,0.7-2.29,1.2-3.6,1.43c-0.61,0.11-1.23,0.18-1.86,0.18c-5.55,0-10.07-4.51-10.07-10.07c0-3.31,1.59-6.23,4.04-8.07
				C122.78,17.31,124.14,16.69,125.62,16.39z"/>
			<path class="st6" d="M151.33,40.45c1.83-2.47,4.78-4.08,8.1-4.08c5.56,0,10.07,4.51,10.07,10.07c0,0.39-0.02,0.77-0.06,1.14
				c-0.15,1.32-0.56,2.55-1.16,3.67c-1.7,3.13-5.02,5.25-8.84,5.25c-5.55,0-10.07-4.5-10.07-10.07c0-0.83,0.1-1.65,0.3-2.43
				C149.98,42.71,150.56,41.5,151.33,40.45z"/>
			<path class="st6" d="M19.71,41.54c-2.48,1.32-5.72,2.82-9.62,4.15c-3.37,1.13-6.41,1.87-8.91,2.34C1.11,48.04,1.06,48.05,1,48.06
				"/>
			<path class="st6" d="M2.34,51.7c0.06-0.01,0.11-0.02,0.18-0.03c2.49-0.46,5.5-1.2,8.84-2.33c3.85-1.31,7.06-2.79,9.53-4.1"/>
			<path class="st6" d="M52.46,28.57c-2.69-0.82-6.05-2.05-9.74-3.87c-3.12-1.54-5.74-3.13-7.83-4.55
				c-0.09-0.06-0.19-0.12-0.28-0.19"/>
			<path class="st6" d="M32.99,23.47c0.06,0.04,0.13,0.09,0.21,0.13c2.09,1.43,4.72,3.03,7.84,4.57c3.66,1.8,6.96,3.01,9.64,3.83"/>
			<path class="st6" d="M90.87,8.84c-0.08,0.11-0.15,0.24-0.24,0.35c-1.57,2.26-3.65,4.97-6.34,7.82c-2.5,2.64-4.9,4.74-6.93,6.34"
				/>
			<path class="st6" d="M80.24,25.94c2.02-1.61,4.4-3.69,6.87-6.3c2.7-2.84,4.77-5.54,6.33-7.81c0.06-0.09,0.12-0.18,0.19-0.27"/>
			<path class="st6" d="M133.33,35.09c-0.07-0.12-0.15-0.25-0.23-0.38c-1.41-2.35-3.02-5.36-4.49-8.97
				c-1.38-3.37-2.3-6.42-2.92-8.93"/>
			<path class="st6" d="M122.14,18.36c0.63,2.5,1.54,5.52,2.89,8.86c1.47,3.59,3.05,6.58,4.47,8.92c0.06,0.11,0.13,0.24,0.21,0.35"
				/>
			<path class="st6" d="M169.75,47.65c-0.1-0.02-0.22-0.05-0.32-0.07c-2.7-0.62-6.01-1.57-9.69-3.04c-3.36-1.34-6.18-2.8-8.41-4.09
				c-0.01-0.01-0.02-0.01-0.03-0.02"/>
			<path class="st6" d="M149.95,44.07c2.23,1.29,5.04,2.73,8.39,4.07c3.77,1.51,7.17,2.47,9.9,3.09"/>
		</g>
	</g>
</g>
</svg>
