<svg xmlns="http://www.w3.org/2000/svg" xmlns:xlink="http://www.w3.org/1999/xlink" viewBox="0 0 360.59 299.17"><defs><style>.cls-1{fill:url(#linear-gradient);}.cls-2{fill:url(#radial-gradient);}.cls-3{fill:url(#radial-gradient-2);}.cls-15,.cls-19,.cls-28,.cls-4{opacity:0.4;}.cls-4{fill:url(#radial-gradient-3);}.cls-5{fill:#fff5b0;}.cls-12,.cls-6,.cls-9{fill:#fff8c7;}.cls-7{fill:#fce897;}.cls-11,.cls-8{fill:#ffdc8d;}.cls-12,.cls-8{opacity:0.5;}.cls-10,.cls-9{opacity:0.7;}.cls-10{fill:#fff7c5;}.cls-13,.cls-14{opacity:0.3;}.cls-13{fill:url(#linear-gradient-2);}.cls-14{fill:url(#linear-gradient-3);}.cls-15{fill:url(#linear-gradient-4);}.cls-16{opacity:0.24;}.cls-17{fill:url(#radial-gradient-4);}.cls-18{fill:url(#radial-gradient-5);}.cls-19{fill:url(#radial-gradient-6);}.cls-20{opacity:0.17;fill:url(#linear-gradient-5);}.cls-21{fill:url(#linear-gradient-6);}.cls-22{fill:#fff;}.cls-23{fill:#c3c6db;}.cls-24{fill:#b3b8ce;}.cls-25{fill:#f2f2f2;}.cls-26{fill:#d8dae5;}.cls-27{fill:#f9f9f9;}.cls-29{fill:url(#linear-gradient-7);}.cls-30,.cls-31{opacity:0.2;}.cls-30{fill:url(#linear-gradient-8);}.cls-32{fill:#754c2f;}.cls-33{fill:#663d23;}.cls-34{fill:#d83132;}</style><linearGradient id="linear-gradient" x1="179.61" y1="150.37" x2="179.61" y2="340.93" gradientUnits="userSpaceOnUse"><stop offset="0" stop-color="#6f81c0"/><stop offset="0.64" stop-color="#a6c0df"/><stop offset="1" stop-color="#c1d2e8"/></linearGradient><radialGradient id="radial-gradient" cx="449.99" cy="172.34" r="69.16" gradientTransform="translate(-184.57 299.62) rotate(-41.16) scale(1 0.97)" gradientUnits="userSpaceOnUse"><stop offset="0" stop-color="#fbeed0"/><stop offset="0.85" stop-color="#fbf6c2" stop-opacity="0"/></radialGradient><radialGradient id="radial-gradient-2" cx="449.99" cy="172.34" r="50.11" gradientTransform="translate(-184.57 299.62) rotate(-41.16) scale(1 0.97)" gradientUnits="userSpaceOnUse"><stop offset="0" stop-color="#fbeed0"/><stop offset="0.89" stop-color="#fbf6c2" stop-opacity="0"/></radialGradient><radialGradient id="radial-gradient-3" cx="449.99" cy="172.34" r="29.84" gradientTransform="translate(-184.57 299.62) rotate(-41.16) scale(1 0.97)" gradientUnits="userSpaceOnUse"><stop offset="0" stop-color="#fbf6c7"/><stop offset="0.89" stop-color="#fbf6c2" stop-opacity="0.54"/></radialGradient><linearGradient id="linear-gradient-2" x1="60.13" y1="95.09" x2="60.13" y2="164.39" gradientTransform="matrix(-1, 0, 0, 1, 360.03, 0)" gradientUnits="userSpaceOnUse"><stop offset="0" stop-color="#fff"/><stop offset="0.06" stop-color="#fff" stop-opacity="0.86"/><stop offset="0.16" stop-color="#fff" stop-opacity="0.66"/><stop offset="0.26" stop-color="#fff" stop-opacity="0.48"/><stop offset="0.37" stop-color="#fff" stop-opacity="0.33"/><stop offset="0.48" stop-color="#fff" stop-opacity="0.21"/><stop offset="0.59" stop-color="#fff" stop-opacity="0.12"/><stop offset="0.71" stop-color="#fff" stop-opacity="0.05"/><stop offset="0.84" stop-color="#fff" stop-opacity="0.01"/><stop offset="1" stop-color="#fff" stop-opacity="0"/></linearGradient><linearGradient id="linear-gradient-3" x1="234.45" y1="36.52" x2="234.45" y2="133.39" gradientTransform="matrix(-1, 0, 0, 1, 360.03, 0)" gradientUnits="userSpaceOnUse"><stop offset="0" stop-color="#fff"/><stop offset="0.08" stop-color="#fff" stop-opacity="0.77"/><stop offset="0.19" stop-color="#fff" stop-opacity="0.5"/><stop offset="0.28" stop-color="#fff" stop-opacity="0.28"/><stop offset="0.36" stop-color="#fff" stop-opacity="0.13"/><stop offset="0.42" stop-color="#fff" stop-opacity="0.03"/><stop offset="0.46" stop-color="#fff" stop-opacity="0"/></linearGradient><linearGradient id="linear-gradient-4" x1="304.64" y1="0.75" x2="304.64" y2="93.93" gradientTransform="matrix(-1, 0, 0, 1, 360.03, 0)" gradientUnits="userSpaceOnUse"><stop offset="0" stop-color="#fff"/><stop offset="0.04" stop-color="#fff" stop-opacity="0.86"/><stop offset="0.11" stop-color="#fff" stop-opacity="0.66"/><stop offset="0.17" stop-color="#fff" stop-opacity="0.48"/><stop offset="0.24" stop-color="#fff" stop-opacity="0.33"/><stop offset="0.32" stop-color="#fff" stop-opacity="0.21"/><stop offset="0.39" stop-color="#fff" stop-opacity="0.12"/><stop offset="0.47" stop-color="#fff" stop-opacity="0.05"/><stop offset="0.56" stop-color="#fff" stop-opacity="0.01"/><stop offset="0.66" stop-color="#fff" stop-opacity="0"/></linearGradient><radialGradient id="radial-gradient-4" cx="265.19" cy="187.23" r="85.89" gradientTransform="matrix(0.05, -0.89, 0.97, 0.04, 70.47, 397.22)" xlink:href="#radial-gradient"/><radialGradient id="radial-gradient-5" cx="265.19" cy="187.23" r="62.23" gradientTransform="matrix(0.05, -0.89, 0.97, 0.04, 70.46, 397.22)" xlink:href="#radial-gradient-2"/><radialGradient id="radial-gradient-6" cx="265.19" cy="187.24" r="37.05" gradientTransform="matrix(0.05, -0.89, 0.97, 0.04, 70.46, 397.22)" xlink:href="#radial-gradient-3"/><linearGradient id="linear-gradient-5" x1="181.25" y1="65.91" x2="181.25" y2="106.44" gradientTransform="translate(360.78 263.4) rotate(180)" gradientUnits="userSpaceOnUse"><stop offset="0" stop-color="#f1f5fa"/><stop offset="0.23" stop-color="#c1d2e8"/><stop offset="0.73" stop-color="#a6c0df"/></linearGradient><linearGradient id="linear-gradient-6" x1="181.25" y1="144.78" x2="181.25" y2="240.45" gradientTransform="matrix(-1, 0, 0, 1, 360.78, 0)" gradientUnits="userSpaceOnUse"><stop offset="0" stop-color="#f1f5fa"/><stop offset="0.27" stop-color="#c1d2e8"/><stop offset="0.73" stop-color="#a6c0df"/></linearGradient><linearGradient id="linear-gradient-7" x1="407.22" y1="273.04" x2="407.22" y2="346.08" gradientTransform="matrix(-1, 0, 0, 1, 628.32, 0)" gradientUnits="userSpaceOnUse"><stop offset="0" stop-color="#fff"/><stop offset="0.45" stop-color="#c9daea"/><stop offset="1" stop-color="#aac7e4"/></linearGradient><linearGradient id="linear-gradient-8" x1="397.46" y1="259.22" x2="375.97" y2="270.09" gradientTransform="translate(-78.53)" gradientUnits="userSpaceOnUse"><stop offset="0.44" stop-color="#fff" stop-opacity="0"/><stop offset="1"/></linearGradient></defs><g id="레이어_2" data-name="레이어 2"><g id="레이어_1-2" data-name="레이어 1"><rect class="cls-1" x="0.13" y="182.04" width="358.97" height="117.13"/><path class="cls-2" d="M328.94,155.05a69.16,69.16,0,1,0-129.65-2.59C237.34,123.35,292.07,124.44,328.94,155.05Z"/><path class="cls-3" d="M312.61,144A50.1,50.1,0,1,0,216,142.06,105.77,105.77,0,0,1,312.61,144Z"/><path class="cls-4" d="M235.2,134.88A106.42,106.42,0,0,1,293.72,136a29.83,29.83,0,1,0-58.52-1.16Z"/><path class="cls-5" d="M227.81,137.14a106.18,106.18,0,0,1,72.9,1.33,37.47,37.47,0,0,0-.2-17.83l-19.28-24.2c-9.8-.34-24-.24-33.78-.37-6.16,6.11-11.22,12.78-17.25,19A37.33,37.33,0,0,0,227.81,137.14Z"/><polygon class="cls-6" points="281.23 96.44 247.55 95.98 243.35 106.05 281.23 96.44"/><polygon class="cls-7" points="243.64 105.77 227.1 127.17 246.87 97.18 243.64 105.77"/><polygon class="cls-8" points="243.64 105.77 280.48 106.48 281.23 96.44 243.64 105.77"/><polygon class="cls-6" points="280.48 106.48 300.69 120.83 281.23 96.44 280.48 106.48"/><polygon class="cls-5" points="280.48 106.48 227.32 126.41 243.64 105.77 280.48 106.48"/><path class="cls-9" d="M231.08,136.07q4.8-1.48,9.7-2.51l2.86-27.79-16.21,20Z"/><polygon class="cls-10" points="243.64 105.77 257.88 124.13 280.48 106.48 243.64 105.77"/><path class="cls-7" d="M257,131.47l1-7.34-14.37-18.36L250.45,132C252.62,131.77,254.8,131.58,257,131.47Z"/><path class="cls-8" d="M282.82,133.31c6.93-4.76,17.78-12.58,17.78-12.58l-20.12-14.25s-1.93,17.52-2.83,26C279.38,132.68,281.11,133,282.82,133.31Z"/><path class="cls-11" d="M277.68,132.43l2.8-25.95L258,124.13l11.19,7.42C272,131.73,274.87,132,277.68,132.43Z"/><path class="cls-12" d="M269.2,131.55,258,124.13l-1,7.34A105.29,105.29,0,0,1,269.2,131.55Z"/><path class="cls-10" d="M296.94,137.09l3.66-16.36-18.14,12.5A105.87,105.87,0,0,1,296.94,137.09Z"/><path class="cls-11" d="M299.52,138l1.53-1.83-.45-15.46-3.66,16.36Q298.25,137.54,299.52,138Z"/><path class="cls-13" d="M246.86,132.32a10.54,10.54,0,0,1-1.36-5.19c0-6.2,5.38-11.23,12-11.23H258c1.72-6.47,8-11.26,15.42-11.26a16.32,16.32,0,0,1,12.1,5.23,16.27,16.27,0,0,1,7.8-2h.06c.64-7.49,7.33-13.38,15.5-13.38a15.76,15.76,0,0,1,13.41,7.19,12.14,12.14,0,0,1,10.81.51,16.28,16.28,0,0,1,12.51-5.7,15.88,15.88,0,0,1,15,9.91v39.32h-4v.14H286v0L239.2,146v-4.17A22.81,22.81,0,0,1,246.86,132.32Z"/><path class="cls-14" d="M47.43,77.51c1.59-6.83,7.35-11.9,14.23-11.9h.59c2.1-9,9.74-15.74,18.85-15.74a18.89,18.89,0,0,1,14.79,7.31,18,18,0,0,1,9.54-2.75h.07c.78-10.47,9-18.7,19-18.7a18.81,18.81,0,0,1,16.4,10,13.21,13.21,0,0,1,13.2.72,19,19,0,0,1,15.3-8c10.74,0,19.44,9.31,19.44,20.79a22.43,22.43,0,0,1-.37,4,12.36,12.36,0,0,1,1.84-.13c7.39,0,13.39,6.38,13.46,14.27Z"/><path class="cls-15" d="M1.24,16.49A19.07,19.07,0,0,1,5.8,20.63,17.29,17.29,0,0,1,15,18H15C15.79,7.92,23.66,0,33.27,0A18.12,18.12,0,0,1,49.05,9.66a12.72,12.72,0,0,1,12.7.68A18.26,18.26,0,0,1,76.46,2.68c10.33,0,18.7,9,18.7,20a21.68,21.68,0,0,1-.35,3.9,12.68,12.68,0,0,1,1.76-.13c7.12,0,12.89,6.14,13,13.73H1.24Z"/><g class="cls-16"><path class="cls-17" d="M180.92,182.66c7.71,35.38,42.5,62.09,84.27,62.09s76.56-26.71,84.28-62.09Z"/><path class="cls-18" d="M205.21,182.66c7.25,23.57,31.35,40.9,60,40.9s52.74-17.33,60-40.9Z"/><path class="cls-19" d="M232.05,182.66c6.08,10.88,18.63,18.35,33.14,18.35s27.07-7.47,33.15-18.35Z"/></g><path class="cls-20" d="M359.07,181.84v18.41c-64.58,4.35-96.7,3.6-96.7,3.6C171.8,203.79,95.53,188.35,0,192.51V181.84Z"/><path class="cls-21" d="M359.07,181.71V138.24c-64.58-10.26-96.7-8.47-96.7-8.47C171.8,129.9,95.53,166.35,0,156.53v25.18Z"/><polyline class="cls-22" points="87.02 198.79 137.55 198.79 87.02 112.78 87.05 112.78 36.52 198.79 87.05 198.79"/><polygon class="cls-23" points="87.02 112.78 87.02 128.02 81.9 134.58 88.22 142.08 74.42 160.59 93.36 164.11 111.61 175.59 75.35 183.99 57.34 198.79 137.55 198.79 87.02 112.78"/><polygon class="cls-24" points="81.9 134.58 102.33 139.27 87.02 128.02 81.9 134.58"/><polygon class="cls-25" points="74.42 160.59 75.35 183.99 93.36 164.11 74.42 160.59"/><polygon class="cls-26" points="93.36 164.11 102.33 139.27 88.22 142.08 93.36 164.11"/><polygon class="cls-26" points="111.61 175.59 99.21 198.79 75.35 183.94 111.61 175.59"/><polygon class="cls-24" points="111.61 175.59 124.32 176.36 117.93 198.64 111.61 175.59"/><polygon class="cls-25" points="74.42 160.59 52.89 171.06 68.02 145.19 74.42 160.59"/><polygon class="cls-25" points="57.53 198.79 46.19 182.43 75.35 183.94 57.53 198.79"/><polygon class="cls-27" points="75.35 183.94 52.89 171.06 46.19 182.43 75.35 183.94"/><polygon class="cls-27" points="81.9 134.58 74.42 160.59 68.02 145.19 81.9 134.58"/><polygon class="cls-26" points="93.36 164.11 115.43 161.55 111.61 175.59 93.36 164.11"/><polygon class="cls-24" points="75.35 183.94 80.03 198.79 57.53 198.79 75.35 183.94"/><g class="cls-28"><polyline class="cls-22" points="87.02 198.88 137.55 198.88 87.02 254.22 87.05 254.22 36.52 198.88 87.05 198.88"/><polygon class="cls-23" points="87.02 254.22 87.02 244.42 81.9 240.2 88.22 235.37 74.42 223.46 93.36 221.2 111.61 213.81 75.35 208.41 57.34 198.88 137.55 198.88 87.02 254.22"/><polygon class="cls-24" points="81.9 240.2 102.33 237.18 87.02 244.42 81.9 240.2"/><polygon class="cls-25" points="74.42 223.46 75.35 208.41 93.36 221.2 74.42 223.46"/><polygon class="cls-26" points="93.36 221.2 102.33 237.18 88.22 235.37 93.36 221.2"/><polygon class="cls-26" points="111.61 213.81 99.21 198.88 75.35 208.44 111.61 213.81"/><polygon class="cls-24" points="111.61 213.81 124.32 213.32 117.93 198.98 111.61 213.81"/><polygon class="cls-25" points="74.42 223.46 52.89 216.73 68.02 233.37 74.42 223.46"/><polygon class="cls-25" points="57.53 198.88 46.19 209.41 75.35 208.44 57.53 198.88"/><polygon class="cls-27" points="75.35 208.44 52.89 216.73 46.19 209.41 75.35 208.44"/><polygon class="cls-27" points="81.9 240.2 74.42 223.46 68.02 233.37 81.9 240.2"/><polygon class="cls-26" points="93.36 221.2 115.43 222.84 111.61 213.81 93.36 221.2"/><polygon class="cls-24" points="75.35 208.44 80.03 198.88 57.53 198.88 75.35 208.44"/></g><polyline class="cls-22" points="137.22 214.13 173.77 214.13 137.22 151.91 137.24 151.91 100.69 214.13 137.24 214.13"/><polygon class="cls-23" points="137.22 151.91 137.22 162.93 133.52 167.67 138.09 173.1 128.1 186.49 141.81 189.03 155.01 197.34 128.78 203.42 115.75 214.13 173.77 214.13 137.22 151.91"/><polygon class="cls-24" points="133.52 167.67 148.3 171.07 137.22 162.93 133.52 167.67"/><polygon class="cls-25" points="128.1 186.49 128.78 203.42 141.81 189.03 128.1 186.49"/><polygon class="cls-26" points="141.81 189.03 148.3 171.07 138.09 173.1 141.81 189.03"/><polygon class="cls-26" points="155.01 197.34 146.04 214.13 128.78 203.38 155.01 197.34"/><polygon class="cls-24" points="155.01 197.34 164.2 197.9 159.58 214.01 155.01 197.34"/><polygon class="cls-25" points="128.1 186.49 112.53 194.06 123.48 175.35 128.1 186.49"/><polygon class="cls-25" points="115.89 214.13 107.68 202.29 128.78 203.38 115.89 214.13"/><polygon class="cls-27" points="128.78 203.38 112.53 194.06 107.68 202.29 128.78 203.38"/><polygon class="cls-27" points="133.52 167.67 128.1 186.49 123.48 175.35 133.52 167.67"/><polygon class="cls-26" points="141.81 189.03 157.77 187.19 155.01 197.34 141.81 189.03"/><polygon class="cls-24" points="128.78 203.38 132.16 214.13 115.89 214.13 128.78 203.38"/><g class="cls-28"><polyline class="cls-22" points="137.22 214.19 173.77 214.19 137.22 254.22 137.24 254.22 100.69 214.19 137.24 214.19"/><polygon class="cls-23" points="137.22 254.22 137.22 247.13 133.52 244.08 138.09 240.59 128.1 231.97 141.81 230.33 155.01 224.99 128.78 221.08 115.75 214.19 173.77 214.19 137.22 254.22"/><polygon class="cls-24" points="133.52 244.08 148.3 241.89 137.22 247.13 133.52 244.08"/><polygon class="cls-25" points="128.1 231.97 128.78 221.08 141.81 230.33 128.1 231.97"/><polygon class="cls-26" points="141.81 230.33 148.3 241.89 138.09 240.59 141.81 230.33"/><polygon class="cls-26" points="155.01 224.99 146.04 214.19 128.78 221.11 155.01 224.99"/><polygon class="cls-24" points="155.01 224.99 164.2 224.63 159.58 214.26 155.01 224.99"/><polygon class="cls-25" points="128.1 231.97 112.53 227.1 123.48 239.14 128.1 231.97"/><polygon class="cls-25" points="115.89 214.19 107.68 221.81 128.78 221.11 115.89 214.19"/><polygon class="cls-27" points="128.78 221.11 112.53 227.1 107.68 221.81 128.78 221.11"/><polygon class="cls-27" points="133.52 244.08 128.1 231.97 123.48 239.14 133.52 244.08"/><polygon class="cls-26" points="141.81 230.33 157.77 231.52 155.01 224.99 141.81 230.33"/><polygon class="cls-24" points="128.78 221.11 132.16 214.19 115.89 214.19 128.78 221.11"/></g><path class="cls-29" d="M103.17,299.13l-19.92-.06c56.85-3.08,132.27-32,196.79-32.38,0,0,34.45,0,78.9,8.16v24.28Z"/><polygon class="cls-30" points="287.01 276.84 300.04 270.44 291.31 268.31 306.37 266.12 304.05 271.63 302.32 271.29 289.06 276.84 287.01 276.84"/><polygon class="cls-31" points="288.42 245.06 287.79 245.06 287.79 276.84 289.85 276.84 289.85 259.96 302.19 259.96 288.42 245.06"/><rect class="cls-32" x="287.01" y="248.87" width="2.05" height="27.97"/><rect class="cls-33" x="288.19" y="248.87" width="0.87" height="27.97"/><polygon class="cls-34" points="297.55 254.94 287.01 254.94 287.01 259.96 302.19 259.96 297.55 254.94"/><polygon class="cls-34" points="288.42 245.06 287.01 245.06 287.01 250.09 293.06 250.09 288.42 245.06"/><polygon class="cls-34" points="291.94 248.87 287.01 248.87 287.01 256.16 298.68 256.16 291.94 248.87"/></g></g></svg>