<svg xmlns="http://www.w3.org/2000/svg" xmlns:xlink="http://www.w3.org/1999/xlink" viewBox="0 0 359.4 302.2"><defs><style>.cls-1{fill:url(#radial-gradient);}.cls-2{fill:url(#radial-gradient-2);}.cls-17,.cls-3{opacity:0.4;}.cls-3{fill:url(#radial-gradient-3);}.cls-20,.cls-4{opacity:0.6;}.cls-4{fill:url(#linear-gradient);}.cls-5{fill:url(#linear-gradient-2);}.cls-6{fill:#483640;}.cls-6,.cls-8{opacity:0.2;}.cls-7{fill:url(#linear-gradient-3);}.cls-9{fill:#383838;}.cls-10{fill:#4f4b4a;}.cls-11{fill:#fff;}.cls-12{fill:url(#linear-gradient-4);}.cls-13{fill:url(#linear-gradient-5);}.cls-14,.cls-15,.cls-16{opacity:0.12;}.cls-14{fill:url(#linear-gradient-6);}.cls-15{fill:url(#linear-gradient-7);}.cls-16{fill:url(#linear-gradient-8);}.cls-18{fill:#104230;}.cls-19{fill:url(#linear-gradient-9);}.cls-20{fill:url(#linear-gradient-10);}.cls-21{fill:url(#linear-gradient-11);}.cls-22,.cls-23,.cls-24,.cls-27{opacity:0.5;}.cls-22{fill:url(#linear-gradient-12);}.cls-23{fill:url(#linear-gradient-13);}.cls-24{fill:url(#linear-gradient-14);}.cls-25{fill:url(#linear-gradient-15);}.cls-26{fill:url(#linear-gradient-16);}.cls-28{opacity:0.7;}.cls-29,.cls-30,.cls-31,.cls-32,.cls-33,.cls-34,.cls-35,.cls-36,.cls-37,.cls-38{opacity:0.3;}.cls-29{fill:url(#linear-gradient-17);}.cls-30{fill:url(#linear-gradient-18);}.cls-31{fill:url(#linear-gradient-19);}.cls-32{fill:url(#linear-gradient-20);}.cls-33{fill:url(#linear-gradient-21);}.cls-34{fill:url(#linear-gradient-22);}.cls-35{fill:url(#linear-gradient-23);}.cls-36{fill:url(#linear-gradient-24);}.cls-37{fill:url(#linear-gradient-25);}.cls-38{fill:url(#linear-gradient-26);}</style><radialGradient id="radial-gradient" cx="97.83" cy="85.95" r="85.95" gradientTransform="translate(9.59 179.66) rotate(-87.25) scale(1 0.97)" gradientUnits="userSpaceOnUse"><stop offset="0" stop-color="#fbeed0"/><stop offset="0.85" stop-color="#fbf6c2" stop-opacity="0"/></radialGradient><radialGradient id="radial-gradient-2" cx="97.83" cy="85.95" r="62.27" gradientTransform="translate(9.59 179.66) rotate(-87.25) scale(1 0.97)" gradientUnits="userSpaceOnUse"><stop offset="0" stop-color="#fbeed0"/><stop offset="0.89" stop-color="#fbf6c2" stop-opacity="0"/></radialGradient><radialGradient id="radial-gradient-3" cx="97.83" cy="85.95" r="37.08" gradientTransform="translate(9.59 179.66) rotate(-87.25) scale(1 0.97)" gradientUnits="userSpaceOnUse"><stop offset="0" stop-color="#fbf6c7"/><stop offset="0.89" stop-color="#fbf6c2" stop-opacity="0.54"/></radialGradient><linearGradient id="linear-gradient" x1="179.56" y1="95.23" x2="179.56" y2="365.05" gradientUnits="userSpaceOnUse"><stop offset="0.17" stop-color="#b0d8d9"/><stop offset="1" stop-color="#4d5d97"/></linearGradient><linearGradient id="linear-gradient-2" x1="-24.06" y1="96.55" x2="-24.06" y2="54.09" gradientTransform="translate(320.21 0.45) rotate(0.19)" gradientUnits="userSpaceOnUse"><stop offset="0" stop-color="#438084"/><stop offset="1" stop-color="#39aba0"/></linearGradient><linearGradient id="linear-gradient-3" x1="179.63" y1="175.43" x2="179.63" y2="471.53" gradientUnits="userSpaceOnUse"><stop offset="0.3" stop-color="#ede5c9"/><stop offset="0.88" stop-color="#ddc4a1"/></linearGradient><linearGradient id="linear-gradient-4" x1="55.85" y1="212.69" x2="75.67" y2="212.69" gradientUnits="userSpaceOnUse"><stop offset="0.76" stop-color="#cb3029"/><stop offset="1" stop-color="#e0001e"/></linearGradient><linearGradient id="linear-gradient-5" x1="35.5" y1="212.56" x2="55.69" y2="212.56" xlink:href="#linear-gradient-4"/><linearGradient id="linear-gradient-6" x1="179.7" y1="210.91" x2="179.7" y2="201.31" gradientUnits="userSpaceOnUse"><stop offset="0" stop-color="#fff"/><stop offset="1" stop-color="#fff" stop-opacity="0"/></linearGradient><linearGradient id="linear-gradient-7" x1="180.62" y1="178.13" x2="180.62" y2="168.53" gradientTransform="matrix(-1, 0, 0, 1, 360.32, 0)" xlink:href="#linear-gradient-6"/><linearGradient id="linear-gradient-8" x1="180.62" y1="127.03" x2="180.62" y2="121.35" gradientTransform="matrix(-1, 0, 0, 1, 360.32, 0)" xlink:href="#linear-gradient-6"/><linearGradient id="linear-gradient-9" x1="227.57" y1="128.76" x2="228.17" y2="120" gradientUnits="userSpaceOnUse"><stop offset="0" stop-color="#fff"/><stop offset="1" stop-color="#d1d1d1"/></linearGradient><linearGradient id="linear-gradient-10" x1="229.73" y1="174.06" x2="229.73" y2="113.45" xlink:href="#linear-gradient"/><linearGradient id="linear-gradient-11" x1="227.1" y1="140.69" x2="227.96" y2="124.55" xlink:href="#linear-gradient-9"/><linearGradient id="linear-gradient-12" x1="227.33" y1="127.54" x2="224.81" y2="139.22" gradientUnits="userSpaceOnUse"><stop offset="0" stop-color="#cfcfcf"/><stop offset="1" stop-color="#fff"/></linearGradient><linearGradient id="linear-gradient-13" x1="232.92" y1="131.15" x2="211.28" y2="131.7" xlink:href="#linear-gradient-9"/><linearGradient id="linear-gradient-14" x1="257.97" y1="130.48" x2="240.98" y2="133.69" xlink:href="#linear-gradient-9"/><linearGradient id="linear-gradient-15" x1="254.75" y1="128.37" x2="197.19" y2="128.8" gradientUnits="userSpaceOnUse"><stop offset="0" stop-color="#366eb0"/><stop offset="0.76" stop-color="#2647a3"/><stop offset="0.86" stop-color="#2647a3"/></linearGradient><linearGradient id="linear-gradient-16" x1="254.75" y1="129.91" x2="197.19" y2="130.34" xlink:href="#linear-gradient-15"/><linearGradient id="linear-gradient-17" x1="96.59" y1="-246.66" x2="122.37" y2="-246.66" gradientTransform="translate(381.73 14.32) rotate(-177.59)" gradientUnits="userSpaceOnUse"><stop offset="0.44" stop-color="#fff" stop-opacity="0"/><stop offset="1"/></linearGradient><linearGradient id="linear-gradient-18" x1="83.71" y1="-241.98" x2="109.48" y2="-241.98" xlink:href="#linear-gradient-17"/><linearGradient id="linear-gradient-19" x1="80.97" y1="-233.11" x2="106.75" y2="-233.11" gradientTransform="translate(382.41 18.2) rotate(175.84)" xlink:href="#linear-gradient-17"/><linearGradient id="linear-gradient-20" x1="68.09" y1="-228.43" x2="93.86" y2="-228.43" gradientTransform="translate(382.41 18.2) rotate(175.84)" xlink:href="#linear-gradient-17"/><linearGradient id="linear-gradient-21" x1="67.1" y1="-244.04" x2="92.87" y2="-244.04" gradientTransform="translate(382.41 18.2) rotate(175.84)" xlink:href="#linear-gradient-17"/><linearGradient id="linear-gradient-22" x1="54.21" y1="-239.35" x2="79.99" y2="-239.35" gradientTransform="translate(382.41 18.2) rotate(175.84)" xlink:href="#linear-gradient-17"/><linearGradient id="linear-gradient-23" x1="43.85" y1="-247.12" x2="69.63" y2="-247.12" gradientTransform="translate(382.41 18.2) rotate(175.84)" xlink:href="#linear-gradient-17"/><linearGradient id="linear-gradient-24" x1="30.96" y1="-242.43" x2="56.74" y2="-242.43" gradientTransform="translate(382.41 18.2) rotate(175.84)" xlink:href="#linear-gradient-17"/><linearGradient id="linear-gradient-25" x1="104.45" y1="-229.37" x2="130.23" y2="-229.37" gradientTransform="translate(383.43 16.54) rotate(175.16)" xlink:href="#linear-gradient-17"/><linearGradient id="linear-gradient-26" x1="91.56" y1="-224.69" x2="117.34" y2="-224.69" gradientTransform="translate(383.43 16.54) rotate(175.16)" xlink:href="#linear-gradient-17"/></defs><g id="레이어_2" data-name="레이어 2"><g id="레이어_1-2" data-name="레이어 1"><path class="cls-1" d="M183.78,86A86,86,0,1,1,97.83,0,85.95,85.95,0,0,1,183.78,86Z"/><path class="cls-2" d="M160.1,86A62.27,62.27,0,1,1,97.83,23.68,62.26,62.26,0,0,1,160.1,86Z"/><path class="cls-3" d="M134.91,86A37.08,37.08,0,1,1,97.83,48.87,37.08,37.08,0,0,1,134.91,86Z"/><polygon class="cls-4" points="172.41 84.22 81.23 84.22 21.94 84.22 0.09 84.22 0.09 89.72 0.09 111.2 0.09 180.27 0.09 228.63 0.09 235.78 0.09 273.5 0.09 302.2 134.64 302.2 244.89 302.2 359.04 302.2 359.04 284.5 359.04 170.26 359.04 153.12 359.04 149.17 359.04 98.56 359.04 84.22 172.41 84.22"/><path class="cls-5" d="M359.08,66.66c-2.17-.48-10.09-2.28-17-4.32-8.11-2.39-3.19-1-13.25-1.62S324.4,62,315.68,64.3s-7.65,2.69-17.43,5-8.48,1-14.78.24-10,0-16.35,1.72-6.91,1.33-12.39,2-6.48,1.67-8.5,2c-1.45.24-5.25,1.68-8,2.48-2.24,1.94-4.39,4-5.52,6.45h2l124.37.34Z"/><path class="cls-6" d="M359.08,84.56l-124.37-.34h-2a.75.75,0,0,0-.06.13,91.05,91.05,0,0,0,12,4.86c.66.12,1.21.21,1.6.25,2,.2,3,.79,8.49,1.2A103.68,103.68,0,0,1,267,91.87c6.29,1,10,1.49,16.33,1.07s5-1.2,14.79.2,8.68,1.59,17.39,3,3,2.44,13.1,2.14,5.13.47,13.26-.89c7.06-1.17,15.17-2.2,17.17-2.45Z"/><path class="cls-7" d="M359.25,302V225.39c-62.44-4.28-110.83-4.28-110.83-4.28-90.61.2-168.58,20.76-248.42,22.38V302Z"/><path class="cls-8" d="M68.81,255.26c0,.93-5.81,1.68-13,1.68s-13-.75-13-1.68,5.81-1.67,13-1.67S68.81,254.34,68.81,255.26Z"/><polygon class="cls-9" points="54.88 256.36 55.47 256.37 55.88 218.27 55.29 218.26 54.88 256.36"/><rect class="cls-10" x="36.74" y="237.03" width="38.11" height="0.59" transform="translate(-181.9 291.49) rotate(-89.61)"/><path class="cls-11" d="M35.65,219.08v0c.1-8.87,11.54-13.2,20.41-13.1s19.7,4.57,19.6,13.44a0,0,0,0,1,0,0Z"/><path class="cls-12" d="M56,206h0c8.87.09,19.7,4.58,19.61,13.45h0l-19.81-.17Z"/><path class="cls-11" d="M57.34,207c-.34-.35-.69-.68-1.05-1,8.77.22,19.47,4.65,19.37,13.44a0,0,0,0,1,0,0L66,219.34C65.31,213.67,61.37,211.08,57.34,207Z"/><path class="cls-13" d="M54.62,206.94c.35-.34.7-.67,1.07-1-8.77,0-20.09,4.31-20.19,13.1v0l9.68.08C46,213.49,50.5,211,54.62,206.94Z"/><path class="cls-14" d="M0,218.8S20.54,206.9,73.36,211c66.21,5.16,134.86-6.1,171.38-1s76.74,13.8,114.66,9.53V179.26H0Z"/><path class="cls-15" d="M359.4,186s-20.54-11.9-73.36-7.78c-66.21,5.16-134.85-6.1-171.38-1S37.93,191,0,186.76V146.48H359.4Z"/><path class="cls-16" d="M359.4,131.7s-20.54-7-73.36-4.6c-66.21,3.05-134.85-3.62-171.38-.6S37.93,134.67,0,132.14V108.3H359.4Z"/><g class="cls-17"><path class="cls-18" d="M298.92,165c-.71-.62-1.88-1.2-3.53-2.71h0c-.24-.11-.34-.13-.32-.08s.22.26.71.63l0-.06C296.42,163.31,297.58,164.12,298.92,165Z"/><path class="cls-18" d="M332.13,168.75a.41.41,0,0,0,.05.09A.41.41,0,0,1,332.13,168.75Z"/><path class="cls-18" d="M277.84,184.13h.1l-.1,0,.88.1-.75.24h.11l-.09,0c7.74,1,12.82-1,14.57-1.93a11.88,11.88,0,0,0-1.12,1.49c-4.81,1.69-12.23,10.33-12.23,10.33h0a.27.27,0,0,1,.08-.07l-.07.08.73-.33c-.39.42-.6.68-.6.68h0l.08-.07-.06.08c9.34-4.12,12.48-10.41,12.48-10.41h0c.1-.16.26-.4.49-.7a26.3,26.3,0,0,0-2.6,13,.39.39,0,0,0,0-.09s0,.07,0,.1h0s.05-.12.11-.26c0,.2,0,.4,0,.61,0,0,.07-.4.09-.46s0,.07,0,.1h0s4.46-9.8,3.72-14.58v0h0a36.83,36.83,0,0,1,2.94-2.8c-1.13,1.79-3.37,6.32-3.1,13.68a.46.46,0,0,1,0-.08l0,.09h0l.11-.26c0,.2,0,.4,0,.6a.41.41,0,0,0,0-.09.3.3,0,0,1,0,.1h0s4.46-9.8,3.72-14.58h0v0l-.08.1s0-.1,0-.15c.41-.35.86-.72,1.33-1.1-.67,2-1.69,6.65.37,13.94a.62.62,0,0,1,0-.09v.1h0a.42.42,0,0,1,0-.07c0,.14.07.28.11.42a.35.35,0,0,1,0-.1v.1h0s1.95-10.06.13-14.84c.53-.42,1.11-.86,1.73-1.32a37.88,37.88,0,0,0,1.8,14.15.67.67,0,0,1,0-.1s0,.07,0,.11h0a.12.12,0,0,0,0,0c0,.14.08.27.12.4v-.1a.34.34,0,0,1,0,.1v0s.65-9.33-1.34-14.13c-.09-.23-.18-.45-.28-.66.51-.38,1-.77,1.61-1.16a35.67,35.67,0,0,0,1.74,12.38c-.4.18-.62.3-.62.3h.06l-.05,0h.61l-.32.15h.1l-.09,0h.46c.17.52.34,1.06.54,1.61v0h0l.12.35a.62.62,0,0,1,0-.09s0,.06,0,.09h0s0-.77,0-2c.44,0,.87,0,1.3-.06q.12.49.27,1a.87.87,0,0,1,0-.11.41.41,0,0,0,0,.11h0v-.06l.12.41v-.1s0,.07,0,.1h0s.05-.53.1-1.4a25.91,25.91,0,0,0,3.2-.5l.06.12a59.24,59.24,0,0,0-6.42,3.72h0l.08,0-.07.05.84-.2-.56.37h0l.08,0-.07,0a35.53,35.53,0,0,0,12.53-5.45c-.12.42-.23.83-.33,1.22h0v0s0,.06,0,.1c-4.52.8-12,7.69-12,7.69h0l.08,0-.07.06.71-.22-.43.38h0l.08,0-.07.06c6.67-1.93,10.14-5.32,11.45-6.88-.11.44-.21.87-.3,1.27-4,1.78-9.58,10-9.58,10h0l.06-.07-.05.08.69-.41-.41.58h0l.06-.06-.05.07a23.38,23.38,0,0,0,8.94-8.52,29.37,29.37,0,0,0-.44,3.24l-.22.11c.11-.25.16-.38.16-.38h0v0c-4,1.71-9.65,10-9.65,10h0l.06-.06-.05.07c.23-.13.46-.26.68-.4l-.4.58h0l.06-.06,0,.07c6.11-3.49,8.61-7.76,9.37-9.36a11.06,11.06,0,0,0,0,1.68c-2.51,3.84-3.1,14.09-3.1,14.09h0l0-.08a.62.62,0,0,0,0,.09l.34-.64c0,.52-.06.82-.06.82h0l0-.09v.09c4.44-8.06,3.23-14.28,3.23-14.28h0c0-.17,0-.43,0-.77a23.6,23.6,0,0,0,5.26,10.74s0,0,0-.08a.59.59,0,0,1,0,.08h0l-.06-.26c.11.15.22.29.34.43s-.17-.32-.18-.37l0,.08h0s-2.17-9.45-5.31-12.47h0a36.24,36.24,0,0,1,.57-3.62c.18,1.91,1.05,6.38,5.27,11.5a.62.62,0,0,0,0-.09l0,.08h0l-.06-.25.33.43a.62.62,0,0,0,0-.09l0,.08h0s-2.18-9.46-5.32-12.48v0l0,0V189l-.09-.1c.11-.48.23-1,.36-1.52.59,1.77,2.43,5.69,7.9,9.79l-.05-.08.06.07h0l0-.05.3.24a.46.46,0,0,0,0-.08l.06.07h0s-4.11-8.27-8-10.68c.16-.6.33-1.23.52-1.9a34.16,34.16,0,0,0,9,9.14l-.05-.07.06.06h0l0,0,.31.22,0-.07.06.06h0s-4.64-7-8.69-9.38l-.56-.32q.22-.83.51-1.71a33.93,33.93,0,0,0,9.67,9l0,0a.05.05,0,0,0,0,0h0l.28.19,0-.07.07.06h0s-4.73-6.48-8.81-8.8a9.33,9.33,0,0,0-1.12-.59c.26-.83.54-1.71.86-2.63l.08.12a41.19,41.19,0,0,0,9.53,10.3l-.06-.09.08.08h0l0,0,.31.22-.05-.07.06.07h0s-5.08-8-9.18-10.27a5.33,5.33,0,0,0-.56-.32c-.05-.09-.1-.16-.12-.21l.35-1a34,34,0,0,0,9.22,7.74c.67.4,1.38.8,2.13,1.19l-.06-.06.08,0h0s-1.45-1.65-3.44-3.55a24.13,24.13,0,0,0,3.26,1.56l-.07-.06.08,0h0s-.66-.84-1.7-2a2.86,2.86,0,0,0-1.19-1.28l-.07-.06-.34-.34.26.14a20,20,0,0,0,2.27,1.13l-.06-.05.07,0h0l-.42-.56.67.5,0-.06.05,0h0s-.31-.71-.84-1.77a.43.43,0,0,0,0,.11c-.14-.3-.31-.62-.49-1v0c.17.33.33.62.47.9-.08-.27-.15-.54-.23-.8.54.26,1.12.51,1.74.74a.28.28,0,0,1-.06-.06l.07,0h0s-.73-.9-1.84-2.09c0,0,0,0,0,0a23.16,23.16,0,0,0,2.39,1.77l0,0h0l0,0h0l0,0c0,.13,0,.27.07.41s0,.32,0,.49l0-.09,0,.1h0c.29.54.35.44.23-.09.05.07.08.08.1.05s0-.27-.1-.72h0l0,0c0-.16-.09-.33-.14-.53v.08s0-.08,0-.13v-.08c0,.05,0,.09,0,.13,0-.15,0-.3,0-.44,8,13.16,18.5,34.26,27.57,64.74V227a317.24,317.24,0,0,0-19.23-40.54c.16-.89.28-1.75.38-2.58a38.08,38.08,0,0,0-.56-13.29l1.12.39.09.25c0,.22-.07.46-.09.7-.73,5.14,2.77,15,2.77,15h0a.31.31,0,0,0,0-.1l0,.09c0-.14,0-.28,0-.42l0,0h0a.36.36,0,0,1,0-.1.55.55,0,0,1,0,.1,46,46,0,0,0-2.57-15.3s0-.1-.05-.15c1,.36,2,.7,2.86,1a9.57,9.57,0,0,0-.24,1.39c-.72,5.12,1.74,13.65,1.74,13.65h0a.34.34,0,0,1,0-.1.66.66,0,0,0,0,.09l0-.37h0v0l0,0a37.82,37.82,0,0,0-1.38-14.56l1.82.71c0,.23-.07.47-.09.71-.68,5.11,2.32,13.94,2.32,13.94h0a.31.31,0,0,1,0-.1l0,.1c0-.14,0-.28,0-.42v.05h0s0-.07,0-.11h0l0,.1a38,38,0,0,0-1.89-14.08l2,.84c-.52,5.06,3.89,14.27,3.89,14.27h0s0-.07,0-.1l0,.09v-.42l0,.05h0a.44.44,0,0,1,0-.1l0,.08c.1-7.53-2.08-11.81-3.21-13.52l1.55.73s0,.09,0,.14l-.09-.07v0h0c.52,4.79,7.26,13.12,7.26,13.12h0l-.05-.09.06.08c0-.2-.09-.39-.14-.58l.17.22h0a.41.41,0,0,0-.05-.09l.06.08c-1.61-7.16-4.89-11-6.42-12.42a39.72,39.72,0,0,1,3.5,2h0c.28,2.58,2.36,6.18,4.22,9V182a23,23,0,0,0-2.55-3.55c.29.23.51.42.65.55h0a14.62,14.62,0,0,0,1.93,1.72V179a10.57,10.57,0,0,0-1.6-.3,14.64,14.64,0,0,0-1.44-1.16,18,18,0,0,0,3,.38v-2.13a12.25,12.25,0,0,0-3.73,1.15h0a3.69,3.69,0,0,0,.43.13l-.24.11a35.08,35.08,0,0,0-3.09-1.82,22.59,22.59,0,0,0,6.63-.07v-2.35c-3,.14-6.33.55-8.26,1.59l-1.3-.61a22.79,22.79,0,0,0,9.56-2.75v-2.07c-3.51.85-8.37,2.31-10.6,4.35l-.1,0,0,0v0l-1.27-.55a37.86,37.86,0,0,0,12-6.33v-.87a62.24,62.24,0,0,0-7,2.94,28.34,28.34,0,0,0,5.14-5.37l-.09.06.07-.07h0l-.35.17.4-.53-.06,0,.05,0h0s-2.08,1-4.53,2.52a31.72,31.72,0,0,0,2.56-3.36.21.21,0,0,0-.07.05l.06-.07h0l-.31.17c.13-.17.25-.34.37-.52l-.06,0,0,0h0a55,55,0,0,0-5,3.2,30.74,30.74,0,0,0,2.92-3.75l-.08.05a.46.46,0,0,0,.07-.07h0l-.31.18.36-.53-.05,0,0,0h0s-1.93,1.05-4.22,2.63a23.59,23.59,0,0,0,1.51-2.8l-.07.07.06-.08h0l-.16.09c.08-.15.15-.3.22-.45l-.05,0,0,0h0s-.47.27-1.21.74l.07,0c-.37.24-.81.53-1.3.87v0c.46-.32.88-.6,1.24-.83-.33.07-.68.09-1,.13.08-.2.17-.4.25-.61l-.06.07a.56.56,0,0,1,.05-.08h0s-.42.23-1.09.64l-.18-.19c.19-.44.38-.9.58-1.39-.23.29-.53.66-.88,1.07v0c.37-.44.68-.82.92-1.13l0,.08c.12-.16.23-.3.31-.42,1.64.7,2.84,1.12,2.84,1.12h0l-.07,0,.08,0-.27-.23.05,0h0l-.08,0,.08,0a37.26,37.26,0,0,0-11-6.3l-.35-.13c.83-.45,1.61-.87,2.35-1.25a8.65,8.65,0,0,0,.76.9c2.83,3.11,9.65,6,9.65,6s0,0,0,0l-.07,0,.08,0-.23-.21h0l0,0,0,0a30.2,30.2,0,0,0-10-6.74l1.53-.77q.18.21.39.42c2.84,3.1,10.19,5.83,10.19,5.83h0l-.07,0,.08,0-.26-.22h0l-.08-.05.08,0a31,31,0,0,0-10-6.17c.6-.29,1.16-.56,1.71-.81,2.89,3,11.32,5,11.32,5h0l-.07,0,.08,0L357,155l0,0h0l-.07,0,.07,0c-4.7-4-8.7-4.87-10.45-5q.72-.33,1.38-.6l.1.06-.1,0s0,0,0,0h0c2.6,1.7,8.78,2.14,11.39,2.26v-.67a20.73,20.73,0,0,0-10.68-2c1.35-.54,2.44-.92,3.31-1.18,1.63,1.07,4.68,1.64,7.37,2v-1.76a21,21,0,0,0-5.65-.62c.32-.07.57-.11.73-.13h0a17.72,17.72,0,0,0,4.93-1.07v-2.11a18.24,18.24,0,0,0-5,2.79,10.24,10.24,0,0,0-1.58.29,21,21,0,0,0,6.56-8.15v-1.5c-1.66,1.63-6.53,6.61-7.35,9.77h0s0,0,0,0,.13-.07.34-.21a1.72,1.72,0,0,0-.07.21c-.77.21-1.76.53-3,1a22.19,22.19,0,0,0,6.64-9.41l-.07.06.05-.06h0l-.47.46.27-.67-.06,0,.05-.06h0s-6.84,6.41-7.88,10.24l-1.16.5a20.9,20.9,0,0,0,4.69-11.29l-.05.07,0-.08h0s-.11.15-.29.44l.09-.66-.05.07,0-.08h0s-5.31,7.84-5.36,11.94l-.09,0h0l-1.1.52a31,31,0,0,0,3.17-12l0,.08s0-.06,0-.08h0s-.1.2-.26.56c0-.26,0-.51.06-.78a.24.24,0,0,0,0,.08s0-.06,0-.08h0a53.67,53.67,0,0,0-2.65,6.8,21,21,0,0,0-.36-6,.33.33,0,0,0,0,.08V139h0s0,.11-.1.3q0-.22-.09-.48l.78-.31h0l-.08,0,.08,0-.37,0,.05,0h0l-.08,0,.07,0c-6.48-.43-10.4,1.33-12,2.28l.79-1.37h.13l-.07.08h0c4.18-.25,12.06-5.94,12.06-5.94h0l-.07,0,.07,0-.52.1.21-.14h0l-.08,0,.07-.05a22.22,22.22,0,0,0-11.37,5.24c.8-1.31,1.49-2.31,2.06-3.08h0c4.18-.25,12.06-5.94,12.06-5.94h0l-.08,0s.38-.16.38-.16l-.53.1.22-.15h0l-.08,0,.07-.05a24.44,24.44,0,0,0-10.86,4.68c.23-.25.42-.44.55-.56v0s5-3.89,7.49-12.77l-.06.07s0,0,0-.08h0s-.2.24-.52.65c.07-.23.14-.46.2-.69l0,.07a.3.3,0,0,1,0-.08h0s-6.54,8.06-7.44,12.55a11.78,11.78,0,0,0-1.15,1.24,22.84,22.84,0,0,0,0-13,.51.51,0,0,1,0,.09v-.09h0l-.11.68c-.06-.24-.13-.49-.2-.73a.6.6,0,0,1,0,.08v-.09h0s-1.79,9.81-.22,13.66a0,0,0,0,0,0,0s0,0,0,0,.06-.14.15-.39l.07.22c-.51.66-1.15,1.54-1.89,2.71a23.54,23.54,0,0,0-.3-12.1.73.73,0,0,0,0,.08s0-.05,0-.08h0l-.11.69c-.06-.25-.12-.49-.2-.74a.62.62,0,0,1,0,.09v-.09h0s-1.77,9.71-.24,13.6c-.22.36-.44.74-.67,1.14a21.92,21.92,0,0,0-3.12-12.47.45.45,0,0,0,0,.08.19.19,0,0,1,0-.08h0s0,.21,0,.56c-.1-.2-.21-.4-.33-.61v.08a.31.31,0,0,0,0-.08h0s.42,10,2.95,13.45l-.05.09,0,0h0c-.2.36-.4.73-.6,1.12a32.83,32.83,0,0,0-4.82-12.09.6.6,0,0,0,0,.08l0-.08h0s0,.23.13.64c-.14-.23-.29-.46-.44-.69a.33.33,0,0,1,0,.08l0-.08h0a56.51,56.51,0,0,0,2,7.41,22.59,22.59,0,0,0-4.09-4.87l0,.08-.06-.07h0l.11.32-.41-.39a.18.18,0,0,0,0,.05l0,0h0s.65,1.91,1.7,4.19a23.38,23.38,0,0,0-2.63-2.46l0,.07-.05-.06h0a2.65,2.65,0,0,0,.11.28l-.42-.35a.1.1,0,0,0,0,0s0,0,0,0h0a44.17,44.17,0,0,0,2.23,4.68,23.21,23.21,0,0,0-2.93-2.79l0,.07-.05-.06h0l.12.29-.42-.35a.1.1,0,0,0,0,0l0,0h0s.71,1.78,1.83,3.92a19.09,19.09,0,0,0-2.25-1.49l.05.07-.07-.05h0l.07.15-.37-.22,0,0,0,0h0s.18.44.51,1.12v-.06c.18.38.41.85.68,1.36l0,0c-.25-.48-.47-.92-.65-1.28a7.06,7.06,0,0,1,0,.92l-.5-.26.05.07a.15.15,0,0,0-.06-.05h0s.21.53.59,1.34l-1.47-.75c.53.51,1.35,1.37,2.28,2.35,0,0,0,0,0,0l-.07-.06.1.1c.2.38.43.78.67,1.18a5.27,5.27,0,0,0,.59,1.5,16.7,16.7,0,0,0-3.76-2.4l.05.06-.06,0h0l.06.12-.37-.18,0,0,0,0h0a30.87,30.87,0,0,0,3.59,5,20.21,20.21,0,0,0-2.41-1.67,8.76,8.76,0,0,0-1.69-2.1.18.18,0,0,0,0,0l0,0h0s.18.56.5,1.44c-.4-.2-.83-.4-1.28-.59l.06.05-.07,0h0l.08.1-.38-.17a.06.06,0,0,0,0,0l0,0h0a36.5,36.5,0,0,0,2.59,3l.09.22a23.57,23.57,0,0,0-2.49-2.33l0,.07-.05-.06h0l.11.28-.42-.35a.28.28,0,0,0,0,.06.1.1,0,0,1,0,0h0s.16.43.45,1.14c0,.11.12.54.27,1.17v-.07c.08.34.19.74.31,1.19l0,0c-.11-.41-.2-.78-.28-1.09,0,.23-.07.46-.12.7-.41-.37-.84-.75-1.3-1.12l0,.07-.06-.06h0s.39,1.05,1.06,2.49a1.69,1.69,0,0,0,0,.64,14.62,14.62,0,0,0-1.6-1l.05.06-.07,0h0a1,1,0,0,0,.05.15l-.36-.21,0,0,0,0h0a35.71,35.71,0,0,0,2.23,4.81,45.81,45.81,0,0,0-5.27-3.08h0l0,0,0,0a23.94,23.94,0,0,0,2.71,3.39l.42.56a44.93,44.93,0,0,0-4.94-2.51h0l0,0,0,0a23.1,23.1,0,0,0,3.75,4.11,49.72,49.72,0,0,0-7-3.69h0l0,0,0,0a26.43,26.43,0,0,0,5,5.16,41.14,41.14,0,0,0-7.23-2.35h0l0,0h0l.32.37-.17,0h0l.08.07-.08,0a20.6,20.6,0,0,0,1.53,1.66,2.26,2.26,0,0,0-.73,0c-1.78-.54-3-.83-3-.83h0l.08.05-.09,0c.53.46,1.05.89,1.57,1.29a5.62,5.62,0,0,1-.76.25c.37,0,.81.09,1.29.16l0,0-1.41-.17.07,0-1.37-.12c-.86-.23-1.39-.35-1.39-.35h0l.06,0h-.07l.49.41-.34-.08h0l.09,0-.09,0a29.13,29.13,0,0,0,3.21,2.47l-.27-.08a47.32,47.32,0,0,0-4-2.47h0l0,0,0,0,.28.41-.13-.07h0l.06.07-.07-.05c.31.48.64.93,1,1.36-1.06-.23-1.74-.35-1.74-.35h0l.05,0h-.05a11.19,11.19,0,0,0,2.75,1.6,26.3,26.3,0,0,0,2.47,2.48,38.94,38.94,0,0,0-6.53-3.31h0l0,0,0,0,.29.4-.14-.06h0l.07.06-.08-.05a20.63,20.63,0,0,0,3.61,3.9,6.89,6.89,0,0,0-1.83-.44c-.51-.21-1-.41-1.49-.58l-.13-.1a.27.27,0,0,0,.08.07h0c-1.32-.9-2.48-1.7-3.19-2.23l1.2,1.56c-1-.31-1.64-.47-1.64-.47h0l.07.07-.08-.05.41.53c-.34,0-.69.11-1,.12l1.59.54,0,0c-.64-.23-1.22-.43-1.69-.58h.07c-.85-.27-1.38-.41-1.38-.41h0l0,0h-.05l.33.38-.18,0h0l.08.06-.09-.05a25.08,25.08,0,0,0,2.21,2.34c-2.66-.95-4.82-1.48-4.82-1.48h0l.06,0-.06,0,.49.43-.35-.09h0l.08,0-.09,0a30.08,30.08,0,0,0,3.85,2.9,56.65,56.65,0,0,0-5.8-1.82h0l.05,0-.06,0c.17.15.33.29.5.42l-.35-.08h0l.08.06-.09,0a31,31,0,0,0,3.4,2.61c-2.82-.85-5.12-1.29-5.12-1.29h0l.06,0h-.06l.53.41-.39-.07h0l.09.05-.1,0a28.43,28.43,0,0,0,6.44,3.9,66.26,66.26,0,0,0-8.78-1.17h0l.09,0h-.09c.29.14.59.27.88.39l-.74,0h0l.1,0h-.1a39.58,39.58,0,0,0,14.72,3.65c-.38.29-.76.57-1.11.85v0l0,0-.09.07c-4.52-2.34-15.78-1.31-15.78-1.31h0l.76.29-.63.05h0c7.17,2.8,12.52,2.15,14.73,1.66-.4.31-.77.62-1.12.92-4.73-1.14-15.16,2.33-15.16,2.33h0l.09,0-.09,0,.88.11-.75.23H282l-.09,0a25.88,25.88,0,0,0,13.62-1.49c-1.13,1-2,1.88-2.58,2.56l-.26-.05c.26-.14.39-.23.39-.23h0a0,0,0,0,0,0,0c-4.68-1.19-15.24,2.31-15.24,2.31Zm58.19-49,.07-.17a14.88,14.88,0,0,1,1.26-1.42v0s.14-.11.38-.33a.58.58,0,0,1,0,.14,12.59,12.59,0,0,0-1.22,1.34C336.31,134.84,336.15,135,336,135.1Zm-2.38,3.72c.06-.18.14-.41.22-.7.68-1.08,1.27-1.94,1.78-2.61h0l.2,0C335.24,136.32,334.5,137.4,333.65,138.82Zm18.65,8.74.15-.09a13.25,13.25,0,0,1,1.77-.37v0l.48,0-.11.1a11,11,0,0,0-1.69.32Zm-.32.33h0Zm-3.6,1.16.57-.4c1.13-.45,2.06-.76,2.83-1h0l.16.1C351,148.05,349.83,148.45,348.38,149.05Zm-2.15.87.23-.23c.58-.26,1.12-.5,1.63-.7,0,0,0,.11,0,.17l-.29.06h0l.07.05-1.49.65Zm-1.94,1c0-.06.09-.15.15-.27l1.27-.6.13.13Zm11.38,26.44.19,0a13.31,13.31,0,0,1,1.63,1.27h0s.13.15.39.4l-.16,0a13.13,13.13,0,0,0-1.54-1.23Zm-.35-.3.33.21,0,0Zm-3.89-1.95.78.16c1.23.64,2.21,1.21,3,1.7h0l0,0,0,.24A39.47,39.47,0,0,0,351.43,175.08Zm-2.37-1.19h.38q1,.45,1.83.87l-.18.09-.28-.21v0a0,0,0,0,0,0,0s0,.07,0,.1c-.52-.25-1.09-.52-1.69-.78Zm-19.27-28.66h0l0-.12.09,0c-.27.56-.55,1.13-.83,1.73a17.13,17.13,0,0,0-1.32-3.3A7.24,7.24,0,0,0,329.79,145.23Zm.34,0,.07,0c-.4.81-.82,1.68-1.24,2.6-.12,0-.2.08-.26.09l.37-.78h0v0l.9-1.87.13.07v0l0,0a1.71,1.71,0,0,0-.06-.26l.55-1.09.16.1-.55,1.1-.11,0,0,0Zm10.5,25h0l0,.08-1.11-.38c.32-.15.8-.35,1.38-.64h0a5.79,5.79,0,0,0-.3.92h0Zm-1.53-.46-1.79-.58a17.22,17.22,0,0,0,4.67-4l-.27.45A10,10,0,0,0,339.1,169.74Zm2.95.81.13,0-.12.26-1-.35a11.53,11.53,0,0,0,1.32-.6,6.38,6.38,0,0,0-.33.71h0Zm2.09,1,.12,0-.05.11-1.95-.73a19.69,19.69,0,0,0,3.57-2,9.33,9.33,0,0,0-1.7,2.6h0A0,0,0,0,0,344.14,171.51Zm.52-9.32-.39-.54c.07-.16.15-.32.23-.48l.4.13,1.09.59-.2.28c.08-.09.15-.18.23-.26h0l-.28.32,0,0,.06-.09-.1.12c-.41.29-.84.61-1.27.94a7,7,0,0,0-1.57.83h0a20,20,0,0,0,1.08-1.74l.71.15h0l-.06,0h.06l-.53-.46h0l.55.24h0l0,0Zm-1.3-1.63-.13-.15-.17-.19.37.23,0,0Zm1.72-.71h0c.61.4,1.19.77,1.71,1.09l-.42.5C345.94,160.86,345.51,160.33,345.08,159.85Zm1.26,11a7.26,7.26,0,0,0-.79,1.26l-1-.38A17.41,17.41,0,0,0,346.34,170.82Zm-5.17-8.27-.31-.24,0,0a3.07,3.07,0,0,1,.36.2A.46.46,0,0,0,341.17,162.55Zm-1.2-10v0s0,0,0,0l0-.1.1.21-.82.45a11.93,11.93,0,0,0,.41-1.14A3.76,3.76,0,0,0,340,152.58Zm-.34-8.43c-.08-.31-.18-.62-.29-.94l.47-.08C339.75,143.45,339.69,143.8,339.63,144.15Zm-.18,9,.23.08-1.06.59-.07,0s0,0,0,0h0a.05.05,0,0,1,0,0l-.6.33a1.13,1.13,0,0,1,0-.24l1-.57.07.1v0s0,0,0,0,0-.07.1-.2Zm-1.38.63c.09-.28.24-.66.39-1.14l.05,0a5.39,5.39,0,0,0,.38.62v0l0,0a.1.1,0,0,1,0,0l0,.06Zm.56.17a8.13,8.13,0,0,0,1.29,1.68c-.51-.28-1-.5-1.37-.67h0l-.11,0c-.39-.16-.7-.27-.92-.35l.53-.3h0Zm-1.75-8.15a1.49,1.49,0,0,0,0-.21h0l0,.27v0l0-.09a.68.68,0,0,1,0,.14l0,.24c-.44,0-.87.1-1.28.15-.08-.21-.18-.42-.28-.63.51,0,1-.06,1.53-.11A1.12,1.12,0,0,0,336.88,145.85Zm-.28,9.92,1-.36a9,9,0,0,0,1,1.24c-.38-.21-.75-.38-1.08-.53h0l0,0C337.13,156,336.85,155.86,336.6,155.77Zm.7,8,.16-.13-.44.66-.23-.21A4.39,4.39,0,0,1,337.3,163.8Zm-.18-9.27.07.15-.2.12-.34,0,.53-.31.53-.09-.34.2-.24-.07v0Zm-.68.23h-.12s0-.11,0-.17l.5-.07Zm-.13-6.17q-.09-.39-.21-.78l.48-.08a3.62,3.62,0,0,0-.22.86Zm-.09,8.18h0l-.56,0c-.32-.15-.6-.27-.83-.35l.89-.3A7.53,7.53,0,0,0,336.22,156.77Zm-1-2c.17,0,.34,0,.5-.06l0,.07Zm1.46-3.18h0l.11,0,0,.16-.17,0Zm.21-8,.46-.06c0,.18-.08.39-.13.63h-.05C337.08,144,337,143.78,336.89,143.59Zm.84,10.43-.15.09c-.36-.13-.72-.24-1.07-.34,0,0,0-.07,0-.1l.57-.38-.55.22v0l.65-.27-.1.07.18-.08A5.27,5.27,0,0,0,337.73,154Zm2.47,9.39.09,0-.38.42C340,163.72,340.1,163.57,340.2,163.41ZM336.91,169l-1.32-.41c.19-.16.46-.38.79-.67l.07,0h0l0,0h0l0,0a.1.1,0,0,0,0-.05,18.46,18.46,0,0,0,1.65-1.66A7.55,7.55,0,0,0,336.91,169Zm-2.1-3.2.69-.53.8.27a11,11,0,0,0-.61,1.31A13.54,13.54,0,0,0,334.81,165.83Zm-.51-8.37.43-.12.16.22h0Zm-.22-.81.12-.07h.05a.41.41,0,0,1,.05.09Zm-.2-8.15c-.05-.13-.1-.26-.16-.39l.67-.06v.45Zm-.24-1.8a6,6,0,0,0-.07-.94h.91c0,.24,0,.5-.05.79Zm.06,11.62-.5.34c-.31-.08-.6-.14-.85-.18l.37-.59.39-.11A5.11,5.11,0,0,0,333.7,158.32ZM333,146.61c-.16-.3-.32-.61-.5-.92l.76.06C333.23,146,333.14,146.26,333,146.61Zm-.76,1.93c0-.11,0-.23,0-.34h.1l0,.34Zm-1.88-3.45c.27-.57.55-1.1.81-1.61l.6.11a16.88,16.88,0,0,0,4.73,0c0,.19.07.38.09.55A26.29,26.29,0,0,0,330.4,145.09Zm.42-1.14a2.55,2.55,0,0,1-.08-.25l.15-.3.19,0C331,143.61,330.9,143.78,330.82,144Zm-1.38-.73a5.87,5.87,0,0,0,1,.76c-.15.28-.29.57-.44.87A13.63,13.63,0,0,0,329.44,143.22ZM331,143l-.19.37h0c0,.06-.06.12-.1.18-.1-.36-.25-.87-.47-1.51A6.22,6.22,0,0,0,331,143Zm.33.06s-.05.11-.08.16l-.26.09.21-.39Zm.9-1.68c-.28.5-.56,1-.86,1.59a2.62,2.62,0,0,0,0-.31c.24-.46.47-.89.7-1.31A1.38,1.38,0,0,0,332.2,141.34Zm.27-.49-.09.05c0-.09,0-.21,0-.34.33-.58.65-1.12.95-1.62a1.27,1.27,0,0,0,.06.18l-.21.24h0v0h.09C333.05,139.82,332.76,140.32,332.47,140.85Zm8-.7c0,.1-.21.77-.41,1.75l-1.21,0a1.08,1.08,0,0,1-.08-.19v.08l0-.08h0a1,1,0,0,0,0,.15c-.05-.13-.1-.25-.16-.38a.1.1,0,0,1,0,0v0h0s0,.16-.1.44q-1.11.06-2.07.18s0,0,0,0,0,0,0,0a27.1,27.1,0,0,0-4.88,1c.32-.62.64-1.2.94-1.75C334.53,141.73,337.79,141,340.46,140.15Zm1.34,11.61h0v0l0-.1,0,.08-1.61.86a15.54,15.54,0,0,0,.52-1.65h.07l-.05,0c.09-.35.18-.76.26-1.2h.11A6.39,6.39,0,0,0,341.8,151.76Zm-.45-7.6q-.06-.65-.15-1.32l.37-.08C341.49,143.2,341.41,143.68,341.35,144.16Zm.88-4.6c-.09.4-.3,1.26-.51,2.37l-.68,0c-.09-.51-.21-1-.35-1.54v0h0l-.08.28c0-.17-.08-.33-.12-.5C341.11,140,341.7,139.75,342.23,139.56Zm.45,10.47a5.35,5.35,0,0,0,.34,1.15l-.82.42A16.23,16.23,0,0,0,342.68,150Zm1.52-11.19c-.1.31-.48,1.55-.86,3.18l-.31,0a23.9,23.9,0,0,0-.5-2.43.42.42,0,0,1,0,.07v-.08h0s0,.1-.07.28c0-.1-.05-.21-.08-.31Zm-.58,12h0l-.17.09c.12-.33.3-.81.49-1.42a7.06,7.06,0,0,0,.05,1.15l-.36.18Zm.19.06.38-.19c0,.07,0,.13,0,.19l-.15.07Zm-.5.44c0-.06,0-.14.08-.24l.3-.14a1.34,1.34,0,0,0,.11.14Zm0-9c0,.19-.09.39-.13.58,0-.17,0-.35-.06-.53Zm-3.57,10.93-.25-.07.73-.4h0v0l1.74-.92a.54.54,0,0,0,.07.13h0s0,0,0,0,0-.08.1-.23c.35-.18.7-.36,1-.52l.06.16-1,.53-.11,0,0,0h0l0,0C341.36,152.37,340.55,152.8,339.7,153.27Zm7.6,7a30,30,0,0,0-8.55-6.38l.91-.5.21.07.39.43c1.72,1.9,5.44,3.73,8.11,4.88A18.31,18.31,0,0,1,347.3,160.31ZM346.76,173l.35-.09,1.47.63a1.79,1.79,0,0,1,0,.23Zm-.39-.4.44.18-.15.18-.18-.07C346.44,172.74,346.4,172.65,346.37,172.57Zm-.1-.22v0l-.21-.08c.39-.17.95-.41,1.64-.75a8.63,8.63,0,0,0-1,1l-.41-.17Zm-.67.15.27-.13.35.14c0,.08,0,.15,0,.22Zm-4.37-1.63c-.05-.13-.09-.22-.12-.28l.89.31h0v0h0c.73.27,1.43.52,2.1.78a1.22,1.22,0,0,1-.07.17h0v0l.28-.11,1.24.49a1.24,1.24,0,0,0-.1.2l-1.25-.49-.05-.13v0a.24.24,0,0,0,0,.08C343.25,171.6,342.27,171.24,341.23,170.87Zm-.16.1.12.05,0,.17Zm-1.18-.56,0-.08s0,0,0,0v0l0,0-.74-.25a1,1,0,0,1,.25-.16l1.27.43a.83.83,0,0,0,0,.15h0s0,0,0,0l.26-.08.27.09.1.28ZM338.75,184a29,29,0,0,0,.57-2.9c.25,2.47.61,4.51.73,5.17Zm-.34-14,1.37.46a11,11,0,0,0-.55,2.55A18.36,18.36,0,0,0,338.41,170.07Zm-.31-.25-1.19-.39.24-.17,1.91.63c0,.07,0,.15-.05.22l-.67-.22-.12-.27,0,0v0A1.14,1.14,0,0,0,338.1,169.82Zm-.89,11.56c.09-.47.17-.94.23-1.39,0-.11,0-.21,0-.32,0,.18,0,.35.08.53v.11a3.32,3.32,0,0,0,.31,1.9l.09.45Zm-.82-12L338,170a9.41,9.41,0,0,0-.69,2.73A16,16,0,0,0,336.39,169.42Zm-.21-.46.73.22a2,2,0,0,0-.05.24l-.54-.18A2.4,2.4,0,0,0,336.18,169Zm-.23.17-.71-.22s.11-.09.21-.18l.59.18Zm-1.2-.22,1.14.35a8.24,8.24,0,0,0-.43,1.91c0,.11,0,.22,0,.34A16.34,16.34,0,0,0,334.75,168.91Zm-.17-.45.66.2a2,2,0,0,0,0,.24l-.51-.15C334.65,168.63,334.61,168.54,334.58,168.46Zm-.1-.18-.54-.16c-.05-.39,0-.82-.1-1.21.61.28,1.17.51,1.6.68a6.68,6.68,0,0,0-.19.93l-.74-.23v0Zm-.33.3-.17-.24a.09.09,0,0,1,0,0l-.09-.13h0l.05.07s0,0,0-.06l.44.13c0,.07-.07.14-.1.22Zm-1.37-.13c.42.21.88.41,1.35.61a8.43,8.43,0,0,0-.3,1.13A19.66,19.66,0,0,0,332.78,168.45Zm-1-.43.51.14.15.08a5.9,5.9,0,0,0-.1.75l-.11-.15s.07.11.11.17v0l-.23-.34h0a.12.12,0,0,0,.05.05.1.1,0,0,1,0-.05l.11,0h0l0,0h0C332.05,168.48,331.89,168.24,331.73,168Zm-.18-22.23h0s-.12.43-.29,1.13c0,.05-.07.17-.15.34-.37.08-.7.17-1,.25-.05-.22-.11-.44-.17-.67a.45.45,0,0,1,0,.08v-.08h0s-.08.28-.2.78l-.46.14-.15,0c.42-.89.82-1.73,1.21-2.52a7.71,7.71,0,0,0,1.17.28l.68.11c0,.31,0,.77.06,1.33L332,147c-.08-.33-.15-.67-.24-1a.28.28,0,0,0,0,.08.22.22,0,0,1,0-.08h0l-.08.28c0-.17-.07-.33-.12-.5a.28.28,0,0,1,0,.06Zm-.94,2.35-.32.29-.06-.34Zm-1.15,28.64.54.42c.37.59.75,1.19,1.13,1.82.15.47.28.9.4,1.29C331.11,179.51,330.38,178.21,329.46,176.78Zm-.66-27.55.46.17a1.65,1.65,0,0,0-.26.44C328.94,149.64,328.87,149.44,328.8,149.23Zm-.16-.41L329,148l.23-.07.37.08c-.06.25-.12.52-.19.83l-.74.13S328.66,148.87,328.64,148.82Zm-.17-.4,0-.06.12,0s0,0,0,0h0a1.93,1.93,0,0,0-.05-.23,2.56,2.56,0,0,0,.11-.24l.25-.08c-.12.27-.25.54-.38.82A2.44,2.44,0,0,0,328.47,148.42Zm-.3-1.68a5.7,5.7,0,0,0,.58.33v0l0,0,0-.12.22.12c-.14.29-.28.58-.42.89A8.38,8.38,0,0,0,328.17,146.74Zm-.64,1.3h0l.5.22c0,.18-.12.42-.2.73C327.75,148.73,327.66,148.41,327.53,148Zm-.26,3.61a1.35,1.35,0,0,1-.12-.22c.09-.24.2-.47.3-.71-.06.28-.11.57-.16.87A.14.14,0,0,0,327.27,151.65Zm0,0q-.11.23-.21.48l-.26.1.27-.64Zm-.45,1.37.21-.51.12.06-.09.83-.15,0Zm-.14-.52a.61.61,0,0,0,.07-.14l.17.1-.15.36C326.72,152.77,326.7,152.66,326.66,152.55Zm-.32-1.09a4.23,4.23,0,0,0,.58.17c-.1.24-.2.49-.31.73Q326.49,151.91,326.34,151.46Zm-2.16.77c.26.15.52.3.77.42,0,.71.06,1.48.13,2.24A16.7,16.7,0,0,0,324.18,152.23Zm.78-1.41-.32-.36.32.24A.48.48,0,0,1,325,150.82Zm-.83-3.93.36.26a8,8,0,0,0,3.18,2.51c0,.15-.07.31-.1.48-.17.37-.33.75-.5,1.14A14.08,14.08,0,0,0,324.13,146.89Zm-.92,5.29a2.77,2.77,0,0,1-.75-1.13l-.1-.15c.33.28.68.55,1,.8,0,.21,0,.44,0,.7Zm-.51,8.75-.57-.07-.35-.63c.41.18.75.31,1,.41l0,.07Zm-.41,14.45a2.1,2.1,0,0,0,.13.26l-.17-.09C322.26,175.49,322.28,175.44,322.29,175.38Zm.31,2.56a9.07,9.07,0,0,0-1.88-.88c.06-.43.12-.92.18-1.45a13.59,13.59,0,0,0,.84,1.26l.08.25h0v0s0-.05,0-.07C322.08,177.32,322.33,177.63,322.6,177.94Zm-2.15.85c0-.19.09-.48.14-.84a15.09,15.09,0,0,0,1.25,1.57A12.5,12.5,0,0,0,320.45,178.79Zm-15.8-6.24q-.91.62-1.74,1.2l-.07-.09.13,0s0,0,0,0h0a9,9,0,0,0-2.35-2.09A20.2,20.2,0,0,0,304.65,172.55Zm-2,1.42-.87.63a7.81,7.81,0,0,0-1.1-1A18.88,18.88,0,0,0,302.6,174Zm3.09-1.66c0-.14,0-.23,0-.3l.23-.15h.28v0h0l-.08-.13,1.14-.73a1.3,1.3,0,0,1,.29.08l-.67.44,0,0s0,0,0,0l0,0v.08Zm.16.06a1.39,1.39,0,0,1,0,.24,1.19,1.19,0,0,0-.08-.16Zm2.36,1.58a10.78,10.78,0,0,0-1.2-2.33l1.23-.8A16.6,16.6,0,0,0,308.21,174Zm1.33-4.12-1.07.67-.14-.16v0l0,0s0,.1,0,.29l-.61.39a2,2,0,0,0-.1-.21c.55-.36,1.12-.72,1.72-1.09Zm-2-2.8a20.59,20.59,0,0,0,3.06,1.67l-1.2.74A8,8,0,0,0,307.58,167Zm-1.49,4.46a4.57,4.57,0,0,0-.53-.82h0c.64.13,1.16.2,1.52.26l-1,.66a.56.56,0,0,0,0-.08h0l0,0Zm-.38.34-.89.6a1.74,1.74,0,0,0-.18-.22h.13v0h0a7.31,7.31,0,0,0-.52-.61A11.5,11.5,0,0,0,305.71,171.83Zm3.37-2.17-1.61,1a10.28,10.28,0,0,0-3.64-3.33c-.13-.12-.26-.24-.38-.37A17.64,17.64,0,0,0,309.08,169.66Zm5.22-3-.16-.07-.12.07c-.11-.12-.24-.24-.37-.36.39.06.76.11,1.12.14l-.57.42-.08-.09h0Zm1.57-2c-.49.06-1,.13-1.43.21l-.29-.25a13.61,13.61,0,0,0,1.67,0Zm1,1.93,0,.06-1.07.29-.2-.4C316.05,166.56,316.49,166.58,316.91,166.58Zm-.15,10.34h.07a1.33,1.33,0,0,1,.05.19h-.14C316.75,177,316.75,177,316.76,176.92Zm1.06,3.92.7-.38c-.21.63-.41,1.23-.59,1.82l-.1,0,.11-.06h0a7.37,7.37,0,0,0-1.83-.24c0-.09,0-.21.06-.35.63-.25,1.15-.48,1.55-.68C317.73,181,317.76,181,317.82,180.84Zm0,1.77c-.1.31-.19.62-.28.92a6.43,6.43,0,0,0-1.35-.14A16.41,16.41,0,0,0,317.83,182.61Zm-.09-2.63a11,11,0,0,0,1.15-.61c-.11.31-.21.61-.31.91l-.26-.06.11-.06h0a4.4,4.4,0,0,0-.67-.14Zm1.23-1.07a5.41,5.41,0,0,0-.83-.29h0c.52-.25.93-.49,1.23-.64l-.36,1-.08,0,0,0h0Zm-.47-5.58-.53-.1,0-.6.37-.09C318.4,172.79,318.45,173.06,318.5,173.33Zm.4,1.79c-.33-.08-.67-.13-1-.18v-.05l.94-.1Zm.72,2.17c0,.1-.07.2-.1.29a6.2,6.2,0,0,0-1.77-.42c0-.15,0-.29,0-.44.58-.14,1.08-.29,1.49-.43C319.37,176.62,319.49,177,319.62,177.29Zm.17.42-.15-.08.06-.15h0Zm-.1.8.2-.56c.1.25.2.49.32.74Zm-.44,1.29a.56.56,0,0,1,0-.12,2,2,0,0,0,.1.18Zm-.12-.08-.14-.22c0-.08.05-.16.08-.25l.21-.14h0l-.13-.05c.14-.38.27-.76.41-1.15a1.11,1.11,0,0,1,.26-.1c-.09.23-.17.45-.24.68l-.05,0v0h0a.28.28,0,0,0,0,.07C319.4,178.93,319.26,179.33,319.13,179.72Zm-1.28,4-.2,0c.11-.38.23-.77.35-1.16l.23-.14h0a0,0,0,0,1,0,0l-.16,0c.2-.63.41-1.28.64-1.95l0,0h0l.27-.82.14.24c-.32,1-.62,1.86-.89,2.72l-.07,0v0h0l.06.1C318.08,182.94,318,183.33,317.85,183.71Zm-.19.63-.18-.1.09-.32.25-.13C317.77,184,317.71,184.16,317.66,184.34Zm-.13.45h-.21l.12-.41.14.23Zm-2,9.09.07-.17c0,.17,0,.38.06.62a11.61,11.61,0,0,0,0,1.79l-.08.13c0-.33-.06-.51-.06-.51l0,0A11.86,11.86,0,0,1,315.53,193.88Zm.84-4.46c-.33,1.59-.52,2.87-.63,3.87l-.15-.15v0h0c.08-.82.23-1.84.46-3.08C316.19,189.81,316.3,189.59,316.37,189.42Zm.5-2.37,0,.1q-.22.87-.39,1.65a.23.23,0,0,1-.07-.07v0a0,0,0,0,1,0,0,2.67,2.67,0,0,0,0,.32l-.18.08c.12-.56.26-1.16.41-1.8Zm.37-2a1.85,1.85,0,0,0,.26-.2c-.17.61-.32,1.18-.47,1.73l-.17-.11C317,186.05,317.1,185.57,317.24,185.08Zm-1.29-.31c.63-.31,1.12-.58,1.45-.76a1.33,1.33,0,0,1,0,.19h0v0c0,.13-.07.26-.11.4A7.52,7.52,0,0,0,316,184.77Zm-.86-2.81.77-.27s0,.05,0,.08a.12.12,0,0,0,0-.05v.05h0a.75.75,0,0,0,0,.16Zm-1.42-14.47.6-.36.18-.1-.14-.06.69-.49.38,0c-.05.14-.12.34-.2.61-.51.16-1,.32-1.46.49Zm-1.12,1.86.32.05,0,.08-.15.12Zm-.81-1.15c.71-.43,1.44-.87,2.2-1.31l.18,0-.54.39h0s0,0,0,0l0,0-.34.25-.95.57-.4.16Zm-.13-.09c-.23.13-.45.27-.67.41a12.2,12.2,0,0,0-3.43-4.15l.19.09a3.61,3.61,0,0,1,1.45.69,31.4,31.4,0,0,0,4.6,1.68l-2.11,1.26h0v0Zm-.05.34-.55.25s0,0,0,0l.59-.36C311.57,168.34,311.57,168.39,311.56,168.45Zm-.19,2.54h.15c0,.08,0,.16,0,.23l-.05.08a1.16,1.16,0,0,0-.06-.15A.64.64,0,0,1,311.37,171Zm-.56,15.59.33-.07-.32.15A.25.25,0,0,0,310.81,186.58Zm-.31-17.18.53-.32.48.1c0,.28,0,.63,0,1l-.41.16A6.55,6.55,0,0,0,310.5,169.4Zm-.24-.3.39-.24h0l0,0,.32.07-.56.34Zm-.18.39-.49.3a1.28,1.28,0,0,0-.11-.2l.65-.41C310.12,169.26,310.1,169.36,310.08,169.49Zm-.39,3a9.08,9.08,0,0,0-1.12-1.87l1.48-.93c0,.3-.09.7-.12,1.18l-.1,0h.1l-.08,0h.08c0,.42,0,.91,0,1.45Zm-.52,10.7-1.71.56c0-.17,0-.35,0-.53.58,0,1.14,0,1.68-.08A.17.17,0,0,1,309.17,183.18Zm-1.74,2.39c0-.11,0-.23,0-.34l1,0Zm0-4.43c.38.07.76.12,1.12.16l.06.19-1.15.4Zm-.09-1.66.41.1-.38.38A3.87,3.87,0,0,0,307.33,179.48Zm-.08-1,.57.15c0,.14.07.29.11.44l-.61.24C307.3,179.05,307.27,178.77,307.25,178.5Zm-1.14-5.21c-.09-.23-.17-.45-.27-.65a1.65,1.65,0,0,1,0-.27l1-.66a33.15,33.15,0,0,0,.87,6.57h-.51A18,18,0,0,0,306.11,173.29Zm-.64,11.93.91,0,.15.7-1,.43C305.5,186,305.49,185.62,305.47,185.22Zm-.15-2.07.7,0c.05.33.11.67.17,1l-.77.3C305.4,184.06,305.36,183.61,305.32,183.15Zm-2.19-8.91c.79-.55,1.63-1.14,2.53-1.74v.17a48.9,48.9,0,0,0,.26,9.79l-.64.26a26.24,26.24,0,0,0-1.56-7.19A9.63,9.63,0,0,0,303.13,174.24Zm-1.26.72a1.22,1.22,0,0,0-.15-.17l1.09-.79.31,0,0,0h0l-.11-.14,1.87-1.3h0s0,0,0,0h0l.79-.53c0,.06,0,.16,0,.3-.93.62-1.8,1.22-2.62,1.8,0,0,0-.05,0-.08a0,0,0,0,1,0,0s0,0,0,0,0,.05,0,.14Zm-.68.22.3-.22.3.06-.51.36Zm-.1-.11-.37.27a9,9,0,0,0-1.24-.73c.77.16,1.38.25,1.8.31l-.18.14a0,0,0,0,1,0,0Zm-.23.63-.19-.13.38-.29q0,.12,0,.3Zm-1.74,1.05,1.29-1h.36c-.55.42-1.08.82-1.57,1.21C299.17,176.89,299.15,176.82,299.12,176.75Zm-2.32,1.91c.48-.42,1-.86,1.58-1.32l.38-.1-.05.11-1.46,1.19a.34.34,0,0,0,0-.1h0a0,0,0,0,0,0,0l-.21.28Zm-3.28,3.1c.62-.67,1.44-1.47,2.48-2.41.3-.13.54-.26.73-.36a41.88,41.88,0,0,0-3.17,3l0-.23v0Zm-.55.6.17-.1-.36.58a11.87,11.87,0,0,0-1.19,1.59l-.15.06c.18-.31.27-.49.27-.49h0A13.45,13.45,0,0,1,293,182.36Z"/><path class="cls-18" d="M352.23,147.57a.06.06,0,0,1,0,0l-.33.09Z"/><path class="cls-18" d="M346,149.91Z"/><path class="cls-18" d="M346,149.76v0l-.06.06Z"/><path class="cls-18" d="M339.67,153.42l.19.06-.09-.11Z"/><path class="cls-18" d="M340.46,140.14a.09.09,0,0,1,0,.05.18.18,0,0,0,0-.05Z"/><path class="cls-18" d="M321,174.52a0,0,0,0,0,0,0l0-.11v.07A.19.19,0,0,0,321,174.52Z"/><path class="cls-18" d="M329.11,159h.05l0,0Z"/><path class="cls-18" d="M331.64,167.89v0h0Z"/><path class="cls-18" d="M341.93,161.82v0l-.08,0,0,0Z"/><path class="cls-18" d="M310,173.08V173h0A.36.36,0,0,0,310,173.08Z"/><path class="cls-18" d="M321.18,175.07h0c0-.12-.08-.25-.11-.38s0,0,0,0S321.15,175,321.18,175.07Z"/><path class="cls-18" d="M338.16,143.41h0q0,.27-.09.57a.05.05,0,0,0,0,0C338.1,143.81,338.13,143.61,338.16,143.41Z"/><path class="cls-18" d="M330.71,148.15c-.07.17-.15.34-.22.53h0l.22-.53Z"/><path class="cls-18" d="M308.13,179.88l-.75.25s0,0,0,0c.23-.09.48-.17.76-.26C308.14,179.89,308.13,179.89,308.13,179.88Z"/><path class="cls-18" d="M333.8,168.08c-.16-.22-.33-.46-.53-.72h0c.2.25.37.49.53.71Z"/><path class="cls-18" d="M336.62,143.62h0c0,.17,0,.36.08.56h0C336.67,144,336.65,143.79,336.62,143.62Z"/><path class="cls-18" d="M329,148l.19-.07-.14,0Z"/><path class="cls-18" d="M317.24,164.49h0l.44,0h0l-.45,0,0,0h0Z"/><path class="cls-18" d="M313.37,167.67l-.19.14.2-.08a.36.36,0,0,0,0-.09Z"/><path class="cls-18" d="M313.16,167.79l-.11.06.12,0Z"/><path class="cls-18" d="M311.55,171.42h0v0h0Z"/><path class="cls-18" d="M305.36,183h-.06v0Z"/><path class="cls-18" d="M346.85,161h0l-.43.51s0,0,0,0Z"/><path class="cls-18" d="M337.23,154.79l0,0h.06Z"/><path class="cls-18" d="M307.75,178.34l-.51,0v0h.51Z"/><path class="cls-18" d="M327.21,152.1h0Z"/><path class="cls-18" d="M337.87,154.21l-.07-.09-.08,0Z"/><path class="cls-18" d="M332.15,141.06h0Z"/><path class="cls-18" d="M310.8,168.77l-.14.08.16-.07Z"/><path class="cls-18" d="M344.08,150.66l.1,0a.41.41,0,0,1,0-.11Z"/><path class="cls-18" d="M336,135.16l0,0a3.4,3.4,0,0,0-.21.28A2.37,2.37,0,0,1,336,135.16Z"/><path class="cls-18" d="M332.07,140.92l0,0s0,.07,0,.1A.16.16,0,0,1,332.07,140.92Z"/><path class="cls-18" d="M331.07,142.78l-.07-.1c0,.08,0,.15,0,.2Z"/><path class="cls-18" d="M312.75,159.38l.11.05-.06,0Z"/><path class="cls-18" d="M300.53,175.48l.1-.08h-.22Z"/><path class="cls-18" d="M298.86,177h0a0,0,0,0,1,0,0Z"/><path class="cls-18" d="M298.7,176.89l.06,0-.1,0Z"/><path class="cls-18" d="M293.14,182.17h.05l.21-.3C293.31,182,293.22,182.07,293.14,182.17Z"/><path class="cls-18" d="M317.17,184.81l0-.1-.15.12Z"/><path class="cls-18" d="M316.79,186.77v0h0Z"/><path class="cls-18" d="M316.63,186.82a.14.14,0,0,0,0-.06l-.06.07Z"/><path class="cls-18" d="M315.55,193.65l0,0c0-.14,0-.25,0-.33C315.56,193.42,315.55,193.54,315.55,193.65Z"/><path class="cls-18" d="M348.88,173.65h0A0,0,0,0,0,348.88,173.65Z"/><path class="cls-18" d="M349,173.53l0,0h-.11Z"/><path class="cls-18" d="M346.92,172.63l.09-.1-.21.06Z"/><path class="cls-18" d="M319.71,141c-.38-.37-.61-.56-.63-.5s0,.07.11.26h0c1.48,1.15,2.12,2.07,2.73,2.56-.93-1-1.76-1.85-2.28-2.35Z"/></g><g class="cls-17"><path class="cls-18" d="M59.55,76.74c.69-.61,1.85-1.18,3.47-2.67h0c.25-.11.34-.13.32-.08s-.21.26-.7.62l0-.07C62,75.05,60.87,75.85,59.55,76.74Z"/><path class="cls-18" d="M26.94,80.39l-.06.09Z"/><path class="cls-18" d="M80.27,95.5s-10.37-3.44-15-2.27v0h0s.13.09.39.23l-.26,0A31.45,31.45,0,0,0,62.88,91a25.58,25.58,0,0,0,13.38,1.47l-.09,0,.1,0h0l-.73-.23.85-.11-.08,0h.1s-10.25-3.4-14.89-2.28l-1.1-.91c2.17.49,7.42,1.13,14.46-1.63h0l-.62-.05.75-.28h0S64,85.9,59.54,88.2l-.09-.07,0,0h0l-1.09-.84A38.64,38.64,0,0,0,72.79,83.7h-.1l.1,0h0l-.73,0,.86-.38h-.09l.09,0h0a64.12,64.12,0,0,0-8.63,1.15,27.88,27.88,0,0,0,6.33-3.83l-.09,0,.08,0h0l-.38.08.52-.41-.06,0,.06,0h0s-2.25.43-5,1.27A31.07,31.07,0,0,0,69.1,79L69,79l.08,0h0l-.34.09c.16-.14.33-.27.48-.42l-.06,0,.06,0h0a55.17,55.17,0,0,0-5.69,1.8,31,31,0,0,0,3.78-2.85l-.09,0,.09,0h0L67,77.6l.48-.42-.06,0,.06,0h0s-2.12.52-4.74,1.45a24.05,24.05,0,0,0,2.17-2.29l-.08,0,.07-.06h0l-.18,0c.11-.12.22-.24.32-.37h0l0,0h0s-.52.14-1.35.41h.07l-1.66.56,0,0c.58-.21,1.12-.39,1.56-.53-.34,0-.68-.08-1-.13l.41-.52-.08,0,.07-.06h0s-.63.15-1.61.46l1.18-1.53c-.69.51-1.83,1.31-3.13,2.19h0l.07-.07-.13.09c-.47.17-1,.37-1.46.58a6.16,6.16,0,0,0-1.79.43A20.52,20.52,0,0,0,59.71,74l-.08,0L59.7,74h0l-.14.05.29-.38H59.8l0,0h0a37.64,37.64,0,0,0-6.4,3.25,25.38,25.38,0,0,0,2.41-2.44,10.71,10.71,0,0,0,2.71-1.58h-.05l.05,0h0s-.65.11-1.7.35c.32-.43.65-.87,1-1.35a.26.26,0,0,1-.08.05l.07-.06h0l-.13.07c.1-.13.19-.26.28-.4l-.05,0,0,0h0a45.66,45.66,0,0,0-4,2.43l-.27.08a29.37,29.37,0,0,0,3.15-2.43l-.09,0,.09,0h0l-.33.08L57,71.2l-.06,0,.06,0h0l-1.36.34-1.34.12.07,0L53,71.82l0,0,1.27-.15a7.24,7.24,0,0,1-.75-.24c.51-.4,1-.82,1.54-1.28l-.09,0,.09-.06h0s-1.23.28-3,.81a2.14,2.14,0,0,0-.71,0,20,20,0,0,0,1.51-1.63l-.09.05.08-.06h0l-.18,0,.32-.37h0l0,0h0a40.72,40.72,0,0,0-7.12,2.31,25.8,25.8,0,0,0,5-5.07l0,0,0,0h0a48.19,48.19,0,0,0-6.86,3.62,22.93,22.93,0,0,0,3.68-4l0,0,0,0h0a44.47,44.47,0,0,0-4.84,2.48l.41-.56A23.8,23.8,0,0,0,46,64.24l0,0,0,0h0a46.41,46.41,0,0,0-5.18,3A34.09,34.09,0,0,0,43,62.52h0l0,0a.1.1,0,0,0,0,0l-.35.21.05-.14h0l-.07.05,0-.06a17.71,17.71,0,0,0-1.57,1,1.8,1.8,0,0,0,.05-.62c.66-1.42,1-2.44,1-2.44h0l0,.06,0-.07c-.45.36-.88.73-1.27,1.1-.05-.23-.1-.47-.13-.69-.07.31-.16.67-.27,1.07l0,0q.18-.66.3-1.17v.07c.16-.61.24-1,.26-1.15.3-.69.45-1.12.45-1.12h0a.1.1,0,0,0,0,.05l0-.06c-.14.11-.28.22-.41.34l.11-.28h0l-.05.06,0-.07A24.67,24.67,0,0,0,38.64,61l.09-.22a36.23,36.23,0,0,0,2.54-3h0l0,0,0,0-.38.17.07-.1h0l-.06,0,0-.05c-.44.19-.86.38-1.26.58.32-.86.49-1.41.49-1.41h0s0,0,0,0a.1.1,0,0,0,0,0,8.64,8.64,0,0,0-1.66,2.06,17.81,17.81,0,0,0-2.37,1.65,30.59,30.59,0,0,0,3.53-5h0l0,0,0,0-.37.18.07-.11h0l-.06,0,.05-.05a16,16,0,0,0-3.69,2.36,5.54,5.54,0,0,0,.57-1.48c.24-.39.46-.78.67-1.16l.09-.1-.07.06,0,0c.9-1,1.71-1.8,2.23-2.31l-1.44.74c.37-.79.58-1.31.58-1.31h0l-.07,0,.06-.06-.5.25c0-.3,0-.61,0-.91q-.25.55-.63,1.26l0,0c.26-.5.49-1,.67-1.34,0,0,0,.05,0,.06.33-.66.51-1.09.51-1.09h0l0,0a.1.1,0,0,0,0,0l-.36.21.07-.14h0l-.06,0,0-.06a17.42,17.42,0,0,0-2.22,1.46c1.1-2.1,1.8-3.85,1.8-3.85h0l0,0,0,0c-.15.11-.28.23-.42.34l.12-.28h0a.18.18,0,0,0,0,.07l0-.08a23.73,23.73,0,0,0-2.87,2.75,45,45,0,0,0,2.19-4.6h0s0,0,0,0l0-.05-.41.34.11-.27h0l-.06.06a.28.28,0,0,0,0-.07,23.34,23.34,0,0,0-2.58,2.42c1-2.24,1.67-4.12,1.67-4.12h0l0,0a.12.12,0,0,1,0-.05l-.41.37.11-.31h0l0,.07a.46.46,0,0,0,0-.08,22.38,22.38,0,0,0-4,4.78,54.39,54.39,0,0,0,2-7.27h0l0,.07v-.08l-.42.68c.08-.4.12-.62.12-.62h0l0,.08a.45.45,0,0,0,0-.08,32.13,32.13,0,0,0-4.73,11.88l-.59-1.1h0l0,0-.05-.09C29.6,49.86,30,40.08,30,40.08h0a.19.19,0,0,1,0,.08.45.45,0,0,0,0-.08c-.12.2-.22.4-.33.6,0-.35,0-.55,0-.55h0s0,.06,0,.08v-.08a21.51,21.51,0,0,0-3.06,12.25c-.23-.4-.44-.77-.66-1.13,1.5-3.82-.24-13.35-.24-13.35h0a.25.25,0,0,0,0,.08.45.45,0,0,1,0-.08c-.07.25-.13.49-.19.73-.07-.43-.12-.68-.12-.68h0v.08a.45.45,0,0,1,0-.08,23,23,0,0,0-.29,11.88c-.73-1.14-1.36-2-1.86-2.66,0-.07,0-.14.07-.22.09.26.15.39.15.39a0,0,0,0,1,0,0v0c1.54-3.78-.21-13.42-.21-13.42h0V34a.45.45,0,0,1,0-.08c-.07.24-.14.48-.19.72-.07-.43-.12-.67-.12-.67h0v.09l0-.09a22.39,22.39,0,0,0,0,12.78,12.61,12.61,0,0,0-1.13-1.22c-.89-4.41-7.31-12.32-7.31-12.32h0l0,.07-.05-.07c.06.23.13.46.19.69l-.5-.65h0a.56.56,0,0,0,0,.08l-.06-.07c2.41,8.72,7.35,12.55,7.35,12.55s0,0,0,0,.31.3.54.55a23.9,23.9,0,0,0-10.67-4.6l.08.05-.09,0h0l.21.15-.52-.1.38.16-.08,0h0s7.75,5.6,11.86,5.84h0c.56.75,1.24,1.74,2,3A22,22,0,0,0,14,45.68l.07,0-.07,0h0l.2.14-.51-.1.07.05-.07,0h0s7.75,5.6,11.85,5.85v0h0l-.07-.09.12,0c.25.42.51.86.78,1.34-1.57-.93-5.42-2.66-11.79-2.24l.08,0-.08,0h0l.05,0-.35,0,.07,0h-.09L15,51l-.09.47-.1-.3h0v.08a.42.42,0,0,1,0-.07,21,21,0,0,0-.36,5.92,52.55,52.55,0,0,0-2.61-6.68h0s0,0,0,.08l0-.07c0,.26,0,.51.06.76-.16-.35-.26-.55-.26-.55h0s0,.05,0,.07l0-.07a30.59,30.59,0,0,0,3.11,11.76l-1.08-.51h0l-.08,0c-.05-4-5.28-11.73-5.28-11.73h0a.3.3,0,0,1,0,.08l-.05-.07.09.65-.29-.44h0a.25.25,0,0,0,0,.07l0-.06a20.41,20.41,0,0,0,4.6,11.08L11.53,61c-1-3.77-7.75-10.06-7.75-10.06h0l.05.07-.06-.06q.13.35.27.66c-.29-.29-.47-.45-.47-.45h0l.05.06-.06,0a21.87,21.87,0,0,0,6.51,9.23c-1.21-.45-2.17-.76-2.93-1a1.72,1.72,0,0,0-.07-.21l.33.21a0,0,0,0,0,0,0h0c-.8-3.1-5.58-8-7.21-9.6v1.48a20.68,20.68,0,0,0,6.44,8A9.91,9.91,0,0,0,5.09,59,17.88,17.88,0,0,0,.2,56.24v2.07A17.3,17.3,0,0,0,5,59.37v0c.16,0,.4.06.72.13a20.58,20.58,0,0,0-5.55.61v1.72c2.64-.3,5.63-.86,7.24-1.9.85.25,1.92.62,3.24,1.15A20.39,20.39,0,0,0,.2,63v.66c2.56-.11,8.63-.55,11.18-2.21h0l-.11,0,.11-.06c.42.17.88.37,1.35.58-1.72.18-5.64,1-10.27,5l.08,0-.08,0h0l-.26.22.08,0-.08,0h0s8.28-2,11.12-4.91l1.68.8a30.42,30.42,0,0,0-9.85,6.06l.08,0-.08,0h0l0,0L5,69.3l.08,0-.07,0H5s7.22-2.68,10-5.73a4.86,4.86,0,0,0,.38-.41l1.51.76A29.6,29.6,0,0,0,7,70.56l0,0,0,0h0l-.22.2.07,0-.06,0h0s6.69-2.84,9.48-5.9a8.23,8.23,0,0,0,.74-.88c.73.37,1.5.78,2.3,1.22l-.34.14A36.61,36.61,0,0,0,8.24,71.56l.08,0-.08,0h0l0,0L8,71.78l.07,0L8,71.8H8s1.17-.41,2.78-1.1l.31.41,0-.08c.24.3.54.68.91,1.12h0l-.86-1c.2.48.38.93.57,1.37l-.17.18L10.44,72h0a.56.56,0,0,0,.05.08l-.06-.07c.08.21.17.41.25.61-.33,0-.67-.07-1-.14.36.23.77.5,1.23.82h0c-.48-.33-.91-.61-1.28-.84h.07C9,72.06,8.5,71.8,8.5,71.8h0l0,0a.06.06,0,0,0,0,0l.21.44-.15-.09h0a.22.22,0,0,1,0,.08l-.07-.07A25.14,25.14,0,0,0,10,74.94c-2.25-1.55-4.14-2.58-4.14-2.58h0s0,0,0,0l0,0,.36.52-.31-.18h0l.06.07-.08,0a29.62,29.62,0,0,0,2.87,3.68A54.73,54.73,0,0,0,3.83,73.3h0l0,0-.06,0,.36.52-.3-.16h0l.06.06-.07,0A30.61,30.61,0,0,0,6.39,77a50.26,50.26,0,0,0-4.45-2.47H2l0,0-.05,0,.39.52L2,74.9H2a.46.46,0,0,1,.07.07L2,74.92a27.28,27.28,0,0,0,5,5.27A61.12,61.12,0,0,0,.2,77.31v.85A37.15,37.15,0,0,0,12,84.38l-1.25.54v0l0,0-.1,0c-2.19-2-7-3.43-10.41-4.26v2a22.38,22.38,0,0,0,9.38,2.7c-.45.21-.87.4-1.27.6C6.42,85,3.17,84.62.2,84.48v2.3a21.78,21.78,0,0,0,6.51.07c-1.3.69-2.29,1.29-3,1.79l-.23-.11.42-.12h0A12.15,12.15,0,0,0,.2,87.25v2.1a17.65,17.65,0,0,0,3-.37,10.86,10.86,0,0,0-1.42,1.14,8.74,8.74,0,0,0-1.57.29v1.77a14.37,14.37,0,0,0,1.89-1.69h0c.14-.13.35-.31.64-.54A21.9,21.9,0,0,0,.2,93.43v4.18C2,94.88,4.07,91.34,4.34,88.8v0h0c.86-.55,2-1.2,3.44-1.94C6.27,88.3,3.05,92,1.46,99.07L1.52,99l-.05.08h0l.17-.21c0,.18-.09.37-.14.57l.06-.08,0,.09h0s6.61-8.18,7.12-12.88h0s0,0,0,0l-.1.07a.78.78,0,0,0,0-.14l1.53-.72C9,87.46,6.83,91.66,6.93,99.06L7,99a.3.3,0,0,0,0,.1H7A.32.32,0,0,0,7,99c0,.14,0,.27,0,.42l0-.09a.29.29,0,0,1,0,.09H7s4.34-9,3.83-14c.61-.27,1.26-.54,1.95-.82a37.44,37.44,0,0,0-1.86,13.83l0-.1h0s0,.07,0,.11h0v0c0,.13,0,.26,0,.4a.25.25,0,0,0,0-.09.31.31,0,0,1,0,.1h0s2.95-8.67,2.28-13.69c0-.24-.05-.47-.09-.7l1.79-.7a37,37,0,0,0-1.35,14.3.18.18,0,0,1,0,0v0h0l0,.36,0-.09a.28.28,0,0,0,0,.09h0S16.07,90.07,15.38,85a10.5,10.5,0,0,0-.24-1.35c.88-.34,1.81-.68,2.8-1,0,0,0,.1,0,.15a45.12,45.12,0,0,0-2.53,15,.39.39,0,0,0,0-.1.36.36,0,0,1,0,.11h0l0,0c0,.13,0,.27,0,.41a.78.78,0,0,1,0-.09s0,.06,0,.1h0s3.44-9.66,2.73-14.71c0-.23-.06-.46-.1-.69l.09-.24,1.1-.38a37.49,37.49,0,0,0-.54,13c.09.82.21,1.67.36,2.53A312.89,312.89,0,0,0,.2,137.6v17.51c8.91-29.94,19.25-50.66,27.08-63.59,0,.14,0,.29,0,.44l0-.13s0,0,0,.07a.93.93,0,0,0,0,.13s0,0,0-.07c-.06.19-.1.36-.14.51l0,0s0,0,0,0h0c-.11.45-.15.7-.09.71s0,0,.09,0c-.12.52-.07.62.23.08h0s0-.06,0-.09l0,.09c0-.17,0-.32,0-.48l.06-.41,0,0a0,0,0,0,1,0,0h0l0,0h0a.06.06,0,0,0,0,0,26.34,26.34,0,0,0,2.34-1.74v0C28.7,91.79,28,92.68,28,92.68h0l.06-.05a.28.28,0,0,1-.06.06c.61-.23,1.18-.47,1.71-.73-.08.26-.15.52-.22.79.14-.28.29-.57.46-.88v0l-.49.95,0-.1c-.53,1-.83,1.74-.83,1.74h0l0,0,0,.06c.23-.16.44-.32.66-.49l-.41.56h0l.06,0-.05.06a20.15,20.15,0,0,0,2.23-1.12l.25-.14c-.12.11-.22.23-.33.34l-.07.06A2.85,2.85,0,0,0,29.86,95c-1,1.13-1.67,2-1.67,2h0l.08,0-.07.06a23.25,23.25,0,0,0,3.2-1.53c-2,1.86-3.38,3.48-3.38,3.48h0l.07,0a.28.28,0,0,0-.06.06c.74-.38,1.44-.78,2.1-1.17a33.81,33.81,0,0,0,9.05-7.6c.12.34.24.67.35,1l-.13.2c-.18.09-.36.2-.55.31-4,2.28-9,10.1-9,10.1h0l.06-.06-.05.07.3-.22,0,0h0l.07-.08-.06.09a40.34,40.34,0,0,0,9.36-10.12.83.83,0,0,0,.08-.12c.31.91.59,1.77.85,2.59a8.48,8.48,0,0,0-1.11.58c-4,2.27-8.65,8.64-8.65,8.64h0l.06-.06-.05.07L31,103h0l0,0,0,0a32.83,32.83,0,0,0,9.5-8.88c.19.59.36,1.14.51,1.68l-.55.32c-4,2.3-8.54,9.21-8.54,9.21h0l.06-.06-.05.07a3.3,3.3,0,0,0,.3-.22.11.11,0,0,1,0,0h0l.07-.07a.3.3,0,0,0,0,.08,33.92,33.92,0,0,0,8.88-9c.18.65.35,1.27.5,1.86-3.85,2.37-7.89,10.5-7.89,10.5h0l.06-.07a.46.46,0,0,0,0,.08l.29-.23a.1.1,0,0,0,0,0h0l.06-.07a.28.28,0,0,0,0,.07c5.36-4,7.18-7.88,7.75-9.61.13.53.25,1,.35,1.5l-.09.09a.31.31,0,0,0,0-.11s0,0,0,0v0c-3.09,3-5.22,12.26-5.22,12.26h0a.59.59,0,0,0,0-.08.66.66,0,0,1,0,.09l.33-.42-.06.24h0l0-.08a.73.73,0,0,1,0,.08c4.15-5,5-9.42,5.19-11.29.29,1.46.46,2.63.55,3.55h0v0c-3.09,3-5.22,12.25-5.22,12.25h0l0-.08-.18.37.34-.42c0,.13-.06.21-.07.25a0,0,0,0,1,0,0l0-.08a.64.64,0,0,1,0,.09A23.18,23.18,0,0,0,43,106.33c0,.34,0,.59,0,.76h0s-1.19,6.1,3.17,14V121s0,.06,0,.09h0s0-.29-.06-.8l.34.62a.45.45,0,0,0,0-.08l0,.08h0s-.58-10.07-3-13.84a9.45,9.45,0,0,0,0-1.65c.75,1.57,3.2,5.76,9.21,9.19l0-.07.06.06h0l-.4-.57.67.4,0-.07.06.06h0s-5.54-8.14-9.48-9.82v0h0s0,.13.16.37l-.21-.1a28.43,28.43,0,0,0-.44-3.19,23.08,23.08,0,0,0,8.78,8.38l0-.08.06.07h0s-.14-.21-.4-.57c.22.14.45.27.68.4l-.05-.07.06.06h0s-5.47-8.05-9.4-9.79l-.29-1.26c1.28,1.54,4.69,4.87,11.24,6.76l-.07-.06.08,0h0l-.42-.38q.34.12.69.21l-.06,0,.07,0h0s-7.36-6.77-11.8-7.56l0-.1v0h0q-.15-.57-.33-1.2A34.74,34.74,0,0,0,54,101.92l-.07,0,.08,0h0l-.55-.36.82.2-.07,0,.08,0h0a58.41,58.41,0,0,0-6.29-3.65.61.61,0,0,1,0-.12,23.16,23.16,0,0,0,3.15.49c0,.86.09,1.38.09,1.38h0s0-.07,0-.1a.67.67,0,0,1,0,.1c0-.14.08-.27.11-.4v0h0s0-.08,0-.11a.87.87,0,0,1,0,.11l.27-1c.41,0,.83.05,1.27.06,0,1.19,0,2,0,2h0a.29.29,0,0,1,0-.09v.09l.12-.35h0s0,0,0,0v.06c.19-.54.36-1.07.53-1.58h.45l-.09,0h.1l-.31-.16h.59l0,0,.06,0h0s-.22-.12-.61-.3a35.27,35.27,0,0,0,1.72-12.16l1.57,1.14c-.09.21-.18.42-.27.65-2,4.71-1.31,13.87-1.31,13.87h0s0-.07,0-.1a.67.67,0,0,1,0,.1c0-.13.08-.26.11-.39v0h0s0-.07,0-.11a.87.87,0,0,1,0,.11A37.46,37.46,0,0,0,57.51,87.3c.61.46,1.18.89,1.7,1.3-1.79,4.7.12,14.57.12,14.57h0v0c0-.13.08-.26.11-.4a.32.32,0,0,0,0,.06h0v-.09a.66.66,0,0,0,0,.09c2-7.16,1-11.78.35-13.7.47.38.91.74,1.31,1.08,0,0,0,.1,0,.15l-.07-.1s0,0,0,0,0,0,0,0c-.72,4.7,3.66,14.32,3.66,14.32h0a.29.29,0,0,1,0-.09.22.22,0,0,0,0,.08c0-.19,0-.39,0-.58l.11.25h0s0-.06,0-.09a.48.48,0,0,0,0,.08c.26-7.23-1.94-11.68-3-13.44a37.37,37.37,0,0,1,2.89,2.75h0v0c-.73,4.7,3.66,14.32,3.66,14.32h0l0-.09a3.94,3.94,0,0,1,.09.45c0-.2,0-.4,0-.6,0,.13.09.22.11.26h0a.3.3,0,0,1,0-.1.85.85,0,0,0,0,.09A25.82,25.82,0,0,0,66,95c.23.3.39.54.49.7h0S69.57,101.9,78.75,106l-.07-.08.08.06h0s-.21-.25-.6-.67l.72.32-.06-.07.07.06h0s-7.29-8.48-12-10.14A11.05,11.05,0,0,0,65.8,94c1.72.87,6.71,2.91,14.31,1.89l-.09,0h.11l-.74-.23.87-.11-.1,0h.11ZM22.65,46.93a13.41,13.41,0,0,0-1.2-1.32l0-.14c.24.22.38.33.38.33v0A14,14,0,0,1,23,47.17a1.07,1.07,0,0,0,.06.17C23,47.22,22.83,47.08,22.65,46.93Zm.64.81.19,0h0c.49.65,1.08,1.5,1.74,2.56.08.28.16.5.22.68C24.61,49.6,23.88,48.54,23.29,47.74ZM6.54,59.52a10.65,10.65,0,0,0-1.66-.32l-.11-.09c.31,0,.48,0,.48,0h0A13.62,13.62,0,0,1,7,59.49l.15.09Zm.88.38Zm.07-.12.15-.1h0c.75.22,1.68.53,2.79,1,.22.17.4.3.55.4C9.54,60.46,8.39,60.06,7.49,59.78ZM13,61.91c-.52-.23-1-.45-1.47-.64l.07-.05h0l0,0-.29-.05a1.09,1.09,0,0,0-.05-.17c.5.2,1,.43,1.61.69l.22.23Zm.47.22L13.6,62c.4.18.81.38,1.24.59l.15.26Q14.2,62.46,13.46,62.13ZM3.33,89.28a11.48,11.48,0,0,0-1.51,1.21l-.16,0c.25-.25.38-.4.38-.4H2a14.26,14.26,0,0,1,1.61-1.24l.19-.05C3.68,88.94,3.52,89.09,3.33,89.28Zm.55-.53,0,0,.32-.21Zm.39-.09,0-.23h0C5,88,6,87.39,7.21,86.77L8,86.6C6.39,87.39,5.19,88.08,4.27,88.66Zm6-3.13-1.66.77s0-.06,0-.1l0,0v0s-.09.08-.27.21l-.18-.09c.55-.27,1.15-.56,1.8-.85h.38Zm21-29.86A17.44,17.44,0,0,0,30,58.92l-.81-1.7.08,0,0,.11h0A7,7,0,0,0,31.26,55.67Zm-2.38,1.58,0,0-.11,0-.54-1.08.16-.1L29,57.09l-.06.26,0,0v0l.13-.07c.29.59.58,1.2.88,1.84v0h0l.36.78-.26-.1c-.41-.9-.82-1.76-1.21-2.55l.07,0ZM18.58,81.78h0a6.82,6.82,0,0,0-.29-.91h0c.57.27,1,.47,1.36.62l-1.1.37,0-.08h.05S18.58,81.79,18.58,81.78Zm-1.06-4.46c-.09-.15-.18-.29-.26-.44a17.12,17.12,0,0,0,4.58,3.92l-1.75.57A9.9,9.9,0,0,0,17.52,77.32Zm-.35,4.81h0a7.09,7.09,0,0,0-.32-.69,12.65,12.65,0,0,0,1.29.58l-1,.34-.12-.25.13,0Zm-2,.94h0a9.15,9.15,0,0,0-1.68-2.56A18.74,18.74,0,0,0,17,82.44l-1.93.72a.54.54,0,0,0-.05-.11l.13,0Zm-.44-9.16,0,0h0l.54-.23h0l-.53.45h.06l-.05,0h0l.7-.15c.35.63.7,1.19,1.06,1.71,0,0,0,0,0,0A6.71,6.71,0,0,0,14.86,75c-.42-.33-.84-.64-1.24-.92l-.1-.12a.41.41,0,0,0,.05.09l0,0-.27-.32h0l.23.26-.2-.28c.3-.16.67-.35,1.07-.58a2.22,2.22,0,0,0,.39-.12c.08.16.16.31.23.47-.13.17-.26.34-.39.53Zm1.11-1.65,0,0L16.2,72,16,72.2l-.13.15ZM13,73.2l-.42-.49c.51-.31,1.08-.67,1.69-1.07h0C13.79,72.12,13.37,72.64,13,73.2Zm1.77,10.09-1,.38A7.68,7.68,0,0,0,13,82.42,17.14,17.14,0,0,0,14.72,83.29ZM18,74.23l.35-.2,0,0-.3.23Zm1.5-10.29a10.12,10.12,0,0,0,.4,1.12l-.8-.44.09-.21a.69.69,0,0,0,0,.1s0,0,0,0h0A4.1,4.1,0,0,0,19.48,63.94Zm-.09-8.72.46.09c-.11.31-.2.62-.29.92C19.51,55.88,19.45,55.54,19.39,55.22Zm.57,10a2.28,2.28,0,0,0,.1.21s0,0,0,0v0l.06-.09c.33.18.67.36,1,.56a2,2,0,0,1,.05.23l-.59-.33,0,0h0v0l-.06,0-1-.57.23-.08Zm.25,0,0-.06v0s0,0,0,0v0a4.72,4.72,0,0,0,.37-.61l.05,0c.15.47.29.84.38,1.12C20.8,65.56,20.5,65.4,20.21,65.24Zm.88,1h0l.52.3c-.22.07-.53.18-.91.34h-.11l.05,0h0c-.39.17-.84.38-1.35.66a8.17,8.17,0,0,0,1.27-1.66Zm1.22-8.51c.5,0,1,.08,1.49.1l-.27.62c-.4-.06-.82-.1-1.25-.15l0-.24s0-.09,0-.13,0,.06,0,.08v0l0-.27h0l0,.2A1.17,1.17,0,0,0,22.31,57.7ZM21.72,68h0a11.46,11.46,0,0,0-1.07.52,8.1,8.1,0,0,0,1-1.22l.95.36C22.3,67.73,22,67.84,21.72,68Zm.63,7.87-.22.21c-.14-.22-.28-.43-.43-.64l.15.12A3.52,3.52,0,0,1,22.35,75.84ZM22,66.43a0,0,0,0,1,0,0l-.24.06-.33-.19.53.09c.16.09.34.19.51.3l-.33,0-.2-.12.07-.15Zm.28,0,.49.07,0,.16H22.7Zm.49-5.83a4.25,4.25,0,0,0-.22-.85l.48.08c-.08.26-.15.51-.21.77ZM23.41,68l.88.3c-.23.08-.5.2-.81.34l-.56,0h0A5.07,5.07,0,0,0,23.41,68Zm-.05-1.32a.16.16,0,0,0,0-.07,4.1,4.1,0,0,0,.49.06Zm-.89-3-.17,0,0-.17h.14ZM22,56.24h0c-.05-.24-.1-.44-.13-.62l.45.06C22.16,55.87,22.07,56.06,22,56.24Zm-.11,8.88.18.08-.1-.06.64.26v0l-.54-.22.56.37s0,.07,0,.11q-.51.13-1.05.33l-.15-.08A4.19,4.19,0,0,0,21.87,65.12ZM19.29,75.59c-.12-.14-.25-.28-.38-.41l.09,0C19.1,75.3,19.19,75.45,19.29,75.59Zm1.81,2.34a16.6,16.6,0,0,0,1.62,1.63l0,0,.05,0h0l0,0h0l.07,0,.78.66-1.3.4A7.67,7.67,0,0,0,21.1,77.93Zm2.34.62q-.26-.63-.6-1.29l.78-.26c.23.19.46.36.68.52C24,77.84,23.72,78.18,23.44,78.55Zm.79-9.15h0l.16-.21.43.11Zm.57-.88a.93.93,0,0,1,.05-.1l0,0,.11.07Zm-.08-8v-.46l.65.07-.15.38Zm0-1.92c0-.28,0-.54-.06-.77h.89a7.22,7.22,0,0,0-.06.92Zm1.29,11,.39.11c.12.2.23.39.36.58-.25,0-.53.1-.84.17l-.49-.33A6,6,0,0,0,26,69.62ZM25.78,57.8l.75-.06c-.17.31-.34.61-.49.9Zm.92,2.74c0-.12,0-.23,0-.34h.09c0,.11,0,.22,0,.33Zm-4.19-4.28q0-.25.09-.54a16.69,16.69,0,0,0,4.65,0l.59-.11c.26.5.52,1,.79,1.58A26.45,26.45,0,0,0,22.51,56.26ZM28,55.54l.19,0,.15.3-.08.25C28.13,55.87,28.05,55.7,28,55.54ZM29,56.92l-.43-.86a5.17,5.17,0,0,0,1-.75A13.9,13.9,0,0,0,29,56.92Zm-.19-2.78c-.22.62-.36,1.13-.47,1.48l-.09-.18h0l-.19-.36A6.49,6.49,0,0,0,28.82,54.14Zm-.94.84.2.38-.25-.09a.8.8,0,0,1-.08-.16A1.59,1.59,0,0,0,27.88,55Zm-.82-1.54.69,1.28c0,.14,0,.24-.05.31-.28-.55-.56-1.07-.83-1.56Zm-1.3-1.92h.11a2.78,2.78,0,0,0-.21-.23l.06-.18.93,1.59c0,.13,0,.25,0,.34l-.09,0Q26.17,52.21,25.76,51.52Zm1,2c.29.54.6,1.11.92,1.72a25.82,25.82,0,0,0-4.79-1s0-.07,0,0,0,0,0,0c-.63-.07-1.31-.13-2-.17-.06-.28-.1-.44-.1-.44h0a.06.06,0,0,1,0,0,.06.06,0,0,0,0,0l-.15.37a1,1,0,0,0,0-.15h0s0,0,0,.08v-.08c0,.07-.05.13-.07.19-.39,0-.79,0-1.2,0-.2-1-.37-1.62-.4-1.72C21.37,53.11,24.58,53.85,26.74,53.5ZM18,61.68h.11c.08.44.17.83.26,1.18h0a14,14,0,0,0,.52,1.61l-1.59-.83a.36.36,0,0,0,0-.09l.05.11v0A6.28,6.28,0,0,0,18,61.68Zm-.35-6.82.36.08c-.07.45-.12.88-.15,1.3Q17.77,55.52,17.67,54.86Zm1.06-2.57-.12.49c-.05-.18-.07-.28-.07-.28h0a.22.22,0,0,0,0,.08.45.45,0,0,1,0-.08c-.14.52-.25,1-.34,1.52l-.66,0c-.21-1.09-.41-1.94-.51-2.33C17.54,51.91,18.12,52.1,18.73,52.29ZM17.05,63.55l-.81-.41A5.88,5.88,0,0,0,16.57,62,13.83,13.83,0,0,0,17.05,63.55Zm-.17-11.87c0,.1-.05.2-.07.31,0-.18-.07-.28-.07-.28h0v.08a.42.42,0,0,1,0-.07,20.31,20.31,0,0,0-.49,2.39l-.31,0c-.37-1.61-.74-2.83-.84-3.13C15.54,51.19,16.15,51.42,16.88,51.68ZM15.63,62.84l-.35-.18a8,8,0,0,0,.06-1.13c.18.6.35,1.07.47,1.39l-.17-.08a0,0,0,0,0,0,0Zm-.41.12-.15-.07c0-.06,0-.12,0-.18l.37.17Zm.25.12a1.71,1.71,0,0,0,.11-.14l.29.15a2.16,2.16,0,0,1,.08.23Zm.71-8.58c0,.18-.05.35-.07.52a5.05,5.05,0,0,0-.12-.56Zm.94,9.42,0-.05h0l0,0-.11,0-1-.52.06-.16,1,.51.09.23,0,0h0s0-.08.07-.13l1.7.9,0,0v0h0l.71.39-.25.08C18.66,64.73,17.87,64.31,17.12,63.92ZM11,70.63c2.62-1.13,6.28-2.93,8-4.8l.38-.42.2-.07.9.49A29.85,29.85,0,0,0,12,72.1C11.71,71.69,11.36,71.21,11,70.63Zm-.19,14.66a1.64,1.64,0,0,0,0-.22c.46-.21,1-.41,1.45-.62l.34.09Q11.63,84.92,10.79,85.29Zm2.05-.87-.18.08c-.05-.06-.09-.12-.15-.18l.43-.17C12.91,84.22,12.88,84.31,12.84,84.42ZM13,84l-.41.17a9.1,9.1,0,0,0-1-1c.68.34,1.23.57,1.61.74L13,84v0Zm.1.35a1.55,1.55,0,0,0,0-.21l.34-.14.27.12Zm2-.77s0,0,0-.07h0a0,0,0,0,0,0,0,.63.63,0,0,0,0,.13c-.42.15-.83.32-1.23.47a1.14,1.14,0,0,0-.1-.19l1.22-.48.27.1a0,0,0,0,1,0,0h0l-.07-.16,2.07-.77,0,0s0,0,0,0h0l.87-.31c0,.06-.06.15-.12.28C17,82.84,16,83.19,15.1,83.53Zm3-.74a.86.86,0,0,0,0-.17l.12-.05Zm0-.32.1-.27.27-.09.25.08v0h0l0-.15,1.24-.42a1,1,0,0,1,.25.16l-.73.24,0,0v0s0,0,0,0l0,.08Zm1.15,15.17c.11-.65.47-2.65.72-5.08a25.39,25.39,0,0,0,.55,2.85C20,96.15,19.58,96.9,19.16,97.64Zm.8-13a11.17,11.17,0,0,0-.54-2.5l1.35-.45A16.17,16.17,0,0,0,20,84.64Zm1-3.39v0l0,0-.11.27-.67.22c0-.07,0-.15,0-.22L22,80.9a1.08,1.08,0,0,1,.23.16l-1.16.38A1.14,1.14,0,0,0,21,81.25Zm.24,12.8c0-.14.05-.29.08-.44a3.22,3.22,0,0,0,.31-1.87v-.11c0-.17,0-.34.07-.51,0,.1,0,.21,0,.31.06.45.13.9.22,1.37Zm.59-9.8a9.07,9.07,0,0,0-.68-2.68c.53-.18,1.07-.35,1.63-.52A15.73,15.73,0,0,0,21.8,84.25Zm1-3.37-.54.16a1.7,1.7,0,0,0,0-.22l.71-.23Zm.27-.33.58-.18a1.6,1.6,0,0,1,.21.18l-.7.21Zm.62,2.55c0-.11,0-.22-.05-.33a8,8,0,0,0-.42-1.88l1.12-.34A15.93,15.93,0,0,0,23.71,83.1Zm.71-2.71-.51.15,0-.23.64-.2C24.49,80.18,24.46,80.27,24.42,80.39Zm.2-.46h0v0l-.73.22a6.73,6.73,0,0,0-.19-.91c.43-.17,1-.39,1.58-.67-.07.38-.05.81-.11,1.19l-.52.16Zm.17.34a2,2,0,0,0-.1-.21l.44-.13s0,0,0,.06l.05-.07h0L25.1,80a.11.11,0,0,0,0-.05l-.16.23Zm.48,1.53A7.19,7.19,0,0,0,25,80.69c.47-.19.92-.39,1.34-.6A16.23,16.23,0,0,0,25.27,81.8Zm1.58-1.43,0,0,0,0h0l.11,0,0,0,0,0h0l-.22.33h0a1,1,0,0,1,.1-.17l-.1.15a5.58,5.58,0,0,0-.1-.73l.15-.09.49-.14C27.17,79.89,27,80.12,26.85,80.37ZM27.5,57.9a.28.28,0,0,1,0-.06l-.12.49c-.05-.18-.07-.27-.07-.27h0a.17.17,0,0,0,0,.07.42.42,0,0,1,0-.07c-.09.33-.16.66-.24,1L26.83,59c0-.55.06-1,.07-1.31l.66-.11a9.41,9.41,0,0,0,1.16-.27c.37.77.77,1.6,1.18,2.48l-.14,0-.46-.13c-.12-.49-.2-.77-.2-.77h0s0,0,0,.08a.45.45,0,0,1,0-.08c-.06.22-.11.44-.16.66l-1-.25a3.09,3.09,0,0,0-.15-.33c-.16-.69-.28-1.11-.28-1.11h0A.06.06,0,0,1,27.5,57.9Zm1.3,2.2c0,.11-.05.22-.07.33l-.3-.28ZM27.53,91.74q.16-.57.39-1.26c.37-.62.74-1.21,1.11-1.79l.53-.41C28.65,89.68,27.94,91,27.53,91.74ZM30,61.82a1.65,1.65,0,0,0-.26-.44l.46-.16C30.13,61.42,30.07,61.62,30,61.82Zm.3-.88c-.17,0-.42-.08-.73-.12-.06-.31-.13-.58-.18-.82l.36-.08L30,60c.13.27.25.55.38.83Zm.11-.28c-.12-.27-.24-.54-.37-.81l.25.08.11.23-.05.24h0v0l.12,0a.08.08,0,0,1,0,.05A2.44,2.44,0,0,1,30.42,60.66Zm0-.69c-.13-.3-.27-.59-.4-.87l.21-.12a.45.45,0,0,0,0,.11h0a0,0,0,0,1,0,0l.57-.33A9.77,9.77,0,0,0,30.45,60Zm.7,1c-.07-.3-.14-.54-.19-.72a4.25,4.25,0,0,0,.49-.21h0Q31.27,60.59,31.15,61Zm.54,2.56c-.05-.29-.11-.58-.16-.85q.15.33.3.69a1.52,1.52,0,0,1-.12.21S31.69,63.56,31.69,63.54Zm.23.05q.13.3.27.63l-.26-.11c-.07-.16-.13-.32-.2-.47Zm.16,1.81-.15,0c0-.28-.05-.55-.09-.82l.12-.05.21.5Zm.14-.6-.15-.37.17-.09.06.14C32.27,64.59,32.25,64.69,32.22,64.8Zm.13-.5c-.1-.25-.2-.48-.3-.72a3.13,3.13,0,0,0,.57-.18Q32.47,63.85,32.35,64.3Zm1.51,2.48c.07-.75.11-1.5.12-2.2a8.33,8.33,0,0,0,.76-.42A16.14,16.14,0,0,0,33.86,66.78ZM34,62.66l.31-.23-.31.35Zm-2.07.57-.49-1.12c0-.16-.07-.32-.1-.47a7.79,7.79,0,0,0,3.13-2.46l.35-.26A13.91,13.91,0,0,0,31.9,63.23Zm3.66,1.1c0-.25,0-.48,0-.69.34-.24.68-.5,1-.78l-.09.14a2.7,2.7,0,0,1-.75,1.11C35.65,64.19,35.6,64.26,35.56,64.33Zm.51,8.16s0,0,0-.07c.27-.09.61-.22,1-.4-.13.22-.25.43-.34.62l-.57.07Zm.57,14.58-.17.09c.05-.09.09-.17.13-.26A1,1,0,0,0,36.64,87.07ZM37,88.53a.64.64,0,0,0,0,.07v0s0,0,0,0h0s0-.08.08-.24c.36-.49.63-.92.82-1.24.06.52.12,1,.18,1.42a9.33,9.33,0,0,0-1.85.87C36.56,89.11,36.8,88.81,37,88.53ZM37,91a16.06,16.06,0,0,0,1.23-1.54c0,.35.1.63.13.83A11.9,11.9,0,0,0,37,91Zm20.84-7.82a9.2,9.2,0,0,0-2.31,2h0l0,0h.14l-.08.08-1.71-1.18A19.47,19.47,0,0,0,57.88,83.15Zm0,2a6.53,6.53,0,0,0-1.07,1l-.86-.62A18.12,18.12,0,0,0,57.87,85.12Zm-6.12-2V83l0,0v0l0,0L51,82.66a1.07,1.07,0,0,1,.28-.08l1.12.72-.08.13h0s0,0,0,0h.27l.24.16c0,.06,0,.15,0,.29C52.53,83.64,52.15,83.38,51.75,83.13Zm1.1.9a1.09,1.09,0,0,1-.08.15c0-.1,0-.18,0-.23Zm-2.45-1.6,1.21.78a10.64,10.64,0,0,0-1.18,2.29A17.87,17.87,0,0,0,50.4,82.43Zm-1-1.08c.59.36,1.15.72,1.69,1.07,0,.06-.07.13-.11.2l-.59-.38c0-.19,0-.29,0-.29l0,0v0l-.14.16-1.05-.66A1.11,1.11,0,0,1,49.39,81.35Zm-.18-.28c-.38-.25-.76-.48-1.17-.73a19.34,19.34,0,0,0,3-1.64A7.66,7.66,0,0,0,49.21,81.07Zm3.32,2,0,0h.05l-.05.08-1-.64c.35-.07.86-.14,1.49-.26h0a5,5,0,0,0-.52.8Zm1.77.11c-.18.2-.35.4-.5.59h0l0,0h.13l-.18.22c-.28-.2-.57-.39-.87-.59A10.67,10.67,0,0,0,54.3,83.18Zm.81-4.52-.38.36a9.94,9.94,0,0,0-3.58,3.27l-1.58-1A17.61,17.61,0,0,0,55.11,78.66Zm-10.5-.21h0l-.07.08-.57-.4,1.1-.15-.36.36-.12-.07-.16.07ZM43,76.35a15.23,15.23,0,0,0,1.63,0l-.28.24q-.68-.12-1.41-.21Zm.21,1.86c-.07.12-.13.26-.2.4-.34-.11-.69-.2-1-.29l0-.06C42.3,78.26,42.72,78.24,43.17,78.21ZM42.05,88.59h-.14a1.21,1.21,0,0,1,.05-.18H42C42,88.48,42,88.53,42.05,88.59Zm-.94,3.74c.39.19.9.42,1.52.66,0,.14,0,.26.06.35a7.08,7.08,0,0,0-1.8.23h0s0,0,0,0l.1.06-.1,0c-.18-.58-.37-1.17-.58-1.78l.69.37C41,92.4,41.08,92.41,41.11,92.33Zm1.47,2.44a6.14,6.14,0,0,0-1.32.14c-.09-.3-.19-.6-.28-.91A15.61,15.61,0,0,0,42.58,94.77Zm-1.52-3.33a4.14,4.14,0,0,0-.65.14h0l.1.06-.24.06-.31-.9a9.64,9.64,0,0,0,1.13.6Zm-1.18-1.06h0l0,0-.07,0c-.11-.33-.23-.66-.35-1,.29.15.69.38,1.21.63h0a5.17,5.17,0,0,0-.81.29Zm.57-6.27.36.09,0,.59-.52.1C40.37,84.62,40.41,84.36,40.45,84.11ZM40,86.32l.93.1v0c-.35,0-.69.1-1,.18C40,86.54,40,86.43,40,86.32Zm-.43,1.47a15.08,15.08,0,0,0,1.46.43c0,.14,0,.29,0,.43a6,6,0,0,0-1.74.42c0-.1-.07-.2-.1-.29Q39.42,88.29,39.58,87.79ZM39.14,89h0l.06.16-.15.07A2.18,2.18,0,0,0,39.14,89Zm-.5,1.19c.11-.24.22-.48.32-.72.06.18.12.36.19.54Zm.8,1.16.11-.18s0,.07,0,.11ZM39.29,90l.05-.06h0a0,0,0,0,0,0,0l0,0c-.07-.22-.15-.44-.23-.67a1.27,1.27,0,0,1,.25.1c.14.38.27.76.4,1.12l-.12.06h0s0,0,0,0l.2.14c0,.08.05.16.08.24l-.14.22C39.57,90.79,39.44,90.39,39.29,90Zm1.32,4,.06-.1h0v0l-.06,0c-.27-.84-.56-1.73-.88-2.67l.14-.24c.09.27.18.54.26.8h0l0,0c.22.67.43,1.31.62,1.92l-.16,0h0l.23.13c.12.39.24.77.35,1.14l-.2,0C40.85,94.71,40.73,94.33,40.61,93.94ZM41,95.17a2.63,2.63,0,0,1,.24.12l.09.32-.18.09Zm.23.81.14-.23.12.41h-.21A1.09,1.09,0,0,0,41.22,96Zm2,10.94v0s0,.18-.07.5l-.07-.13a11.18,11.18,0,0,0,0-1.76c0-.23,0-.44.06-.6l.07.16A12.37,12.37,0,0,1,43.25,106.92Zm-.53-5.59c.24,1.22.38,2.22.46,3h0a1.85,1.85,0,0,0-.14.14,36.92,36.92,0,0,0-.62-3.8C42.48,100.86,42.59,101.07,42.72,101.33Zm-.59-2.69c.16.63.29,1.22.41,1.77l-.18-.08c0-.2,0-.31,0-.31l0,0v0a.23.23,0,0,0-.07.07c-.11-.51-.24-1.06-.39-1.63a.32.32,0,0,0,0-.09Zm-.2-.81-.17.1c-.14-.54-.29-1.1-.46-1.69l.26.19ZM41.57,96l-.12-.39,0,0h0a1.33,1.33,0,0,1-.05-.19c.33.18.81.44,1.43.74A10.22,10.22,0,0,0,41.57,96Zm1.25-2.63a1,1,0,0,1,0-.16h0a0,0,0,0,1,0,0v0l0-.08c.23.09.48.18.75.26C43.38,93.34,43.09,93.34,42.82,93.34ZM45,79.27l-1.43-.48c-.08-.27-.15-.47-.19-.6l.37,0,.68.49-.14,0,.17.1.6.35Zm1,2a1.58,1.58,0,0,0-.15-.12l0-.08.31,0C46.12,81.07,46.07,81.15,46,81.23ZM46.85,80l-.39-.16-.94-.56L45.19,79v0s0,0,0,0h0l-.53-.39.18,0L47,79.85Zm.23-.24a0,0,0,0,1,0,0h0L45,78.51a30.2,30.2,0,0,0,4.52-1.66,3.49,3.49,0,0,1,1.43-.67l.19-.09a11.92,11.92,0,0,0-3.38,4.07l-.65-.4A0,0,0,0,0,47.08,79.74Zm0,.2.59.36,0,0-.55-.24A.78.78,0,0,0,47.11,79.94Zm.16,2.8-.06.15-.05-.07c0-.08,0-.15,0-.22h.16ZM47.86,98l-.31-.15.32.08S47.86,98,47.86,98Zm-.25-16-.4-.17c0-.38,0-.73,0-1l.47-.1.52.32A6.4,6.4,0,0,0,47.61,82Zm.65-1.07-.54-.34.31-.06,0,0h0l.38.23Zm.28-.11.63.4-.09.21-.49-.3C48.57,81,48.55,80.89,48.54,80.81ZM48.75,84c0-.53,0-1,0-1.43h.08l-.08,0h.09l-.1,0c0-.48-.07-.87-.11-1.17l1.46.92A8.32,8.32,0,0,0,49,84.05Zm.75,10.55c.54,0,1.09.07,1.66.08v.53c-.52-.18-1.08-.37-1.68-.55A.14.14,0,0,0,49.5,94.51Zm.7,2c.32,0,.65,0,1,0,0,.12,0,.23,0,.34Zm1-3.22L50,92.91l.06-.19c.36,0,.73-.09,1.1-.16C51.19,92.81,51.18,93.06,51.18,93.3Zm.08-1.9L50.89,91l.4-.1Zm0-.61-.59-.24c0-.15.07-.29.1-.44l.56-.15C51.35,90.24,51.32,90.51,51.3,90.79Zm.1-1.05h-.51a31.72,31.72,0,0,0,.86-6.45l1,.65c0,.06,0,.14,0,.26a6.14,6.14,0,0,0-.27.64A17.74,17.74,0,0,0,51.4,89.74Zm1.67,8-1-.43c.05-.23.09-.46.14-.69h.9C53.1,97,53.08,97.35,53.07,97.7Zm.1-1.84-.76-.29c.06-.34.11-.67.16-1l.7,0C53.23,95,53.19,95.43,53.17,95.86ZM54.84,87a25.6,25.6,0,0,0-1.53,7.08l-.64-.26a48.23,48.23,0,0,0,.27-9.62.92.92,0,0,1,0-.16q1.32.89,2.49,1.71A8.47,8.47,0,0,0,54.84,87Zm.73-1.33a1.16,1.16,0,0,1,0-.13l0,0a0,0,0,0,1,0,0l0,.07c-.8-.57-1.65-1.15-2.56-1.76,0-.14,0-.24,0-.3l.78.52h0a0,0,0,0,1,0,0h0l1.84,1.27a1.34,1.34,0,0,0-.11.14h0l0,0a2.28,2.28,0,0,0,.3,0l1.07.77-.15.17Zm1.66,1.2-.5-.36.3-.06.3.22C57.3,86.78,57.26,86.84,57.23,86.91Zm.19-.34a0,0,0,0,1,0,0l-.17-.12c.41-.07,1-.16,1.76-.31a8.58,8.58,0,0,0-1.21.71l-.37-.26Zm.07.53c0-.12,0-.22,0-.3l.39.29-.19.13Zm1.79,1.36-1.55-1.18h.36l1.26,1C59.33,88.32,59.3,88.39,59.28,88.46Zm2.15,1.71-.21-.28a0,0,0,0,0,0,0h0s0,.07,0,.1l-1.44-1.17a.36.36,0,0,0,0-.11l.37.1q.84.67,1.56,1.29Zm3.43,3v0l0,.23a40,40,0,0,0-3.11-2.94,7.89,7.89,0,0,0,.71.35c1,.92,1.82,1.71,2.44,2.37Zm1.79,2.19h0s.09.17.27.48l-.15-.06a11.77,11.77,0,0,0-1.17-1.56,5.83,5.83,0,0,0-.36-.57l.18.1A14,14,0,0,1,66.65,95.37Z"/><path class="cls-18" d="M7.19,59.59s0,0,0,0l.32.09Z"/><path class="cls-18" d="M13.34,61.89h0Z"/><path class="cls-18" d="M13.33,61.74v0l.06.06Z"/><path class="cls-18" d="M19.53,65.34l-.19,0,.09-.11Z"/><path class="cls-18" d="M18.75,52.29a.08.08,0,0,0,0,0,.1.1,0,0,1,0,0Z"/><path class="cls-18" d="M37.84,86.06s0,0,0,0l0-.1V86S37.84,86,37.84,86.06Z"/><path class="cls-18" d="M29.9,70.8h0l0,0Z"/><path class="cls-18" d="M27.42,79.54h0A0,0,0,0,0,27.42,79.54Z"/><path class="cls-18" d="M17.31,73.59l0,0,.09,0,0,0Z"/><path class="cls-18" d="M48.71,84.65s0-.06,0-.09h0A.3.3,0,0,1,48.71,84.65Z"/><path class="cls-18" d="M37.69,86.6h0c0-.12.07-.25.11-.37s0,0,0,0Z"/><path class="cls-18" d="M21,55.5h0l.09.56,0,0Z"/><path class="cls-18" d="M28.33,60.16c.07.16.14.34.21.52h0c-.07-.19-.14-.36-.21-.52Z"/><path class="cls-18" d="M50.51,91.32l.74.25a0,0,0,0,1,0,0l-.74-.25S50.5,91.33,50.51,91.32Z"/><path class="cls-18" d="M25.29,79.73l.52-.7h0c-.19.25-.36.49-.51.7Z"/><path class="cls-18" d="M22.52,55.71h0c0,.17-.05.36-.07.55h0C22.47,56.06,22.5,55.88,22.52,55.71Z"/><path class="cls-18" d="M30,60l-.19-.07.14,0A1.17,1.17,0,0,0,30,60Z"/><path class="cls-18" d="M41.56,76.21h0l-.43,0h0a3.4,3.4,0,0,0,.45,0l0,0h0Z"/><path class="cls-18" d="M45.36,79.33l.18.13-.2-.07,0-.09Z"/><path class="cls-18" d="M45.56,79.45l.11.06-.12,0Z"/><path class="cls-18" d="M47.14,83h0v0h0Z"/><path class="cls-18" d="M53.23,94.38h.05v0Z"/><path class="cls-18" d="M12.47,72.74h0l.43.51a0,0,0,0,0,0,0Z"/><path class="cls-18" d="M21.92,66.68l0,0H21.9Z"/><path class="cls-18" d="M50.88,89.82h.51v0h-.51Z"/><path class="cls-18" d="M31.77,64h0Z"/><path class="cls-18" d="M21.29,66.11l.07-.09.08,0Z"/><path class="cls-18" d="M26.91,53.19h0v0Z"/><path class="cls-18" d="M47.89,80.41a.57.57,0,0,0,.13.08l-.15-.07Z"/><path class="cls-18" d="M15.2,62.62l-.1,0a.45.45,0,0,0,0-.11Z"/><path class="cls-18" d="M23.16,47.4l0,0,.21.28Z"/><path class="cls-18" d="M27,53.06l0,0s0,.06,0,.09A.21.21,0,0,0,27,53.06Z"/><path class="cls-18" d="M28,54.88l.08-.09c0,.08,0,.14,0,.19A.31.31,0,0,0,28,54.88Z"/><path class="cls-18" d="M46,71.19l-.11,0,0,0Z"/><path class="cls-18" d="M58,87a.39.39,0,0,1-.1-.08h.21Z"/><path class="cls-18" d="M59.61,88.45h0v0Z"/><path class="cls-18" d="M59.77,88.38s0,0-.06,0l.1,0Z"/><path class="cls-18" d="M65.23,93.57h0c-.09-.12-.15-.22-.21-.29Z"/><path class="cls-18" d="M41.62,96.17a.45.45,0,0,0,0-.11l.16.12Z"/><path class="cls-18" d="M42,98.09v0h0Z"/><path class="cls-18" d="M42.15,98.14s0,0,0-.06l0,.07Z"/><path class="cls-18" d="M43.22,104.85l0,0c0-.13,0-.24,0-.31C43.2,104.62,43.21,104.74,43.22,104.85Z"/><path class="cls-18" d="M10.48,85.2h0a0,0,0,0,0,0,0S10.49,85.2,10.48,85.2Z"/><path class="cls-18" d="M10.35,85.09l0,0h.11Z"/><path class="cls-18" d="M12.41,84.21l-.09-.1.2,0Z"/><path class="cls-18" d="M39.13,53.13c.37-.35.6-.54.62-.49s0,.07-.11.26h0c-1.46,1.13-2.09,2-2.69,2.51.92-1,1.73-1.81,2.24-2.31Z"/></g><path class="cls-11" d="M194.59,125s-.29-1.12,12.83-2.1,44.42-3.62,53.65,1.4c0,0-18.61,6.55-47.59,5.16C213.48,129.41,198.34,128.85,194.59,125Z"/><path class="cls-19" d="M197.07,124.86s2.07-.56,14.1-1.54c12.88-1,39-2.54,47.49.75,0,0-16.62,3.52-43.8,3.72C214.86,127.79,200.52,127.42,197.07,124.86Z"/><path class="cls-11" d="M255,122.35a2.51,2.51,0,0,1-.41.66,22.14,22.14,0,0,1,4.16,1.06s-16.62,3.52-43.8,3.72c0,0-14.34-.37-17.79-2.93,0,0,.41-.11,1.88-.31a3.69,3.69,0,0,1-1.07-.65c-3.41.58-3.29,1-3.29,1s7.35,4.6,30.14,3.62,36.34-4.32,36.34-4.32A21.18,21.18,0,0,0,255,122.35Z"/><path class="cls-20" d="M201.29,135.8s-3.44,2-3.44,1.95.07.78,5.1,2,10.09,2.55,17.77,1.7,12.68.44,19,.06,32-5.17,17.41-5S201.29,135.8,201.29,135.8Z"/><path class="cls-21" d="M261.2,124.25s-13.56,3.35-36.34,4.32S194.72,125,194.72,125a36.37,36.37,0,0,0,4.47,11s7.42,2.1,11.4,2.88l9.63.63c1.61.14,3.19.24,4.74.31l6.37.41s11.93.12,18.6-3.71h0A26.27,26.27,0,0,0,261.2,124.25Z"/><path class="cls-22" d="M261.2,124.25s-13.56,3.35-36.34,4.32S194.72,125,194.72,125a36.37,36.37,0,0,0,4.47,11s7.42,2.1,11.4,2.88l9.63.63c1.61.14,3.19.24,4.74.31l6.37.41s11.93.12,18.6-3.71h0A26.27,26.27,0,0,0,261.2,124.25Z"/><path class="cls-11" d="M261.2,124.25s-13.56,3.35-36.34,4.32S194.72,125,194.72,125a36.37,36.37,0,0,0,4.47,11s7.42,2.1,11.4,2.88l9.63.63c1.61.14,3.19.24,4.74.31l6.37.41s11.93.12,18.6-3.71h0A26.27,26.27,0,0,0,261.2,124.25Z"/><path class="cls-23" d="M209.28,128.32c-10.72-1-14.56-3.37-14.56-3.37a36.36,36.36,0,0,0,4.47,11s7.42,2.09,11.4,2.88l.53,0A55.49,55.49,0,0,1,209.28,128.32Z"/><path class="cls-24" d="M261.2,124.25s-3.81.94-10.77,2a125.9,125.9,0,0,1-11,12.87c-.18.2-.37.39-.56.59,3.66-.48,7.92-1.41,11-3.19h0A26.27,26.27,0,0,0,261.2,124.25Z"/><path class="cls-25" d="M224.69,130.93c19.93-.87,32.74-3.62,35.25-4.2.3-.52.46-.83.46-.83s-13.4,3.33-35.71,4.3-29.59-3.65-29.59-3.65a7.25,7.25,0,0,0,.22.86C196.67,128.14,204.57,131.81,224.69,130.93Z"/><path class="cls-26" d="M259.39,127.59a211.44,211.44,0,0,1-34.7,4.07c-22.32,1-29.59-3.65-29.59-3.65a7.25,7.25,0,0,0,.22.86c1.35.73,9.25,4.4,29.37,3.52a211.46,211.46,0,0,0,34.16-4S259.4,127.58,259.39,127.59Z"/><g class="cls-27"><g class="cls-28"><path class="cls-29" d="M249.11,255.62c0-1.29,3-2.22,6.53-2.07s6.4,1.32,6.35,2.61-3,2.22-6.54,2.07S249.05,256.92,249.11,255.62Z"/><path class="cls-30" d="M262.18,251.48c.06-1.29,3-2.22,6.54-2.07s6.39,1.32,6.34,2.61-3,2.22-6.54,2.07S262.13,252.77,262.18,251.48Z"/></g><g class="cls-28"><path class="cls-31" d="M292.87,258.45c-.1-1.29,2.7-2.55,6.25-2.8s6.51.57,6.6,1.87-2.71,2.54-6.26,2.8S293,259.74,292.87,258.45Z"/><path class="cls-32" d="M305.38,252.84c-.09-1.29,2.71-2.54,6.26-2.8s6.5.58,6.59,1.87-2.7,2.54-6.25,2.8S305.47,254.13,305.38,252.84Z"/></g><g class="cls-28"><path class="cls-33" d="M307.5,268.34c-.09-1.29,2.71-2.54,6.26-2.8s6.5.58,6.59,1.87-2.7,2.54-6.25,2.8S307.59,269.63,307.5,268.34Z"/><path class="cls-34" d="M320,262.73c-.09-1.29,2.71-2.54,6.26-2.8s6.5.58,6.6,1.87-2.71,2.54-6.26,2.8S320.11,264,320,262.73Z"/></g><g class="cls-28"><path class="cls-35" d="M330.91,269.73c-.1-1.29,2.7-2.55,6.25-2.81s6.51.58,6.6,1.87-2.71,2.55-6.26,2.81S331,271,330.91,269.73Z"/><path class="cls-36" d="M343.42,264.12c-.09-1.29,2.71-2.55,6.26-2.81s6.5.58,6.6,1.87-2.71,2.55-6.26,2.81S343.51,265.41,343.42,264.12Z"/></g><g class="cls-28"><path class="cls-37" d="M273,256.08c-.1-1.29,2.68-2.58,6.23-2.88s6.51.5,6.62,1.79-2.68,2.58-6.23,2.88S273.14,257.37,273,256.08Z"/><path class="cls-38" d="M285.48,250.32c-.11-1.29,2.68-2.58,6.22-2.88s6.51.51,6.62,1.79-2.67,2.58-6.22,2.88S285.59,251.61,285.48,250.32Z"/></g></g></g></g></svg>