<svg xmlns="http://www.w3.org/2000/svg" xmlns:xlink="http://www.w3.org/1999/xlink" viewBox="0 0 358 193.06"><defs><style>.cls-1,.cls-2,.cls-7{opacity:0.3;}.cls-1{fill:url(#linear-gradient);}.cls-2{fill:url(#linear-gradient-2);}.cls-3{opacity:0.4;fill:url(#linear-gradient-3);}.cls-4{fill:url(#radial-gradient);}.cls-5{fill:url(#radial-gradient-2);}.cls-6{fill:url(#radial-gradient-3);}.cls-8{fill:url(#radial-gradient-4);}.cls-107,.cls-109,.cls-114,.cls-116,.cls-12,.cls-121,.cls-123,.cls-128,.cls-130,.cls-17,.cls-19,.cls-24,.cls-26,.cls-31,.cls-33,.cls-38,.cls-40,.cls-45,.cls-47,.cls-52,.cls-54,.cls-59,.cls-61,.cls-66,.cls-68,.cls-73,.cls-75,.cls-80,.cls-82,.cls-87,.cls-89,.cls-9,.cls-94,.cls-96,.cls-99{opacity:0.2;}.cls-9{fill:url(#radial-gradient-5);}.cls-10{opacity:0.1;}.cls-11{fill:url(#radial-gradient-6);}.cls-12{fill:url(#radial-gradient-7);}.cls-13{fill:url(#radial-gradient-8);}.cls-14{fill:url(#radial-gradient-9);}.cls-15{fill:url(#radial-gradient-10);}.cls-16{fill:url(#radial-gradient-11);}.cls-17{fill:url(#radial-gradient-12);}.cls-18{fill:url(#radial-gradient-13);}.cls-19{fill:url(#radial-gradient-14);}.cls-20{fill:url(#radial-gradient-15);}.cls-21{fill:url(#radial-gradient-16);}.cls-22{fill:url(#radial-gradient-17);}.cls-23{fill:url(#radial-gradient-18);}.cls-24{fill:url(#radial-gradient-19);}.cls-25{fill:url(#radial-gradient-20);}.cls-26{fill:url(#radial-gradient-21);}.cls-27{fill:url(#radial-gradient-22);}.cls-28{fill:url(#radial-gradient-23);}.cls-29{fill:url(#radial-gradient-24);}.cls-30{fill:url(#radial-gradient-25);}.cls-31{fill:url(#radial-gradient-26);}.cls-32{fill:url(#radial-gradient-27);}.cls-33{fill:url(#radial-gradient-28);}.cls-34{fill:url(#radial-gradient-29);}.cls-35{fill:url(#radial-gradient-30);}.cls-36{fill:url(#radial-gradient-31);}.cls-37{fill:url(#radial-gradient-32);}.cls-38{fill:url(#radial-gradient-33);}.cls-39{fill:url(#radial-gradient-34);}.cls-40{fill:url(#radial-gradient-35);}.cls-41{fill:url(#radial-gradient-36);}.cls-42{fill:url(#radial-gradient-37);}.cls-43{fill:url(#radial-gradient-38);}.cls-44{fill:url(#radial-gradient-39);}.cls-45{fill:url(#radial-gradient-40);}.cls-46{fill:url(#radial-gradient-41);}.cls-47{fill:url(#radial-gradient-42);}.cls-48{fill:url(#radial-gradient-43);}.cls-49{fill:url(#radial-gradient-44);}.cls-50{fill:url(#radial-gradient-45);}.cls-51{fill:url(#radial-gradient-46);}.cls-52{fill:url(#radial-gradient-47);}.cls-53{fill:url(#radial-gradient-48);}.cls-54{fill:url(#radial-gradient-49);}.cls-55{fill:url(#radial-gradient-50);}.cls-56{fill:url(#radial-gradient-51);}.cls-57{fill:url(#radial-gradient-52);}.cls-58{fill:url(#radial-gradient-53);}.cls-59{fill:url(#radial-gradient-54);}.cls-60{fill:url(#radial-gradient-55);}.cls-61{fill:url(#radial-gradient-56);}.cls-62{fill:url(#radial-gradient-57);}.cls-63{fill:url(#radial-gradient-58);}.cls-64{fill:url(#radial-gradient-59);}.cls-65{fill:url(#radial-gradient-60);}.cls-66{fill:url(#radial-gradient-61);}.cls-67{fill:url(#radial-gradient-62);}.cls-68{fill:url(#radial-gradient-63);}.cls-69{fill:url(#radial-gradient-64);}.cls-70{fill:url(#radial-gradient-65);}.cls-71{fill:url(#radial-gradient-66);}.cls-72{fill:url(#radial-gradient-67);}.cls-73{fill:url(#radial-gradient-68);}.cls-74{fill:url(#radial-gradient-69);}.cls-75{fill:url(#radial-gradient-70);}.cls-76{fill:url(#radial-gradient-71);}.cls-77{fill:url(#radial-gradient-72);}.cls-78{fill:url(#radial-gradient-73);}.cls-79{fill:url(#radial-gradient-74);}.cls-80{fill:url(#radial-gradient-75);}.cls-81{fill:url(#radial-gradient-76);}.cls-82{fill:url(#radial-gradient-77);}.cls-83{fill:url(#radial-gradient-78);}.cls-84{fill:url(#radial-gradient-79);}.cls-85{fill:url(#radial-gradient-80);}.cls-86{fill:url(#radial-gradient-81);}.cls-87{fill:url(#radial-gradient-82);}.cls-88{fill:url(#radial-gradient-83);}.cls-89{fill:url(#radial-gradient-84);}.cls-90{fill:url(#radial-gradient-85);}.cls-91{fill:url(#radial-gradient-86);}.cls-92{fill:url(#radial-gradient-87);}.cls-93{fill:url(#radial-gradient-88);}.cls-94{fill:url(#radial-gradient-89);}.cls-95{fill:url(#radial-gradient-90);}.cls-96{fill:url(#radial-gradient-91);}.cls-97{opacity:0.7;}.cls-98{fill:url(#radial-gradient-92);}.cls-99{fill:url(#radial-gradient-93);}.cls-100{fill:url(#radial-gradient-94);}.cls-101{fill:url(#radial-gradient-95);}.cls-102{fill:url(#radial-gradient-96);}.cls-103{fill:url(#radial-gradient-97);}.cls-104{fill:url(#radial-gradient-98);}.cls-105{fill:url(#radial-gradient-99);}.cls-106{fill:url(#radial-gradient-100);}.cls-107{fill:url(#radial-gradient-101);}.cls-108{fill:url(#radial-gradient-102);}.cls-109{fill:url(#radial-gradient-103);}.cls-110{fill:url(#radial-gradient-104);}.cls-111{fill:url(#radial-gradient-105);}.cls-112{fill:url(#radial-gradient-106);}.cls-113{fill:url(#radial-gradient-107);}.cls-114{fill:url(#radial-gradient-108);}.cls-115{fill:url(#radial-gradient-109);}.cls-116{fill:url(#radial-gradient-110);}.cls-117{fill:url(#radial-gradient-111);}.cls-118{fill:url(#radial-gradient-112);}.cls-119{fill:url(#radial-gradient-113);}.cls-120{fill:url(#radial-gradient-114);}.cls-121{fill:url(#radial-gradient-115);}.cls-122{fill:url(#radial-gradient-116);}.cls-123{fill:url(#radial-gradient-117);}.cls-124{fill:url(#radial-gradient-118);}.cls-125{fill:url(#radial-gradient-119);}.cls-126{fill:url(#radial-gradient-120);}.cls-127{fill:url(#radial-gradient-121);}.cls-128{fill:url(#radial-gradient-122);}.cls-129{fill:url(#radial-gradient-123);}.cls-130{fill:url(#radial-gradient-124);}</style><linearGradient id="linear-gradient" x1="47.5" y1="153.26" x2="47.5" y2="207.49" gradientUnits="userSpaceOnUse"><stop offset="0" stop-color="#fff"/><stop offset="0.06" stop-color="#fff" stop-opacity="0.86"/><stop offset="0.16" stop-color="#fff" stop-opacity="0.66"/><stop offset="0.26" stop-color="#fff" stop-opacity="0.48"/><stop offset="0.37" stop-color="#fff" stop-opacity="0.33"/><stop offset="0.48" stop-color="#fff" stop-opacity="0.21"/><stop offset="0.59" stop-color="#fff" stop-opacity="0.12"/><stop offset="0.71" stop-color="#fff" stop-opacity="0.05"/><stop offset="0.84" stop-color="#fff" stop-opacity="0.01"/><stop offset="1" stop-color="#fff" stop-opacity="0"/></linearGradient><linearGradient id="linear-gradient-2" x1="272.9" y1="107.42" x2="272.9" y2="183.23" gradientUnits="userSpaceOnUse"><stop offset="0" stop-color="#fff"/><stop offset="0.08" stop-color="#fff" stop-opacity="0.77"/><stop offset="0.19" stop-color="#fff" stop-opacity="0.5"/><stop offset="0.28" stop-color="#fff" stop-opacity="0.28"/><stop offset="0.36" stop-color="#fff" stop-opacity="0.13"/><stop offset="0.42" stop-color="#fff" stop-opacity="0.03"/><stop offset="0.46" stop-color="#fff" stop-opacity="0"/></linearGradient><linearGradient id="linear-gradient-3" x1="315.63" y1="79.43" x2="315.63" y2="152.35" gradientUnits="userSpaceOnUse"><stop offset="0" stop-color="#fff"/><stop offset="0.04" stop-color="#fff" stop-opacity="0.86"/><stop offset="0.11" stop-color="#fff" stop-opacity="0.66"/><stop offset="0.17" stop-color="#fff" stop-opacity="0.48"/><stop offset="0.24" stop-color="#fff" stop-opacity="0.33"/><stop offset="0.32" stop-color="#fff" stop-opacity="0.21"/><stop offset="0.39" stop-color="#fff" stop-opacity="0.12"/><stop offset="0.47" stop-color="#fff" stop-opacity="0.05"/><stop offset="0.56" stop-color="#fff" stop-opacity="0.01"/><stop offset="0.66" stop-color="#fff" stop-opacity="0"/></linearGradient><radialGradient id="radial-gradient" cx="153.85" cy="-1040.14" r="0.99" gradientTransform="matrix(-7.35, 0.46, -0.07, -1.11, 1125.28, -1183.19)" gradientUnits="userSpaceOnUse"><stop offset="0" stop-color="#fff"/><stop offset="0.28" stop-color="#fff" stop-opacity="0.3"/><stop offset="1" stop-color="#ecf5f7" stop-opacity="0"/></radialGradient><radialGradient id="radial-gradient-2" cx="154.37" cy="-1036.51" r="0.99" gradientTransform="matrix(0.06, 7.36, 1.12, -0.01, 1213.82, -1100.37)" xlink:href="#radial-gradient"/><radialGradient id="radial-gradient-3" cx="489.15" cy="449.22" r="4.11" gradientTransform="matrix(1, -0.06, 0.06, 1, -448.25, -372.19)" xlink:href="#radial-gradient"/><radialGradient id="radial-gradient-4" cx="138.05" cy="506.6" r="0.51" gradientTransform="matrix(0.39, -8.11, 7.9, 0.38, -3986.65, 974.06)" xlink:href="#radial-gradient"/><radialGradient id="radial-gradient-5" cx="138.05" cy="506.6" r="0.55" gradientTransform="matrix(0.39, -8.11, 7.9, 0.38, -3986.65, 974.06)" xlink:href="#radial-gradient"/><radialGradient id="radial-gradient-6" cx="138.05" cy="506.6" r="0.62" gradientTransform="matrix(0.39, -8.11, 7.9, 0.38, -3986.65, 974.06)" xlink:href="#radial-gradient"/><radialGradient id="radial-gradient-7" cx="138.05" cy="506.6" r="0.67" gradientTransform="matrix(0.39, -8.11, 7.9, 0.38, -3986.65, 974.06)" xlink:href="#radial-gradient"/><radialGradient id="radial-gradient-8" cx="154.61" cy="-1011.5" r="0.34" xlink:href="#radial-gradient"/><radialGradient id="radial-gradient-9" cx="150.09" cy="-1042.82" r="0.34" gradientTransform="matrix(0.06, 7.36, 1.12, -0.01, 1213.82, -1100.37)" xlink:href="#radial-gradient"/><radialGradient id="radial-gradient-10" cx="483.69" cy="417.38" r="1.41" gradientTransform="matrix(1, -0.06, 0.06, 1, -448.25, -372.19)" xlink:href="#radial-gradient"/><radialGradient id="radial-gradient-11" cx="141.88" cy="505.47" r="0.17" gradientTransform="matrix(0.39, -8.11, 7.9, 0.38, -3986.65, 974.06)" xlink:href="#radial-gradient"/><radialGradient id="radial-gradient-12" cx="141.88" cy="505.47" r="0.19" gradientTransform="matrix(0.39, -8.11, 7.9, 0.38, -3986.65, 974.06)" xlink:href="#radial-gradient"/><radialGradient id="radial-gradient-13" cx="141.88" cy="505.47" r="0.21" gradientTransform="matrix(0.39, -8.11, 7.9, 0.38, -3986.65, 974.06)" xlink:href="#radial-gradient"/><radialGradient id="radial-gradient-14" cx="141.88" cy="505.47" r="0.23" gradientTransform="matrix(0.39, -8.11, 7.9, 0.38, -3986.65, 974.06)" xlink:href="#radial-gradient"/><radialGradient id="radial-gradient-15" cx="157.05" cy="-1080.59" r="0.4" xlink:href="#radial-gradient"/><radialGradient id="radial-gradient-16" cx="160.67" cy="-1055.14" r="0.4" gradientTransform="matrix(0.06, 7.36, 1.12, -0.01, 1213.82, -1100.37)" xlink:href="#radial-gradient"/><radialGradient id="radial-gradient-17" cx="465.82" cy="494.43" r="1.64" gradientTransform="matrix(1, -0.06, 0.06, 1, -448.25, -372.19)" xlink:href="#radial-gradient"/><radialGradient id="radial-gradient-18" cx="132.21" cy="504.29" r="0.2" gradientTransform="matrix(0.39, -8.11, 7.9, 0.38, -3986.65, 974.06)" xlink:href="#radial-gradient"/><radialGradient id="radial-gradient-19" cx="132.21" cy="504.3" r="0.22" gradientTransform="matrix(0.39, -8.11, 7.9, 0.38, -3986.65, 974.06)" xlink:href="#radial-gradient"/><radialGradient id="radial-gradient-20" cx="132.21" cy="504.29" r="0.25" gradientTransform="matrix(0.39, -8.11, 7.9, 0.38, -3986.65, 974.06)" xlink:href="#radial-gradient"/><radialGradient id="radial-gradient-21" cx="132.2" cy="504.3" r="0.27" gradientTransform="matrix(0.39, -8.11, 7.9, 0.38, -3986.65, 974.06)" xlink:href="#radial-gradient"/><radialGradient id="radial-gradient-22" cx="157.36" cy="-1026.79" r="0.4" xlink:href="#radial-gradient"/><radialGradient id="radial-gradient-23" cx="152.55" cy="-1060.12" r="0.4" gradientTransform="matrix(0.06, 7.36, 1.12, -0.01, 1213.82, -1100.37)" xlink:href="#radial-gradient"/><radialGradient id="radial-gradient-24" cx="463.47" cy="434.44" r="1.64" gradientTransform="matrix(1, -0.06, 0.06, 1, -448.25, -372.19)" xlink:href="#radial-gradient"/><radialGradient id="radial-gradient-25" cx="139.52" cy="503.16" r="0.2" gradientTransform="matrix(0.39, -8.11, 7.9, 0.38, -3986.65, 974.06)" xlink:href="#radial-gradient"/><radialGradient id="radial-gradient-26" cx="139.52" cy="503.17" r="0.22" gradientTransform="matrix(0.39, -8.11, 7.9, 0.38, -3986.65, 974.06)" xlink:href="#radial-gradient"/><radialGradient id="radial-gradient-27" cx="139.52" cy="503.17" r="0.25" gradientTransform="matrix(0.39, -8.11, 7.9, 0.38, -3986.65, 974.06)" xlink:href="#radial-gradient"/><radialGradient id="radial-gradient-28" cx="139.51" cy="503.17" r="0.27" gradientTransform="matrix(0.39, -8.11, 7.9, 0.38, -3986.65, 974.06)" xlink:href="#radial-gradient"/><radialGradient id="radial-gradient-29" cx="159.87" cy="-999.04" r="0.4" xlink:href="#radial-gradient"/><radialGradient id="radial-gradient-30" cx="148.49" cy="-1078.21" r="0.4" gradientTransform="matrix(0.06, 7.36, 1.12, -0.01, 1213.82, -1100.37)" xlink:href="#radial-gradient"/><radialGradient id="radial-gradient-31" cx="444.93" cy="403.51" r="1.64" gradientTransform="matrix(1, -0.06, 0.06, 1, -448.25, -372.19)" xlink:href="#radial-gradient"/><radialGradient id="radial-gradient-32" cx="143.05" cy="500.4" r="0.2" gradientTransform="matrix(0.39, -8.11, 7.9, 0.38, -3986.65, 974.06)" xlink:href="#radial-gradient"/><radialGradient id="radial-gradient-33" cx="143.05" cy="500.41" r="0.22" gradientTransform="matrix(0.39, -8.11, 7.9, 0.38, -3986.65, 974.06)" xlink:href="#radial-gradient"/><radialGradient id="radial-gradient-34" cx="143.05" cy="500.4" r="0.25" gradientTransform="matrix(0.39, -8.11, 7.9, 0.38, -3986.65, 974.06)" xlink:href="#radial-gradient"/><radialGradient id="radial-gradient-35" cx="143.05" cy="500.41" r="0.27" gradientTransform="matrix(0.39, -8.11, 7.9, 0.38, -3986.65, 974.06)" xlink:href="#radial-gradient"/><radialGradient id="radial-gradient-36" cx="116.65" cy="-1020.73" r="0.55" xlink:href="#radial-gradient"/><radialGradient id="radial-gradient-37" cx="149.41" cy="-792.22" r="0.55" gradientTransform="matrix(0.06, 7.36, 1.12, -0.01, 1213.82, -1100.37)" xlink:href="#radial-gradient"/><radialGradient id="radial-gradient-38" cx="763.04" cy="427.39" r="2.27" gradientTransform="matrix(1, -0.06, 0.06, 1, -448.25, -372.19)" xlink:href="#radial-gradient"/><radialGradient id="radial-gradient-39" cx="144.43" cy="540.73" r="0.28" gradientTransform="matrix(0.39, -8.11, 7.9, 0.38, -3986.65, 974.06)" xlink:href="#radial-gradient"/><radialGradient id="radial-gradient-40" cx="144.43" cy="540.73" r="0.3" gradientTransform="matrix(0.39, -8.11, 7.9, 0.38, -3986.65, 974.06)" xlink:href="#radial-gradient"/><radialGradient id="radial-gradient-41" cx="144.43" cy="540.73" r="0.34" gradientTransform="matrix(0.39, -8.11, 7.9, 0.38, -3986.65, 974.06)" xlink:href="#radial-gradient"/><radialGradient id="radial-gradient-42" cx="144.43" cy="540.73" r="0.37" gradientTransform="matrix(0.39, -8.11, 7.9, 0.38, -3986.65, 974.06)" xlink:href="#radial-gradient"/><radialGradient id="radial-gradient-43" cx="121.28" cy="-1022.5" r="0.55" xlink:href="#radial-gradient"/><radialGradient id="radial-gradient-44" cx="149.93" cy="-822.63" r="0.55" gradientTransform="matrix(0.06, 7.36, 1.12, -0.01, 1213.82, -1100.37)" xlink:href="#radial-gradient"/><radialGradient id="radial-gradient-45" cx="728.98" cy="429.4" r="2.27" gradientTransform="matrix(1, -0.06, 0.06, 1, -448.25, -372.19)" xlink:href="#radial-gradient"/><radialGradient id="radial-gradient-46" cx="143.73" cy="536.48" r="0.28" gradientTransform="matrix(0.39, -8.11, 7.9, 0.38, -3986.65, 974.06)" xlink:href="#radial-gradient"/><radialGradient id="radial-gradient-47" cx="143.72" cy="536.48" r="0.3" gradientTransform="matrix(0.39, -8.11, 7.9, 0.38, -3986.65, 974.06)" xlink:href="#radial-gradient"/><radialGradient id="radial-gradient-48" cx="143.72" cy="536.48" r="0.34" gradientTransform="matrix(0.39, -8.11, 7.9, 0.38, -3986.65, 974.06)" xlink:href="#radial-gradient"/><radialGradient id="radial-gradient-49" cx="143.72" cy="536.48" r="0.37" gradientTransform="matrix(0.39, -8.11, 7.9, 0.38, -3986.65, 974.06)" xlink:href="#radial-gradient"/><radialGradient id="radial-gradient-50" cx="115.54" cy="-1054.22" r="0.29" xlink:href="#radial-gradient"/><radialGradient id="radial-gradient-51" cx="154.42" cy="-782.99" r="0.29" gradientTransform="matrix(0.06, 7.36, 1.12, -0.01, 1213.82, -1100.37)" xlink:href="#radial-gradient"/><radialGradient id="radial-gradient-52" cx="771.3" cy="464.76" r="1.21" gradientTransform="matrix(1, -0.06, 0.06, 1, -448.25, -372.19)" xlink:href="#radial-gradient"/><radialGradient id="radial-gradient-53" cx="139.97" cy="542.29" r="0.15" gradientTransform="matrix(0.39, -8.11, 7.9, 0.38, -3986.65, 974.06)" xlink:href="#radial-gradient"/><radialGradient id="radial-gradient-54" cx="139.97" cy="542.29" r="0.16" gradientTransform="matrix(0.39, -8.11, 7.9, 0.38, -3986.65, 974.06)" xlink:href="#radial-gradient"/><radialGradient id="radial-gradient-55" cx="139.97" cy="542.29" r="0.18" gradientTransform="matrix(0.39, -8.11, 7.9, 0.38, -3986.65, 974.06)" xlink:href="#radial-gradient"/><radialGradient id="radial-gradient-56" cx="139.97" cy="542.29" r="0.2" gradientTransform="matrix(0.39, -8.11, 7.9, 0.38, -3986.65, 974.06)" xlink:href="#radial-gradient"/><radialGradient id="radial-gradient-57" cx="126.47" cy="-1014.29" r="0.29" xlink:href="#radial-gradient"/><radialGradient id="radial-gradient-58" cx="148.98" cy="-857.19" r="0.29" gradientTransform="matrix(0.06, 7.36, 1.12, -0.01, 1213.82, -1100.37)" xlink:href="#radial-gradient"/><radialGradient id="radial-gradient-59" cx="690.82" cy="420.31" r="1.21" gradientTransform="matrix(1, -0.06, 0.06, 1, -448.25, -372.19)" xlink:href="#radial-gradient"/><radialGradient id="radial-gradient-60" cx="144.32" cy="531.55" r="0.15" gradientTransform="matrix(0.39, -8.11, 7.9, 0.38, -3986.65, 974.06)" xlink:href="#radial-gradient"/><radialGradient id="radial-gradient-61" cx="144.32" cy="531.56" r="0.16" gradientTransform="matrix(0.39, -8.11, 7.9, 0.38, -3986.65, 974.06)" xlink:href="#radial-gradient"/><radialGradient id="radial-gradient-62" cx="144.32" cy="531.55" r="0.18" gradientTransform="matrix(0.39, -8.11, 7.9, 0.38, -3986.65, 974.06)" xlink:href="#radial-gradient"/><radialGradient id="radial-gradient-63" cx="144.32" cy="531.56" r="0.2" gradientTransform="matrix(0.39, -8.11, 7.9, 0.38, -3986.65, 974.06)" xlink:href="#radial-gradient"/><radialGradient id="radial-gradient-64" cx="119.4" cy="-1017.6" r="0.29" xlink:href="#radial-gradient"/><radialGradient id="radial-gradient-65" cx="149.1" cy="-810.44" r="0.29" gradientTransform="matrix(0.06, 7.36, 1.12, -0.01, 1213.82, -1100.37)" xlink:href="#radial-gradient"/><radialGradient id="radial-gradient-66" cx="742.83" cy="423.96" r="1.21" gradientTransform="matrix(1, -0.06, 0.06, 1, -448.25, -372.19)" xlink:href="#radial-gradient"/><radialGradient id="radial-gradient-67" cx="144.58" cy="538.14" r="0.15" gradientTransform="matrix(0.39, -8.11, 7.9, 0.38, -3986.65, 974.06)" xlink:href="#radial-gradient"/><radialGradient id="radial-gradient-68" cx="144.58" cy="538.14" r="0.16" gradientTransform="matrix(0.39, -8.11, 7.9, 0.38, -3986.65, 974.06)" xlink:href="#radial-gradient"/><radialGradient id="radial-gradient-69" cx="144.58" cy="538.14" r="0.18" gradientTransform="matrix(0.39, -8.11, 7.9, 0.38, -3986.65, 974.06)" xlink:href="#radial-gradient"/><radialGradient id="radial-gradient-70" cx="144.58" cy="538.15" r="0.2" gradientTransform="matrix(0.39, -8.11, 7.9, 0.38, -3986.65, 974.06)" xlink:href="#radial-gradient"/><radialGradient id="radial-gradient-71" cx="118.75" cy="-1033.35" r="0.11" xlink:href="#radial-gradient"/><radialGradient id="radial-gradient-72" cx="151.44" cy="-805.2" r="0.11" gradientTransform="matrix(0.06, 7.36, 1.12, -0.01, 1213.82, -1100.37)" xlink:href="#radial-gradient"/><radialGradient id="radial-gradient-73" cx="747.71" cy="441.54" r="0.46" gradientTransform="matrix(1, -0.06, 0.06, 1, -448.25, -372.19)" xlink:href="#radial-gradient"/><radialGradient id="radial-gradient-74" cx="142.5" cy="539" r="0.06" gradientTransform="matrix(0.39, -8.11, 7.9, 0.38, -3986.65, 974.06)" xlink:href="#radial-gradient"/><radialGradient id="radial-gradient-75" cx="142.5" cy="539" r="0.06" gradientTransform="matrix(0.39, -8.11, 7.9, 0.38, -3986.65, 974.06)" xlink:href="#radial-gradient"/><radialGradient id="radial-gradient-76" cx="142.5" cy="539" r="0.07" gradientTransform="matrix(0.39, -8.11, 7.9, 0.38, -3986.65, 974.06)" xlink:href="#radial-gradient"/><radialGradient id="radial-gradient-77" cx="142.5" cy="539" r="0.08" gradientTransform="matrix(0.39, -8.11, 7.9, 0.38, -3986.65, 974.06)" xlink:href="#radial-gradient"/><radialGradient id="radial-gradient-78" cx="118.95" cy="-1045.14" r="0.29" xlink:href="#radial-gradient"/><radialGradient id="radial-gradient-79" cx="153.24" cy="-805.98" r="0.29" gradientTransform="matrix(0.06, 7.36, 1.12, -0.01, 1213.82, -1100.37)" xlink:href="#radial-gradient"/><radialGradient id="radial-gradient-80" cx="746.17" cy="454.66" r="1.21" gradientTransform="matrix(1, -0.06, 0.06, 1, -448.25, -372.19)" xlink:href="#radial-gradient"/><radialGradient id="radial-gradient-81" cx="140.87" cy="538.99" r="0.15" gradientTransform="matrix(0.39, -8.11, 7.9, 0.38, -3986.65, 974.06)" xlink:href="#radial-gradient"/><radialGradient id="radial-gradient-82" cx="140.87" cy="538.99" r="0.16" gradientTransform="matrix(0.39, -8.11, 7.9, 0.38, -3986.65, 974.06)" xlink:href="#radial-gradient"/><radialGradient id="radial-gradient-83" cx="140.87" cy="538.99" r="0.18" gradientTransform="matrix(0.39, -8.11, 7.9, 0.38, -3986.65, 974.06)" xlink:href="#radial-gradient"/><radialGradient id="radial-gradient-84" cx="140.87" cy="538.99" r="0.2" gradientTransform="matrix(0.39, -8.11, 7.9, 0.38, -3986.65, 974.06)" xlink:href="#radial-gradient"/><radialGradient id="radial-gradient-85" cx="123.76" cy="-1049.11" r="0.29" xlink:href="#radial-gradient"/><radialGradient id="radial-gradient-86" cx="154.1" cy="-837.42" r="0.29" gradientTransform="matrix(0.06, 7.36, 1.12, -0.01, 1213.82, -1100.37)" xlink:href="#radial-gradient"/><radialGradient id="radial-gradient-87" cx="710.82" cy="459.12" r="1.21" gradientTransform="matrix(1, -0.06, 0.06, 1, -448.25, -372.19)" xlink:href="#radial-gradient"/><radialGradient id="radial-gradient-88" cx="139.84" cy="534.61" r="0.15" gradientTransform="matrix(0.39, -8.11, 7.9, 0.38, -3986.65, 974.06)" xlink:href="#radial-gradient"/><radialGradient id="radial-gradient-89" cx="139.84" cy="534.61" r="0.16" gradientTransform="matrix(0.39, -8.11, 7.9, 0.38, -3986.65, 974.06)" xlink:href="#radial-gradient"/><radialGradient id="radial-gradient-90" cx="139.84" cy="534.61" r="0.18" gradientTransform="matrix(0.39, -8.11, 7.9, 0.38, -3986.65, 974.06)" xlink:href="#radial-gradient"/><radialGradient id="radial-gradient-91" cx="139.84" cy="534.61" r="0.2" gradientTransform="matrix(0.39, -8.11, 7.9, 0.38, -3986.65, 974.06)" xlink:href="#radial-gradient"/><radialGradient id="radial-gradient-92" cx="139.11" cy="530.55" r="0.24" gradientTransform="matrix(0.47, -8.11, 7.89, 0.45, -3968.5, 902.37)" gradientUnits="userSpaceOnUse"><stop offset="0.76" stop-color="#fff" stop-opacity="0.03"/><stop offset="0.82" stop-color="#fff" stop-opacity="0.95"/><stop offset="0.86" stop-color="#fff" stop-opacity="0.03"/></radialGradient><radialGradient id="radial-gradient-93" cx="139.11" cy="530.55" r="0.25" xlink:href="#radial-gradient-92"/><radialGradient id="radial-gradient-94" cx="128" cy="-1050.01" r="0.46" gradientTransform="matrix(-7.35, 0.39, -0.06, -1.11, 1162.65, -1204.6)" gradientUnits="userSpaceOnUse"><stop offset="0" stop-color="#fff"/><stop offset="0.04" stop-color="#fff"/><stop offset="0.25" stop-color="#fff"/><stop offset="0.94" stop-color="#fff" stop-opacity="0"/></radialGradient><radialGradient id="radial-gradient-95" cx="154.68" cy="-864.55" r="0.46" gradientTransform="matrix(-0.01, 7.36, 1.12, 0, 1249.45, -1122.64)" gradientUnits="userSpaceOnUse"><stop offset="0" stop-color="#fff"/><stop offset="0.04" stop-color="#fff"/><stop offset="0.25" stop-color="#fff"/><stop offset="0.88" stop-color="#fff" stop-opacity="0"/></radialGradient><radialGradient id="radial-gradient-96" cx="681.11" cy="460.78" r="1.91" gradientTransform="matrix(1, -0.05, 0.05, 1, -420, -409.23)" gradientUnits="userSpaceOnUse"><stop offset="0" stop-color="#fff"/><stop offset="0.04" stop-color="#fff"/><stop offset="0.18" stop-color="#fff"/><stop offset="0.73" stop-color="#fff" stop-opacity="0"/></radialGradient><radialGradient id="radial-gradient-97" cx="141.48" cy="-1013.72" r="0.66" xlink:href="#radial-gradient"/><radialGradient id="radial-gradient-98" cx="149.7" cy="-956.32" r="0.66" gradientTransform="matrix(0.06, 7.36, 1.12, -0.01, 1213.82, -1100.37)" xlink:href="#radial-gradient"/><radialGradient id="radial-gradient-99" cx="580.22" cy="419.72" r="2.74" gradientTransform="matrix(1, -0.06, 0.06, 1, -448.25, -372.19)" xlink:href="#radial-gradient"/><radialGradient id="radial-gradient-100" cx="142.9" cy="517.64" r="0.34" gradientTransform="matrix(0.39, -8.11, 7.9, 0.38, -3986.65, 974.06)" xlink:href="#radial-gradient"/><radialGradient id="radial-gradient-101" cx="142.89" cy="517.64" r="0.36" gradientTransform="matrix(0.39, -8.11, 7.9, 0.38, -3986.65, 974.06)" xlink:href="#radial-gradient"/><radialGradient id="radial-gradient-102" cx="142.89" cy="517.64" r="0.42" gradientTransform="matrix(0.39, -8.11, 7.9, 0.38, -3986.65, 974.06)" xlink:href="#radial-gradient"/><radialGradient id="radial-gradient-103" cx="142.89" cy="517.64" r="0.45" gradientTransform="matrix(0.39, -8.11, 7.9, 0.38, -3986.65, 974.06)" xlink:href="#radial-gradient"/><radialGradient id="radial-gradient-104" cx="147.75" cy="-1003.8" r="0.35" xlink:href="#radial-gradient"/><radialGradient id="radial-gradient-105" cx="148.55" cy="-998.04" r="0.35" gradientTransform="matrix(0.06, 7.36, 1.12, -0.01, 1213.82, -1100.37)" xlink:href="#radial-gradient"/><radialGradient id="radial-gradient-106" cx="534.17" cy="408.75" r="1.47" gradientTransform="matrix(1, -0.06, 0.06, 1, -448.25, -372.19)" xlink:href="#radial-gradient"/><radialGradient id="radial-gradient-107" cx="143.62" cy="511.7" r="0.18" gradientTransform="matrix(0.39, -8.11, 7.9, 0.38, -3986.65, 974.06)" xlink:href="#radial-gradient"/><radialGradient id="radial-gradient-108" cx="143.62" cy="511.7" r="0.19" gradientTransform="matrix(0.39, -8.11, 7.9, 0.38, -3986.65, 974.06)" xlink:href="#radial-gradient"/><radialGradient id="radial-gradient-109" cx="143.62" cy="511.7" r="0.22" gradientTransform="matrix(0.39, -8.11, 7.9, 0.38, -3986.65, 974.06)" xlink:href="#radial-gradient"/><radialGradient id="radial-gradient-110" cx="143.62" cy="511.7" r="0.24" gradientTransform="matrix(0.39, -8.11, 7.9, 0.38, -3986.65, 974.06)" xlink:href="#radial-gradient"/><radialGradient id="radial-gradient-111" cx="139.22" cy="-1007.81" r="0.35" xlink:href="#radial-gradient"/><radialGradient id="radial-gradient-112" cx="148.69" cy="-941.62" r="0.35" gradientTransform="matrix(0.06, 7.36, 1.12, -0.01, 1213.82, -1100.37)" xlink:href="#radial-gradient"/><radialGradient id="radial-gradient-113" cx="596.94" cy="413.16" r="1.47" gradientTransform="matrix(1, -0.06, 0.06, 1, -448.25, -372.19)" xlink:href="#radial-gradient"/><radialGradient id="radial-gradient-114" cx="143.93" cy="519.65" r="0.18" gradientTransform="matrix(0.39, -8.11, 7.9, 0.38, -3986.65, 974.06)" xlink:href="#radial-gradient"/><radialGradient id="radial-gradient-115" cx="143.93" cy="519.65" r="0.19" gradientTransform="matrix(0.39, -8.11, 7.9, 0.38, -3986.65, 974.06)" xlink:href="#radial-gradient"/><radialGradient id="radial-gradient-116" cx="143.93" cy="519.65" r="0.22" gradientTransform="matrix(0.39, -8.11, 7.9, 0.38, -3986.65, 974.06)" xlink:href="#radial-gradient"/><radialGradient id="radial-gradient-117" cx="143.93" cy="519.65" r="0.24" gradientTransform="matrix(0.39, -8.11, 7.9, 0.38, -3986.65, 974.06)" xlink:href="#radial-gradient"/><radialGradient id="radial-gradient-118" cx="138.43" cy="-1026.81" r="0.13" xlink:href="#radial-gradient"/><radialGradient id="radial-gradient-119" cx="151.53" cy="-935.29" r="0.13" gradientTransform="matrix(0.06, 7.36, 1.12, -0.01, 1213.82, -1100.37)" xlink:href="#radial-gradient"/><radialGradient id="radial-gradient-120" cx="602.83" cy="434.37" r="0.56" gradientTransform="matrix(1, -0.06, 0.06, 1, -448.25, -372.19)" xlink:href="#radial-gradient"/><radialGradient id="radial-gradient-121" cx="141.41" cy="520.69" r="0.07" gradientTransform="matrix(0.39, -8.11, 7.9, 0.38, -3986.65, 974.06)" xlink:href="#radial-gradient"/><radialGradient id="radial-gradient-122" cx="141.41" cy="520.69" r="0.07" gradientTransform="matrix(0.39, -8.11, 7.9, 0.38, -3986.65, 974.06)" xlink:href="#radial-gradient"/><radialGradient id="radial-gradient-123" cx="141.41" cy="520.69" r="0.09" gradientTransform="matrix(0.39, -8.11, 7.9, 0.38, -3986.65, 974.06)" xlink:href="#radial-gradient"/><radialGradient id="radial-gradient-124" cx="141.41" cy="520.69" r="0.09" gradientTransform="matrix(0.39, -8.11, 7.9, 0.38, -3986.65, 974.06)" xlink:href="#radial-gradient"/></defs><g id="레이어_2" data-name="레이어 2"><g id="레이어_1-2" data-name="레이어 1"><path class="cls-1" d="M89,182.39a8.25,8.25,0,0,0,1.07-4.06c0-4.85-4.21-8.79-9.4-8.79H80.3a12.34,12.34,0,0,0-12.08-8.81,12.73,12.73,0,0,0-9.46,4.09,12.73,12.73,0,0,0-6.11-1.54h0c-.5-5.86-5.74-10.47-12.13-10.47A12.34,12.34,0,0,0,30,158.44a9.55,9.55,0,0,0-8.46.4,12.75,12.75,0,0,0-9.79-4.46A12.42,12.42,0,0,0,0,162.14v30.77H3.12V193H58.34v0l36.65.06V189.8A17.76,17.76,0,0,0,89,182.39Z"/><path class="cls-2" d="M334.05,139.5a11.66,11.66,0,0,0-11.13-9.32h-.46c-1.65-7.07-7.63-12.32-14.76-12.32a14.79,14.79,0,0,0-11.57,5.72,14.12,14.12,0,0,0-7.46-2.15h-.06c-.61-8.19-7-14.63-14.83-14.63A14.72,14.72,0,0,0,261,114.67a10.29,10.29,0,0,0-10.34.56,14.84,14.84,0,0,0-12-6.24c-8.4,0-15.21,7.29-15.21,16.27a17.3,17.3,0,0,0,.29,3.17,9.77,9.77,0,0,0-1.44-.1c-5.79,0-10.48,5-10.53,11.17Z"/><path class="cls-3" d="M358,91.74A15.05,15.05,0,0,0,354.43,95a13.55,13.55,0,0,0-7.18-2.07h-.05c-.59-7.88-6.75-14.08-14.26-14.08a14.18,14.18,0,0,0-12.35,7.56,9.93,9.93,0,0,0-9.94.54,14.29,14.29,0,0,0-11.51-6c-8.09,0-14.64,7-14.64,15.65a17,17,0,0,0,.28,3,9,9,0,0,0-1.38-.1c-5.57,0-10.09,4.8-10.14,10.74H358Z"/><path class="cls-4" d="M61,46.37c0-.61,3.19-1.3,7.21-1.56s7.31,0,7.35.64S72.33,46.76,68.31,47,61,47,61,46.37Z"/><path class="cls-5" d="M67.85,53.1c.62,0,1.08-3.28,1-7.3s-.56-7.29-1.16-7.29-1.08,3.28-1,7.3S67.24,53.1,67.85,53.1Z"/><path class="cls-6" d="M72.06,45.53a4.11,4.11,0,1,1-4.36-3.85A4.11,4.11,0,0,1,72.06,45.53Z"/><g class="cls-7"><path class="cls-8" d="M68.1,41.72a4.13,4.13,0,1,1-4.2,3.93A4.08,4.08,0,0,1,68.1,41.72Z"/><path class="cls-9" d="M68.16,41.43a4.43,4.43,0,1,1-4.51,4.22A4.37,4.37,0,0,1,68.16,41.43Z"/></g><g class="cls-10"><path class="cls-11" d="M68.16,40.79A5.08,5.08,0,1,1,63,45.62,5,5,0,0,1,68.16,40.79Z"/><path class="cls-12" d="M68.23,40.43a5.45,5.45,0,1,1-5.56,5.19A5.38,5.38,0,0,1,68.23,40.43Z"/></g><path class="cls-13" d="M58.14,14.55c0-.21,1.09-.45,2.46-.54s2.51,0,2.52.22-1.09.45-2.47.53S58.15,14.75,58.14,14.55Z"/><path class="cls-14" d="M60.49,16.85c.21,0,.37-1.12.36-2.5s-.19-2.5-.4-2.5-.37,1.12-.36,2.5S60.29,16.85,60.49,16.85Z"/><path class="cls-15" d="M61.93,14.26a1.4,1.4,0,1,1-1.49-1.32A1.41,1.41,0,0,1,61.93,14.26Z"/><g class="cls-7"><path class="cls-16" d="M60.58,13a1.41,1.41,0,1,1-1.44,1.35A1.39,1.39,0,0,1,60.58,13Z"/><path class="cls-17" d="M60.6,12.85a1.52,1.52,0,1,1-1.55,1.45A1.5,1.5,0,0,1,60.6,12.85Z"/></g><g class="cls-10"><path class="cls-18" d="M60.6,12.63a1.74,1.74,0,1,1-1.77,1.66A1.71,1.71,0,0,1,60.6,12.63Z"/><path class="cls-19" d="M60.62,12.51a1.87,1.87,0,1,1-1.9,1.78A1.85,1.85,0,0,1,60.62,12.51Z"/></g><path class="cls-20" d="M44.69,92.61c0-.25,1.27-.52,2.88-.63s2.92,0,2.93.26-1.27.52-2.88.63S44.7,92.85,44.69,92.61Z"/><path class="cls-21" d="M47.44,95.3c.24,0,.43-1.31.41-2.92s-.22-2.92-.46-2.91S47,90.77,47,92.38,47.19,95.3,47.44,95.3Z"/><path class="cls-22" d="M49.12,92.27a1.64,1.64,0,1,1-1.74-1.54A1.66,1.66,0,0,1,49.12,92.27Z"/><g class="cls-7"><path class="cls-23" d="M47.54,90.75a1.65,1.65,0,1,1-1.68,1.57A1.62,1.62,0,0,1,47.54,90.75Z"/><path class="cls-24" d="M47.56,90.63a1.77,1.77,0,1,1-1.8,1.69A1.75,1.75,0,0,1,47.56,90.63Z"/></g><g class="cls-10"><path class="cls-25" d="M47.56,90.38a2,2,0,1,1-2.07,1.93A2,2,0,0,1,47.56,90.38Z"/><path class="cls-26" d="M47.59,90.23a2.18,2.18,0,1,1-2.22,2.08A2.15,2.15,0,0,1,47.59,90.23Z"/></g><path class="cls-27" d="M38.61,32.87c0-.25,1.27-.53,2.88-.63s2.92,0,2.94.26-1.28.52-2.88.62S38.62,33.11,38.61,32.87Z"/><path class="cls-28" d="M41.36,35.55c.25,0,.43-1.3.42-2.92s-.23-2.91-.47-2.91-.43,1.31-.42,2.92S41.12,35.56,41.36,35.55Z"/><path class="cls-29" d="M43,32.53a1.64,1.64,0,1,1-3.28.2A1.66,1.66,0,0,1,41.3,31,1.64,1.64,0,0,1,43,32.53Z"/><g class="cls-7"><path class="cls-30" d="M41.46,31a1.65,1.65,0,1,1-1.68,1.57A1.63,1.63,0,0,1,41.46,31Z"/><path class="cls-31" d="M41.49,30.89a1.77,1.77,0,1,1-1.81,1.68A1.74,1.74,0,0,1,41.49,30.89Z"/></g><g class="cls-10"><path class="cls-32" d="M41.48,30.63a2,2,0,1,1-2.07,1.94A2,2,0,0,1,41.48,30.63Z"/><path class="cls-33" d="M41.51,30.49a2.18,2.18,0,1,1-2.22,2.07A2.17,2.17,0,0,1,41.51,30.49Z"/></g><path class="cls-34" d="M18.18,3.15c0-.25,1.27-.52,2.88-.63s2.92,0,2.94.26-1.28.52-2.88.63S18.19,3.39,18.18,3.15Z"/><path class="cls-35" d="M20.93,5.84c.25,0,.43-1.31.42-2.92S21.13,0,20.88,0s-.43,1.31-.41,2.92S20.69,5.84,20.93,5.84Z"/><path class="cls-36" d="M22.61,2.81A1.64,1.64,0,0,1,19.33,3a1.64,1.64,0,1,1,3.28-.21Z"/><g class="cls-7"><path class="cls-37" d="M21,1.29A1.63,1.63,0,0,1,22.56,3a1.61,1.61,0,1,1-3.21-.15A1.63,1.63,0,0,1,21,1.29Z"/><path class="cls-38" d="M21.06,1.17A1.75,1.75,0,0,1,22.69,3a1.72,1.72,0,1,1-3.44-.16A1.76,1.76,0,0,1,21.06,1.17Z"/></g><g class="cls-10"><path class="cls-39" d="M21.05.92A2,2,0,0,1,22.93,3,2,2,0,1,1,19,2.85,2,2,0,0,1,21.05.92Z"/><path class="cls-40" d="M21.09.77a2.16,2.16,0,0,1,2,2.28,2.12,2.12,0,1,1-4.24-.2A2.17,2.17,0,0,1,21.09.77Z"/></g><path class="cls-41" d="M336.14,7.29c0-.33,1.76-.72,4-.86s4,0,4.05.36-1.76.72-4,.86S336.16,7.63,336.14,7.29Z"/><path class="cls-42" d="M339.94,11c.34,0,.59-1.8.57-4s-.3-4-.64-4-.59,1.8-.57,4S339.6,11,339.94,11Z"/><path class="cls-43" d="M342.26,6.83a2.27,2.27,0,1,1-2.4-2.12A2.26,2.26,0,0,1,342.26,6.83Z"/><g class="cls-7"><path class="cls-44" d="M340.08,4.73a2.27,2.27,0,1,1-2.32,2.16A2.24,2.24,0,0,1,340.08,4.73Z"/><path class="cls-45" d="M340.11,4.57a2.44,2.44,0,1,1-2.49,2.32A2.41,2.41,0,0,1,340.11,4.57Z"/></g><g class="cls-10"><path class="cls-46" d="M340.11,4.21a2.77,2.77,0,0,1,2.58,2.93,2.72,2.72,0,1,1-5.44-.26A2.77,2.77,0,0,1,340.11,4.21Z"/><path class="cls-47" d="M340.15,4a3,3,0,1,1-3.07,2.86A3,3,0,0,1,340.15,4Z"/></g><path class="cls-48" d="M302.26,11.41c0-.33,1.76-.72,4-.86s4,0,4.05.36-1.76.72-4,.86S302.28,11.75,302.26,11.41Z"/><path class="cls-49" d="M306.06,15.12c.34,0,.6-1.8.58-4s-.31-4-.65-4-.59,1.8-.57,4S305.73,15.12,306.06,15.12Z"/><path class="cls-50" d="M308.38,11A2.26,2.26,0,1,1,306,8.83,2.26,2.26,0,0,1,308.38,11Z"/><g class="cls-7"><path class="cls-51" d="M306.2,8.85A2.27,2.27,0,1,1,303.88,11,2.24,2.24,0,0,1,306.2,8.85Z"/><path class="cls-52" d="M306.23,8.69a2.44,2.44,0,0,1-.23,4.88,2.44,2.44,0,0,1,.23-4.88Z"/></g><g class="cls-10"><path class="cls-53" d="M306.23,8.33A2.8,2.8,0,1,1,303.37,11,2.78,2.78,0,0,1,306.23,8.33Z"/><path class="cls-54" d="M306.27,8.14A3,3,0,1,1,303.21,11,3,3,0,0,1,306.27,8.14Z"/></g><path class="cls-55" d="M348.5,43.93c0-.18.94-.39,2.13-.46s2.16,0,2.17.19-.94.38-2.13.46S348.51,44.11,348.5,43.93Z"/><path class="cls-56" d="M350.53,45.92c.18,0,.32-1,.31-2.16s-.17-2.15-.34-2.15-.32,1-.31,2.15S350.35,45.92,350.53,45.92Z"/><path class="cls-57" d="M351.77,43.68A1.2,1.2,0,0,1,350.64,45a1.22,1.22,0,1,1,1.13-1.29Z"/><g class="cls-7"><path class="cls-58" d="M350.61,42.56a1.22,1.22,0,1,1-1.25,1.16A1.2,1.2,0,0,1,350.61,42.56Z"/><path class="cls-59" d="M350.63,42.47a1.31,1.31,0,1,1-1.34,1.24A1.28,1.28,0,0,1,350.63,42.47Z"/></g><g class="cls-10"><path class="cls-60" d="M350.62,42.28a1.5,1.5,0,1,1-1.53,1.43A1.48,1.48,0,0,1,350.62,42.28Z"/><path class="cls-61" d="M350.64,42.17A1.61,1.61,0,1,1,349,43.71,1.6,1.6,0,0,1,350.64,42.17Z"/></g><path class="cls-62" d="M265.4,4.56c0-.18.94-.38,2.13-.46s2.16,0,2.17.19-.94.39-2.13.46S265.42,4.74,265.4,4.56Z"/><path class="cls-63" d="M267.44,6.55c.18,0,.31-1,.31-2.16s-.17-2.15-.35-2.15-.32,1-.31,2.16S267.26,6.55,267.44,6.55Z"/><path class="cls-64" d="M268.68,4.32a1.21,1.21,0,0,1-1.14,1.28,1.2,1.2,0,0,1-1.28-1.13,1.21,1.21,0,1,1,2.42-.15Z"/><g class="cls-7"><path class="cls-65" d="M267.51,3.19a1.22,1.22,0,1,1-1.24,1.16A1.2,1.2,0,0,1,267.51,3.19Z"/><path class="cls-66" d="M267.53,3.1a1.31,1.31,0,0,1-.13,2.62,1.31,1.31,0,0,1,.13-2.62Z"/></g><g class="cls-10"><path class="cls-67" d="M267.53,2.92a1.47,1.47,0,0,1,1.38,1.56,1.46,1.46,0,1,1-1.38-1.56Z"/><path class="cls-68" d="M267.55,2.81A1.59,1.59,0,0,1,269,4.49a1.57,1.57,0,1,1-3.13-.15A1.59,1.59,0,0,1,267.55,2.81Z"/></g><path class="cls-69" d="M317.54,5c0-.19.94-.39,2.13-.47s2.16,0,2.17.19-.94.39-2.13.47S317.55,5.16,317.54,5Z"/><path class="cls-70" d="M319.58,7c.18,0,.31-1,.3-2.16s-.16-2.15-.34-2.15-.32,1-.31,2.16S319.4,7,319.58,7Z"/><path class="cls-71" d="M320.82,4.73a1.22,1.22,0,1,1-1.29-1.14A1.21,1.21,0,0,1,320.82,4.73Z"/><g class="cls-7"><path class="cls-72" d="M319.65,3.6a1.22,1.22,0,1,1-1.24,1.16A1.21,1.21,0,0,1,319.65,3.6Z"/><path class="cls-73" d="M319.67,3.51a1.31,1.31,0,1,1-1.34,1.25A1.3,1.3,0,0,1,319.67,3.51Z"/></g><g class="cls-10"><path class="cls-74" d="M319.67,3.33a1.5,1.5,0,1,1-1.53,1.42A1.47,1.47,0,0,1,319.67,3.33Z"/><path class="cls-75" d="M319.69,3.22a1.61,1.61,0,1,1-1.64,1.53A1.59,1.59,0,0,1,319.69,3.22Z"/></g><path class="cls-76" d="M324.78,22.11c0-.07.36-.15.82-.18s.82,0,.83.08-.36.14-.82.17S324.79,22.18,324.78,22.11Z"/><path class="cls-77" d="M325.56,22.87c.07,0,.12-.37.12-.83s-.06-.82-.13-.82-.13.37-.12.83S325.49,22.87,325.56,22.87Z"/><path class="cls-78" d="M326,22a.46.46,0,0,1-.43.5.47.47,0,0,1-.06-.93A.46.46,0,0,1,326,22Z"/><g class="cls-7"><path class="cls-79" d="M325.59,21.59a.46.46,0,0,1,0,.92.46.46,0,1,1,0-.92Z"/><path class="cls-80" d="M325.6,21.55a.51.51,0,0,1,.46.52.5.5,0,0,1-.51.48.49.49,0,0,1-.46-.52A.49.49,0,0,1,325.6,21.55Z"/></g><g class="cls-10"><path class="cls-81" d="M325.6,21.48a.57.57,0,0,1-.06,1.14A.56.56,0,0,1,325,22,.57.57,0,0,1,325.6,21.48Z"/><path class="cls-82" d="M325.61,21.44A.62.62,0,1,1,325,22,.6.6,0,0,1,325.61,21.44Z"/></g><path class="cls-83" d="M322.79,35.41c0-.18.94-.39,2.13-.46s2.16,0,2.17.19-.94.38-2.13.46S322.8,35.59,322.79,35.41Z"/><path class="cls-84" d="M324.82,37.4c.18,0,.32-1,.31-2.16s-.16-2.15-.35-2.15-.31,1-.3,2.15S324.64,37.4,324.82,37.4Z"/><path class="cls-85" d="M326.07,35.16A1.22,1.22,0,1,1,324.78,34,1.22,1.22,0,0,1,326.07,35.16Z"/><g class="cls-7"><path class="cls-86" d="M324.9,34a1.22,1.22,0,1,1-1.25,1.17A1.21,1.21,0,0,1,324.9,34Z"/><path class="cls-87" d="M324.91,34a1.31,1.31,0,1,1-1.33,1.24A1.29,1.29,0,0,1,324.91,34Z"/></g><g class="cls-10"><path class="cls-88" d="M324.91,33.76a1.5,1.5,0,1,1-1.53,1.43A1.48,1.48,0,0,1,324.91,33.76Z"/><path class="cls-89" d="M324.94,33.65a1.61,1.61,0,1,1-1.65,1.54A1.59,1.59,0,0,1,324.94,33.65Z"/></g><path class="cls-90" d="M287.78,42.06c0-.18.94-.39,2.13-.46s2.16,0,2.17.19-.94.38-2.13.46S287.79,42.24,287.78,42.06Z"/><path class="cls-91" d="M289.82,44c.18,0,.31-1,.3-2.15s-.16-2.16-.34-2.15-.32,1-.31,2.15S289.63,44.05,289.82,44Z"/><path class="cls-92" d="M291.06,41.81a1.22,1.22,0,1,1-1.29-1.14A1.22,1.22,0,0,1,291.06,41.81Z"/><g class="cls-7"><path class="cls-93" d="M289.89,40.68a1.22,1.22,0,0,1-.12,2.44,1.22,1.22,0,0,1,.12-2.44Z"/><path class="cls-94" d="M289.91,40.6a1.31,1.31,0,1,1-1.34,1.24A1.29,1.29,0,0,1,289.91,40.6Z"/></g><g class="cls-10"><path class="cls-95" d="M289.9,40.41a1.5,1.5,0,1,1-1.53,1.43A1.48,1.48,0,0,1,289.9,40.41Z"/><path class="cls-96" d="M289.93,40.3a1.61,1.61,0,1,1-1.65,1.54A1.6,1.6,0,0,1,289.93,40.3Z"/></g><g class="cls-97"><g class="cls-7"><path class="cls-98" d="M284.47,13.19a1.91,1.91,0,1,1-2,1.8A1.9,1.9,0,0,1,284.47,13.19Z"/><path class="cls-99" d="M284.5,13.05a2.06,2.06,0,0,1-.23,4.11,2.06,2.06,0,0,1,.23-4.11Z"/></g><path class="cls-100" d="M281.14,15.32c0-.29,1.49-.59,3.35-.7s3.4.05,3.41.34-1.48.59-3.35.69S281.15,15.6,281.14,15.32Z"/><path class="cls-101" d="M284.31,18.47c.28,0,.51-1.51.51-3.39s-.22-3.38-.5-3.38-.52,1.51-.52,3.38S284,18.47,284.31,18.47Z"/><path class="cls-102" d="M286.3,15a1.91,1.91,0,1,1-2-1.81A1.91,1.91,0,0,1,286.3,15Z"/></g><path class="cls-103" d="M152.38,11.07c0-.41,2.12-.87,4.79-1s4.87,0,4.9.43-2.13.87-4.8,1S152.4,11.48,152.38,11.07Z"/><path class="cls-104" d="M157,15.55c.41,0,.72-2.18.69-4.87s-.37-4.85-.77-4.84-.72,2.18-.7,4.86S156.56,15.55,157,15.55Z"/><path class="cls-105" d="M159.76,10.51A2.74,2.74,0,1,1,156.86,8,2.73,2.73,0,0,1,159.76,10.51Z"/><g class="cls-7"><path class="cls-106" d="M157.13,8a2.75,2.75,0,1,1-2.8,2.62A2.72,2.72,0,0,1,157.13,8Z"/><path class="cls-107" d="M157.17,7.78a2.95,2.95,0,1,1-3,2.81A2.9,2.9,0,0,1,157.17,7.78Z"/></g><g class="cls-10"><path class="cls-108" d="M157.16,7.35a3.38,3.38,0,1,1-3.44,3.22A3.35,3.35,0,0,1,157.16,7.35Z"/><path class="cls-109" d="M157.21,7.11a3.63,3.63,0,1,1-3.7,3.46A3.6,3.6,0,0,1,157.21,7.11Z"/></g><path class="cls-110" d="M107.88,2.8c0-.21,1.14-.46,2.57-.55s2.61,0,2.62.23-1.13.46-2.57.55S107.9,3,107.88,2.8Z"/><path class="cls-111" d="M110.34,5.2c.22,0,.38-1.17.37-2.6s-.2-2.6-.42-2.6-.38,1.17-.37,2.6S110.12,5.2,110.34,5.2Z"/><path class="cls-112" d="M111.84,2.5a1.46,1.46,0,1,1-1.55-1.37A1.47,1.47,0,0,1,111.84,2.5Z"/><g class="cls-7"><path class="cls-113" d="M110.43,1.14a1.46,1.46,0,0,1,1.36,1.54,1.43,1.43,0,1,1-2.86-.14A1.46,1.46,0,0,1,110.43,1.14Z"/><path class="cls-114" d="M110.45,1a1.56,1.56,0,0,1,1.46,1.65,1.54,1.54,0,1,1-3.07-.15A1.55,1.55,0,0,1,110.45,1Z"/></g><g class="cls-10"><path class="cls-115" d="M110.45.81a1.79,1.79,0,0,1,1.67,1.89,1.76,1.76,0,1,1-3.52-.16A1.8,1.8,0,0,1,110.45.81Z"/><path class="cls-116" d="M110.48.68a1.92,1.92,0,0,1,1.79,2,1.89,1.89,0,1,1-3.78-.19A1.93,1.93,0,0,1,110.48.68Z"/></g><path class="cls-117" d="M170.82,3.3c0-.22,1.13-.47,2.57-.56s2.6,0,2.62.23-1.14.47-2.57.56S170.83,3.52,170.82,3.3Z"/><path class="cls-118" d="M173.27,5.7c.22,0,.39-1.17.37-2.61s-.2-2.6-.41-2.59-.39,1.16-.37,2.6S173.06,5.7,173.27,5.7Z"/><path class="cls-119" d="M174.77,3a1.46,1.46,0,1,1-1.55-1.37A1.46,1.46,0,0,1,174.77,3Z"/><g class="cls-7"><path class="cls-120" d="M173.36,1.64a1.46,1.46,0,0,1,1.36,1.54A1.43,1.43,0,1,1,171.86,3,1.45,1.45,0,0,1,173.36,1.64Z"/><path class="cls-121" d="M173.38,1.54a1.55,1.55,0,0,1,1.46,1.65A1.54,1.54,0,1,1,171.77,3,1.55,1.55,0,0,1,173.38,1.54Z"/></g><g class="cls-10"><path class="cls-122" d="M173.38,1.31a1.78,1.78,0,0,1,1.67,1.89A1.76,1.76,0,1,1,171.54,3,1.77,1.77,0,0,1,173.38,1.31Z"/><path class="cls-123" d="M173.41,1.18a1.91,1.91,0,0,1,1.79,2A1.89,1.89,0,1,1,171.43,3,1.92,1.92,0,0,1,173.41,1.18Z"/></g><path class="cls-124" d="M179.56,24c0-.08.43-.18,1-.21s1,0,1,.08-.43.18-1,.22S179.56,24.06,179.56,24Z"/><path class="cls-125" d="M180.5,24.89c.08,0,.14-.44.14-1s-.08-1-.16-1-.15.45-.14,1S180.41,24.9,180.5,24.89Z"/><path class="cls-126" d="M181.07,23.87a.56.56,0,1,1-.59-.53A.56.56,0,0,1,181.07,23.87Z"/><g class="cls-7"><path class="cls-127" d="M180.53,23.35a.55.55,0,0,1,.52.58.55.55,0,1,1-1.09-.05A.54.54,0,0,1,180.53,23.35Z"/><path class="cls-128" d="M180.54,23.31a.6.6,0,0,1-.06,1.2.6.6,0,0,1-.56-.63A.59.59,0,0,1,180.54,23.31Z"/></g><g class="cls-10"><path class="cls-129" d="M180.54,23.22a.69.69,0,1,1-.71.66A.69.69,0,0,1,180.54,23.22Z"/><path class="cls-130" d="M180.55,23.17a.74.74,0,1,1-.76.71A.73.73,0,0,1,180.55,23.17Z"/></g></g></g></svg>