<?xml version="1.0" encoding="utf-8"?>
<!-- Generator: Adobe Illustrator 25.0.0, SVG Export Plug-In . SVG Version: 6.00 Build 0)  -->
<svg version="1.1" id="레이어_1" xmlns="http://www.w3.org/2000/svg" xmlns:xlink="http://www.w3.org/1999/xlink" x="0px"
	 y="0px" viewBox="0 0 170 120" style="enable-background:new 0 0 170 120;" xml:space="preserve">
<style type="text/css">
	.st0{fill:#6CD396;}
	.st1{fill:#5B9978;}
	.st2{fill:#5E5E5E;}
	.st3{fill:none;stroke:#000000;stroke-miterlimit:10;}
	.st4{fill:#FFC76C;}
	.st5{fill:#F4F0EA;}
	.st6{fill:#A4A4ED;stroke:#000000;stroke-miterlimit:10;}
	.st7{fill:#75C685;stroke:#000000;stroke-miterlimit:10;}
</style>
<g>
	<g id="XMLID_1_">
		<g>
			<path class="st0" d="M112.23,43.68c0.55,1.01,0.3,2.22-0.54,2.96c-0.17,0.15-0.36,0.29-0.58,0.39l-3.99,1.98
				c-1.27,0.63-2.85,0.16-3.52-1.06l-3.15-5.79l-0.02-0.05c-0.66-1.22-0.16-2.72,1.11-3.36l3.99-1.98c1.28-0.63,2.85-0.16,3.52,1.06
				L112.23,43.68z"/>
			<path class="st0" d="M73.5,51.1c-1.32-1.69-3.18-3.43-6.91-4.38c-0.75-0.2-1.58-0.36-2.49-0.48l0.08-0.5l1.18-3.96
				c0.42-1.39,1.93-2.2,3.39-1.8l5.08,1.39c1.35,0.37,2.17,1.63,1.96,2.93c-0.02,0.1-0.04,0.2-0.07,0.3l-1.81,6.08
				c-0.02,0.07-0.05,0.15-0.08,0.22L73.5,51.1z"/>
			<path class="st0" d="M97.46,25.03c0.4,0.65,0.17,1.5-0.52,1.89l-2.13,1.19l-0.05,0.02c-0.69,0.38-1.58,0.16-1.98-0.5l-1.9-3.1
				c-0.4-0.66-0.17-1.5,0.52-1.89l0.26-0.14c1.92,0.34,3.7,0.96,5.36,1.81L97.46,25.03z"/>
			<path class="st1" d="M83.38,22.81l0.07,3.47c0.02,0.77,0.68,1.37,1.47,1.35l2.53-0.05c0.79-0.01,1.43-0.64,1.41-1.4l-0.07-3.59
				c0-0.13-0.02-0.25-0.06-0.37c1.02,0.02,2,0.11,2.94,0.28l-0.26,0.14c-0.68,0.38-0.92,1.23-0.52,1.89l1.9,3.1
				c0.4,0.66,1.28,0.88,1.98,0.5l0.05-0.02l0.87,1.42c-0.85,0.34-1.35,1.21-1.14,2.1l-1.38,0c-0.2-0.9-1.04-1.55-2.03-1.54
				l-3.13,0.06c-1.12,0.02-2.01,0.9-2,1.98l0.01,0.17l-1.93,0.03c-0.06-0.94-0.83-1.74-1.85-1.82l-3.11-0.27
				c-0.99-0.08-1.87,0.52-2.14,1.39l-1.24-0.26c0.17-0.96-0.44-1.92-1.45-2.2l-2.64-0.72l-0.01-0.01c1.21-1.08,2.61-2.09,4.26-2.96
				l-0.1,0.39c-0.19,0.74,0.28,1.49,1.06,1.67l2.45,0.57c0.77,0.18,1.55-0.27,1.74-1.02l0.9-3.49c0.03-0.16,0.05-0.32,0.03-0.47
				C82.43,23.02,82.9,22.91,83.38,22.81z"/>
			<path class="st0" d="M102.67,34.76c0.24,0.99-0.42,1.97-1.45,2.19l-3.27,0.71c-1.03,0.23-2.06-0.39-2.3-1.38l-1.11-4.66
				c-0.21-0.88,0.29-1.76,1.14-2.1c0.1-0.04,0.2-0.08,0.31-0.1l3.27-0.71c1.03-0.22,2.06,0.4,2.3,1.38L102.67,34.76z"/>
			<path class="st1" d="M68.74,39.97c-1.46-0.4-2.97,0.41-3.39,1.8l-1.18,3.96l-0.08,0.5c-0.7-0.09-1.45-0.16-2.24-0.21
				c1.9-2.12,2.59-7.7,5.92-12.98l-0.61,2.04c-0.31,1.03,0.32,2.11,1.39,2.4l3,0.82c1.08,0.3,2.21-0.3,2.52-1.34l1.61-5.39
				c0.02-0.07,0.03-0.14,0.05-0.21l1.24,0.26c-0.03,0.12-0.06,0.25-0.07,0.38l-0.52,5.59c-0.1,1.07,0.73,2.02,1.85,2.11l3.11,0.27
				c1.12,0.1,2.11-0.69,2.21-1.76l0.52-5.59c0.01-0.1,0.01-0.19,0.01-0.29l1.93-0.03l0.11,5.44c0.02,1.07,0.95,1.92,2.07,1.91
				l3.13-0.06c1.12-0.02,2.01-0.9,2-1.98L93.2,32c0-0.13-0.01-0.26-0.04-0.37l1.38,0l1.11,4.66c0.24,0.99,1.26,1.6,2.3,1.38
				l3.27-0.71c1.03-0.23,1.69-1.21,1.45-2.19l-1.11-4.66c-0.24-0.99-1.26-1.6-2.3-1.38l-3.27,0.71c-0.11,0.02-0.21,0.06-0.31,0.1
				l-0.87-1.42l2.13-1.19c0.69-0.39,0.92-1.23,0.52-1.89l-0.44-0.72c2.41,1.22,4.55,2.91,6.5,4.84l-0.05,0.04l1.12,3.86
				c0.28,0.98,1.34,1.55,2.36,1.28l0.85-0.23c2.71,3.56,5.02,7.32,7.17,10.36c-0.8,0.93-1.75,1.84-2.81,2.71l-0.49-0.54
				c0.84-0.74,1.09-1.95,0.54-2.96l-3.17-5.83c-0.67-1.22-2.24-1.7-3.52-1.06l-3.99,1.98c-1.27,0.63-1.78,2.14-1.11,3.36l0.02,0.05
				l-1.26,0.63c-0.49-1.02-1.66-1.65-2.88-1.45l-4.84,0.77c-1.36,0.22-2.31,1.38-2.23,2.67l-1.44,0.07
				c-0.09-1.39-1.31-2.47-2.78-2.44l-5.28,0.1c-1.27,0.02-2.32,0.87-2.61,2l-1.37-0.21c0.22-1.3-0.61-2.56-1.96-2.93L68.74,39.97z"
				/>
			<path class="st0" d="M88.85,26.18c0.02,0.77-0.62,1.39-1.41,1.4l-2.53,0.05c-0.79,0.02-1.45-0.59-1.47-1.35l-0.07-3.47
				c0.33-0.07,0.66-0.14,1-0.2c1.52-0.29,2.97-0.41,4.35-0.38c0.04,0.12,0.06,0.24,0.06,0.37L88.85,26.18z"/>
			<path class="st0" d="M100.51,49.79c0.19,1.09-0.37,2.14-1.32,2.65c-0.26,0.14-0.56,0.24-0.88,0.29l-4.84,0.78
				c-1.46,0.23-2.84-0.71-3.08-2.1l-1.11-6.36c-0.02-0.09-0.03-0.18-0.03-0.27c-0.08-1.29,0.87-2.45,2.23-2.67l4.84-0.77
				c1.22-0.2,2.39,0.43,2.88,1.45c0.1,0.2,0.16,0.42,0.21,0.64L100.51,49.79z"/>
			<path class="st0" d="M93.32,37.61c0.02,1.07-0.87,1.96-2,1.98l-3.13,0.06c-1.12,0.02-2.05-0.83-2.07-1.91l-0.11-5.44l-0.01-0.17
				c-0.02-1.07,0.87-1.95,2-1.98l3.13-0.06c0.99-0.02,1.83,0.64,2.03,1.54c0.03,0.12,0.04,0.25,0.04,0.37L93.32,37.61z"/>
			<path class="st0" d="M74.29,29.18c1.01,0.27,1.62,1.23,1.45,2.2c-0.02,0.07-0.03,0.14-0.05,0.21l-1.61,5.39
				c-0.31,1.03-1.44,1.64-2.52,1.34l-3-0.82c-1.08-0.3-1.71-1.37-1.39-2.4l0.61-2.04c1.01-1.6,2.26-3.17,3.86-4.6l0.01,0.01
				L74.29,29.18z"/>
			<path class="st0" d="M104.6,33.06l-1.12-3.86l0.05-0.04c1.54,1.53,2.96,3.22,4.29,4.96l-0.85,0.23
				C105.94,34.61,104.89,34.04,104.6,33.06z"/>
			<path class="st2" d="M76.01,57.75c0.3,2.29-2.83,2.58-8.15,1.42c-3.53-0.77-8.54-4.42-8.4-7.43s3.11-4.76,6.59-4.22
				c0.1,0.02,0.2,0.03,0.3,0.06c3.1,0.69,6.14,4.62,7.8,6.71C75.29,55.75,75.9,56.89,76.01,57.75z"/>
			<path class="st0" d="M87.95,51.29c0.03,1.44-1.18,2.64-2.69,2.66l-5.28,0.1c-1.51,0.03-2.76-1.12-2.79-2.57l-0.13-6.32
				c0-0.23,0.02-0.45,0.08-0.66c0.29-1.12,1.34-1.97,2.61-2l5.28-0.1c1.47-0.03,2.69,1.05,2.78,2.44c0,0.04,0.01,0.08,0.01,0.12
				L87.95,51.29z"/>
			<path class="st0" d="M81.94,23.61l-0.9,3.49c-0.19,0.74-0.97,1.2-1.74,1.02l-2.45-0.57c-0.78-0.18-1.25-0.93-1.06-1.67l0.1-0.39
				c1.73-0.93,3.74-1.74,6.08-2.34C81.99,23.29,81.98,23.45,81.94,23.61z"/>
			<path class="st1" d="M100.46,42.16l3.15,5.79c0.66,1.22,2.24,1.7,3.52,1.06l3.99-1.98c0.21-0.11,0.41-0.24,0.58-0.39l0.49,0.54
				c-3.28,2.74-7.66,5.17-12.3,6.93l-0.68-1.67c0.95-0.51,1.51-1.56,1.32-2.65l-1.11-6.36c-0.04-0.23-0.11-0.44-0.21-0.64
				L100.46,42.16z"/>
			<path class="st0" d="M84.08,32.33c0,0.1,0,0.19-0.01,0.29l-0.52,5.59c-0.1,1.07-1.09,1.86-2.21,1.76l-3.11-0.27
				c-1.12-0.09-1.95-1.04-1.85-2.11l0.52-5.59c0.01-0.13,0.04-0.26,0.07-0.38c0.27-0.87,1.15-1.47,2.14-1.39l3.11,0.27
				C83.25,30.59,84.03,31.39,84.08,32.33z"/>
			<path class="st1" d="M77.06,45.16l0.13,6.32c0.03,1.45,1.28,2.59,2.79,2.57l5.28-0.1c1.51-0.03,2.72-1.22,2.69-2.66l-0.13-6.32
				c0-0.04,0-0.08-0.01-0.12l1.44-0.07c0.01,0.09,0.02,0.18,0.03,0.27l1.11,6.36c0.24,1.39,1.63,2.33,3.08,2.1l4.84-0.78
				c0.32-0.05,0.61-0.15,0.88-0.29l0.68,1.67c-8.47,3.22-17.83,4.25-23.07,0.94c-1.33-0.84-2.08-2.38-3.3-3.95l0.31-0.21
				c0.03-0.07,0.05-0.15,0.08-0.22l1.81-6.08c0.03-0.1,0.06-0.2,0.07-0.3l1.37,0.21C77.08,44.71,77.06,44.93,77.06,45.16z"/>
		</g>
		<g>
			<path class="st3" d="M104.71,58.43c-2.06,1.2-4.34,2.29-6.75,3.2c-1.98,0.75-4.04,1.38-6.16,1.85c-1.73,0.38-3.49,0.66-5.26,0.8
				c-0.55,0.05-1.11,0.08-1.67,0.1c-1.61,0.05-3.21,0.01-4.78-0.12c-16.62-1.35-29.9-12.02-19.06-17.59c0.3-0.15,0.56-0.37,0.8-0.64
				c1.9-2.12,2.59-7.7,5.92-12.98c1.01-1.6,2.26-3.17,3.86-4.6c1.21-1.08,2.61-2.09,4.26-2.96c1.73-0.93,3.74-1.74,6.08-2.34
				c0.46-0.12,0.93-0.23,1.41-0.34c0.33-0.07,0.66-0.14,1-0.2c1.52-0.29,2.97-0.41,4.35-0.38c1.02,0.02,2,0.11,2.94,0.28
				c1.92,0.34,3.7,0.96,5.36,1.81c2.41,1.22,4.55,2.91,6.5,4.84c1.54,1.53,2.96,3.22,4.29,4.96c2.71,3.56,5.02,7.32,7.17,10.36
				c0.56,0.8,0.73,1.75,0.54,2.79c-0.59,3.36-4.82,7.7-10.81,11.16"/>
			<path class="st3" d="M61.85,46.03c0.8,0.05,1.55,0.12,2.24,0.21c0.92,0.12,1.74,0.28,2.49,0.48c3.73,0.95,5.59,2.69,6.91,4.38
				c1.23,1.58,1.97,3.11,3.3,3.95c5.24,3.31,14.6,2.29,23.07-0.94c4.65-1.76,9.02-4.19,12.3-6.93c1.06-0.87,2-1.78,2.81-2.71"/>
			<path class="st3" d="M87.81,44.85c0,0.04,0.01,0.08,0.01,0.12l0.13,6.32c0.03,1.44-1.18,2.64-2.69,2.66l-5.28,0.1
				c-1.51,0.03-2.76-1.12-2.79-2.57l-0.13-6.32c0-0.23,0.02-0.45,0.08-0.66c0.29-1.12,1.34-1.97,2.61-2l5.28-0.1
				C86.5,42.38,87.72,43.46,87.81,44.85z"/>
			<path class="st3" d="M99.19,52.44c-0.26,0.14-0.56,0.24-0.88,0.29l-4.84,0.78c-1.46,0.23-2.84-0.71-3.08-2.1l-1.11-6.36
				c-0.02-0.09-0.03-0.18-0.03-0.27c-0.08-1.29,0.87-2.45,2.23-2.67l4.84-0.77c1.22-0.2,2.39,0.43,2.88,1.45
				c0.1,0.2,0.16,0.42,0.21,0.64l1.11,6.36C100.71,50.88,100.14,51.93,99.19,52.44z"/>
			<path class="st3" d="M111.69,46.64c-0.17,0.15-0.36,0.29-0.58,0.39l-3.99,1.98c-1.27,0.63-2.85,0.16-3.52-1.06l-3.15-5.79
				l-0.02-0.05c-0.66-1.22-0.16-2.72,1.11-3.36l3.99-1.98c1.28-0.63,2.85-0.16,3.52,1.06l3.17,5.83
				C112.79,44.69,112.53,45.9,111.69,46.64z"/>
			<path class="st3" d="M64.17,45.73l1.18-3.96c0.42-1.39,1.93-2.2,3.39-1.8l5.08,1.39c1.35,0.37,2.17,1.63,1.96,2.93
				c-0.02,0.1-0.04,0.2-0.07,0.3l-1.81,6.08c-0.02,0.07-0.05,0.15-0.08,0.22"/>
			<path class="st3" d="M71.65,28.46l2.64,0.72c1.01,0.27,1.62,1.23,1.45,2.2c-0.02,0.07-0.03,0.14-0.05,0.21l-1.61,5.39
				c-0.31,1.03-1.44,1.64-2.52,1.34l-3-0.82c-1.08-0.3-1.71-1.37-1.39-2.4l0.61-2.04"/>
			<path class="st3" d="M84.08,32.33c0,0.1,0,0.19-0.01,0.29l-0.52,5.59c-0.1,1.07-1.09,1.86-2.21,1.76l-3.11-0.27
				c-1.12-0.09-1.95-1.04-1.85-2.11l0.52-5.59c0.01-0.13,0.04-0.26,0.07-0.38c0.27-0.87,1.15-1.47,2.14-1.39l3.11,0.27
				C83.25,30.59,84.03,31.39,84.08,32.33z"/>
			<path class="st3" d="M93.16,31.63c0.03,0.12,0.04,0.25,0.04,0.37l0.11,5.61c0.02,1.07-0.87,1.96-2,1.98l-3.13,0.06
				c-1.12,0.02-2.05-0.83-2.07-1.91l-0.11-5.44l-0.01-0.17c-0.02-1.07,0.87-1.95,2-1.98l3.13-0.06
				C92.12,30.07,92.96,30.73,93.16,31.63z"/>
			<path class="st3" d="M95.68,29.53c0.1-0.04,0.2-0.08,0.31-0.1l3.27-0.71c1.03-0.22,2.06,0.4,2.3,1.38l1.11,4.66
				c0.24,0.99-0.42,1.97-1.45,2.19l-3.27,0.71c-1.03,0.23-2.06-0.39-2.3-1.38l-1.11-4.66C94.33,30.75,94.83,29.87,95.68,29.53z"/>
			<path class="st3" d="M107.82,34.11l-0.85,0.23c-1.02,0.27-2.08-0.3-2.36-1.28l-1.12-3.86"/>
			<path class="st3" d="M81.96,23.07c0.01,0.03,0.01,0.05,0.01,0.08c0.02,0.15,0.01,0.31-0.03,0.47l-0.9,3.49
				c-0.19,0.74-0.97,1.2-1.74,1.02l-2.45-0.57c-0.78-0.18-1.25-0.93-1.06-1.67l0.1-0.39l0-0.01"/>
			<path class="st3" d="M88.66,22.05c0.02,0.05,0.05,0.11,0.06,0.17c0.04,0.12,0.06,0.24,0.06,0.37l0.07,3.59
				c0.02,0.77-0.62,1.39-1.41,1.4l-2.53,0.05c-0.79,0.02-1.45-0.59-1.47-1.35l-0.07-3.47l0-0.12"/>
			<path class="st3" d="M96.97,24.23l0.05,0.08l0.44,0.72c0.4,0.65,0.17,1.5-0.52,1.89l-2.13,1.19l-0.05,0.02
				c-0.69,0.38-1.58,0.16-1.98-0.5l-1.9-3.1c-0.4-0.66-0.17-1.5,0.52-1.89l0.26-0.14"/>
			<path class="st3" d="M66.35,47.58c3.1,0.69,6.14,4.62,7.8,6.71c1.15,1.46,1.76,2.59,1.86,3.45c0.3,2.29-2.83,2.58-8.15,1.42
				c-3.53-0.77-8.54-4.42-8.4-7.43s3.11-4.76,6.59-4.22C66.15,47.54,66.25,47.56,66.35,47.58z"/>
			<path class="st3" d="M104.71,58.43c0.01-0.01,0.01-0.01,0.01-0.01c1.64-2.33,1.98-3.39,1.98-3.87c0-0.01,0-0.03,0-0.04"/>
			<path class="st3" d="M75.9,57.72c0.04,0.01,0.07,0.02,0.11,0.03c2.69,0.73,5.24,1.19,7.67,1.44c2.2,0.23,4.3,0.28,6.28,0.18
				c1.92-0.09,3.72-0.32,5.43-0.65c1.94-0.37,3.74-0.87,5.41-1.47c2.22-0.79,4.19-1.73,5.91-2.71c5.43-3.1,8.42-6.66,8.82-7.29
				c0.04-0.07,0.06-0.1,0.05-0.1"/>
			<path class="st3" d="M80.06,64.29c0.01-0.01,0.02-0.02,0.04-0.03c4.55-4.37,3.57-4.99,3.57-4.99"/>
			<path class="st3" d="M86.35,64.47c0.06-0.06,0.13-0.12,0.19-0.18c4.37-4.24,3.42-4.84,3.42-4.84"/>
			<path class="st3" d="M91.79,63.41c2.71-2.6,3.47-3.88,3.65-4.5"/>
			<path class="st3" d="M97.96,61.63c3.74-3.75,2.87-4.3,2.87-4.3"/>
		</g>
	</g>
</g>
<g id="XMLID_2_">
	<g>
		<path class="st4" d="M155.68,100.5l7.81,10.83h-0.66H92.8c-0.39-3.48-4.02-8.42-6.23-9.05c0-1.22,0-2.44,0-3.66
			c0-0.02,0-0.05,0-0.07c0.38-0.18,1.04-0.38,1.04-0.52c5.82-4.92,11.11-6.57,14.85-7.18c9.55-1.56,15.66,2.62,31.78,5.39
			c6.77,1.15,17.07,3.88,21.42,4.27H155.68z"/>
		<path class="st5" d="M140.15,79.01l15.51,21.49c-4.35-0.4-14.65-3.12-21.42-4.27c-16.12-2.77-22.23-6.95-31.78-5.39
			c-3.73,0.61-9.03,2.26-14.85,7.18c0,0.14-0.66,0.34-1.04,0.52c0-6.55,0-13.12,0-19.68c-0.02-0.02-0.05-0.05-0.07-0.07
			c4.83-4.76,9.25-6.36,12.35-6.97c8.1-1.56,13.27,2.6,26.93,5.39C131.82,78.44,136.86,78.85,140.15,79.01z"/>
		<path class="st4" d="M92.8,111.33c0.04,0.22,0.05,0.41,0.05,0.61c0,3.72-3.02,6.73-6.73,6.73s-6.73-3.02-6.73-6.73
			c0-0.25,0.02-0.5,0.05-0.75h5.33h1.51c0,0.05,0,0.09,0,0.14h1.8H92.8z"/>
		<path class="st4" d="M88.08,111.33h-1.8c0-0.05,0-0.09,0-0.14h0.29c0-2.96,0-5.94,0-8.91c2.21,0.63,5.84,5.57,6.23,9.05H88.08z"/>
		<path class="st4" d="M86.57,102.28c0,2.96,0,5.94,0,8.91h-0.29c0-2.98,0-5.98,0-8.96C86.38,102.23,86.47,102.24,86.57,102.28z"/>
		<path class="st5" d="M86.5,78.8c-0.07,0.07-0.14,0.14-0.22,0.22c0,6.46,0,12.93,0,19.39c-0.38-0.16-1.04-0.36-1.04-0.52
			c-5.82-4.92-11.11-6.57-14.83-7.18c-9.57-1.56-15.67,2.62-31.8,5.39c-6.77,1.17-17.09,3.88-21.44,4.29l15.53-21.51
			c3.29-0.16,8.33-0.57,14.36-1.8c13.66-2.77,18.83-6.95,26.93-5.39C77.15,72.3,81.62,73.93,86.5,78.8z"/>
		<path class="st4" d="M84.78,111.19h-5.33c0.52-3.72,4.58-8.98,6.68-8.98c0.05,0,0.11,0,0.16,0.02c0,2.98,0,5.98,0,8.96H84.78z"/>
		<path class="st4" d="M86.29,98.76c0,1.15,0,2.32,0,3.47c-0.05-0.02-0.11-0.02-0.16-0.02c-2.1,0-6.16,5.26-6.68,8.98H10.03H9.37
			l7.81-10.81c4.35-0.41,14.67-3.12,21.44-4.29c16.12-2.77,22.23-6.95,31.8-5.39c3.72,0.61,9.01,2.26,14.83,7.18
			c0,0.16,0.66,0.36,1.04,0.52C86.29,98.53,86.29,98.64,86.29,98.76z"/>
	</g>
	<g>
		<path class="st3" d="M10.03,111.19H9.37l7.81-10.81l15.53-21.51c3.29-0.16,8.33-0.57,14.36-1.8c13.66-2.77,18.83-6.95,26.93-5.39
			c3.14,0.61,7.61,2.24,12.5,7.11c0.02,0.02,0.05,0.05,0.07,0.07c0,6.55,0,13.12,0,19.68c0,0.02,0,0.05,0,0.07c0,1.22,0,2.44,0,3.66
			"/>
		<line class="st3" x1="79.45" y1="111.19" x2="10.03" y2="111.19"/>
		<path class="st3" d="M17.18,100.38c4.35-0.41,14.67-3.12,21.44-4.29c16.12-2.77,22.23-6.95,31.8-5.39
			c3.72,0.61,9.01,2.26,14.83,7.18c0,0.16,0.66,0.36,1.04,0.52c0.13,0.07,0.23,0.11,0.25,0.16c0.04,0.02,0.04,0.04,0.04,0.05"/>
		<path class="st3" d="M155.66,100.5l-15.51-21.49c-3.29-0.16-8.33-0.57-14.36-1.8c-13.66-2.78-18.83-6.95-26.93-5.39
			c-3.11,0.61-7.52,2.21-12.35,6.97c-0.07,0.07-0.14,0.14-0.22,0.22c0,6.46,0,12.93,0,19.39c0,0.13,0,0.23,0,0.36
			c0,1.15,0,2.32,0,3.47"/>
		<polyline class="st3" points="162.83,111.33 163.49,111.33 155.68,100.5 		"/>
		<line class="st3" x1="92.8" y1="111.33" x2="162.83" y2="111.33"/>
		<path class="st3" d="M155.68,100.5h-0.02c-4.35-0.4-14.65-3.12-21.42-4.27c-16.12-2.77-22.23-6.95-31.78-5.39
			c-3.73,0.61-9.03,2.26-14.85,7.18c0,0.14-0.66,0.34-1.04,0.52c-0.02,0.02-0.04,0.02-0.04,0.02c-0.14,0.07-0.25,0.14-0.25,0.2"/>
		<path class="st3" d="M92.8,111.33c0.04,0.22,0.05,0.41,0.05,0.61c0,3.72-3.02,6.73-6.73,6.73s-6.73-3.02-6.73-6.73
			c0-0.25,0.02-0.5,0.05-0.75c0.52-3.72,4.58-8.98,6.68-8.98c0.05,0,0.11,0,0.16,0.02c0.09,0,0.18,0.02,0.29,0.05
			C88.78,102.91,92.41,107.85,92.8,111.33z"/>
	</g>
</g>
<polygon class="st6" points="137.29,22.42 131.06,22.29 127.43,27.35 125.63,21.39 119.7,19.5 124.81,15.95 124.77,9.72 
	129.73,13.48 135.64,11.53 133.6,17.4 "/>
<polygon class="st7" points="40.2,52.07 35.98,46.48 28.98,46.78 33,41.04 30.54,34.48 37.24,36.52 42.73,32.16 42.85,39.17 
	48.69,43.03 42.07,45.32 "/>
<line class="st3" x1="29.02" y1="70.79" x2="2" y2="21.67"/>
<line class="st3" x1="141.98" y1="71.32" x2="169" y2="22.2"/>
<line class="st3" x1="134.63" y1="73.02" x2="134.63" y2="55.83"/>
<line class="st3" x1="134.61" y1="52.29" x2="134.61" y2="46.15"/>
<line class="st3" x1="46.19" y1="21.58" x2="46.19" y2="35.09"/>
<line class="st3" x1="46.19" y1="17.9" x2="46.19" y2="14.22"/>
<line class="st3" x1="94.11" y1="108.64" x2="127.26" y2="108.64"/>
<line class="st3" x1="132.18" y1="108.64" x2="139.55" y2="108.64"/>
</svg>
