<?xml version="1.0" encoding="utf-8"?>
<!-- Generator: Adobe Illustrator 25.0.0, SVG Export Plug-In . SVG Version: 6.00 Build 0)  -->
<svg version="1.1" id="레이어_1" xmlns="http://www.w3.org/2000/svg" xmlns:xlink="http://www.w3.org/1999/xlink" x="0px"
	 y="0px" viewBox="0 0 50 50" style="enable-background:new 0 0 50 50;" xml:space="preserve">
<g>
	<path d="M25,7.8l4.7,9.5c0.7,1.3,2,2.3,3.4,2.5l10.5,1.5l-8.2,8c-0.7,0.6-1,1.6-0.8,2.5l1.9,11.3l-10.2-5.4
		c-0.4-0.2-0.9-0.3-1.3-0.3c-0.5,0-0.9,0.1-1.3,0.3l-10.2,5.4l1.9-11.3c0.2-0.9-0.1-1.8-0.8-2.5l-8.2-8l11.4-1.7
		c0.9-0.1,1.7-0.7,2.1-1.5L25,7.8 M25,4.2c-0.3,0-0.6,0.1-0.7,0.4l-6.2,12.5c-0.1,0.2-0.3,0.4-0.6,0.4l-13.8,2
		c-0.7,0.1-0.9,0.9-0.4,1.4l10,9.7c0.2,0.2,0.3,0.4,0.2,0.7l-2.4,13.7c-0.1,0.5,0.3,0.9,0.8,0.9c0.1,0,0.2,0,0.4-0.1l12.3-6.5
		c0.1-0.1,0.2-0.1,0.4-0.1s0.3,0,0.4,0.1L37.7,46c0.1,0.1,0.2,0.1,0.4,0.1c0.5,0,0.9-0.4,0.8-0.9l-2.4-13.7c0-0.3,0-0.5,0.2-0.7
		l10-9.7c0.5-0.5,0.2-1.3-0.4-1.4l-12.9-1.9c-0.8-0.1-1.6-0.6-1.9-1.4L25.7,4.7C25.6,4.4,25.3,4.2,25,4.2L25,4.2z"/>
</g>
</svg>
