<?xml version="1.0" encoding="utf-8"?>
<!-- Generator: Adobe Illustrator 25.0.0, SVG Export Plug-In . SVG Version: 6.00 Build 0)  -->
<svg version="1.1" id="레이어_1" xmlns="http://www.w3.org/2000/svg" xmlns:xlink="http://www.w3.org/1999/xlink" x="0px"
	 y="0px" viewBox="0 0 170 120" style="enable-background:new 0 0 170 120;" xml:space="preserve">
<style type="text/css">
	.st0{fill:#E2DCCC;}
	.st1{fill:none;stroke:#281C16;stroke-miterlimit:10;}
	.st2{fill:url(#SVGID_1_);}
	.st3{fill:#FF734F;stroke:#281C16;stroke-miterlimit:10;}
	.st4{fill:#CAE2FF;}
	.st5{fill:#44B200;}
</style>
<g>
	<g id="XMLID_3_">
		<g>
			<path class="st0" d="M66.12,120.12h-8.51L71.08,76h0.01c0-12.35-31.22-20.36-47.09-24.05v-0.02c-5.92-1.54-9.05-4.15-10.06-7.38
				h11.05l0.02-0.01c2.47,2.74,6.82,5.15,11.91,6.33c0.04,0.01,0.09,0.03,0.13,0.03c0.28,0.08,0.57,0.15,0.87,0.2
				c17.7,3,34.23,7.98,48.06,13.77c13.83-5.79,29.65-10.78,47.35-13.77c0.29-0.05,0.58-0.11,0.87-0.2c0.04-0.01,0.09-0.02,0.13-0.03
				c5.08-1.18,9.44-3.59,11.91-6.33l0.02,0.01h11.05c-1.01,3.23-4.14,5.84-10.06,7.38v0.02c-15.87,3.69-47.09,11.7-47.09,24.05h0.01
				l13.47,44.12H85.62H71.08H66.12z"/>
		</g>
		<g>
			<polyline class="st1" points="100.16,75.99 100.16,76 113.63,120.12 85.62,120.12 			"/>
			<path class="st1" d="M100.16,76.3c-0.01-0.1-0.01-0.2-0.01-0.3c0-12.35,31.22-20.36,47.09-24.05"/>
			<path class="st1" d="M134.32,50.87c5.08-1.18,9.44-3.59,11.91-6.33c0.14-0.16,0.28-0.32,0.41-0.48"/>
			<path class="st1" d="M147.24,51.93c5.92-1.54,9.05-4.15,10.06-7.38c0.04-0.11,0.06-0.21,0.09-0.32"/>
			<polyline class="st1" points="71.08,75.99 71.08,76 57.61,120.12 66.12,120.12 71.08,120.12 85.62,120.12 			"/>
			<path class="st1" d="M71.08,76.3c0.01-0.1,0.01-0.2,0.01-0.3c0-12.35-31.22-20.36-47.09-24.05"/>
			<path class="st1" d="M36.92,50.87c-5.08-1.18-9.44-3.59-11.91-6.33c-0.14-0.16-0.28-0.32-0.41-0.48"/>
			<path class="st1" d="M24,51.93c-5.92-1.54-9.05-4.15-10.06-7.38c-0.04-0.11-0.06-0.21-0.09-0.32"/>
			<path class="st1" d="M36.59,50.77c0.11,0.03,0.22,0.06,0.33,0.1c0.04,0.01,0.09,0.03,0.13,0.03c0.28,0.08,0.57,0.15,0.87,0.2
				c17.7,3,34.23,7.98,48.06,13.77c13.83-5.79,29.65-10.78,47.35-13.77c0.29-0.05,0.58-0.11,0.87-0.2c0.04-0.01,0.09-0.02,0.13-0.03
				c0.11-0.03,0.23-0.06,0.33-0.1"/>
			<line class="st1" x1="73.92" y1="102.34" x2="73.32" y2="106.06"/>
			<line class="st1" x1="72.79" y1="108.5" x2="71.08" y2="120.12"/>
			<line class="st1" x1="70.37" y1="98.53" x2="66.12" y2="120.12"/>
		</g>
	</g>
</g>
<line class="st1" x1="-0.53" y1="44.25" x2="170" y2="44.25"/>
<radialGradient id="SVGID_1_" cx="86.0747" cy="28.1858" r="33.8636" fx="52.2113" fy="28.0667" gradientTransform="matrix(6.123234e-17 -1 1.5645 9.579925e-17 41.9774 114.2605)" gradientUnits="userSpaceOnUse">
	<stop  offset="0.2246" style="stop-color:#FFA45A;stop-opacity:0.7"/>
	<stop  offset="0.3271" style="stop-color:#FFA75F;stop-opacity:0.7"/>
	<stop  offset="0.4505" style="stop-color:#FFAF6E;stop-opacity:0.7"/>
	<stop  offset="0.5848" style="stop-color:#FFBC86;stop-opacity:0.7"/>
	<stop  offset="0.7268" style="stop-color:#FFCFA8;stop-opacity:0.7"/>
	<stop  offset="0.8733" style="stop-color:#FFE7D3;stop-opacity:0.7"/>
	<stop  offset="1" style="stop-color:#FFFFFF;stop-opacity:0.7"/>
</radialGradient>
<path class="st2" d="M43.24,43.83C43.24,20.18,62.42,1,86.07,1s42.83,19.18,42.83,42.83"/>
<path class="st3" d="M49.1,43.9c0-20.36,16.51-36.87,36.87-36.87s36.87,16.51,36.87,36.87"/>
<line class="st1" x1="49.81" y1="37.52" x2="71.79" y2="37.52"/>
<line class="st1" x1="51.23" y1="31.84" x2="61.87" y2="31.84"/>
<line class="st1" x1="93.06" y1="20.5" x2="114.34" y2="20.5"/>
<line class="st1" x1="64.2" y1="31.94" x2="67.54" y2="31.94"/>
<line class="st1" x1="87.7" y1="20.6" x2="91.04" y2="20.6"/>
<g>
	<g id="XMLID_1_">
		<g>
			<path class="st4" d="M37,28.73c0.57-0.2,1.2-0.3,1.84-0.3c3.11,0,5.65,2.45,5.79,5.52h-3.19h-1.58h-3.55h-1.65H15.93
				c0.14-3.08,2.68-5.52,5.79-5.52c0.97,0,1.89,0.23,2.69,0.66c1.39-2.06,3.74-3.42,6.42-3.42C33.35,25.66,35.59,26.87,37,28.73z"/>
		</g>
		<g>
			<path class="st1" d="M15.93,34.23c0-0.09,0-0.18,0.01-0.28c0.14-3.08,2.68-5.52,5.79-5.52c0.97,0,1.89,0.23,2.69,0.66
				c1.39-2.06,3.74-3.42,6.42-3.42c2.52,0,4.76,1.21,6.17,3.07c0.04,0.05,0.09,0.1,0.12,0.16"/>
			<path class="st1" d="M36.72,28.82c0.09-0.04,0.18-0.07,0.28-0.09c0.57-0.2,1.2-0.3,1.84-0.3c3.11,0,5.65,2.45,5.79,5.52
				c0.01,0.09,0.01,0.18,0.01,0.28"/>
			<polyline class="st1" points="41.44,33.95 44.64,33.95 44.64,33.95 			"/>
			<line class="st1" x1="36.32" y1="33.95" x2="39.86" y2="33.95"/>
			<polyline class="st1" points="15.93,33.95 15.93,33.95 34.67,33.95 			"/>
		</g>
	</g>
</g>
<g>
	<g id="XMLID_2_">
		<g>
			<path class="st4" d="M142.68,6.94c0.73-0.25,1.5-0.38,2.31-0.38c3.91,0,7.09,3.07,7.27,6.92h-4h-1.99h-4.45h-2.06h-23.52
				c0.18-3.85,3.36-6.92,7.27-6.92c1.22,0,2.37,0.29,3.38,0.83c1.74-2.59,4.7-4.3,8.05-4.3C138.1,3.09,140.91,4.6,142.68,6.94z"/>
		</g>
		<g>
			<path class="st1" d="M116.23,13.83c0-0.12,0-0.23,0.01-0.35c0.18-3.85,3.36-6.92,7.27-6.92c1.22,0,2.37,0.29,3.38,0.83
				c1.74-2.59,4.7-4.3,8.05-4.3c3.16,0,5.96,1.51,7.73,3.85c0.05,0.06,0.11,0.12,0.15,0.2"/>
			<path class="st1" d="M142.33,7.05c0.12-0.04,0.23-0.09,0.35-0.12c0.73-0.25,1.5-0.38,2.31-0.38c3.91,0,7.09,3.07,7.27,6.92
				c0.01,0.12,0.01,0.23,0.01,0.35"/>
			<polyline class="st1" points="148.27,13.48 152.26,13.48 152.27,13.48 			"/>
			<line class="st1" x1="141.82" y1="13.48" x2="146.27" y2="13.48"/>
			<polyline class="st1" points="116.23,13.48 116.24,13.48 139.76,13.48 			"/>
		</g>
	</g>
</g>
<g>
	<rect x="111.22" y="83.57" class="st5" width="9.57" height="1.06"/>
	<polyline class="st1" points="121.07,84.31 119.51,82.91 117.94,84.29 117.87,84.3 115.92,82.55 113.95,84.27 113.88,84.29 
		112.32,82.9 110.75,84.27 	"/>
</g>
<g>
	<rect x="107.68" y="49.53" class="st5" width="9.57" height="1.06"/>
	<polyline class="st1" points="117.62,50.35 116.07,48.9 114.49,50.33 114.43,50.34 112.48,48.52 110.51,50.32 110.44,50.34 
		108.88,48.88 107.3,50.32 	"/>
</g>
<g>
	<rect x="37.67" y="65.81" class="st5" width="9.57" height="1.06"/>
	<polyline class="st1" points="47.61,66.63 46.06,65.18 44.48,66.61 44.42,66.62 42.47,64.8 40.5,66.59 40.43,66.62 38.87,65.16 
		37.3,66.59 	"/>
</g>
</svg>
