<svg xmlns="http://www.w3.org/2000/svg" xmlns:xlink="http://www.w3.org/1999/xlink" viewBox="0 0 356.64 65.84"><defs><style>.cls-1{fill:url(#radial-gradient);}.cls-2{fill:url(#radial-gradient-2);}.cls-3{fill:url(#radial-gradient-3);}.cls-4{opacity:0.3;}.cls-5{fill:url(#radial-gradient-4);}.cls-100,.cls-103,.cls-111,.cls-113,.cls-118,.cls-120,.cls-125,.cls-127,.cls-132,.cls-134,.cls-14,.cls-16,.cls-21,.cls-23,.cls-28,.cls-30,.cls-35,.cls-37,.cls-42,.cls-44,.cls-49,.cls-51,.cls-56,.cls-58,.cls-6,.cls-63,.cls-65,.cls-70,.cls-72,.cls-77,.cls-79,.cls-84,.cls-86,.cls-9,.cls-91,.cls-93,.cls-98{opacity:0.2;}.cls-6{fill:url(#radial-gradient-5);}.cls-7{opacity:0.1;}.cls-8{fill:url(#radial-gradient-6);}.cls-9{fill:url(#radial-gradient-7);}.cls-10{fill:url(#radial-gradient-8);}.cls-11{fill:url(#radial-gradient-9);}.cls-12{fill:url(#radial-gradient-10);}.cls-13{fill:url(#radial-gradient-11);}.cls-14{fill:url(#radial-gradient-12);}.cls-15{fill:url(#radial-gradient-13);}.cls-16{fill:url(#radial-gradient-14);}.cls-17{fill:url(#radial-gradient-15);}.cls-18{fill:url(#radial-gradient-16);}.cls-19{fill:url(#radial-gradient-17);}.cls-20{fill:url(#radial-gradient-18);}.cls-21{fill:url(#radial-gradient-19);}.cls-22{fill:url(#radial-gradient-20);}.cls-23{fill:url(#radial-gradient-21);}.cls-24{fill:url(#radial-gradient-22);}.cls-25{fill:url(#radial-gradient-23);}.cls-26{fill:url(#radial-gradient-24);}.cls-27{fill:url(#radial-gradient-25);}.cls-28{fill:url(#radial-gradient-26);}.cls-29{fill:url(#radial-gradient-27);}.cls-30{fill:url(#radial-gradient-28);}.cls-31{fill:url(#radial-gradient-29);}.cls-32{fill:url(#radial-gradient-30);}.cls-33{fill:url(#radial-gradient-31);}.cls-34{fill:url(#radial-gradient-32);}.cls-35{fill:url(#radial-gradient-33);}.cls-36{fill:url(#radial-gradient-34);}.cls-37{fill:url(#radial-gradient-35);}.cls-38{fill:url(#radial-gradient-36);}.cls-39{fill:url(#radial-gradient-37);}.cls-40{fill:url(#radial-gradient-38);}.cls-41{fill:url(#radial-gradient-39);}.cls-42{fill:url(#radial-gradient-40);}.cls-43{fill:url(#radial-gradient-41);}.cls-44{fill:url(#radial-gradient-42);}.cls-45{fill:url(#radial-gradient-43);}.cls-46{fill:url(#radial-gradient-44);}.cls-47{fill:url(#radial-gradient-45);}.cls-48{fill:url(#radial-gradient-46);}.cls-49{fill:url(#radial-gradient-47);}.cls-50{fill:url(#radial-gradient-48);}.cls-51{fill:url(#radial-gradient-49);}.cls-52{fill:url(#radial-gradient-50);}.cls-53{fill:url(#radial-gradient-51);}.cls-54{fill:url(#radial-gradient-52);}.cls-55{fill:url(#radial-gradient-53);}.cls-56{fill:url(#radial-gradient-54);}.cls-57{fill:url(#radial-gradient-55);}.cls-58{fill:url(#radial-gradient-56);}.cls-59{fill:url(#radial-gradient-57);}.cls-60{fill:url(#radial-gradient-58);}.cls-61{fill:url(#radial-gradient-59);}.cls-62{fill:url(#radial-gradient-60);}.cls-63{fill:url(#radial-gradient-61);}.cls-64{fill:url(#radial-gradient-62);}.cls-65{fill:url(#radial-gradient-63);}.cls-66{fill:url(#radial-gradient-64);}.cls-67{fill:url(#radial-gradient-65);}.cls-68{fill:url(#radial-gradient-66);}.cls-69{fill:url(#radial-gradient-67);}.cls-70{fill:url(#radial-gradient-68);}.cls-71{fill:url(#radial-gradient-69);}.cls-72{fill:url(#radial-gradient-70);}.cls-73{fill:url(#radial-gradient-71);}.cls-74{fill:url(#radial-gradient-72);}.cls-75{fill:url(#radial-gradient-73);}.cls-76{fill:url(#radial-gradient-74);}.cls-77{fill:url(#radial-gradient-75);}.cls-78{fill:url(#radial-gradient-76);}.cls-79{fill:url(#radial-gradient-77);}.cls-80{fill:url(#radial-gradient-78);}.cls-81{fill:url(#radial-gradient-79);}.cls-82{fill:url(#radial-gradient-80);}.cls-83{fill:url(#radial-gradient-81);}.cls-84{fill:url(#radial-gradient-82);}.cls-85{fill:url(#radial-gradient-83);}.cls-86{fill:url(#radial-gradient-84);}.cls-87{fill:url(#radial-gradient-85);}.cls-88{fill:url(#radial-gradient-86);}.cls-89{fill:url(#radial-gradient-87);}.cls-90{fill:url(#radial-gradient-88);}.cls-91{fill:url(#radial-gradient-89);}.cls-92{fill:url(#radial-gradient-90);}.cls-93{fill:url(#radial-gradient-91);}.cls-94{fill:url(#radial-gradient-92);}.cls-95{fill:url(#radial-gradient-93);}.cls-96{fill:url(#radial-gradient-94);}.cls-97{fill:url(#radial-gradient-95);}.cls-98{fill:url(#radial-gradient-96);}.cls-99{fill:url(#radial-gradient-97);}.cls-100{fill:url(#radial-gradient-98);}.cls-101{opacity:0.7;}.cls-102{fill:url(#radial-gradient-99);}.cls-103{fill:url(#radial-gradient-100);}.cls-104{fill:url(#radial-gradient-101);}.cls-105{fill:url(#radial-gradient-102);}.cls-106{fill:url(#radial-gradient-103);}.cls-107{fill:url(#radial-gradient-104);}.cls-108{fill:url(#radial-gradient-105);}.cls-109{fill:url(#radial-gradient-106);}.cls-110{fill:url(#radial-gradient-107);}.cls-111{fill:url(#radial-gradient-108);}.cls-112{fill:url(#radial-gradient-109);}.cls-113{fill:url(#radial-gradient-110);}.cls-114{fill:url(#radial-gradient-111);}.cls-115{fill:url(#radial-gradient-112);}.cls-116{fill:url(#radial-gradient-113);}.cls-117{fill:url(#radial-gradient-114);}.cls-118{fill:url(#radial-gradient-115);}.cls-119{fill:url(#radial-gradient-116);}.cls-120{fill:url(#radial-gradient-117);}.cls-121{fill:url(#radial-gradient-118);}.cls-122{fill:url(#radial-gradient-119);}.cls-123{fill:url(#radial-gradient-120);}.cls-124{fill:url(#radial-gradient-121);}.cls-125{fill:url(#radial-gradient-122);}.cls-126{fill:url(#radial-gradient-123);}.cls-127{fill:url(#radial-gradient-124);}.cls-128{fill:url(#radial-gradient-125);}.cls-129{fill:url(#radial-gradient-126);}.cls-130{fill:url(#radial-gradient-127);}.cls-131{fill:url(#radial-gradient-128);}.cls-132{fill:url(#radial-gradient-129);}.cls-133{fill:url(#radial-gradient-130);}.cls-134{fill:url(#radial-gradient-131);}</style><radialGradient id="radial-gradient" cx="152.92" cy="-1055.66" r="1.23" gradientTransform="matrix(-7.39, 0.46, -0.07, -1.11, 1124.94, -1189.01)" gradientUnits="userSpaceOnUse"><stop offset="0" stop-color="#fff"/><stop offset="0.28" stop-color="#fff" stop-opacity="0.3"/><stop offset="1" stop-color="#ecf5f7" stop-opacity="0"/></radialGradient><radialGradient id="radial-gradient-2" cx="155.63" cy="-1036.85" r="1.23" gradientTransform="matrix(0.06, 7.36, 1.12, -0.01, 1222.18, -1098.69)" xlink:href="#radial-gradient"/><radialGradient id="radial-gradient-3" cx="490.66" cy="460.37" r="5.1" gradientTransform="matrix(1, -0.06, 0.06, 1, -453.45, -372.24)" xlink:href="#radial-gradient"/><radialGradient id="radial-gradient-4" cx="135.73" cy="504.17" r="0.63" gradientTransform="matrix(0.39, -8.11, 7.95, 0.38, -3993.02, 967.2)" xlink:href="#radial-gradient"/><radialGradient id="radial-gradient-5" cx="135.73" cy="504.17" r="0.68" gradientTransform="matrix(0.39, -8.11, 7.95, 0.38, -3993.02, 967.2)" xlink:href="#radial-gradient"/><radialGradient id="radial-gradient-6" cx="135.73" cy="504.17" r="0.77" gradientTransform="matrix(0.39, -8.11, 7.95, 0.38, -3993.02, 967.2)" xlink:href="#radial-gradient"/><radialGradient id="radial-gradient-7" cx="135.73" cy="504.18" r="0.83" gradientTransform="matrix(0.39, -8.11, 7.95, 0.38, -3993.02, 967.2)" xlink:href="#radial-gradient"/><radialGradient id="radial-gradient-8" cx="154.71" cy="-1019.78" r="0.42" xlink:href="#radial-gradient"/><radialGradient id="radial-gradient-9" cx="150.32" cy="-1050.27" r="0.42" gradientTransform="matrix(0.06, 7.36, 1.12, -0.01, 1222.18, -1098.69)" xlink:href="#radial-gradient"/><radialGradient id="radial-gradient-10" cx="477.68" cy="420.49" r="1.74" gradientTransform="matrix(1, -0.06, 0.06, 1, -453.45, -372.24)" xlink:href="#radial-gradient"/><radialGradient id="radial-gradient-11" cx="140.44" cy="501.98" r="0.22" gradientTransform="matrix(0.39, -8.11, 7.95, 0.38, -3993.02, 967.2)" xlink:href="#radial-gradient"/><radialGradient id="radial-gradient-12" cx="140.44" cy="501.99" r="0.23" gradientTransform="matrix(0.39, -8.11, 7.95, 0.38, -3993.02, 967.2)" xlink:href="#radial-gradient"/><radialGradient id="radial-gradient-13" cx="140.44" cy="501.99" r="0.27" gradientTransform="matrix(0.39, -8.11, 7.95, 0.38, -3993.02, 967.2)" xlink:href="#radial-gradient"/><radialGradient id="radial-gradient-14" cx="140.44" cy="501.99" r="0.28" gradientTransform="matrix(0.39, -8.11, 7.95, 0.38, -3993.02, 967.2)" xlink:href="#radial-gradient"/><radialGradient id="radial-gradient-15" cx="144.65" cy="-1034.66" r="0.49" xlink:href="#radial-gradient"/><radialGradient id="radial-gradient-16" cx="152.02" cy="-983.13" r="0.49" gradientTransform="matrix(0.06, 7.36, 1.12, -0.01, 1222.18, -1098.69)" xlink:href="#radial-gradient"/><radialGradient id="radial-gradient-17" cx="551.78" cy="437" r="2.04" gradientTransform="matrix(1, -0.06, 0.06, 1, -453.45, -372.24)" xlink:href="#radial-gradient"/><radialGradient id="radial-gradient-18" cx="139.43" cy="511.53" r="0.25" gradientTransform="matrix(0.39, -8.11, 7.95, 0.38, -3993.02, 967.2)" xlink:href="#radial-gradient"/><radialGradient id="radial-gradient-19" cx="139.43" cy="511.53" r="0.27" gradientTransform="matrix(0.39, -8.11, 7.95, 0.38, -3993.02, 967.2)" xlink:href="#radial-gradient"/><radialGradient id="radial-gradient-20" cx="139.42" cy="511.53" r="0.31" gradientTransform="matrix(0.39, -8.11, 7.95, 0.38, -3993.02, 967.2)" xlink:href="#radial-gradient"/><radialGradient id="radial-gradient-21" cx="139.42" cy="511.53" r="0.33" gradientTransform="matrix(0.39, -8.11, 7.95, 0.38, -3993.02, 967.2)" xlink:href="#radial-gradient"/><radialGradient id="radial-gradient-22" cx="161.03" cy="-1028.53" r="0.49" xlink:href="#radial-gradient"/><radialGradient id="radial-gradient-23" cx="151.98" cy="-1091.42" r="0.49" gradientTransform="matrix(0.06, 7.36, 1.12, -0.01, 1222.18, -1098.69)" xlink:href="#radial-gradient"/><radialGradient id="radial-gradient-24" cx="431.21" cy="430.28" r="2.04" gradientTransform="matrix(1, -0.06, 0.06, 1, -453.45, -372.24)" xlink:href="#radial-gradient"/><radialGradient id="radial-gradient-25" cx="138.62" cy="496.28" r="0.25" gradientTransform="matrix(0.39, -8.11, 7.95, 0.38, -3993.02, 967.2)" xlink:href="#radial-gradient"/><radialGradient id="radial-gradient-26" cx="138.62" cy="496.28" r="0.27" gradientTransform="matrix(0.39, -8.11, 7.95, 0.38, -3993.02, 967.2)" xlink:href="#radial-gradient"/><radialGradient id="radial-gradient-27" cx="138.62" cy="496.28" r="0.31" gradientTransform="matrix(0.39, -8.11, 7.95, 0.38, -3993.02, 967.2)" xlink:href="#radial-gradient"/><radialGradient id="radial-gradient-28" cx="138.61" cy="496.28" r="0.33" gradientTransform="matrix(0.39, -8.11, 7.95, 0.38, -3993.02, 967.2)" xlink:href="#radial-gradient"/><radialGradient id="radial-gradient-29" cx="156.67" cy="-1039.35" r="0.49" xlink:href="#radial-gradient"/><radialGradient id="radial-gradient-30" cx="153.38" cy="-1062.14" r="0.49" gradientTransform="matrix(0.06, 7.36, 1.12, -0.01, 1222.18, -1098.69)" xlink:href="#radial-gradient"/><radialGradient id="radial-gradient-31" cx="463.25" cy="442.31" r="2.04" gradientTransform="matrix(1, -0.06, 0.06, 1, -453.45, -372.24)" xlink:href="#radial-gradient"/><radialGradient id="radial-gradient-32" cx="137.58" cy="500.47" r="0.25" gradientTransform="matrix(0.39, -8.11, 7.95, 0.38, -3993.02, 967.2)" xlink:href="#radial-gradient"/><radialGradient id="radial-gradient-33" cx="137.58" cy="500.48" r="0.27" gradientTransform="matrix(0.39, -8.11, 7.95, 0.38, -3993.02, 967.2)" xlink:href="#radial-gradient"/><radialGradient id="radial-gradient-34" cx="137.58" cy="500.48" r="0.31" gradientTransform="matrix(0.39, -8.11, 7.95, 0.38, -3993.02, 967.2)" xlink:href="#radial-gradient"/><radialGradient id="radial-gradient-35" cx="137.58" cy="500.48" r="0.33" gradientTransform="matrix(0.39, -8.11, 7.95, 0.38, -3993.02, 967.2)" xlink:href="#radial-gradient"/><radialGradient id="radial-gradient-36" cx="161.24" cy="-1004.33" r="0.49" xlink:href="#radial-gradient"/><radialGradient id="radial-gradient-37" cx="148.33" cy="-1094.15" r="0.49" gradientTransform="matrix(0.06, 7.36, 1.12, -0.01, 1222.18, -1098.69)" xlink:href="#radial-gradient"/><radialGradient id="radial-gradient-38" cx="429.61" cy="403.29" r="2.04" gradientTransform="matrix(1, -0.06, 0.06, 1, -453.45, -372.24)" xlink:href="#radial-gradient"/><radialGradient id="radial-gradient-39" cx="141.9" cy="495.7" r="0.25" gradientTransform="matrix(0.39, -8.11, 7.95, 0.38, -3993.02, 967.2)" xlink:href="#radial-gradient"/><radialGradient id="radial-gradient-40" cx="141.9" cy="495.7" r="0.27" gradientTransform="matrix(0.39, -8.11, 7.95, 0.38, -3993.02, 967.2)" xlink:href="#radial-gradient"/><radialGradient id="radial-gradient-41" cx="141.9" cy="495.7" r="0.31" gradientTransform="matrix(0.39, -8.11, 7.95, 0.38, -3993.02, 967.2)" xlink:href="#radial-gradient"/><radialGradient id="radial-gradient-42" cx="141.9" cy="495.71" r="0.33" gradientTransform="matrix(0.39, -8.11, 7.95, 0.38, -3993.02, 967.2)" xlink:href="#radial-gradient"/><radialGradient id="radial-gradient-43" cx="115.86" cy="-1027.8" r="0.68" xlink:href="#radial-gradient"/><radialGradient id="radial-gradient-44" cx="149.41" cy="-793.9" r="0.68" gradientTransform="matrix(0.06, 7.36, 1.12, -0.01, 1222.18, -1098.69)" xlink:href="#radial-gradient"/><radialGradient id="radial-gradient-45" cx="763.54" cy="429.14" r="2.81" gradientTransform="matrix(1, -0.06, 0.06, 1, -453.45, -372.24)" xlink:href="#radial-gradient"/><radialGradient id="radial-gradient-46" cx="143.25" cy="538.04" r="0.35" gradientTransform="matrix(0.39, -8.11, 7.95, 0.38, -3993.02, 967.2)" xlink:href="#radial-gradient"/><radialGradient id="radial-gradient-47" cx="143.25" cy="538.05" r="0.37" gradientTransform="matrix(0.39, -8.11, 7.95, 0.38, -3993.02, 967.2)" xlink:href="#radial-gradient"/><radialGradient id="radial-gradient-48" cx="143.25" cy="538.04" r="0.43" gradientTransform="matrix(0.39, -8.11, 7.95, 0.38, -3993.02, 967.2)" xlink:href="#radial-gradient"/><radialGradient id="radial-gradient-49" cx="143.25" cy="538.05" r="0.46" gradientTransform="matrix(0.39, -8.11, 7.95, 0.38, -3993.02, 967.2)" xlink:href="#radial-gradient"/><radialGradient id="radial-gradient-50" cx="121.61" cy="-1030" r="0.68" xlink:href="#radial-gradient"/><radialGradient id="radial-gradient-51" cx="150.06" cy="-831.61" r="0.68" gradientTransform="matrix(0.06, 7.36, 1.12, -0.01, 1222.18, -1098.69)" xlink:href="#radial-gradient"/><radialGradient id="radial-gradient-52" cx="721.29" cy="431.63" r="2.81" gradientTransform="matrix(1, -0.06, 0.06, 1, -453.45, -372.24)" xlink:href="#radial-gradient"/><radialGradient id="radial-gradient-53" cx="142.38" cy="532.77" r="0.35" gradientTransform="matrix(0.39, -8.11, 7.95, 0.38, -3993.02, 967.2)" xlink:href="#radial-gradient"/><radialGradient id="radial-gradient-54" cx="142.38" cy="532.77" r="0.37" gradientTransform="matrix(0.39, -8.11, 7.95, 0.38, -3993.02, 967.2)" xlink:href="#radial-gradient"/><radialGradient id="radial-gradient-55" cx="142.38" cy="532.77" r="0.43" gradientTransform="matrix(0.39, -8.11, 7.95, 0.38, -3993.02, 967.2)" xlink:href="#radial-gradient"/><radialGradient id="radial-gradient-56" cx="142.37" cy="532.77" r="0.46" gradientTransform="matrix(0.39, -8.11, 7.95, 0.38, -3993.02, 967.2)" xlink:href="#radial-gradient"/><radialGradient id="radial-gradient-57" cx="114.49" cy="-1069.33" r="0.36" xlink:href="#radial-gradient"/><radialGradient id="radial-gradient-58" cx="155.62" cy="-782.46" r="0.36" gradientTransform="matrix(0.06, 7.36, 1.12, -0.01, 1222.18, -1098.69)" xlink:href="#radial-gradient"/><radialGradient id="radial-gradient-59" cx="773.78" cy="475.48" r="1.51" gradientTransform="matrix(1, -0.06, 0.06, 1, -453.45, -372.24)" xlink:href="#radial-gradient"/><radialGradient id="radial-gradient-60" cx="137.72" cy="539.98" r="0.19" gradientTransform="matrix(0.39, -8.11, 7.95, 0.38, -3993.02, 967.2)" xlink:href="#radial-gradient"/><radialGradient id="radial-gradient-61" cx="137.72" cy="539.98" r="0.2" gradientTransform="matrix(0.39, -8.11, 7.95, 0.38, -3993.02, 967.2)" xlink:href="#radial-gradient"/><radialGradient id="radial-gradient-62" cx="137.72" cy="539.98" r="0.23" gradientTransform="matrix(0.39, -8.11, 7.95, 0.38, -3993.02, 967.2)" xlink:href="#radial-gradient"/><radialGradient id="radial-gradient-63" cx="137.72" cy="539.98" r="0.25" gradientTransform="matrix(0.39, -8.11, 7.95, 0.38, -3993.02, 967.2)" xlink:href="#radial-gradient"/><radialGradient id="radial-gradient-64" cx="128.05" cy="-1019.81" r="0.36" xlink:href="#radial-gradient"/><radialGradient id="radial-gradient-65" cx="148.87" cy="-874.48" r="0.36" gradientTransform="matrix(0.06, 7.36, 1.12, -0.01, 1222.18, -1098.69)" xlink:href="#radial-gradient"/><radialGradient id="radial-gradient-66" cx="673.97" cy="420.36" r="1.51" gradientTransform="matrix(1, -0.06, 0.06, 1, -453.45, -372.24)" xlink:href="#radial-gradient"/><radialGradient id="radial-gradient-67" cx="143.12" cy="526.66" r="0.19" gradientTransform="matrix(0.39, -8.11, 7.95, 0.38, -3993.02, 967.2)" xlink:href="#radial-gradient"/><radialGradient id="radial-gradient-68" cx="143.12" cy="526.67" r="0.2" gradientTransform="matrix(0.39, -8.11, 7.95, 0.38, -3993.02, 967.2)" xlink:href="#radial-gradient"/><radialGradient id="radial-gradient-69" cx="143.12" cy="526.66" r="0.23" gradientTransform="matrix(0.39, -8.11, 7.95, 0.38, -3993.02, 967.2)" xlink:href="#radial-gradient"/><radialGradient id="radial-gradient-70" cx="143.12" cy="526.67" r="0.25" gradientTransform="matrix(0.39, -8.11, 7.95, 0.38, -3993.02, 967.2)" xlink:href="#radial-gradient"/><radialGradient id="radial-gradient-71" cx="119.28" cy="-1023.92" r="0.36" xlink:href="#radial-gradient"/><radialGradient id="radial-gradient-72" cx="149.01" cy="-816.51" r="0.36" gradientTransform="matrix(0.06, 7.36, 1.12, -0.01, 1222.18, -1098.69)" xlink:href="#radial-gradient"/><radialGradient id="radial-gradient-73" cx="738.47" cy="424.89" r="1.51" gradientTransform="matrix(1, -0.06, 0.06, 1, -453.45, -372.24)" xlink:href="#radial-gradient"/><radialGradient id="radial-gradient-74" cx="143.44" cy="534.83" r="0.19" gradientTransform="matrix(0.39, -8.11, 7.95, 0.38, -3993.02, 967.2)" xlink:href="#radial-gradient"/><radialGradient id="radial-gradient-75" cx="143.44" cy="534.84" r="0.2" gradientTransform="matrix(0.39, -8.11, 7.95, 0.38, -3993.02, 967.2)" xlink:href="#radial-gradient"/><radialGradient id="radial-gradient-76" cx="143.44" cy="534.84" r="0.23" gradientTransform="matrix(0.39, -8.11, 7.95, 0.38, -3993.02, 967.2)" xlink:href="#radial-gradient"/><radialGradient id="radial-gradient-77" cx="143.44" cy="534.84" r="0.25" gradientTransform="matrix(0.39, -8.11, 7.95, 0.38, -3993.02, 967.2)" xlink:href="#radial-gradient"/><radialGradient id="radial-gradient-78" cx="118.47" cy="-1043.45" r="0.14" xlink:href="#radial-gradient"/><radialGradient id="radial-gradient-79" cx="151.93" cy="-810.01" r="0.14" gradientTransform="matrix(0.06, 7.36, 1.12, -0.01, 1222.18, -1098.69)" xlink:href="#radial-gradient"/><radialGradient id="radial-gradient-80" cx="744.52" cy="446.68" r="0.57" gradientTransform="matrix(1, -0.06, 0.06, 1, -453.45, -372.24)" xlink:href="#radial-gradient"/><radialGradient id="radial-gradient-81" cx="140.85" cy="535.9" r="0.07" gradientTransform="matrix(0.39, -8.11, 7.95, 0.38, -3993.02, 967.2)" xlink:href="#radial-gradient"/><radialGradient id="radial-gradient-82" cx="140.85" cy="535.9" r="0.08" gradientTransform="matrix(0.39, -8.11, 7.95, 0.38, -3993.02, 967.2)" xlink:href="#radial-gradient"/><radialGradient id="radial-gradient-83" cx="140.85" cy="535.9" r="0.09" gradientTransform="matrix(0.39, -8.11, 7.95, 0.38, -3993.02, 967.2)" xlink:href="#radial-gradient"/><radialGradient id="radial-gradient-84" cx="140.85" cy="535.9" r="0.09" gradientTransform="matrix(0.39, -8.11, 7.95, 0.38, -3993.02, 967.2)" xlink:href="#radial-gradient"/><radialGradient id="radial-gradient-85" cx="118.72" cy="-1058.07" r="0.36" xlink:href="#radial-gradient"/><radialGradient id="radial-gradient-86" cx="154.15" cy="-810.97" r="0.36" gradientTransform="matrix(0.06, 7.36, 1.12, -0.01, 1222.18, -1098.69)" xlink:href="#radial-gradient"/><radialGradient id="radial-gradient-87" cx="742.61" cy="462.96" r="1.51" gradientTransform="matrix(1, -0.06, 0.06, 1, -453.45, -372.24)" xlink:href="#radial-gradient"/><radialGradient id="radial-gradient-88" cx="138.83" cy="535.89" r="0.19" gradientTransform="matrix(0.39, -8.11, 7.95, 0.38, -3993.02, 967.2)" xlink:href="#radial-gradient"/><radialGradient id="radial-gradient-89" cx="138.83" cy="535.89" r="0.2" gradientTransform="matrix(0.39, -8.11, 7.95, 0.38, -3993.02, 967.2)" xlink:href="#radial-gradient"/><radialGradient id="radial-gradient-90" cx="138.83" cy="535.89" r="0.23" gradientTransform="matrix(0.39, -8.11, 7.95, 0.38, -3993.02, 967.2)" xlink:href="#radial-gradient"/><radialGradient id="radial-gradient-91" cx="138.83" cy="535.89" r="0.25" gradientTransform="matrix(0.39, -8.11, 7.95, 0.38, -3993.02, 967.2)" xlink:href="#radial-gradient"/><radialGradient id="radial-gradient-92" cx="124.68" cy="-1062.99" r="0.36" xlink:href="#radial-gradient"/><radialGradient id="radial-gradient-93" cx="155.22" cy="-849.96" r="0.36" gradientTransform="matrix(0.06, 7.36, 1.12, -0.01, 1222.18, -1098.69)" xlink:href="#radial-gradient"/><radialGradient id="radial-gradient-94" cx="698.77" cy="468.48" r="1.51" gradientTransform="matrix(1, -0.06, 0.06, 1, -453.45, -372.24)" xlink:href="#radial-gradient"/><radialGradient id="radial-gradient-95" cx="137.56" cy="530.45" r="0.19" gradientTransform="matrix(0.39, -8.11, 7.95, 0.38, -3993.02, 967.2)" xlink:href="#radial-gradient"/><radialGradient id="radial-gradient-96" cx="137.56" cy="530.45" r="0.2" gradientTransform="matrix(0.39, -8.11, 7.95, 0.38, -3993.02, 967.2)" xlink:href="#radial-gradient"/><radialGradient id="radial-gradient-97" cx="137.56" cy="530.45" r="0.23" gradientTransform="matrix(0.39, -8.11, 7.95, 0.38, -3993.02, 967.2)" xlink:href="#radial-gradient"/><radialGradient id="radial-gradient-98" cx="137.56" cy="530.45" r="0.25" gradientTransform="matrix(0.39, -8.11, 7.95, 0.38, -3993.02, 967.2)" xlink:href="#radial-gradient"/><radialGradient id="radial-gradient-99" cx="137.6" cy="526.2" r="0.29" gradientTransform="matrix(0.47, -8.11, 7.95, 0.45, -3974.72, 895.72)" gradientUnits="userSpaceOnUse"><stop offset="0.76" stop-color="#fff" stop-opacity="0.03"/><stop offset="0.82" stop-color="#fff" stop-opacity="0.95"/><stop offset="0.86" stop-color="#fff" stop-opacity="0.03"/></radialGradient><radialGradient id="radial-gradient-100" cx="137.6" cy="526.2" r="0.31" xlink:href="#radial-gradient-99"/><radialGradient id="radial-gradient-101" cx="129.04" cy="-1058.17" r="0.57" gradientTransform="matrix(-7.4, 0.39, -0.06, -1.11, 1162.59, -1210.46)" gradientUnits="userSpaceOnUse"><stop offset="0" stop-color="#fff"/><stop offset="0.04" stop-color="#fff"/><stop offset="0.25" stop-color="#fff"/><stop offset="0.94" stop-color="#fff" stop-opacity="0"/></radialGradient><radialGradient id="radial-gradient-102" cx="154.94" cy="-878.17" r="0.57" gradientTransform="matrix(-0.01, 7.36, 1.12, 0, 1258, -1120.93)" gradientUnits="userSpaceOnUse"><stop offset="0" stop-color="#fff"/><stop offset="0.04" stop-color="#fff"/><stop offset="0.25" stop-color="#fff"/><stop offset="0.88" stop-color="#fff" stop-opacity="0"/></radialGradient><radialGradient id="radial-gradient-103" cx="668.2" cy="463.76" r="2.37" gradientTransform="matrix(1.01, -0.05, 0.05, 1, -425.04, -409.27)" gradientUnits="userSpaceOnUse"><stop offset="0" stop-color="#fff"/><stop offset="0.04" stop-color="#fff"/><stop offset="0.18" stop-color="#fff"/><stop offset="0.73" stop-color="#fff" stop-opacity="0"/></radialGradient><radialGradient id="radial-gradient-104" cx="139.43" cy="-1022.92" r="0.82" xlink:href="#radial-gradient"/><radialGradient id="radial-gradient-105" cx="149.95" cy="-949.55" r="0.82" gradientTransform="matrix(0.06, 7.36, 1.12, -0.01, 1222.18, -1098.69)" xlink:href="#radial-gradient"/><radialGradient id="radial-gradient-106" cx="590.04" cy="423.83" r="3.39" gradientTransform="matrix(1, -0.06, 0.06, 1, -453.45, -372.24)" xlink:href="#radial-gradient"/><radialGradient id="radial-gradient-107" cx="141.55" cy="516.16" r="0.42" gradientTransform="matrix(0.39, -8.11, 7.95, 0.38, -3993.02, 967.2)" xlink:href="#radial-gradient"/><radialGradient id="radial-gradient-108" cx="141.55" cy="516.16" r="0.45" gradientTransform="matrix(0.39, -8.11, 7.95, 0.38, -3993.02, 967.2)" xlink:href="#radial-gradient"/><radialGradient id="radial-gradient-109" cx="141.55" cy="516.16" r="0.52" gradientTransform="matrix(0.39, -8.11, 7.95, 0.38, -3993.02, 967.2)" xlink:href="#radial-gradient"/><radialGradient id="radial-gradient-110" cx="141.55" cy="516.16" r="0.55" gradientTransform="matrix(0.39, -8.11, 7.95, 0.38, -3993.02, 967.2)" xlink:href="#radial-gradient"/><radialGradient id="radial-gradient-111" cx="147.21" cy="-1010.62" r="0.44" xlink:href="#radial-gradient"/><radialGradient id="radial-gradient-112" cx="148.52" cy="-1001.29" r="0.44" gradientTransform="matrix(0.06, 7.36, 1.12, -0.01, 1222.18, -1098.69)" xlink:href="#radial-gradient"/><radialGradient id="radial-gradient-113" cx="532.92" cy="410.23" r="1.82" gradientTransform="matrix(1, -0.06, 0.06, 1, -453.45, -372.24)" xlink:href="#radial-gradient"/><radialGradient id="radial-gradient-114" cx="142.45" cy="508.79" r="0.22" gradientTransform="matrix(0.39, -8.11, 7.95, 0.38, -3993.02, 967.2)" xlink:href="#radial-gradient"/><radialGradient id="radial-gradient-115" cx="142.45" cy="508.79" r="0.24" gradientTransform="matrix(0.39, -8.11, 7.95, 0.38, -3993.02, 967.2)" xlink:href="#radial-gradient"/><radialGradient id="radial-gradient-116" cx="142.45" cy="508.79" r="0.28" gradientTransform="matrix(0.39, -8.11, 7.95, 0.38, -3993.02, 967.2)" xlink:href="#radial-gradient"/><radialGradient id="radial-gradient-117" cx="142.45" cy="508.79" r="0.3" gradientTransform="matrix(0.39, -8.11, 7.95, 0.38, -3993.02, 967.2)" xlink:href="#radial-gradient"/><radialGradient id="radial-gradient-118" cx="136.63" cy="-1015.58" r="0.44" xlink:href="#radial-gradient"/><radialGradient id="radial-gradient-119" cx="148.7" cy="-931.31" r="0.44" gradientTransform="matrix(0.06, 7.36, 1.12, -0.01, 1222.18, -1098.69)" xlink:href="#radial-gradient"/><radialGradient id="radial-gradient-120" cx="610.77" cy="415.69" r="1.82" gradientTransform="matrix(1, -0.06, 0.06, 1, -453.45, -372.24)" xlink:href="#radial-gradient"/><radialGradient id="radial-gradient-121" cx="142.83" cy="518.65" r="0.22" gradientTransform="matrix(0.39, -8.11, 7.95, 0.38, -3993.02, 967.2)" xlink:href="#radial-gradient"/><radialGradient id="radial-gradient-122" cx="142.83" cy="518.65" r="0.24" gradientTransform="matrix(0.39, -8.11, 7.95, 0.38, -3993.02, 967.2)" xlink:href="#radial-gradient"/><radialGradient id="radial-gradient-123" cx="142.83" cy="518.65" r="0.28" gradientTransform="matrix(0.39, -8.11, 7.95, 0.38, -3993.02, 967.2)" xlink:href="#radial-gradient"/><radialGradient id="radial-gradient-124" cx="142.83" cy="518.66" r="0.3" gradientTransform="matrix(0.39, -8.11, 7.95, 0.38, -3993.02, 967.2)" xlink:href="#radial-gradient"/><radialGradient id="radial-gradient-125" cx="135.65" cy="-1039.15" r="0.17" xlink:href="#radial-gradient"/><radialGradient id="radial-gradient-126" cx="152.21" cy="-923.46" r="0.17" gradientTransform="matrix(0.06, 7.36, 1.12, -0.01, 1222.18, -1098.69)" xlink:href="#radial-gradient"/><radialGradient id="radial-gradient-127" cx="618.08" cy="442" r="0.69" gradientTransform="matrix(1, -0.06, 0.06, 1, -453.45, -372.24)" xlink:href="#radial-gradient"/><radialGradient id="radial-gradient-128" cx="139.71" cy="519.94" r="0.09" gradientTransform="matrix(0.39, -8.11, 7.95, 0.38, -3993.02, 967.2)" xlink:href="#radial-gradient"/><radialGradient id="radial-gradient-129" cx="139.71" cy="519.94" r="0.09" gradientTransform="matrix(0.39, -8.11, 7.95, 0.38, -3993.02, 967.2)" xlink:href="#radial-gradient"/><radialGradient id="radial-gradient-130" cx="139.71" cy="519.94" r="0.11" gradientTransform="matrix(0.39, -8.11, 7.95, 0.38, -3993.02, 967.2)" xlink:href="#radial-gradient"/><radialGradient id="radial-gradient-131" cx="139.71" cy="519.94" r="0.11" gradientTransform="matrix(0.39, -8.11, 7.95, 0.38, -3993.02, 967.2)" xlink:href="#radial-gradient"/></defs><g id="레이어_2" data-name="레이어 2"><g id="레이어_1-2" data-name="레이어 1"><path class="cls-1" d="M59.69,57.51c0-.76,4-1.63,9-1.94s9.12,0,9.17.8-4,1.62-9,1.94S59.74,58.26,59.69,57.51Z"/><path class="cls-2" d="M68.29,65.84c.76,0,1.34-4.05,1.3-9.05s-.7-9-1.46-9-1.34,4.06-1.3,9.05S67.53,65.85,68.29,65.84Z"/><path class="cls-3" d="M73.54,56.46a5.13,5.13,0,1,1-5.44-4.77A5.12,5.12,0,0,1,73.54,56.46Z"/><g class="cls-4"><path class="cls-5" d="M68.6,51.74a5.11,5.11,0,1,1-5.25,4.87A5.05,5.05,0,0,1,68.6,51.74Z"/><path class="cls-6" d="M68.68,51.37A5.5,5.5,0,1,1,63,56.6,5.45,5.45,0,0,1,68.68,51.37Z"/></g><g class="cls-7"><path class="cls-8" d="M68.67,50.58a6.29,6.29,0,1,1-6.46,6A6.22,6.22,0,0,1,68.67,50.58Z"/><path class="cls-9" d="M68.76,50.14a6.75,6.75,0,1,1-6.94,6.43A6.68,6.68,0,0,1,68.76,50.14Z"/></g><path class="cls-10" d="M49.88,18c0-.26,1.37-.55,3.08-.66s3.13,0,3.15.27-1.37.56-3.09.67S49.9,18.29,49.88,18Z"/><path class="cls-11" d="M52.83,20.89c.26,0,.46-1.39.44-3.1s-.24-3.1-.5-3.1-.46,1.4-.44,3.1S52.57,20.89,52.83,20.89Z"/><path class="cls-12" d="M54.63,17.68A1.76,1.76,0,1,1,52.76,16,1.75,1.75,0,0,1,54.63,17.68Z"/><g class="cls-4"><path class="cls-13" d="M52.94,16.06a1.75,1.75,0,1,1-1.8,1.66A1.74,1.74,0,0,1,52.94,16.06Z"/><path class="cls-14" d="M53,15.93A1.88,1.88,0,1,1,51,17.72,1.86,1.86,0,0,1,53,15.93Z"/></g><g class="cls-7"><path class="cls-15" d="M53,15.66a2.16,2.16,0,1,1-2.21,2.05A2.13,2.13,0,0,1,53,15.66Z"/><path class="cls-16" d="M53,15.51a2.31,2.31,0,1,1-2.37,2.2A2.29,2.29,0,0,1,53,15.51Z"/></g><path class="cls-17" d="M124.87,30c0-.3,1.59-.65,3.6-.78s3.65,0,3.67.32-1.59.65-3.6.78S124.89,30.25,124.87,30Z"/><path class="cls-18" d="M128.31,33.28c.31,0,.54-1.62.52-3.62s-.28-3.61-.58-3.61-.54,1.62-.52,3.62S128,33.28,128.31,33.28Z"/><path class="cls-19" d="M130.41,29.53a2,2,0,1,1-2.17-1.91A2,2,0,0,1,130.41,29.53Z"/><g class="cls-4"><path class="cls-20" d="M128.44,27.64a2,2,0,1,1-2.1,1.95A2,2,0,0,1,128.44,27.64Z"/><path class="cls-21" d="M128.47,27.5a2.19,2.19,0,1,1-2.26,2.09A2.17,2.17,0,0,1,128.47,27.5Z"/></g><g class="cls-7"><path class="cls-22" d="M128.46,27.18a2.52,2.52,0,1,1-2.58,2.4A2.5,2.5,0,0,1,128.46,27.18Z"/><path class="cls-23" d="M128.5,27a2.7,2.7,0,1,1-2.77,2.57A2.67,2.67,0,0,1,128.5,27Z"/></g><path class="cls-24" d="M3.3,30.74c0-.3,1.59-.65,3.6-.78s3.65,0,3.67.32S9,30.93,7,31.06,3.32,31,3.3,30.74Z"/><path class="cls-25" d="M6.74,34.07c.31,0,.54-1.62.52-3.62S7,26.84,6.68,26.84s-.54,1.63-.52,3.62S6.43,34.08,6.74,34.07Z"/><path class="cls-26" d="M8.84,30.32a2.05,2.05,0,1,1-2.18-1.9A2,2,0,0,1,8.84,30.32Z"/><g class="cls-4"><path class="cls-27" d="M6.87,28.43a2,2,0,1,1-2.11,1.95A2,2,0,0,1,6.87,28.43Z"/><path class="cls-28" d="M6.89,28.29a2.19,2.19,0,1,1-2.25,2.09A2.17,2.17,0,0,1,6.89,28.29Z"/></g><g class="cls-7"><path class="cls-29" d="M6.89,28a2.52,2.52,0,1,1-2.58,2.4A2.49,2.49,0,0,1,6.89,28Z"/><path class="cls-30" d="M6.93,27.79a2.7,2.7,0,1,1-2.78,2.58A2.69,2.69,0,0,1,6.93,27.79Z"/></g><path class="cls-31" d="M36.26,40.75c0-.3,1.59-.64,3.59-.77s3.65,0,3.67.32-1.59.65-3.6.77S36.28,41.06,36.26,40.75Z"/><path class="cls-32" d="M39.69,44.09c.31,0,.54-1.63.52-3.62s-.28-3.62-.58-3.61-.54,1.62-.52,3.62S39.39,44.09,39.69,44.09Z"/><path class="cls-33" d="M41.79,40.34a2,2,0,1,1-2.17-1.91A2,2,0,0,1,41.79,40.34Z"/><g class="cls-4"><path class="cls-34" d="M39.82,38.45a2,2,0,1,1-2.1,1.94A2,2,0,0,1,39.82,38.45Z"/><path class="cls-35" d="M39.85,38.3a2.2,2.2,0,1,1-2.26,2.09A2.17,2.17,0,0,1,39.85,38.3Z"/></g><g class="cls-7"><path class="cls-36" d="M39.85,38a2.51,2.51,0,1,1-2.59,2.39A2.5,2.5,0,0,1,39.85,38Z"/><path class="cls-37" d="M39.88,37.81a2.7,2.7,0,1,1-2.77,2.57A2.68,2.68,0,0,1,39.88,37.81Z"/></g><path class="cls-38" d="M0,3.9c0-.3,1.59-.65,3.6-.78s3.65,0,3.67.32-1.6.65-3.6.78S0,4.2,0,3.9Z"/><path class="cls-39" d="M3.44,7.23c.3,0,.53-1.62.52-3.62S3.68,0,3.37,0s-.53,1.62-.52,3.62S3.13,7.23,3.44,7.23Z"/><path class="cls-40" d="M5.54,3.48A2.05,2.05,0,1,1,3.36,1.57,2,2,0,0,1,5.54,3.48Z"/><g class="cls-4"><path class="cls-41" d="M3.56,1.59a2,2,0,0,1-.19,4.09,2,2,0,0,1,.19-4.09Z"/><path class="cls-42" d="M3.59,1.45a2.19,2.19,0,0,1-.21,4.38,2.17,2.17,0,0,1-2-2.29A2.17,2.17,0,0,1,3.59,1.45Z"/></g><g class="cls-7"><path class="cls-43" d="M3.59,1.13A2.48,2.48,0,0,1,5.93,3.76a2.5,2.5,0,0,1-2.58,2.4A2.49,2.49,0,0,1,1,3.53,2.49,2.49,0,0,1,3.59,1.13Z"/><path class="cls-44" d="M3.63,1A2.68,2.68,0,0,1,6.14,3.78,2.67,2.67,0,0,1,3.37,6.35,2.68,2.68,0,0,1,.85,3.52,2.68,2.68,0,0,1,3.63,1Z"/></g><path class="cls-45" d="M335.85,9c0-.42,2.19-.9,5-1.07s5,0,5.06.44-2.2.89-5,1.07S335.87,9.46,335.85,9Z"/><path class="cls-46" d="M340.59,13.64c.42,0,.74-2.24.72-5s-.39-5-.81-5-.74,2.24-.72,5S340.17,13.64,340.59,13.64Z"/><path class="cls-47" d="M343.48,8.46a2.83,2.83,0,1,1-3-2.63A2.8,2.8,0,0,1,343.48,8.46Z"/><g class="cls-4"><path class="cls-48" d="M340.76,5.86a2.82,2.82,0,1,1-2.9,2.68A2.79,2.79,0,0,1,340.76,5.86Z"/><path class="cls-49" d="M340.8,5.66a3,3,0,1,1-3.11,2.88A3,3,0,0,1,340.8,5.66Z"/></g><g class="cls-7"><path class="cls-50" d="M340.8,5.22a3.47,3.47,0,1,1-3.56,3.31A3.44,3.44,0,0,1,340.8,5.22Z"/><path class="cls-51" d="M340.85,5A3.73,3.73,0,1,1,337,8.52,3.68,3.68,0,0,1,340.85,5Z"/></g><path class="cls-52" d="M293.55,14.15c0-.42,2.2-.9,5-1.07s5,0,5.05.44-2.19.89-5,1.07S293.58,14.56,293.55,14.15Z"/><path class="cls-53" d="M298.3,18.75c.42,0,.74-2.24.71-5s-.38-5-.8-5-.74,2.24-.72,5S297.87,18.75,298.3,18.75Z"/><path class="cls-54" d="M301.19,13.57a2.83,2.83,0,1,1-3-2.63A2.81,2.81,0,0,1,301.19,13.57Z"/><g class="cls-4"><path class="cls-55" d="M298.47,11a2.82,2.82,0,1,1-2.9,2.68A2.78,2.78,0,0,1,298.47,11Z"/><path class="cls-56" d="M298.51,10.77a3,3,0,1,1-3.11,2.88A3,3,0,0,1,298.51,10.77Z"/></g><g class="cls-7"><path class="cls-57" d="M298.51,10.33a3.47,3.47,0,1,1-3.57,3.31A3.42,3.42,0,0,1,298.51,10.33Z"/><path class="cls-58" d="M298.56,10.08a3.73,3.73,0,1,1-3.83,3.55A3.69,3.69,0,0,1,298.56,10.08Z"/></g><path class="cls-59" d="M351.28,54.48c0-.23,1.17-.48,2.65-.58s2.7,0,2.71.24-1.17.48-2.65.57S351.29,54.7,351.28,54.48Z"/><path class="cls-60" d="M353.82,56.94c.22,0,.39-1.2.38-2.68s-.21-2.67-.43-2.66-.4,1.2-.39,2.67S353.59,56.94,353.82,56.94Z"/><path class="cls-61" d="M355.37,54.17a1.52,1.52,0,1,1-1.61-1.41A1.51,1.51,0,0,1,355.37,54.17Z"/><g class="cls-4"><path class="cls-62" d="M353.91,52.77a1.51,1.51,0,1,1-1.56,1.44A1.5,1.5,0,0,1,353.91,52.77Z"/><path class="cls-63" d="M353.93,52.66a1.63,1.63,0,1,1-1.67,1.55A1.62,1.62,0,0,1,353.93,52.66Z"/></g><g class="cls-7"><path class="cls-64" d="M353.93,52.43a1.86,1.86,0,0,1-.18,3.71,1.86,1.86,0,0,1,.18-3.71Z"/><path class="cls-65" d="M354,52.3a2,2,0,0,1-.2,4,2,2,0,0,1,.2-4Z"/></g><path class="cls-66" d="M247.53,5.65c0-.22,1.18-.47,2.66-.57s2.7,0,2.71.24-1.18.48-2.66.57S247.55,5.88,247.53,5.65Z"/><path class="cls-67" d="M250.07,8.12c.23,0,.4-1.2.39-2.68s-.21-2.67-.43-2.67-.4,1.2-.39,2.68S249.85,8.12,250.07,8.12Z"/><path class="cls-68" d="M251.62,5.35A1.51,1.51,0,1,1,250,3.94,1.5,1.5,0,0,1,251.62,5.35Z"/><g class="cls-4"><path class="cls-69" d="M250.16,4a1.51,1.51,0,1,1-1.55,1.44A1.5,1.5,0,0,1,250.16,4Z"/><path class="cls-70" d="M250.19,3.84a1.62,1.62,0,1,1-1.67,1.55A1.61,1.61,0,0,1,250.19,3.84Z"/></g><g class="cls-7"><path class="cls-71" d="M250.18,3.61A1.86,1.86,0,0,1,250,7.32a1.83,1.83,0,0,1-1.73-1.94A1.83,1.83,0,0,1,250.18,3.61Z"/><path class="cls-72" d="M250.21,3.48a2,2,0,1,1-2.05,1.9A2,2,0,0,1,250.21,3.48Z"/></g><path class="cls-73" d="M312.63,6.16c0-.22,1.17-.48,2.65-.57s2.7,0,2.72.24-1.18.48-2.66.57S312.64,6.39,312.63,6.16Z"/><path class="cls-74" d="M315.17,8.63c.22,0,.39-1.2.38-2.68s-.2-2.67-.43-2.67-.4,1.2-.38,2.68S314.94,8.63,315.17,8.63Z"/><path class="cls-75" d="M316.72,5.86a1.52,1.52,0,1,1-1.61-1.41A1.5,1.5,0,0,1,316.72,5.86Z"/><g class="cls-4"><path class="cls-76" d="M315.26,4.46a1.51,1.51,0,1,1-1.55,1.44A1.49,1.49,0,0,1,315.26,4.46Z"/><path class="cls-77" d="M315.28,4.35a1.62,1.62,0,1,1-1.66,1.55A1.6,1.6,0,0,1,315.28,4.35Z"/></g><g class="cls-7"><path class="cls-78" d="M315.28,4.12a1.86,1.86,0,1,1-1.91,1.77A1.84,1.84,0,0,1,315.28,4.12Z"/><path class="cls-79" d="M315.31,4a2,2,0,0,1-.2,4,2,2,0,0,1,.2-4Z"/></g><path class="cls-80" d="M321.67,27.41c0-.08.45-.18,1-.22s1,0,1,.1-.45.18-1,.21S321.67,27.5,321.67,27.41Z"/><path class="cls-81" d="M322.64,28.35c.08,0,.15-.45.15-1s-.08-1-.17-1-.15.46-.15,1S322.55,28.35,322.64,28.35Z"/><path class="cls-82" d="M323.23,27.3a.58.58,0,0,1-.54.61.6.6,0,0,1-.62-.54.59.59,0,0,1,.55-.61A.57.57,0,0,1,323.23,27.3Z"/><g class="cls-4"><path class="cls-83" d="M322.67,26.76a.58.58,0,1,1-.59.55A.58.58,0,0,1,322.67,26.76Z"/><path class="cls-84" d="M322.68,26.72a.62.62,0,1,1-.63.59A.62.62,0,0,1,322.68,26.72Z"/></g><g class="cls-7"><path class="cls-85" d="M322.68,26.63a.71.71,0,1,1-.73.68A.72.72,0,0,1,322.68,26.63Z"/><path class="cls-86" d="M322.69,26.58a.76.76,0,0,1,.71.8.75.75,0,1,1-1.49-.07A.76.76,0,0,1,322.69,26.58Z"/></g><path class="cls-87" d="M319.18,43.91c0-.22,1.17-.48,2.66-.57s2.69,0,2.7.23-1.17.48-2.65.57S319.19,44.13,319.18,43.91Z"/><path class="cls-88" d="M321.72,46.37c.22,0,.39-1.2.38-2.67s-.21-2.67-.43-2.67-.4,1.2-.38,2.67S321.49,46.37,321.72,46.37Z"/><path class="cls-89" d="M323.27,43.6a1.52,1.52,0,1,1-1.61-1.41A1.52,1.52,0,0,1,323.27,43.6Z"/><g class="cls-4"><path class="cls-90" d="M321.81,42.2a1.51,1.51,0,1,1-1.55,1.44A1.51,1.51,0,0,1,321.81,42.2Z"/><path class="cls-91" d="M321.83,42.1a1.62,1.62,0,1,1-1.67,1.54A1.62,1.62,0,0,1,321.83,42.1Z"/></g><g class="cls-7"><path class="cls-92" d="M321.83,41.86a1.86,1.86,0,1,1-1.91,1.77A1.85,1.85,0,0,1,321.83,41.86Z"/><path class="cls-93" d="M321.86,41.73a2,2,0,1,1-2.05,1.9A2,2,0,0,1,321.86,41.73Z"/></g><path class="cls-94" d="M275.47,52.15c0-.22,1.17-.48,2.66-.57s2.69,0,2.71.24-1.18.48-2.66.57S275.48,52.38,275.47,52.15Z"/><path class="cls-95" d="M278,54.62c.23,0,.4-1.2.38-2.68s-.2-2.67-.43-2.67-.39,1.2-.38,2.68S277.78,54.62,278,54.62Z"/><path class="cls-96" d="M279.56,51.85A1.51,1.51,0,1,1,278,50.44,1.5,1.5,0,0,1,279.56,51.85Z"/><g class="cls-4"><path class="cls-97" d="M278.1,50.45a1.51,1.51,0,1,1-1.55,1.44A1.5,1.5,0,0,1,278.1,50.45Z"/><path class="cls-98" d="M278.12,50.34a1.62,1.62,0,1,1-1.66,1.55A1.61,1.61,0,0,1,278.12,50.34Z"/></g><g class="cls-7"><path class="cls-99" d="M278.12,50.11a1.86,1.86,0,1,1-1.91,1.77A1.84,1.84,0,0,1,278.12,50.11Z"/><path class="cls-100" d="M278.15,50a2,2,0,1,1-2,1.9A2,2,0,0,1,278.15,50Z"/></g><g class="cls-101"><g class="cls-4"><path class="cls-102" d="M271.34,16.35a2.37,2.37,0,1,1-2.46,2.24A2.35,2.35,0,0,1,271.34,16.35Z"/><path class="cls-103" d="M271.38,16.18a2.55,2.55,0,1,1-2.64,2.41A2.53,2.53,0,0,1,271.38,16.18Z"/></g><path class="cls-104" d="M267.18,19c0-.35,1.85-.73,4.19-.86s4.24.06,4.26.41-1.86.74-4.2.86S267.2,19.34,267.18,19Z"/><path class="cls-105" d="M271.13,22.9c.36,0,.65-1.88.65-4.2s-.28-4.2-.64-4.2-.64,1.88-.64,4.2S270.78,22.9,271.13,22.9Z"/><path class="cls-106" d="M273.61,18.57a2.38,2.38,0,1,1-2.5-2.24A2.37,2.37,0,0,1,273.61,18.57Z"/></g><path class="cls-107" d="M160.18,14.61c0-.5,2.65-1.08,6-1.29s6.07,0,6.11.53-2.66,1.08-6,1.29S160.21,15.11,160.18,14.61Z"/><path class="cls-108" d="M165.9,20.16c.51,0,.9-2.7.87-6s-.47-6-1-6-.9,2.71-.87,6S165.4,20.17,165.9,20.16Z"/><path class="cls-109" d="M169.4,13.92a3.42,3.42,0,1,1-3.63-3.18A3.42,3.42,0,0,1,169.4,13.92Z"/><g class="cls-4"><path class="cls-110" d="M166.11,10.77a3.4,3.4,0,1,1-3.5,3.24A3.37,3.37,0,0,1,166.11,10.77Z"/><path class="cls-111" d="M166.16,10.53A3.65,3.65,0,1,1,162.41,14,3.61,3.61,0,0,1,166.16,10.53Z"/></g><g class="cls-7"><path class="cls-112" d="M166.15,10a4.19,4.19,0,1,1-4.3,4A4.15,4.15,0,0,1,166.15,10Z"/><path class="cls-113" d="M166.22,9.71A4.5,4.5,0,1,1,161.6,14,4.44,4.44,0,0,1,166.22,9.71Z"/></g><path class="cls-114" d="M104.63,4.36c0-.27,1.42-.58,3.21-.69s3.25,0,3.27.28-1.42.58-3.21.69S104.65,4.63,104.63,4.36Z"/><path class="cls-115" d="M107.7,7.33c.27,0,.47-1.45.46-3.23s-.25-3.22-.52-3.22-.48,1.45-.47,3.23S107.43,7.34,107.7,7.33Z"/><path class="cls-116" d="M109.57,4a1.83,1.83,0,0,1-3.65.22A1.83,1.83,0,0,1,109.57,4Z"/><g class="cls-4"><path class="cls-117" d="M107.81,2.3a1.8,1.8,0,0,1,1.69,1.91,1.79,1.79,0,1,1-1.69-1.91Z"/><path class="cls-118" d="M107.83,2.17a2,2,0,1,1-2,1.87A1.95,1.95,0,0,1,107.83,2.17Z"/></g><g class="cls-7"><path class="cls-119" d="M107.83,1.89a2.23,2.23,0,0,1,2.09,2.35A2.2,2.2,0,1,1,105.53,4,2.22,2.22,0,0,1,107.83,1.89Z"/><path class="cls-120" d="M107.87,1.73a2.41,2.41,0,0,1-.24,4.82,2.41,2.41,0,0,1,.24-4.82Z"/></g><path class="cls-121" d="M183.2,5c0-.27,1.42-.57,3.21-.69s3.25,0,3.27.29-1.42.58-3.21.69S183.22,5.24,183.2,5Z"/><path class="cls-122" d="M186.27,8c.27,0,.47-1.45.46-3.23s-.25-3.22-.52-3.22-.48,1.45-.46,3.23S186,8,186.27,8Z"/><path class="cls-123" d="M188.14,4.6a1.83,1.83,0,1,1-1.94-1.7A1.82,1.82,0,0,1,188.14,4.6Z"/><g class="cls-4"><path class="cls-124" d="M186.38,2.92a1.8,1.8,0,0,1,1.69,1.9,1.79,1.79,0,0,1-1.87,1.74,1.82,1.82,0,0,1,.18-3.64Z"/><path class="cls-125" d="M186.41,2.79a2,2,0,1,1-2,1.86A1.95,1.95,0,0,1,186.41,2.79Z"/></g><g class="cls-7"><path class="cls-126" d="M186.4,2.51a2.21,2.21,0,0,1,2.09,2.34,2.2,2.2,0,1,1-4.39-.21A2.21,2.21,0,0,1,186.4,2.51Z"/><path class="cls-127" d="M186.44,2.35A2.41,2.41,0,1,1,184,4.64,2.39,2.39,0,0,1,186.44,2.35Z"/></g><path class="cls-128" d="M194.11,30.62c0-.1.55-.22,1.23-.26s1.24,0,1.25.11-.55.22-1.23.26S194.12,30.73,194.11,30.62Z"/><path class="cls-129" d="M195.28,31.76c.11,0,.19-.55.18-1.23s-.09-1.23-.2-1.23-.18.55-.17,1.23S195.18,31.76,195.28,31.76Z"/><path class="cls-130" d="M196,30.48a.7.7,0,0,1-1.4.09.72.72,0,0,1,.66-.74A.7.7,0,0,1,196,30.48Z"/><g class="cls-4"><path class="cls-131" d="M195.33,29.84a.7.7,0,1,1-.72.66A.69.69,0,0,1,195.33,29.84Z"/><path class="cls-132" d="M195.34,29.79a.75.75,0,1,1-.77.71A.74.74,0,0,1,195.34,29.79Z"/></g><g class="cls-7"><path class="cls-133" d="M195.34,29.68a.86.86,0,1,1-.88.82A.85.85,0,0,1,195.34,29.68Z"/><path class="cls-134" d="M195.35,29.62a.89.89,0,0,1,.85,1,.9.9,0,1,1-.85-1Z"/></g></g></g></svg>